<svg xmlns="http://www.w3.org/2000/svg" width="200" height="200" viewBox="0 0 200 200" fill="none"><path d="M199.991 175.976C199.991 190.56 197.523 192.785 182.961 194.021C174.323 194.762 165.932 195.751 157.294 196.493C140.264 197.976 138.783 196.74 138.783 179.684C138.783 154.718 138.783 129.752 138.783 104.787C137.796 104.292 136.809 103.798 135.822 103.551C127.43 113.438 119.039 123.326 107.933 136.179C98.5541 124.561 89.6691 113.932 81.031 103.303C79.7969 104.045 78.3161 104.787 77.0821 105.528V173.752C77.0821 197.729 77.0821 197.976 52.6484 196.493C43.2699 195.998 33.8913 194.762 24.5127 194.762C13.6533 194.762 10.6917 189.572 10.6917 179.19C11.1853 143.842 10.9385 108.494 10.9385 72.1579C-1.89537 69.686 -1.15495 61.2817 1.8067 51.147C4.52155 41.7539 6.74279 32.1136 8.22362 22.4733C9.95125 11.3499 15.1341 5.66464 26.9808 6.15902C33.3977 6.4062 40.0614 5.91183 46.4783 4.42871C66.2227 -0.267838 80.7841 6.90058 92.8776 21.7318C97.8137 27.6643 102.75 33.5967 108.673 40.7652C116.077 31.8664 123.235 24.4508 128.911 16.2937C136.068 6.4062 144.707 2.94559 156.553 4.6759C165.932 6.15902 175.31 6.90058 184.689 7.14776C195.548 7.39495 200.238 12.3387 199.991 23.2149C199.497 46.6976 199.497 69.9332 199.497 93.4159C199.744 120.854 199.991 148.539 199.991 175.976Z" fill="#d9d9d9"/></svg>