<svg xmlns="http://www.w3.org/2000/svg" data-name="glyph" viewBox="0 0 64 80" x="0px" y="0px"><title>1</title><path d="M49.29444,24.73533,32.78023,4.37009a1.00749,1.00749,0,0,0-1.56046,0L14.70556,24.73533a11.6585,11.6585,0,0,0,.88023,15.734,11.32979,11.32979,0,0,1,3.34083,8.00206v2.29063A3.5731,3.5731,0,0,0,22.49755,54.333h8.15213V50.01187H28.019a2.98185,2.98185,0,0,1-2.98081-2.98081v-6.6117a.997.997,0,0,1,.43011-.82021l5.53145-3.791V34.0277c-.68017-.76014-3.911-3.71092-7.35187-3.3208a2.51542,2.51542,0,0,0-2.19057,2.30058c-.251,1.5963,1.75941,3.485,3.23087,2.44071a1.19762,1.19762,0,0,0,.40007-.83031.98219.98219,0,0,1,1.05026-.94024c1.6995.2687.77421,2.55479-.13,3.27078-2.7523,2.35347-7.02967-.81114-6.54161-4.121,1.01746-6.45015,8.7193-4.055,11.5328-1.51024l.00007-6.47183c-.55013-.57015-2.46065-2.18055-4.40116-1.96047a1.3051,1.3051,0,0,0,.09012,2.59063c.28577-.00486.40326-.12347.4601-.4a.99655.99655,0,0,1,1.99047.1c-.15765,2.59259-3.42538,2.97161-4.87124,1.16013a3.32376,3.32376,0,0,1,2.0906-5.43125,6.9695,6.9695,0,0,1,4.64111,1.34033V17.60348A4.07473,4.07473,0,0,0,28.129,16.36317a.65911.65911,0,0,0-.40012,1.08031.6223.6223,0,0,0,.45012.23A1.00167,1.00167,0,0,1,28.119,19.674a2.66455,2.66455,0,0,1-.21991-5.30135,5.13685,5.13685,0,0,1,3.10069.75019V10.30161a1.00036,1.00036,0,0,1,2.00051,0v4.8212a5.10342,5.10342,0,0,1,3.10077-.75019,2.68447,2.68447,0,0,1,1.69036,4.38117c-.65919.85913-2.68371,1.5287-2.9107-.01008a1.01358,1.01358,0,0,1,.9403-1.07025.66121.66121,0,0,0,.05-1.31033,4.09642,4.09642,0,0,0-2.87069,1.2403v4.65123a6.99008,6.99008,0,0,1,4.64121-1.35039,3.32381,3.32381,0,0,1,2.0904,5.43144c-1.44668,1.81038-4.71177,1.43246-4.87115-1.16041a.99655.99655,0,0,1,1.99051-.09986.47.47,0,0,0,.15006.3c.72686.41055,1.65427-.54714,1.52037-1.3103-.57349-2.87383-5.10515.12017-5.52132.78019L33.00026,31.317c2.81976-2.57312,10.52611-4.91669,11.53308,1.51051A4.55368,4.55368,0,0,1,40.102,37.75866a3.23442,3.23442,0,0,1-3.19076-3.03078,1.00177,1.00177,0,0,1,2.0005-.11,1.19714,1.19714,0,0,0,.40012.83023c1.46753,1.04922,3.48191-.84683,3.23075-2.44057a2.51529,2.51529,0,0,0-2.1905-2.30064c-3.46085-.39012-6.6717,2.56066-7.35187,3.3208v1.78049l5.53145,3.791a.997.997,0,0,1,.43011.82021v6.6117A2.98185,2.98185,0,0,1,35.981,50.01187H32.65019V54.333h8.85226a3.5731,3.5731,0,0,0,3.57093-3.57093V48.47143a11.32979,11.32979,0,0,1,3.34083-8.00206A11.6585,11.6585,0,0,0,49.29444,24.73533ZM23.51783,49.79178l.32009-.4701.22.5201.47015.32009L24.008,50.382l-.32009.47009-.22009-.52009-.47009-.32009Zm-1.92054-8.23211.32009-.47015.22009.52015.47009.32009-.52009.22009-.32009.47009-.22009-.52015-.47009-.32009Zm-4.86124-6.91175L16.416,35.118l-.22-.52015-.47016-.32009.52016-.22.32009-.47015.22.52015.47016.32009Zm3.05078-7.87209-.32009.47015-.22-.52015-.47009-.32009.52009-.22.32009-.47015.22009.52015.47009.32009ZM24.308,20.19418l-.32009.47009-.22-.52009-.47016-.32009.52016-.22009.32009-.47009.22.52009.47016.32009Zm15.92409-.05-.22.52009-.32009-.47009-.52016-.22009L39.642,19.654l.22-.52009.32009.47009.52016.22009ZM40.53223,50.332l-.22009.52009-.32009-.47009-.52015-.22009.47015-.32009.22-.5201.32009.4701.52015.22009Zm1.92048-8.23217-.22009.52015-.32009-.47009-.52009-.22009.47009-.32009.22009-.52015.32009.47015.52009.22Zm2.30058-15.374-.22.52015-.32009-.47015-.52015-.22.47009-.32009.22009-.52015.32009.47015.52009.22Zm3.05077,7.872-.22.52015-.32009-.47009-.52016-.22009.47016-.32009.22-.52015.32009.47015.52016.22Z"/><path d="M30.64968,59.01419a1.00036,1.00036,0,0,0,2.00051-.00005V54.333H30.64968Z"/><path d="M36.9613,47.03106V40.94953L32,37.53862l-4.9613,3.41091v6.08153a.98186.98186,0,0,0,.98029.98029h7.962A.98186.98186,0,0,0,36.9613,47.03106ZM32,46.16084a.94034.94034,0,0,1,0-1.88049A.94034.94034,0,0,1,32,46.16084ZM32,42.79a.94034.94034,0,0,1,0-1.88049A.94034.94034,0,0,1,32,42.79Z"/></svg>