<?xml version="1.0" encoding="utf-8"?>
<svg xmlns="http://www.w3.org/2000/svg" fill="none" height="10" viewBox="0 0 55 10" width="55">
<path clip-rule="evenodd" d="M15.5124 0H15.9606V9.61885H15.5124V0ZM23.2107 0H23.6589V9.61885H23.2107V0ZM30.941 0H31.3731V9.61885H30.941V0ZM54.0519 0H54.5V9.61885H54.0519V0ZM46.3696 0H46.8177V9.61885H46.3696V0ZM38.6233 0H39.0714V9.61885H38.6233V0ZM8.16627 0H0.5V9.61885H8.16627V0ZM4.29332 7.02615C4.54939 7.02615 4.75746 6.94612 4.88549 6.80208C5.01353 6.64203 5.07755 6.43397 5.09356 6.14589C5.09356 5.8418 5.04554 5.60173 4.93351 5.44168C4.82148 5.28163 4.62942 5.20161 4.38935 5.20161H3.41306V7.02615H4.29332ZM4.03724 2.60884H3.41306V4.32135H4.10126C4.35734 4.32135 4.5654 4.24132 4.69344 4.09728C4.82148 3.95324 4.88549 3.74518 4.88549 3.47309C4.88549 3.18501 4.82148 2.96094 4.67743 2.8169C4.53339 2.67286 4.32533 2.60884 4.03724 2.60884ZM5.41365 4.70546C5.74975 4.78548 6.00583 4.94553 6.16587 5.21761C6.32592 5.48969 6.42195 5.79378 6.42195 6.16189C6.42195 6.77007 6.2459 7.23421 5.89379 7.5543C5.54169 7.8744 5.04554 8.03445 4.38935 8.03445H2.24471V1.61654H4.11727C4.78947 1.61654 5.30162 1.76059 5.66973 2.04867C6.03784 2.33676 6.22989 2.78489 6.22989 3.36106C6.22989 3.66515 6.16587 3.93723 6.03784 4.1773C5.89379 4.41737 5.68573 4.57742 5.41365 4.70546Z" fill="#D3DCE1" fill-rule="evenodd"/>
<path clip-rule="evenodd" d="M52.4997 7.12218V4.78549H50.4991V5.44168H51.6035V6.89811C51.5234 7.05816 51.3954 7.1862 51.2193 7.29823C51.0433 7.41027 50.8032 7.44227 50.4991 7.44227C50.083 7.44227 49.7629 7.29823 49.5068 7.01015C49.2668 6.72206 49.1387 6.30594 49.1387 5.76178V3.85721C49.1387 3.32906 49.2508 2.91293 49.4748 2.62485C49.6989 2.35277 50.003 2.20872 50.4031 2.20872C50.7872 2.20872 51.0753 2.32076 51.2834 2.52882C51.4754 2.73688 51.5875 3.04097 51.6035 3.45709H52.4517L52.4677 3.42509C52.4357 2.83291 52.2597 2.36877 51.9236 2.03267C51.5714 1.69657 51.0753 1.53653 50.4191 1.53653C49.7789 1.53653 49.2508 1.72858 48.8666 2.14471C48.4825 2.56083 48.2745 3.137 48.2745 3.87322V5.77778C48.2745 6.53 48.4825 7.10617 48.8987 7.5223C49.3148 7.93842 49.8589 8.13048 50.5311 8.13048C51.0433 8.13048 51.4754 8.03445 51.7955 7.82639C52.1156 7.60232 52.3557 7.37826 52.4997 7.12218ZM44.8334 1.61655H43.9532V6.35395L43.9212 6.36996L41.4885 1.61655H40.5922V8.01845H41.4885V3.24903H41.5205L43.9532 8.01845H44.8334V1.61655ZM36.479 2.49681V1.61655H33.4701V2.49681H34.5264V7.13819H33.4701V8.01845H34.5264H35.4067H36.463V7.13819H35.4067V2.49681H36.479ZM24.6355 1.61655V8.01845H25.5157V5.55372L25.4357 3.08899H25.4517L26.9882 8.01845H27.5803L29.1168 3.08899L29.1488 3.10499L29.0688 5.56972V8.01845H29.949V1.61655H28.7967L27.2923 6.8501H27.2602L25.7878 1.61655H24.6355ZM18.7777 5.69776L19.578 2.89693H19.61L20.4102 5.69776H18.7777ZM20.0261 1.61655H19.1779L17.1933 8.01845H18.1055L18.5697 6.40197H20.6183L21.0824 8.01845H21.9787L20.0261 1.61655ZM13.8963 7.10618C13.7522 7.36225 13.5122 7.60232 13.1761 7.79438C12.84 8.00244 12.4238 8.11448 11.9117 8.11448C11.2395 8.11448 10.6953 7.90641 10.2792 7.49029C9.86309 7.09017 9.65503 6.498 9.65503 5.74577V3.85721C9.65503 3.12099 9.84709 2.52882 10.2472 2.1287C10.6313 1.71258 11.1435 1.50452 11.7997 1.50452C12.4559 1.50452 12.952 1.68057 13.3041 2.00066C13.6562 2.33676 13.8323 2.8009 13.8643 3.39308L13.8483 3.42509H13C12.984 3.02497 12.872 2.72088 12.6799 2.51281C12.4879 2.28875 12.1998 2.19272 11.7997 2.19272C11.4156 2.19272 11.1115 2.33676 10.8714 2.62485C10.6473 2.89693 10.5353 3.31305 10.5353 3.85721V5.76178C10.5353 6.30594 10.6473 6.72206 10.9034 7.01015C11.1435 7.29823 11.4796 7.44227 11.8957 7.44227C12.1998 7.44227 12.4399 7.37826 12.6159 7.28223C12.776 7.17019 12.904 7.04216 12.984 6.88211V5.42568H11.8957V4.78549H13.8963V7.10618Z" fill="#D3DCE1" fill-rule="evenodd"/>
</svg>