<svg fill="none" height="50" viewBox="0 0 140 50" width="140" xmlns="http://www.w3.org/2000/svg" xmlns:xlink="http://www.w3.org/1999/xlink"><linearGradient id="a" gradientUnits="userSpaceOnUse" x1="-1.94021" x2="139.418" y1="26.1148" y2="26.1148"><stop offset="0" stop-color="#68f28b"/><stop offset="1" stop-color="#00ffde"/></linearGradient><path d="m77.9133 21.4607-.5544-.6132c-1.4413-1.5049-3.1874-2.2573-5.2385-2.2573s-3.8065.7524-5.2663 2.2573c-.1848.1858-.3511.3902-.4989.6132-.9239 1.1519-1.4598 2.471-1.6076 3.9573-.037.2973-.0555.5946-.0555.8918 0 1.858.5544 3.4744 1.6631 4.8492.1478.2044.3141.3995.4989.5853 1.4598 1.5235 3.2152 2.2852 5.2663 2.2852s3.7972-.7617 5.2385-2.2852c.1848-.1858.3696-.3809.5544-.5853 1.0902-1.3748 1.6353-2.9912 1.6353-4.8492 0-.2972-.0092-.5945-.0277-.8918-.1663-1.4863-.7022-2.8054-1.6076-3.9573zm-9.313 4.8491c0-.3158.0185-.6131.0554-.8918.1294-.9103.4527-1.7093.9701-2.3967.6837-.9104 1.5152-1.3656 2.4946-1.3656.9793 0 1.8108.4552 2.4945 1.3656.5359.6874.8685 1.4864.9978 2.3967.037.2787.0555.576.0555.8918 0 1.282-.3511 2.3689-1.0533 3.2607-.6837.9104-1.5152 1.3656-2.4945 1.3656-.9794 0-1.8109-.4552-2.4946-1.3656-.6837-.8918-1.0255-1.9787-1.0255-3.2607zm22.1184 0c0-.2972-.0093-.5945-.0277-.8918-.1848-1.765-.887-3.2885-2.1066-4.5705-1.3673-1.4677-3.0211-2.2202-4.9614-2.2573h-.1385c-.4435.0185-.8223.1765-1.1364.4737-.3142.3345-.4712.7339-.4712 1.1984s.157.8546.4712 1.1705c.2402.2415.5266.3994.8592.4738.1109-.0186.2217-.0279.3326-.0279s.231.0093.3603.0279c.7761.0929 1.4506.5109 2.0234 1.2541.5174.6502.8407 1.4027.9701 2.2573.0369.2787.0554.5667.0554.864 0 1.2076-.3418 2.2388-1.0255 3.0934-.5913.7989-1.3027 1.2355-2.1343 1.3098h-.4989c-.351.0558-.6652.2137-.9423.4738-.2218.2415-.3696.5202-.4435.8361-.0185.1115-.0277.2229-.0277.3344v.0279c0 .1115.0092.2229.0277.3344.0554.3159.2032.5945.4435.8361.3141.3158.6929.483 1.1364.5016h.1385c1.9403-.0372 3.5941-.7989 4.9614-2.2852 1.4229-1.4864 2.1343-3.2978 2.1343-5.4345zm14.1083-6.2426c-.444-.4459-.924-.7896-1.442-1.0311-.702-.3345-1.469-.5017-2.3-.5017-1.4783 0-2.7348.511-3.7696 1.5328-.1294.1301-.2495.2601-.3603.3902-.0185-.4831-.2125-.9011-.5821-1.2541s-.8038-.5295-1.3027-.5295c-.5174 0-.9701.1765-1.3582.5295-.3326.3716-.4989.8175-.4989 1.3377v11.5934c0 .5202.1663.9569.4989 1.3099.3881.3715.8408.5573 1.3582.5573.4989 0 .9331-.1858 1.3027-.5573.388-.353.5821-.7897.5821-1.3099v-7.859c.0184-.7617.2956-1.4027.8315-1.9229.5358-.5574 1.2011-.8361 1.9956-.8361.7948 0 1.4598.2787 1.9958.8361.351.3158.6.6874.748 1.1147l.111.3902c.019.13.028.2694.028.418v7.859c0 .5202.166.9569.499 1.3099.388.3715.84.5573 1.358.5573.499 0 .933-.1858 1.303-.5573.388-.353.582-.7897.582-1.3099v-8.4442c-.019-1.4121-.545-2.6197-1.58-3.623zm18.404.4738c0-.5202-.194-.9661-.582-1.3377-.37-.353-.804-.5295-1.303-.5295-.517 0-.97.1765-1.358.5295-.332.3716-.499.8175-.499 1.3377v.0279c-1.219-1.3378-2.688-2.0066-4.407-2.0066-1.792 0-3.326.7432-4.601 2.2295-.813.9661-1.367 2.0623-1.663 3.2885-.111.4274-.185.8733-.222 1.3377-.018.2601-.027.5295-.027.8082 0 .2973.018.5946.055.8918.074.8918.277 1.7186.61 2.4804.295.7431.711 1.4213 1.247 2.0344.444.5202.915.9568 1.414 1.3098.961.6317 2.023.9476 3.187.9476 1.7 0 3.151-.6503 4.352-1.9509.018-.0371.037-.065.055-.0836v2.2295c-.166.5946-.499 1.1148-.998 1.5607-.757.7246-1.672 1.0869-2.744 1.0869-1.053 0-1.958-.3623-2.716-1.0869-.166-.1486-.305-.2973-.416-.4459l-.027-.0279c0-.0185-.037-.0836-.111-.1951-.093-.1114-.213-.2508-.361-.418-.166-.1486-.304-.2694-.415-.3623-.111-.1115-.351-.1672-.721-.1672-.462 0-.859.1579-1.192.4738-.222.2415-.369.5202-.443.836v.0279c-.019.1115-.028.223-.028.3344 0 .0929.009.1765.028.2509 0 .0557.027.1672.083.3344.037.1672.083.2787.138.3344.037.0743.111.1765.222.3066.222.2972.481.5759.776.836 1.46 1.3749 3.215 2.0623 5.267 2.0623 2.051 0 3.797-.6874 5.238-2.0623.942-.8546 1.58-1.8393 1.913-2.9541.129-.4273.212-.8639.249-1.3098zm-9.285 2.1738.055-.0558c.591-.706 1.284-1.059 2.079-1.059.942 0 1.728.4552 2.356 1.3656.517.706.841 1.5235.97 2.4524.019.2601.028.5295.028.8082v.4738c-.074 1.0776-.407 1.9973-.998 2.759-.166.2415-.333.4459-.499.6131-.536.5017-1.155.7525-1.857.7525-.776 0-1.451-.3344-2.023-1.0033-.111-.1115-.213-.2322-.305-.3623-.61-.8175-.933-1.8207-.97-3.0098v-.223c0-.2787.018-.5481.055-.8082.111-.9289.416-1.7464.915-2.4524.055-.0929.12-.1765.194-.2508zm23.864-1.8951c-.499-.5388-1.044-.9754-1.635-1.3099-1.072-.6317-2.273-.9475-3.603-.9475-2.051 0-3.807.7525-5.267 2.2574-1.238 1.3005-1.94 2.8333-2.106 4.5983-.037.2787-.055.5667-.055.864 0 2.1366.72 3.9481 2.161 5.4344 1.46 1.5235 3.216 2.2852 5.267 2.2852 1.33 0 2.531-.3158 3.603-.9475.591-.353 1.136-.7989 1.635-1.3377 1.46-1.4863 2.19-3.2978 2.19-5.4344 0-.2973-.009-.5853-.028-.864-.184-1.765-.905-3.2978-2.162-4.5983zm-1.746 4.5983c.037.2787.056.5667.056.864 0 1.2819-.352 2.3688-1.054 3.2606-.683.9104-1.515 1.3656-2.494 1.3656-.98 0-1.811-.4552-2.495-1.3656-.683-.8918-1.025-1.9787-1.025-3.2606 0-.2973.018-.5853.055-.864.129-.9103.453-1.7186.97-2.4246.684-.9103 1.515-1.3655 2.495-1.3655.979 0 1.811.4552 2.494 1.3655.536.706.869 1.5143.998 2.4246zm-125.3097.8082c-.0924 0-.1755.0093-.2494.0279-.3511.0372-.66526.1858-.94244.4459-.31413.3344-.47119.7339-.47119 1.1984 0 .4644.15706.8546.47119 1.1705.27718.2786.60054.4459.97014.5016h.2217c.462 0 .85-.1672 1.1641-.5016.3326-.3159.4989-.7061.4989-1.1705 0-.4645-.1663-.864-.4989-1.1984-.3141-.3158-.7021-.4738-1.1641-.4738zm8.9804-1.9508c-.2587-.4273-.5728-.8268-.9424-1.1983-1.275-1.3192-2.8179-1.9787-4.6288-1.9787-1.0532 0-2.0141.2229-2.8826.6688v-5.4344c0-.4459-.1663-.8268-.4989-1.1426-.3141-.2973-.6837-.4459-1.10866-.4459-.44348 0-.83152.1486-1.16413.4459-.27717.3158-.41576.6967-.41576 1.1426v6.3262l.02771.1672c.01848.353.16631.6689.44349.9476.07391.0743.15705.1486.24944.2229.20326.1487.44349.2415.72066.2787h.13859c1.60756-.0929 3.19676-.0929 4.76736 0 .6467.1486 1.2196.4831 1.7185 1.0033l.1386.1393c.6097.6875.9146 1.5049.9146 2.4525 0 1.0218-.3511 1.8765-1.0532 2.5639-.3696.3902-.7669.6689-1.1919.8361l-5.26625.2229c-.35109 0-.65597.0837-.91467.2509l-.22173.1672c-.31413.3344-.4712.7246-.4712 1.1705 0 .4273.15707.7989.4712 1.1147.31413.3344.69292.5017 1.1364.5017l-.27717-.0279c2.66082.0557 4.21302.0836 4.65652.0836 1.8663-.0557 3.4369-.7525 4.7119-2.0902.1848-.1858.3511-.3716.4989-.5573.1479-.1858.2864-.3809.4158-.5853 0-.0186.0092-.0279.0277-.0279.6467-1.059.9701-2.2666.9701-3.6229 0-.8732-.1386-1.6907-.4157-2.4525-.1479-.3901-.3327-.771-.5544-1.1426zm30.3781-3.5393c-1.275-1.4864-2.8086-2.2295-4.601-2.2295-1.7185 0-3.1875.6688-4.4071 2.0065v-5.3229c0-.5203-.194-.9662-.582-1.3377-.3696-.353-.8038-.5295-1.3027-.5295-.5174 0-.9701.1765-1.3582.5295-.3326.3715-.4989.8174-.4989 1.3377v16.9442c0 .5202.1663.9569.4989 1.3099.3881.3715.8408.5573 1.3582.5573.4989 0 .9331-.1858 1.3027-.5573.388-.353.582-.7897.582-1.3099v-.3344c1.2196 1.3563 2.6886 2.0344 4.4071 2.0344 1.7924 0 3.326-.7524 4.601-2.2573 1.275-1.4864 1.9125-3.2886 1.9125-5.4066 0-.2601-.0092-.5109-.0277-.7525-.1293-1.8022-.7576-3.3628-1.8848-4.6819zm-3.2706 2.1737c.5174.706.8315 1.5421.9424 2.5082.0185.2416.0277.4924.0277.7525 0 1.282-.3234 2.3596-.9701 3.2328-.6467.9104-1.4228 1.3656-2.3282 1.3656-.9424 0-1.7278-.4552-2.356-1.3656-.6652-.8732-.9978-1.9508-.9978-3.2328 0-.2601.0184-.5109.0554-.7525.0924-.9661.4065-1.8022.9424-2.5082.6282-.9103 1.4136-1.3655 2.356-1.3655.9054 0 1.6815.4552 2.3282 1.3655zm13.9418-4.3196h-.1663c-1.9402.0371-3.594.7896-4.9614 2.2573-1.2196 1.282-1.9125 2.8055-2.0788 4.5705-.0369.2973-.0554.5946-.0554.8918 0 2.1367.7114 3.9481 2.1342 5.4345 1.3674 1.4863 3.0212 2.248 4.9614 2.2852h.1663c.425-.0186.7946-.1858 1.1087-.5016.2402-.2416.388-.5202.4435-.8361.0184-.1115.0277-.2229.0277-.3344v-.0279c0-.1115-.0093-.2229-.0277-.3344-.0739-.3159-.2218-.5946-.4435-.8361-.2772-.2601-.5913-.418-.9424-.4738h-.4989c-.2402-.0371-.462-.0836-.6652-.1393-.5544-.2044-1.044-.5945-1.469-1.1705-.6837-.8546-1.0256-1.8858-1.0256-3.0934 0-.2973.0185-.5853.0555-.864.1293-.8546.4527-1.6071.9701-2.2573.5728-.7432 1.2565-1.1612 2.051-1.2541.0924.0185.2033.0278.3327.0278.1293 0 .2494-.0093.3603-.0278.3141-.0744.5913-.2323.8315-.4738.3141-.3159.4712-.706.4712-1.1705s-.1571-.8639-.4712-1.1984c-.3141-.2972-.6837-.4552-1.1087-.4737zm-46.9254-10.56233c-.3326-.01858-.6744-.02787-1.0255-.02787-2.6978 0-5.16466.55738-7.40052 1.67213-1.62608.79887-3.14128 1.89507-4.545624 3.28857l-.221734.2229-.388049.4459c-.1847821.2601-.277173.5667-.277173.9197 0 .4645.157068.8546.471197 1.1705.332608.3344.729883.5016 1.191843.5016.31413 0 .5913-.0743.83152-.2229.20326-.2416.425-.4831.66522-.7246.72065-.7246 1.47824-1.347 2.2728-1.8672 2.18043-1.4306 4.64722-2.1459 7.40052-2.1459.3511 0 .6929.0092 1.0255.0278 3.3261.223 6.1995 1.5514 8.6201 3.9853 2.6794 2.694 4.019 5.936 4.019 9.7262v.418c-.0554 2.2667-.6098 4.3383-1.663 6.2148-.6098 1.0962-1.3951 2.118-2.356 3.0656-2.6608 2.6939-5.8761 4.0409-9.6456 4.0409-3.7326 0-6.92008-1.3098-9.56246-3.9295l-.11086-.1114c-.22174-.223-.43425-.4459-.63751-.6689-.22174-.13-.48043-.1951-.77608-.1951-.46196 0-.859237.1579-1.191844.4738-.31413.3344-.4711975.7339-.4711975 1.1984 0 .3715.1016405.6967.3049005.9754.073913.0929.166303.1858.277173.2787.073912.0929.147822.1765.221734.2508 3.307594 3.3257 7.289644 4.9885 11.946144 4.9885 4.675 0 8.657-1.6628 11.9461-4.9885 1.5892-1.5978 2.7995-3.3536 3.631-5.2672.8315-1.9694 1.275-4.0782 1.3304-6.3263v-.418c0-2.4153-.4434-4.6541-1.3304-6.7164-.8315-1.9322-2.0418-3.7066-3.631-5.3229-3.0489-3.06562-6.6891-4.70988-10.9206-4.93283z" fill="url(#a)"/></svg>