<svg fill="none" height="50" viewBox="0 0 140 50" width="140" xmlns="http://www.w3.org/2000/svg"><g fill="#249aff"><path d="m30.642 42.989c-.6564-.0317-1.2756-.1757-1.8205-.5575-.2445-.1715-.5863-.3386-.3232-.729.2603-.3833.5005-.0764.7151.072.7093.4942 1.4601.6699 2.291.3544.4247-.1628.6392-.4754.6549-.9307.0158-.4509-.2431-.7218-.622-.8658-.6879-.2608-1.3958-.4683-2.0823-.7348-.6077-.2348-.971-.693-.971-1.3672 0-.6541.3304-1.1324.8824-1.4595.9024-.5359 2.3725-.4019 3.1619.2795.1702.147.3389.2738.1344.5259-.1659.2046-.3117.2305-.5434.0835-.5306-.3342-1.1012-.5734-1.7519-.4826-.5048.0692-.9395.2723-1.0282.8313-.0915.572.3261.7996.7737.9581.5592.1973 1.1369.3486 1.6861.5705.868.3515 1.2827.9897 1.1941 1.7432-.1044.8803-.7151 1.4868-1.6446 1.6266-.2346.0346-.4705.0533-.7065.0792z"/><path d="m109.245 36.4352c.657.0461 1.244.2075 1.755.5951.163.1239.39.2348.202.5114-.165.2392-.328.2781-.592.1095-.508-.3242-1.06-.5504-1.684-.4754-.532.0634-.994.2607-1.075.8615-.077.5748.357.7852.799.9422.582.2075 1.182.366 1.752.5994.752.3083 1.143.9047 1.114 1.5876-.033.7881-.537 1.471-1.331 1.6727-.975.2463-1.936.1858-2.809-.3847-.243-.1585-.612-.3054-.383-.7103.257-.4567.525-.1109.756.0461.667.4553 1.372.634 2.16.3804.453-.1455.732-.4322.762-.9249.032-.5158-.27-.7939-.711-.9466-.539-.1844-1.094-.3256-1.627-.5287-1.007-.3833-1.42-.9322-1.333-1.7073.09-.7967.767-1.4335 1.703-1.5919.186-.0317.379-.0274.542-.0375z"/><path d="m59.5927 38.9809c0 .5734.0201 1.1483-.0043 1.7202-.0615 1.4191-.9839 2.2648-2.4769 2.298-1.4515.0317-2.3711-.7622-2.5598-2.1366-.1702-1.2404-.0715-2.4809-.0973-3.7213-.0057-.2709.02-.5432.3919-.5576.4161-.0158.4447.2694.4447.5748.0029 1.1238-.0286 2.2475.0172 3.3699.0601 1.4839 1.4201 2.2186 2.6986 1.4925.6349-.3616.8123-.9768.8266-1.6438.0228-1.0027-.0029-2.0069.0157-3.0111.0057-.2997-.1373-.765.389-.7549.4662.0086.3418.438.3518.7218.02.5489.0057 1.0992.0057 1.6481h-.0043z"/><path d="m113.703 31.0902c-4.253-3.6032-8.502-7.2107-12.772-10.7923-.451-.3775-.498-.5662-.029-.9538 4.057-3.3539 8.102-6.7237 12.142-10.09788.366-.30687.789-.57052 1.089-1.05172-.216-.02593-.353-.05763-.49-.05763-4.971-.00288-9.944 0-14.9145-.00576-.4033 0-.728.14119-1.0483.37458-1.8477 1.34706-3.7054 2.68111-5.5587 4.01961-.1316.0951-.2575.2679-.4305.2031-.2331-.0879-.143-.3299-.1444-.5042-.0101-1.0532-.0429-2.1078.0085-3.15663.0344-.71747-.193-.95519-.9238-.94654-3.282.03457-6.5655.0144-9.8476.01584-.9467 0-.9553.01009-.9567.96239-.0029 3.73144-.0157 7.46434.0114 11.19574.0058.7016-.173.9581-.9167.9523-4.376-.0317-8.7535-.0144-13.131-.0173-.9396 0-.9439-.0058-.9439-.9638-.0014-3.8035-.01-7.6084.0086-11.41186.0029-.58636-.1201-.85577-.7851-.85433-10.2752.02017-20.5504-.00144-30.827.03169-4.1301.01297-7.149 3.0255-7.2033 7.1358-.0429 3.1811-.0672 6.3651.0114 9.5447.0558 2.2244.9467 4.1204 2.7129 5.5424 1.5488 1.2476 3.3607 1.6021 5.2842 1.5891 13.3899-.0893 26.7798.1037 40.1697-.1095 5.2313-.0836 10.4668-.0072 15.6995-.0173 1.8562-.0029 1.606.2348 1.6231-1.6453.01-1.1597.0015-2.321.0015-3.4577.2731-.0619.3632.0677.4676.1556 1.7662 1.4897 3.5352 2.9751 5.2928 4.4763.3403.2896.6807.4798 1.1469.4798 5.1144-.0101 10.2284-.0058 15.3434-.0073.117 0 .233-.0158.412-.0288-.109-.3299-.326-.4495-.502-.5993zm-4.14-.7088c-3.354.0072-6.709-.0202-10.0609.023-.7808.0101-1.3414-.2607-1.9106-.7491-2.2953-1.9709-4.6191-3.9072-6.933-5.8551-.1244-.1037-.2288-.2434-.5334-.255v1.118c0 1.6511-.0201 3.3021.01 4.9517.0114.6008-.2088.8385-.788.7737-.0944-.0101-.1902 0-.2846 0-18.5053.0072-37.0107.0158-55.516.0201-2.5985 0-4.5233-1.1079-5.6202-3.5311-.3304-.729-.4762-1.5012-.4777-2.2994-.0028-3.1335-.0214-6.2671.0043-9.4006.0272-3.3237 2.3868-5.7124 5.6961-5.7196 9.8232-.02305 19.6465-.01008 29.4698-.02881.6178 0 .8265.18441.8223.81831-.0244 3.828.0042 7.6545-.0258 11.4824-.0057.7074.1745.948.9138.9451 5.3042-.0302 10.6084-.0288 15.9126 0 .7322.0044.9296-.2305.9239-.9436-.0301-3.7315-.0143-7.4629-.0129-11.1958 0-1.06031.0028-1.06319 1.0854-1.06319 2.3068-.00144 4.6149-.00144 6.9216 0 .9611 0 .9639.00432.9654.94079 0 1.507-.0029 3.0139-.0029 4.5209 0 .1873-.0787.4279.0929.5388.2317.1499.3833-.1051.5449-.2218 2.3754-1.713 4.7536-3.4246 7.1161-5.1563.5778-.42358 1.1613-.64688 1.9006-.63824 3.2573.03602 6.5173.01441 9.7763.02017.227 0 .566-.11382.659.11382.126.30975-.265.40051-.443.55035-3.653 3.0586-7.307 6.1158-10.9848 9.1427-.5219.4293-.4876.657 0 1.0661 3.7068 3.1033 7.3968 6.2282 11.0888 9.3502.192.1614.436.2867.515.5749-.259.2002-.555.1123-.827.1123z"/><path d="m73.5389 38.0991c-.7336-1.3355-1.9864-1.592-3.3121-1.5387-.2889 0-.5305.0245-.7636-.0043-.6865-.0835-.9239.2032-.8953.8933.0458 1.0978.0115 2.1999.0115 3.2992 0 1.5031.7555 2.2153 2.2666 2.1365 2.5242-.1325 3.9056-2.5731 2.6915-4.7845zm-.5935 2.674c-.4047 1.0733-2.2667 1.8253-3.2763 1.3672-.256-.1167-.2431-.3328-.246-.5417-.0086-.6209-.0028-1.2419-.0028-1.8628 0-.621-.0043-1.2419.0028-1.8629.0029-.2391 0-.5244.3204-.5503 1.0024-.0821 2.0364-.1743 2.7858.6901.7021.8111.7879 1.7749.4161 2.7604z"/><path d="m95.2905 36.4452c-1.8319.0188-3.0489 1.3457-3.0446 3.318.0043 1.8628 1.2413 3.1926 2.996 3.22 1.8605.0288 3.1762-1.3269 3.1819-3.2776.0058-1.8888-1.3299-3.2791-3.1333-3.2604zm.1101 5.8421c-1.3371.0533-2.3639-1.0488-2.3939-2.5702-.0272-1.4105.9453-2.5198 2.2452-2.5587 1.3414-.0389 2.3739 1.0243 2.404 2.478.0286 1.4465-.951 2.5976-2.2553 2.6509z"/><path d="m43.1438 10.8612c3.4265 0 6.8516.0159 10.2766-.0129.6936-.0058.9167.2233.8853.9076-.0472 1.0272-.053 2.0588.0014 3.0846.0386.7189-.1888.9436-.9196.9393-4.8051-.0302-9.6116-.0158-14.4167-.0158-.8094 0-1.6174.0014-2.4268 0-.339 0-.6707.0317-.9453.255-.3704.2996-.4963.7131-.4004 1.1583.1029.4812.5348.3112.8323.3126 5.7332.0101 11.4664.0072 17.1996.0087 1.0469 0 1.0483.0043 1.0511 1.0243.0029 1.0056-.0314 2.0112.0115 3.014.0286.6598-.2059.8658-.8581.8644-5.5673-.0202-11.1332-.0115-16.7005-.0115-.2145 0-.4319-.026-.6421.0057-.3347.0505-.8352-.206-.9096.3948-.0658.523.1488.9307.6307 1.1785.3146.1613.6507.121.981.121 5.4959.0029 10.9917 0 16.4861.0014.6721 0 1.0091.3439 1.0111 1.0316 0 1.0056-.0329 2.0112.0114 3.0139.0286.6541-.1931.876-.8509.8688-2.5684-.0303-5.1383-.0115-7.7082-.0115-3.7582 0-7.5179-.0058-11.2762.0043-.7823.0014-1.5674.0922-2.3368-.1124-2.0064-.533-3.3421-2.246-3.3693-4.4503-.0386-3.014-.0443-6.0294.0029-9.0433.0358-2.285 1.227-3.8626 3.1819-4.4129.4677-.1311.9425-.1138 1.4173-.1153 3.2591-.0043 6.5183-.0029 9.7775-.0014z"/><path d="m106.584 11.0169c-2.067 1.7231-4.077 3.3957-6.085 5.0727-1.3158 1.0993-2.6172 2.2172-3.9529 3.292-.4347.3501-.3732.523.0201.8515 3.3035 2.7676 6.5908 5.5553 9.8828 8.3373.091.0764.191.1427.186.3026-.218.1844-.489.0936-.735.0936-2.045.0087-4.09-.0173-6.1347.0188-.6207.0115-1.0912-.1888-1.546-.5763-2.863-2.442-5.7346-4.8725-8.6034-7.3058-.1272-.1081-.2645-.2032-.3932-.3084-.2589-.2089-.3804-.1311-.389.1859-.0043.1441-.0014.2867-.0043.4308-.0372 2.2691-.0872 4.5396-.103 6.8087-.0043.5446-.1673.7708-.7365.7607-1.5688-.0273-3.139-.0216-4.7078-.0028-.4977.0057-.7308-.1283-.7294-.6829.0143-5.5727.0129-11.1453 0-16.718 0-.5331.1902-.7103.7094-.7031 1.5688.0231 3.139.0303 4.7078-.0028.6207-.013.7637.2535.7565.814-.0271 1.9608-.0229 3.9216-.0257 5.8838 0 .2103-.0858.4956.0915.6109.2503.1628.4219-.1369.5992-.2637 2.976-2.1394 5.9506-4.2832 8.9138-6.4428.5377-.3919 1.0768-.621 1.7678-.6066 1.902.0418 3.804.0116 5.707.0173.23 0 .472-.0562.807.1311z"/><path d="m68.4979 28.9925c-3.9485 0-7.8984-.0144-11.8469.013-.6993.0043-.9481-.1772-.9439-.922.0286-5.479.0258-10.9581.0029-16.4371-.0029-.6728.1716-.9335.8767-.9119 1.5216.0461 3.046.0446 4.5662 0 .7008-.0202.8881.2391.8838.9134-.0257 3.8034-.0129 7.6083-.0114 11.4118 0 .9898.0171 1.0071.9982 1.0071 5.8047.0014 11.6094 0 17.4141.0014.9768 0 .9782.0043.9811.9999.0014 1.0286-.0358 2.0587.0129 3.0859.0328.6829-.2403.8515-.871.8472-4.0199-.0202-8.0413-.0101-12.0613-.0101z"/><path d="m45.5068 36.525h-4.2406v.6707h1.7315v5.2662h.7776v-5.2662h1.7315z"/><path d="m83.6724 42.4619v-5.9369h-.8481v5.9369z"/></g></svg>