<svg fill="none" height="50" viewBox="0 0 140 50" width="140" xmlns="http://www.w3.org/2000/svg"><path d="m5 35.5305h13.0448l1.892-4.4811h-14.9368z" fill="#00b8ff"/><path d="m5 30.1529 16.082-2.2405 1.9418-4.7798-18.0238 2.5393z" fill="#00b8ff"/><path d="m5 24.7759 19.5174-4.9789 2.1908-5.3275-21.7082 5.676z" fill="#00b8ff"/><g fill="#ededed"><path d="m36.2175 27.1161h4.2818l1.4439-3.3359h-5.7257v-2.3401h6.6717l1.5435-3.535v-.0498h-12.3976v15.3351h12.3976v-3.6346h-8.2152z"/><path d="m89.6909 19.2992c-1.1452-.946-2.6886-1.4439-4.6304-1.4439h-6.5722v15.2853h4.2321v-4.3814h2.0911c1.9916 0 3.5351-.4979 4.7798-1.4439 1.195-.946 1.7924-2.3401 1.7924-4.0828.0498-1.643-.5476-2.9873-1.6928-3.9333zm-3.1865 5.6262c-.4481.3485-1.0456.5477-1.7924.5477h-1.9916v-4.033h1.9916c.7966 0 1.3941.1494 1.7924.4979.4481.3485.6472.8464.6472 1.4937s-.1991 1.1452-.6472 1.4937z"/><path d="m97.1102 17.8553h-4.2321v15.3351h9.4099l1.544-3.7342h-6.7218z"/><path d="m111.101 17.7556-5.477 12.9453-1.045 2.4397h1.443 3.038l1.095-2.7385h5.875l1.096 2.7385h4.53l-6.522-15.4348h-4.033zm.249 9.3604 1.743-4.3316 1.692 4.3316z"/><path d="m130.27 17.8553-3.187 5.5764-3.136-5.5764h-4.83l5.826 9.5595v5.7756h4.232v-5.8253l5.825-9.5098z"/><path d="m56.9798 17.8553-3.4853 9.7089-3.4852-9.7089h-4.73l6.2237 15.4347h3.9333l6.2237-15.4347z"/><path d="m68.8296 17.6064c-4.3815 0-7.9663 3.5848-7.9663 7.9663 0 4.3814 3.5848 7.9663 7.9663 7.9663 4.3814 0 7.9663-3.5849 7.9663-7.9663-.0498-4.4313-3.5849-7.9663-7.9663-7.9663zm0 12.0988c-2.2904 0-4.1824-1.892-4.1824-4.1823s1.892-4.1823 4.1824-4.1823c2.2903 0 4.1823 1.892 4.1823 4.1823s-1.892 4.1823-4.1823 4.1823z"/></g></svg>