<svg fill="none" height="50" viewBox="0 0 140 50" width="140" xmlns="http://www.w3.org/2000/svg"><g fill="#fff"><path d="m25.8208 19.6667-1.9008.0077v-1.9385h2.7851v-2.3405h-2.8732v-2.0537h3.8456v.9449h2.9614v-3.3699h-12.6389v2.5479h1.7245v6.366h-1.7245v2.7528h7.8208z"/><path d="m30.6389 31.3758v-3.9314h-12.6389v2.9706h1.7245v7.4291h-1.7245v3.2114h7.8208v-3.4014l-1.9008.008v-2.2614h2.7851v-2.7323h-2.8732v-2.3952h3.8456v1.1026z"/><path d="m67.4322 13.4171 1.8448-.0537v6.4131h-.8064v2.8069h6.1064v-2.8069h-.9095v-6.4386h1.8706v2.0355h1.7675v-4.4567h-11.6667v4.4567h1.7933z"/><path d="m59.8055 31.8822h1.9428v-1.9492l1.9985-.0509v7.4047h-.8736v2.7965h6.6153v-2.7965h-.9853v-7.4301h2.0264v2.0255h1.9148v-4.4378h-12.6389z"/><path d="m80.1004 20.1377s.8586 2.4457 3.0422 2.4457h4.2601s2.4908-.7455 2.4908-2.5529v-6.7447h1.0232v-2.3691h-3.9831v2.3946h.7461v5.4325c-.0944.3708-.327.6984-.6565.9246s-.7344.3364-1.1429.311c-1.5472 0-1.8517-1.519-1.8517-1.519v-5.2257h1.0506v-2.318h-5.8292v2.5223h.8504z"/><path d="m103.307 13.3841h1.193v4.8769l-6.0826-7.3443h-5.5562v2.543h1.584v7.0393h-1.5014v1.9306h6.0852v-1.981h-2.2506v-5.4137l6.1646 7.5485h3.446v-9.1741h1.056v-2.4926h-4.138z"/><path d="m121.056 14.3801v-3.4634h-12.53l.027 2.5912h.91v6.2046h-1.046v2.8709h12.639v-3.8194h-2.783v.6662h-3.963v-1.4621h2.947v-2.7184h-3.113v-1.9732h4.213v1.1036z"/><path d="m40.2172 30.4096h1.1294v-2.9652h-8.815v2.7854h.9366l-2.0385 7.9178h-1.763v2.9079h5.7022v-2.9079l-1.0688.0273.4766-2.0884h3.3056l.4986 1.9277h-1.2561v3.0413h6.9252v-2.9079h-1.6307zm-5.0439 3.9588.6088-2.6628h1.1763l.6859 2.6628z"/><path d="m54.9657 35.2964c-.2711 1.8507-1.3556 2.5303-2.44 2.5594-1.0845.0291-2.5647-.4998-3.0473-2.5594-.4826-2.0597.3009-4.1749 1.99-4.8808 1.689-.706 2.9551.6161 2.9551.6161v1.2558h2.8954v-4.7063h-2.0198v1.1581s-1.689-1.7953-5.5496-1.1581-6.2112 3.8629-5.3057 8.392c.9056 4.5292 5.547 5.4996 9.1555 4.939 3.6084-.5605 4.2618-5.6158 4.2618-5.6158s-1.9574-.0291-2.8954 0z"/><path d="m56.5024 20.4097h-1.3414l-.0253-2.4185h2.4959l2.4959 4.5922h3.567v-1.7629s-1.8593-2.1864-2.5262-3.138c.5772-.35 1.0465-.8555 1.3553-1.4598.3088-.6042.4448-1.2834.3928-1.9614-.0834-1.6812-1.5157-2.444-2.4706-2.8344-.8262-.3118-1.6976-.4841-2.5792-.5102h-7.7832v2.4185h1.349v6.9751h-1.349v2.2629h6.419zm-1.354-7.0234h1.9426s1.0812.0459 1.0812 1.3164-.7932 1.5588-.7932 1.5588h-2.218z"/><path d="m105.624 31.2938c-.043-1.4605-1.116-2.9865-2.131-3.4042-.75-.3015-1.552-.4526-2.36-.4449h-9.2441v2.5879h1.4465v8.6016h-1.4465v2.4213h6.8826v-2.3121h-1.449l-.0271-3.7289h2.6788l2.6758 6.041h3.822v-1.8698s-1.923-2.9237-2.633-3.9419c.518-.2757 1.853-1.7198 1.785-3.95zm-5 1.2639c-.01.2449-.101.4793-.259.6655-.159.1862-.3743.3133-.6129.3609h-2.5813v-3.2322c.8528-.0671 1.7095-.0671 2.5623 0 .8669.1256.9589 1.3022.8909 2.2058z"/><path d="m116.579 30.2944h.94l-1.953 3.5652h-.62l-1.756-3.5652h.892v-2.7271h-5.665v2.7271h1.013l3.536 5.7709v2.0802h-1.78v2.91h6.853v-2.91h-1.04v-2.1047l3.068-5.7464h.989v-2.85h-4.477z"/><path d="m88.5889 31.9451c-.0314-.1236-.0274-.2543.0118-.3754.0391-.1211.1116-.2272.208-.3047l1.4251-1.1469-1.0527-1.9117-1.6527.7319c-.1121.0495-.2357.0627-.355.0379s-.2289-.0865-.3149-.1772c-.0859-.0908-.1444-.2066-.1678-.3325-.0235-.126-.011-.2564.0359-.3749l.6906-1.7478-1.8105-1.1115-1.0993 1.5239c-.0722.1002-.1711.1754-.2839.2162-.1128.0409-.2345.0455-.3498.0132-.1179-.0325-.2236-.1023-.3031-.1998-.0795-.0976-.1289-.2184-.1417-.3464l-.2302-1.9116h-2.1054l-.2328 1.9362c-.0152.1214-.0637.2355-.1395.3282-.0759.0926-.1757.1599-.2872.1934-.1129.0334-.2328.0302-.344-.0093-.1111-.0394-.2085-.1132-.2794-.2119l-1.1225-1.5566-1.8105 1.1114.7319 1.8489c.0436.109.0555.2293.0343.3454-.0212.1162-.0745.2232-.1532.3073-.0797.0859-.182.1445-.2935.1684-.1116.0239-.2274.0118-.3324-.0345l-1.7511-.7729-1.0527 1.9116 1.5364 1.2345c.0874.0704.1532.1666.1891.2764s.0403.2283.0126.3408c-.0284.1132-.088.215-.1714.2924-.0834.0773-.1866.1267-.2967.1418l-1.914.2567v2.2366l1.9372.2731c.1072.0144.2079.0621.2894.1369.0815.0749.1401.1736.1684.2837.0286.1111.0251.2286-.0099.3375-.035.109-.1.2045-.1866.2743l-1.5519 1.248 1.0527 1.9117 1.8105-.7948c.1005-.0447.2113-.0566.3183-.0342.1069.0224.2051.078.2818.1599.076.0808.1276.1836.1483.2954s.0097.2276-.0319.3327l-.7552 1.9117 1.8105 1.1115 1.1716-1.6222c.0672-.0931.1593-.1629.2644-.2004s.2184-.0409.3253-.0099c.1055.0303.2.0929.2718.1799.0719.087.1177.1945.1317.309l.2431 2.0236h2.1054l.2406-1.9827c.0151-.1195.0635-.2315.139-.322.0755-.0904.1747-.1551.2851-.186.1089-.0304.2239-.0258.3303.0131s.1995.1104.2672.2054l1.1484 1.5895 1.8105-1.1116-.7139-1.8051c-.0454-.114-.0574-.2398-.0343-.361.023-.1213.08-.2324.1636-.319.0822-.0854.1864-.1434.2995-.1667.1132-.0233.2303-.0109.3369.0356l1.7096.7564 1.0527-1.9116-1.4407-1.158c-.096-.0771-.168-.1828-.2067-.3035s-.0424-.2508-.0105-.3737c.0324-.1232.0989-.2332.1911-.3159.0922-.0828.2059-.1345.3262-.1484l1.8105-.243v-2.2231l-1.7769-.2403c-.1284-.009-.2507-.0606-.3497-.1474-.0989-.0868-.1693-.2044-.2012-.3359zm-6.4222 6.0081c-.7904 0-1.5629-.2475-2.2201-.7111-.6571-.4636-1.1693-1.1226-1.4718-1.8936s-.3816-1.6193-.2274-2.4378.5348-1.5703 1.0936-2.1604c.5589-.5901 1.2709-.992 2.0461-1.1548s1.5786-.0792 2.3088.2402c.7302.3193 1.3543.8601 1.7934 1.554.4391.6938.6735 1.5096.6735 2.3442.001.5547-.1016 1.1043-.302 1.6171-.2004.5129-.4946.979-.8657 1.3716-.3712.3927-.812.7043-1.2974.9168-.4853.2126-1.0056.322-1.531.322z"/><path d="m33.0322 18.4465c.0302.1048.0276.2164-.0073.3197-.0349.1034-.1006.1937-.1882.2587l-1.5553 1.1836 1.0548 1.8263 1.8016-.7552c.1001-.0439.2111-.0561.3183-.035s.2054.0744.2814.1529c.0779.0758.1309.1736.1519.2802.0211.1067.0091.2172-.0341.317l-.755 1.8049 1.8231 1.0551 1.1726-1.5398c.0671-.0882.1591-.1541.264-.1894.105-.0354.2182-.0384.3249-.0088.1056.0287.2003.088.2723.1704.0719.0825.1178.1844.132.2929l.2436 1.92h2.1095l.2383-1.8745c.0146-.1137.0629-.2205.1388-.3064s.1758-.1471.2868-.1756c.1092-.0281.2242-.0236.3308.013.1066.0367.2001.1038.2689.1931l1.1484 1.5104 1.8231-1.0551-.7148-1.7112c-.0459-.108-.0582-.2274-.0352-.3425.0229-.1151.0799-.2206.1637-.3028.0823-.081.1867-.1359.3-.1578.1134-.022.2306-.0099.3371.0346l1.7107.7177 1.0548-1.8264-1.4429-1.0979c-.0965-.0729-.1688-.1733-.2075-.2879s-.0419-.2383-.0094-.3548c.0314-.1151.0963-.2182.1863-.2964.0901-.0782.2013-.1279.3196-.1428l1.7991-.2303v-2.1075l-1.7776-.2276c-.1206-.0155-.2339-.0666-.3254-.1467-.0916-.0801-.1572-.1856-.1886-.3032-.0317-.1172-.0278-.2412.0113-.3561.0391-.115.1116-.2157.2082-.2892l1.4269-1.0873-1.0548-1.8263-1.6544.6936c-.1119.0472-.2354.06-.3547.0366-.1192-.0234-.2287-.0818-.3145-.1678-.0862-.0858-.1449-.1952-.1687-.3144-.0239-.1192-.0117-.2428.0348-.3551l.6933-1.65766-1.823-1.05239-1.1003 1.44345c-.0724.0949-.1713.1662-.2843.2049-.1129.0386-.2349.0427-.3502.0119-.1155-.0301-.2193-.0941-.298-.1839-.0788-.0897-.1288-.20101-.1437-.31948l-.2303-1.80222h-2.1095l-.2329 1.837c-.0149.11523-.0634.2235-.1397.3112-.0762.0877-.1766.1508-.2886.1816-.1129.0315-.2327.0285-.3439-.0087-.1112-.0373-.2087-.107-.2799-.2002l-1.1243-1.47555-1.8231 1.05239.7308 1.75136c.044.1032.0562.2171.0353.3272-.021.1102-.0743.2116-.153.2914-.0793.0822-.1815.1385-.2933.1615-.1118.0229-.228.0114-.3332-.033l-1.7508-.7337-1.0548 1.8263 1.5367 1.1702c.0878.0662.1539.1572.1896.2612.0358.1041.0397.2164.0111.3227-.0276.1078-.087.2048-.1706.2784-.0836.0735-.1874.1202-.2978.1339l-1.9141.2437v2.1075l1.9382.2491c.1062.0123.2063.0561.2874.1257.0811.0697.1395.1621.1677.2653zm6.4249-5.7308c.7911 0 1.5643.2347 2.2221.6743.6577.4396 1.1703 1.0645 1.473 1.7955.3027.7311.382 1.5355.2276 2.3115-.1543.7761-.5352 1.489-1.0946 2.0485-.5593.5595-1.2719.9406-2.0478 1.0949-.7758.1544-1.58.0752-2.3108-.2276-.7309-.3028-1.3555-.8156-1.795-1.4736-.4394-.6579-.674-1.4314-.674-2.2226 0-1.0602.4206-2.077 1.1695-2.8271.7489-.7502 1.7648-1.1723 2.8247-1.1738z"/></g></svg>