<svg fill="none" height="50" viewBox="0 0 140 50" width="140" xmlns="http://www.w3.org/2000/svg"><path d="m38.3248 1.14639c1.187-.227981 2.2399-.13556 3.4333-.0801.7275 5.77952 4.03 9.16221 10.1755 9.84921.2744 1.0351.1148 2.0949.0989 3.1547-10.5775 1.7653-15.067 8.6046-16.522 18.1519-1.053.3112-1.5571.3327-3.529.0647.552-8.7247 4.6266-15.3207 12.6196-19.9233-1.4454-1.106-2.7983-2.2213-4.0236-3.84175-3.8768 7.94535-9.9458 12.95465-19.1193 14.24245v9.4702c-1.2891.3697-2.3804.1972-3.6822.1602v-9.6797c-5.1851-.8257-9.30122-3.1948-12.63242-6.8578-2.34205-2.5817-4.0268-5.5177-5.14358-8.75558 7.10912-3.94955 18.0632 2.21507 21.3018 12.03038 4.7862-.4991 8.7141-2.6094 11.9368-6.0075 3.2068-3.37958 4.8628-7.41847 5.0862-11.98109zm-32.87171 8.75247c1.71665 4.27914 8.44921 9.27924 11.76131 8.73704-1.0944-4.7659-6.9049-9.08209-11.76131-8.73704z" fill="#fa8102"/><g fill="#f9f9f9"><path d="m129.708 18.9454c1.992-1.5627 4.141-2.1729 6.557-1.1923 2.219.8997 3.532 2.5869 3.65 4.875.163 3.2002.042 6.4128.042 9.725h-3.392c0-2.3659 0-4.7349 0-7.1039 0-.6226.016-1.2452-.003-1.8678-.055-1.6717-1.075-2.7581-2.57-2.755-1.543 0-2.547 1.046-2.56 2.7457-.022 2.9542-.006 5.9054-.006 8.9343-1.135.274-2.212.1401-3.465.0841 0-2.9107.003-5.7497 0-8.5888-.003-2.1106-.896-3.2002-2.585-3.1722-1.623.0249-2.547 1.1985-2.554 3.2687-.006 2.7924 0 5.5847 0 8.4705h-3.35c.044-3.5021-.325-6.9825.166-10.4193.551-3.8694 5.275-5.8586 8.782-3.8632.411.2335.791.523 1.294.8623z"/><path d="m65.1195 24.8391c.0129-4.1991 3.7443-7.6308 8.2168-7.5589 4.421.0719 8.0396 3.4857 8.0589 7.6098.0226 4.1901-3.6508 7.5889-8.1942 7.5829-4.5563-.006-8.0944-3.3479-8.0847-7.6338zm8.0332 4.4208c2.6197.027 4.7335-1.8433 4.8011-4.244.0677-2.4487-2.0719-4.4838-4.7206-4.4838-2.6036 0-4.6852 1.9152-4.711 4.3369-.0257 2.4218 2.0269 4.3669 4.6305 4.3939z"/><path d="m88.4331 28.1129c-1.3302 1.5656-2.5085 2.9552-3.7001 4.36h-4.4031c1.9969-2.397 3.8783-4.6574 5.8521-7.027-1.9144-2.3059-3.8222-4.6027-5.8719-7.0694h4.3833c1.1453 1.335 2.393 2.7883 3.7496 4.3691 1.2972-1.5171 2.5052-2.9279 3.7463-4.3813h4.3998c-2.0464 2.4516-3.9311 4.712-5.8983 7.0695 1.8946 2.2664 3.7859 4.5299 5.8323 6.9784h-4.413c-1.1223-1.3168-2.3369-2.7398-3.6704-4.3023z"/><path d="m113.657 18.3702h3.482c-.133 3.3094.398 6.5985-.295 9.8353-.564 2.6347-3.271 4.3185-6.316 4.2662-2.914-.0495-5.501-1.835-6.014-4.432-.502-3.1873-.278-6.3775-.278-9.623 1.241-.0436 2.237-.0436 3.498-.0262 0 2.7046-.026 5.3568.009 8.0061.02 1.646 1.012 2.7627 2.494 2.9343 1.974.2327 3.384-.8957 3.41-2.8151.039-2.6609.01-5.3189.01-8.1515z"/><path d="m65.1163 10.7706v3.0532c-2.8029.8984-3.5391 1.6837-3.5796 3.9767h3.5458v3.3737h-3.61v11.2987h-3.4782v-11.3082c-.6889 0-1.0807-.0408-1.5568-.0565 0-.8638-.0034-2.2428-.0034-3.3705.4458-.0251.9219-.0282 1.344-.0282.6923-4.5861 3.0562-6.8541 7.3382-6.942z"/><path d="m98.7597 18.3643h3.2563v14.1086h-3.2563z"/></g></svg>