<svg fill="none" height="50" viewBox="0 0 140 50" width="140" xmlns="http://www.w3.org/2000/svg"><g fill="#f3a519"><path d="m87.7002 6.94581c2.2245 2.45856-3.8041-6.94581-17.0277-6.94581-13.8253 0-26.6725 13.1525-26.6725 26.6669 0 7.2365 2.7027 13.0536 7.3338 16.8976 4.1003 4.1193 10.0858 6.4355 17.2776 6.4355 13.8283 0 26.3886-11.7516 26.3886-25.2752-.0093-7.2984-2.6718-13.5639-7.2998-17.77899zm-39.9978 19.72729c0-11.5846 11.3786-22.95587 22.9701-22.95587 11.5143 0 19.2522 7.94157 19.2522 19.76437 0 11.2877-10.814 21.5642-22.6862 21.5642-5.8621 0-10.7986-1.7194-14.2726-4.9697-3.4741-3.2502-5.2635-7.8736-5.2635-13.403z"/><path d="m56.2531 20h.248c1.6076-.0814 3.5856-1.058 4.0099-3.5055.2553.1753.5476.2827.8516.313.6603.0313.6932-.3318.5976-.6604s-1.7002-1.7465-1.7002-1.7465-.759.7011-1.0339.9077c-1.0368.7731-.8964 1.2018-.8964 1.2018.1643.1543.3709.2503.5903.2744.2194.0242.4405-.0247.6319-.1398-.4363 1.6776-1.8467 2.3599-3.1046 2.4225-1.1803.0626-2.1902-.4225-2.3516-1.1455-.3257-1.1643-.2451-2.1565.245-2.9577 1.0039-1.6401 3.3974-2.0219 3.4213-2.025l-.1285-.939c-.1136.0156-2.8177.4413-4.0458 2.4445-.6364 1.0391-.756 2.2941-.3586 3.7057.26 1.108 1.4821 1.8498 3.024 1.8498z"/><path d="m64.5 15c1.9296 0 3.5-1.7948 3.5-4.0016 0-2.20676-1.5704-3.9984-3.5-3.9984-1.9297 0-3.5 1.79164-3.5 3.9984 0 2.2068 1.5703 4.0016 3.5 4.0016zm0-7.08432c1.4486 0 2.6308 1.38264 2.6308 3.08272 0 1.7002-1.1793 3.0859-2.6308 3.0859-1.4516 0-2.6308-1.3857-2.6308-3.0859 0-1.70008 1.1821-3.08272 2.6308-3.08272z"/><path d="m76 12.221-.9843-.1464-.1962.9402-3.7943-.5912 1.9088-5.41023 1.2004.10697.1065-.84166-3.116-.27868-.103.83885.9045.08163-1.8889 5.34832-.8546-.1351-.1829.8304 6.6276 1.0359z"/><path d="m80.0897 17.7854c.5086.1387 1.0294.2097 1.5521.2113.7258.0346 1.4419-.2006 2.0423-.6707 1.5142-1.3414 2.8066-4.0242 2.1327-5.3019-.5222-1.006-3.501-3.72229-3.8278-4.0241l-.5427.78809c.178.16097.3764.3353.5835.53986l-4.0524 5.55335-.4756-.3823-.5018.8216 3.0022 2.4313zm2.6258-7.80681c1.0503 1.00601 2.1327 2.13611 2.3661 2.58211.3063.5835-.5105 2.7297-1.9197 3.9872-.7294.6473-2.1823.4394-2.7775.2851l-1.6776-1.3581z"/><path d="m60.3934 36.8202 1.6066-2.1305-.7089-.6135-.7516.9952c-.1278-1.1746-.6725-2.4568-2.13-2.9168-.5106-.1583-1.0472-.1956-1.5725-.1094-.5254.0862-1.0271.2939-1.4702.6086-.6042.4291-1.1209.9852-1.5189 1.6346s-.669 1.3785-.7967 2.1435c-.1054.6757-.0475 1.3692.1682 2.0141.2158.6449.5822 1.2196 1.0642 1.6694.6403.5839 1.4567.8982 2.2972.8841.5104-.0054 1.0168-.0978 1.5002-.274l-.2891-.9298c-1.138.4078-2.1726.2544-2.915-.4242-.3581-.3435-.6294-.7783-.789-1.2643-.1596-.4859-.2022-1.0071-.1238-1.5154.1041-.6298.3264-1.2304.6533-1.7654.3268-.535.7515-.9933 1.2484-1.3472.3367-.2392.7177-.3976 1.1169-.464.3992-.0665.807-.0395 1.1956.079 1.9352.6036 1.4696 3.2105 1.4483 3.3181z"/><path d="m67.6565 36.7281c-1.9607-1.4205-4.3502-.5857-5.7298.987-.7985.9137-1.2429 2.8642-.6619 4.3139.2051.5208.5615.9767 1.0286 1.3154s1.026.5467 1.6126.6c.2498.0366.5022.0552.7551.0556 2.4423 0 3.7132-1.8216 4.0612-2.8876.0808-.2256 1.013-2.879-1.0658-4.3843zm.1864 4.1001v.0205c-.0373.1084-.9104 2.6359-3.7909 2.2317-.4225-.0336-.8262-.1794-1.1644-.4204s-.5971-.5675-.7465-.9415c-.4909-1.2066-.0342-2.8173.5096-3.4412.5966-.6823 1.6686-1.3882 2.8214-1.3882.5899.0006 1.162.1907 1.622.539 1.5816 1.1421.7768 3.3064.7488 3.3972z"/><path d="m72.3403 42.7651-.8403-6.6562 1.1158-.1796-.1814-.9293-3.4344.545.1813.9324 1.2866-.2047.8403 6.6405-1.0739.1544.1604.9324 3.6053-.5135-.1639-.9324z"/><path d="m80.5814 29.7564-.5542-.7564-2.4659 1.8192.5542.7565.8095-.5971 3.456 4.5137-7.7495-2.3131-.0187.0281-.0125-.0187-1.6003 1.1815.5542.7534.959-.7065 3.9354 5.1733-.8873.6533.5542.7564 2.4659-1.8192-.5542-.7565-.8251.6096-3.4622-4.545 7.7588 2.3131.5013-.7345-4.3215-5.6453z"/><path d="m49 23.1574 1.4483 2.2103-1.4483 2.6323h2.3799s-.0724-3.0576.0296-3.7408c.1021-.6832 2.5905-1.2592 2.5905-1.2592z"/><path d="m85.7522 22 .2496 3.9237s-2.4605 1.9095-3.0018 2.0763l6-.4937-1.8102-2.3575 1.8102-2.9755z"/><path d="m83 26 .2967 2 1.7033-1.8136z"/><path d="m54 23.97v-.97l-2 .8661c.682.2185 2 .1039 2 .1039z"/><path d="m76.4786 25.0925c.834-.1675 1.0731-1.292.9702-2.085-.0057-.1418-.0373-.2802-.0925-.405s-.1325-.2327-.2262-.3158c-.0937-.083-.2015-.139-.3152-.164-.1138-.0249-.2305-.0181-.3418.0201-.7423.1469-1.112.8579-.973 1.9243.0806.6836.4226 1.1314.9785 1.0254z"/><path d="m69.7112 26.6356c.8317-.2532 1.246-.9717.9532-2.0905-.1682-.6604-.6479-.8417-1.3021-.6398l-.6042.1848.2928 2.7371z"/><path d="m58.2902 29.9874c4.9272-.1095 16.1198-3.3316 19.122-3.7539 5.334-.7414 8.5878 0 8.5878 0l-.2764-5.1459s-4.0175-.1971-7.9978 0c-3.9802.1971-10.6585 2.5557-17.343 3.3441-6.6845.7883-8.3828 0-8.3828 0l.0528 4.9113s1.3102.7633 6.2374.6444zm21.0222-5.928.4098-.0469.0155.5474c.2018.0574.4113.0827.6209.0751.5806-.0282.8353-.3129.8228-.6257-.0279-.6256-1.6207-.4222-1.6672-1.4389-.028-.657.5029-1.0918 1.2419-1.1262.2437-.0054.4813.0766.6706.2315l.1024-.2127.354-.0157-.059.9041-.4657.0187v-.3284c-.1449-.1236-.3324-.1844-.5216-.1689-.4595.0219-.7328.2502-.7172.6037.0279.6476 1.6269.4536 1.6672 1.4046.0342.7007-.4967 1.1669-1.4033 1.2075-.3882.0369-.7796-.0188-1.1425-.1626zm-2.9216-2.2054c.9624-.1595 1.5772.2659 1.7138 1.1199.1552.9604-.2608 2.3118-1.689 2.5433-.9531.1564-1.5523-.4192-1.7076-1.3108-.1987-1.2387.4316-2.1428 1.6828-2.3524zm-2.9153.6256.0372.4193-.3819.1125.1956 2.6247.3943-.072.031.3972-1.3505.3129-.0652-.416.4036-.1158-.1956-2.6246-.4005.072-.0559-.3911zm-4.297 1.0793c.9904-.2784 1.7107 0 1.956.8759.3384 1.2169-.1708 2.2117-1.4872 2.5808l-1.602.4504-.0808-.4128.3944-.1346-.3105-2.612-.3974.0876-.0745-.388zm-4.6571 1.3608.0466.3942-.3757.1251.1707 1.6954c.0084.0728.022.145.0404.2159.0157.0966.0528.1884.1085.2685s.1286.1466.2134.1944c.0847.0478.1791.0757.276.0817.097.006.1939-.0102.2838-.0472.247-.0598.4619-.2129.6-.4278.1381-.2148.1889-.4749.1421-.7265l-.1708-1.6767-.4067.0813-.0714-.4035 1.3506-.3598.0496.3941-.3819.1283.1926 1.8144c.0745.7038-.2546 1.4296-1.2419 1.6955-.8725.2315-1.3475-.1376-1.4965-.7132-.02-.0791-.0336-.1596-.0404-.2409l-.1894-1.8207-.3912.0814-.0745-.3879zm-4.7658.7539.5123-.0251 1.897-.1908.5123-.0782-.0187.9385-.4346.0438-.028-.4411-.7048.072-.1366 2.5839h.3975l-.0156.4223-1.3816.1408v-.4224l.4099-.0625.1335-2.5871-.6924.072-.0714.4504-.4316.0439zm-2.6918 3.4911c-.3895-.0103-.7711-.1121-1.1146-.2972l.1738-.8415h.413l-.0528.5443c.1978.0824.4075.132.621.147.5775.047.8662-.2095.891-.5317.0466-.6257-1.5524-.6257-1.4779-1.6298.0497-.657.621-1.023 1.3631-.9667.2431.0251.4696.1359.6396.3128l.1241-.197.3539.0281-.1676.8884-.4626-.0375.0341-.3284c-.1296-.1386-.3078-.2206-.4967-.2284-.4564-.0375-.7575.1595-.7824.5099-.0497.6475 1.5523.6475 1.4871 1.5954-.0465.7039-.6271 1.1043-1.5337 1.0323z"/></g></svg>