<svg fill="none" height="50" viewBox="0 0 140 50" width="140" xmlns="http://www.w3.org/2000/svg" xmlns:xlink="http://www.w3.org/1999/xlink"><linearGradient id="a"><stop offset="0" stop-color="#ee344d"/><stop offset="1" stop-color="#f89927"/></linearGradient><linearGradient id="b" gradientUnits="userSpaceOnUse" x1=".286339" x2="19.2114" xlink:href="#a" y1="10.633" y2="10.633"/><linearGradient id="c" gradientUnits="userSpaceOnUse" x1=".973996" x2="19.7335" xlink:href="#a" y1="12.3281" y2="12.3281"/><linearGradient id="d" gradientUnits="userSpaceOnUse" x1=".54906" x2="19.3859" xlink:href="#a" y1="8.98856" y2="8.98856"/><linearGradient id="e" gradientUnits="userSpaceOnUse" x1=".448104" x2="19.1142" xlink:href="#a" y1="13.747" y2="13.747"/><linearGradient id="f" gradientUnits="userSpaceOnUse" x1="-.000656" x2="19.1547" xlink:href="#a" y1="25.3549" y2="25.3549"/><g fill="#fff"><path d="m135.021 22.3094h-.806v-2.3089h-.76v-.6939h2.377v.6939h-.811z"/><path d="m140 22.3095h-.793l.059-2.3009h-.023l-.746 2.3009h-.694l-.766-2.3009h-.026l.067 2.3009h-.793v-3.0028h1.27l.572 1.8865h.031l.54-1.8865h1.301v3.0028z"/><path d="m41.1987 31.8598h-3.4262v-5.016h-4.4407v5.016h-3.4262v-12.7716h3.4262v4.8256h4.4407v-4.8256h3.4262z"/><path d="m46.6538 29.6578-.6128 2.202h-3.5601l3.8287-12.7706h5.1874l3.8862 12.7706h-3.4837l-.6703-2.202zm2.2976-8.0233-1.5698 5.5535h3.1773z"/><path d="m56.6655 19.0882h6.9485c1.1609.0126 2.0864.2328 2.7756.6606.6892.4279 1.0333 1.2988 1.0333 2.6137 0 .7406-.0988 1.3823-.2965 1.9242-.1977.5429-.7628.8907-1.6938 1.0435v.0953c.8681.0899 1.4521.364 1.7513.8233.2992.4592.4502 1.1109.4502 1.953 0 1.4299-.2839 2.3961-.8518 2.9003-.5679.5043-1.6048.7568-3.1108.7568h-7.006zm5.6087 5.1123c.0504.0126.1016.0188.1528.0188h.1339c.4079-.0116.7566-.0674 1.0432-.1626.2866-.0953.4304-.4045.4304-.9285 0-.4592-.08-.7756-.239-.9482-.16-.1725-.4691-.2579-.9282-.2579h-2.7757v2.2784zm.0953 4.8443c.5355.0135.9794-.035 1.3307-.1429.3505-.1087.5266-.4754.5266-1.1009 0-.6004-.1375-.9536-.4115-1.0633-.2741-.1079-.6794-.1627-1.2158-.1627h-2.5079v2.4698z"/><path d="m72.1898 29.6578-.6128 2.202h-3.5601l3.8287-12.7706h5.1874l3.8862 12.7706h-3.4837l-.6703-2.202zm2.2967-8.0233-1.5698 5.5535h3.1773z"/><path d="m94.5664 31.8598h-5.8001l-3.5987-9.8218h-.1537l.1537 9.8218h-3.3499v-12.7716h5.7616l3.5987 9.7077h.1339l-.1339-9.7077h3.3884z"/><path d="m99.6774 24.2005h5.4366v2.3736h-5.4366v2.4699h5.9336v2.8149h-9.3598v-12.7707h9.2448v2.815h-5.8186z"/><path d="m107.219 19.0882h6.432c1.633.0126 2.801.2904 3.503.8323.702.5429 1.053 1.6699 1.053 3.3794 0 .9572-.105 1.7328-.315 2.3269-.21.5932-.909 1.0183-2.096 1.2727v.115c.791.0513 1.374.2903 1.752.7181.376.4279.564 1.0309.564 1.8093v2.317h-3.484v-1.7032c0-.5105-.098-.9167-.296-1.216-.198-.3002-.578-.4494-1.139-.4494h-2.546v3.3695h-3.426v-12.7716zm6.145 6.4721c.626.0135 1.005-.1267 1.139-.4215.133-.293.201-.7145.201-1.2637 0-.6255-.07-1.0848-.21-1.3787-.141-.2939-.575-.4404-1.302-.4404l-2.546-.0189v3.5223h2.718z"/><path d="m119.546 24.8035c0-.2616.007-.5195.019-.7757.013-.2552.032-.5141.058-.7756.025-.2615.057-.5195.095-.7747.242-1.43.893-2.3557 1.952-2.7764 1.06-.4206 2.202-.6444 3.427-.6695h.191.191c2.208 0 3.752.373 4.632 1.1198.881.7469 1.321 2.2757 1.321 4.5856 0 2.3611-.258 4.1541-.775 5.38-.517 1.226-2.212 1.8389-5.082 1.8389-.204 0-.416-.0036-.632-.0099-.218-.0063-.434-.0152-.651-.0287-.969-.0387-1.882-.2364-2.737-.5941-.855-.3568-1.435-1.0723-1.742-2.1445-.127-.4341-.205-.8745-.23-1.3212-.026-.4467-.039-.8934-.039-1.341v-.9571c.002-.2418.002-.4935.002-.7559zm3.504.6992v.7658c0 .9059.096 1.5953.287 2.0681.192.4718.817.7082 1.876.7082 1.175 0 1.918-.1878 2.231-.5644.312-.3766.469-1.1073.469-2.1921 0-.1528 0-.3065 0-.4602 0-.1528.006-.3128.019-.4782 0-.1537 0-.3064 0-.4592s0-.3065 0-.4593c0-.8547-.122-1.4812-.364-1.8766-.243-.3955-.823-.5932-1.743-.5932-1.327 0-2.115.1788-2.364.5356-.249.3577-.386 1.3401-.411 2.9489v.0387.0377z"/></g><path clip-rule="evenodd" d="m10.8592 12.1946c.3532 0 .6382-.2858.6382-.639v-1.84607c0-.35411-.285-.63992-.6382-.63992-.3523 0-.6381.28581-.6381.63992v1.84607c0 .3532.2858.639.6381.639z" fill="url(#b)" fill-rule="evenodd"/><path clip-rule="evenodd" d="m8.30631 13.8897c.35322 0 .63813-.2858.63813-.639v-1.8452c0-.3541-.28491-.64-.63813-.64-.35232 0-.63813.2859-.63813.64v1.8452c0 .3532.28491.639.63813.639z" fill="url(#c)" fill-rule="evenodd"/><path clip-rule="evenodd" d="m8.30636 9.62053c.35232 0 .63812-.28491.63812-.63813v.01349c0-.35322-.28491-.63903-.63812-.63903-.35322 0-.63903.28671-.63903.63903v-.01349c.0009.35322.28581.63813.63903.63813z" fill="url(#d)" fill-rule="evenodd"/><path clip-rule="evenodd" d="m13.412 14.3786c.3523 0 .6381-.2849.6381-.6381v.0144c0-.3523-.2849-.639-.6381-.639s-.6391.2867-.6391.639v-.0144c0 .3532.2859.6381.6391.6381z" fill="url(#e)" fill-rule="evenodd"/><path clip-rule="evenodd" d="m18.5165 19.1116c-.3522 0-.638.2849-.638.639v.2795l-.0009.0422c-.0216.3335-.2992.5968-.6371.5968-.3522 0-.6388-.2849-.6388-.639v-.693-.8996c0-.3541-.2858-.6391-.638-.6391s-.6389.2859-.6389.6391v.035c0 .3541-.2857.6391-.6371.6391-.3522 0-.6379-.285-.6379-.6391v-.6084-2.0609c0-.3541-.2858-.6391-.6389-.6391-.3522 0-.6353.285-.6353.6391v1.0183c-.0054.3631-.3199.639-.6406.639-.3523 0-.638-.2849-.638-.6381v-.4323-2.4411c0-.3532-.2858-.639-.638-.639-.3531 0-.6389.2849-.6389.639v1.7041.7936c0 .3532-.2857.639-.63793.639s-.63797-.2858-.63797-.639v-.8017-.0944c0-.3541-.28574-.639-.63798-.639-.35223 0-.63887.2849-.63887.639v.8323 1.0884c0 .3541-.28574.639-.63797.639s-.63797-.2858-.63797-.639v-.3523-2.3162c0-.3532-.28484-.639-.63797-.639-.35224 0-.63798.2858-.63798.639v3.0532 1.03c0 .3532-.28574.639-.63797.639-.35313 0-.63797-.2858-.63797-.639v-.2921-.7856c0-.3541-.28574-.639-.63798-.639-.35223 0-.63887.2849-.63887.639v1.5226 1.4829c0 .3533-.28484.6391-.63707.6391s-.63887-.2858-.63887-.6391v-.7451-.2417c0-.3532-.28484-.639-.637976-.639-.352233 0-.6379718.2858-.6379718.639l-.0107822.985v11.0603l9.57588 5.5302 9.57592-5.5302v-6.9969c0-.0108.0036-.0207.0036-.0324v-5.0906c-.0009-.3559-.2858-.6408-.6389-.6408zm-4.4299 10.8472h-3.0083v-2.29h-3.0066v2.29h-3.00746v-7.1713h3.00746v2.4105h3.0075v-2.4105h3.0083v7.1713z" fill="url(#f)" fill-rule="evenodd"/></svg>