<svg fill="none" height="50" viewBox="0 0 140 50" width="140" xmlns="http://www.w3.org/2000/svg"><path d="m45.0919 12.5247c.3422.0762.6844.1525 1.0267.2477.624.1715 1.228.4764 1.7514.8766 1.2078.9147 1.8923 2.1724 2.3956 3.5444.3623.9909.5838 2.0199.7649 3.068.1208.7431.1611 1.4673.2014 2.2295.0603 1.1052.1006 2.2295.1006 3.3348 0 .8956-.0604 1.7912-.161 2.6678-.141 1.3148-.3624 2.6297-.765 3.8873-.463 1.4292-1.1274 2.7441-2.3151 3.7731-.7247.6288-1.5702.9909-2.5164 1.2005-.6643.1334-1.3286.1525-1.9728.0762-1.1877-.0952-2.2547-.5145-3.1405-1.2958-.9864-.8384-1.5903-1.8865-2.0533-3.0489-.4228-1.029-.6442-2.1152-.8657-3.2014-.1006-.4764-.1006-.9528-.161-1.4291-.2013-1.5436-.1812-3.1061-.1409-4.6687.0201-.8956.1208-1.7913.2013-2.6869.1208-1.3339.4026-2.6678.8656-3.9255.3624-1.029.8858-1.9627 1.6306-2.8012.8657-.9718 1.9729-1.5244 3.2613-1.7722.1006-.019.1811-.0381.2818-.0571h1.6105zm3.543 10.9761h-.1006c0-.4954.0403-1.0099-.0201-1.5054-.0806-.8575-.2215-1.715-.3423-2.5725-.1811-1.0862-.4831-2.1342-1.0669-3.087-.3825-.6098-.8656-1.1053-1.5702-1.372-.5838-.2287-1.1878-.2668-1.7917-.1715-.6039.0762-1.1676.343-1.5903.7431-.6644.6098-1.0267 1.372-1.3086 2.1724-.4026 1.1624-.5838 2.3629-.7046 3.5634-.0805.8766-.1409 1.7532-.161 2.6297-.0201.8004.0201 1.6198.0403 2.4201.0201.6479.0604 1.3149.1207 1.9628.0604.686.1611 1.3529.2618 2.0389.161 1.0862.463 2.1343 1.0266 3.1061.3423.5717.765 1.0671 1.3891 1.372.7046.3621 1.4695.4193 2.2144.2859.7046-.1334 1.2481-.4955 1.7111-1.01.5838-.6669.9059-1.4482 1.1475-2.2676.4026-1.3339.5637-2.7059.6643-4.078.0604-.8956.0805-1.8103.1007-2.7249-.0202-.4764-.0202-.9909-.0202-1.5055zm-20.8155-10.9761c.3624.0762.7449.1525 1.1073.2477.7448.2097 1.4494.5717 2.0332 1.0862.9663.8194 1.5098 1.8865 1.852 3.0489.141.5336.2014 1.0862.2819 1.6388.0402.1906.0402.3812.0805.5908h-2.5164c-.0805-.4002-.1409-.8194-.2214-1.2196-.2013-.9337-.5838-1.7722-1.3287-2.401-.463-.3811-1.0468-.5908-1.6708-.686-.6442-.0763-1.2683-.0572-1.8722.1334-1.1475.3811-1.8722 1.1433-2.0937 2.3248-.2214 1.2576.1208 2.3629.9462 3.3538.765.9337 1.7715 1.6007 2.758 2.2676 1.0065.686 2.0332 1.353 2.9995 2.0771 1.0468.8194 1.9527 1.7912 2.5365 2.9918.3422.705.5838 1.4482.6442 2.2295.0402.6098.1006 1.2386.0402 1.8293-.1207 1.2768-.4831 2.4582-1.3689 3.4682-.7448.8575-1.691 1.353-2.7579 1.6578-.6643.1906-1.3488.2287-2.0333.2668-1.1877.0381-2.315-.1905-3.3618-.7622-.8858-.4764-1.5703-1.1624-2.0937-2.0009-.5234-.8384-.7851-1.7721-.9663-2.7059-.0805-.4383-.0805-.8956-.1207-1.372h2.5163c.0403.2858.0604.5717.1007.8575.1409 1.1624.5435 2.2105 1.4897 2.9727.5234.4192 1.1475.6479 1.8319.7241.7046.0953 1.3891.0572 2.0735-.1715 1.1475-.3811 1.8319-1.2005 2.1138-2.3057.1409-.4764.2013-.9528.2013-1.4483-.0202-.9527-.3422-1.8674-.926-2.6297-.7449-.9718-1.6911-1.6959-2.6976-2.401-.9864-.686-2.0131-1.3529-2.9593-2.0771-.8857-.6669-1.7312-1.4291-2.3352-2.3629-.5435-.8194-.926-1.6959-1.0468-2.6868-.1409-1.2768-.0402-2.5154.5637-3.6778.6844-1.2958 1.7514-2.1343 3.1606-2.5535.4026-.1334.8253-.1715 1.2481-.2668.0402-.019.0604-.019.0805-.0381zm36.4171 13.0342h-5.9789v11.5478h-2.6976v-24.2009h10.7097v2.0771c0 .0381-.0805.1144-.1409.1334-.0604.0191-.1409 0-.2013 0h-7.6699v8.194h5.9588v2.2486zm13.0852 11.5478h-2.6976v-21.9904h-5.1133v-2.2295h12.9242v.6098c.0201.4954.0402.9718.0402 1.4482 0 .0572-.1006.1334-.161.1524-.0604.0191-.1409 0-.2215 0h-4.7106v.4574.2477 20.3706c-.0201.3049-.0403.6098-.0604.9338z" fill="#e0e1e4"/><path d="m129.98 15.1487h-5.02v22.323l-.08-.0193c-.1-.0193-.22-.0193-.32-.0193-.62 0-1.26 0-1.88 0-.1 0-.18.0193-.26.0386-.16.0193-.22-.0386-.2-.2123.02-.0964.02-.1736.02-.2701v-21.4162c0-.4051 0-.4051-.42-.4051h-4.64v-2.3153h12.82v2.296zm-35.3 9.2224c.2.0772.34.1737.5.2123.88.2508 1.66.7524 2.26 1.447.4.4438.68.984.92 1.5435.38.8297.56 1.7365.52 2.6626-.02.3859 0 .7524 0 1.1383-.02.7718-.2 1.5049-.46 2.2381-.32.9261-.92 1.6786-1.68 2.296-.34.2701-.74.463-1.12.6752-.5.2509-1.02.3859-1.56.521-.62.1543-1.22.2701-1.86.2701-1.98.0386-3.96.0386-5.94.0579-.38 0-.38 0-.38-.3666v-23.9051-.328h.3 6.68c.54 0 1.08.1351 1.62.2701.62.1544 1.22.4438 1.72.849.42.328.78.7524 1.12 1.1576.44.5402.64 1.2155.84 1.8522.1.328.14.6753.18 1.0226s.06.6946.06 1.0418c-.02 1.1577-.26 2.2767-.9 3.2607-.48.7332-1.12 1.3313-1.92 1.7172-.3.1157-.56.2315-.9.3665zm-6.06 1.3313v.193 8.9523.0772c-.02.135.06.1929.2.1929 1.32-.0386 2.64.0772 3.96-.135.48-.0772.94-.2123 1.38-.4245.8-.3666 1.34-1.0033 1.68-1.7943.28-.656.36-1.3892.36-2.1031 0-.6752-.06-1.3505-.24-2.0065s-.46-1.2155-.9-1.7172c-.46-.5209-1.08-.8103-1.72-1.0225-.44-.1351-.9-.1737-1.36-.2123-.38-.0386-.78 0-1.16 0zm.02-10.5537v8.2578h1.54c.22 0 .44 0 .66-.0193.48-.0579.98-.1158 1.46-.193.2-.0386.42-.0579.62-.1157.28-.0965.56-.2509.86-.3859.62-.2701 1.06-.7525 1.38-1.312.3-.5209.42-1.119.48-1.7172.06-.7524.04-1.4856-.14-2.2187-.22-.8683-.74-1.4857-1.52-1.8716-.56-.2701-1.2-.3665-1.82-.3858-1.18-.0772-2.34-.0386-3.52-.0386zm14.42-2.296h11.34v2.296h-8.6v8.2578h5.96c.42 0 .42-.0001.42.4244v1.8908h-6.4v.2701 8.8366c0 .2701.08.3087.34.3087 2.76-.0193 5.5 0 8.26 0 .46 0 .46 0 .46.4631v1.6014c0 .2122-.06.2894-.28.2508-.08-.0193-.16-.0193-.22 0h-11.26v-24.5997zm-88.16-.328c.2.0579.4.1351.62.193.54.1543 1.04.4051 1.46.7524.5.4245.92.9068 1.16 1.5242.12.3087.2.6367.26.9647.06.2508.1.5017.1.7525-.02.8489-.24 1.6593-.7 2.3731-.44.6753-1.08 1.1384-1.8 1.4857-.4.1736-.8.2894-1.24.3087-.16 0-.3.0964-.46.0771-.38-.0386-.74-.1543-1.1-.1736-.48-.0579-.88-.2701-1.28-.5209-.5-.2895-.9-.6946-1.24-1.1577-.3-.4244-.5-.9068-.58-1.4277-.02-.0579-.06-.0965-.1-.1351v-1.7171c.04-.0772.08-.1544.1-.2316.06-.1736.1-.3472.16-.5016.28-.6946.76-1.2734 1.36-1.7171.52-.4052 1.1-.6753 1.76-.7525.08 0 .14-.0579.22-.0965zm-.68 2.1223c-1.34.0193-2.16.9261-2.16 2.0645.02 1.4277 1.02 2.1223 2.14 2.1416 1.16.0193 2.14-.7525 2.16-2.0837.04-1.1963-.92-2.1802-2.14-2.1224zm1.24 22.8247h-2.6v-14.6634c.44.0579.86.1544 1.3.1737.44 0 .86-.0965 1.3-.1544z" fill="#ffb700"/></svg>