<svg fill="none" height="50" viewBox="0 0 140 50" width="140" xmlns="http://www.w3.org/2000/svg" xmlns:xlink="http://www.w3.org/1999/xlink"><linearGradient id="a" gradientUnits="userSpaceOnUse" x1="-1.87038" x2="51.2307" y1="4.32392" y2="38.5871"><stop offset=".21" stop-color="#efa26f"/><stop offset=".47" stop-color="#d2000e"/><stop offset="1" stop-color="#7d0000"/></linearGradient><linearGradient id="b"><stop offset="0" stop-color="#efa26f"/><stop offset=".56" stop-color="#d2000e"/><stop offset="1" stop-color="#7d0000"/></linearGradient><linearGradient id="c" gradientUnits="userSpaceOnUse" x1="9.58662" x2="66.1968" xlink:href="#b" y1="11.4644" y2="11.4644"/><linearGradient id="d" gradientUnits="userSpaceOnUse" x1="9.35598" x2="43.0598" xlink:href="#b" y1="17.7568" y2="49.5353"/><linearGradient id="e" gradientUnits="userSpaceOnUse" x1=".576241" x2="53.4356" y1="3.08023" y2="35.742"><stop offset=".47" stop-color="#d2000e"/><stop offset=".77" stop-color="#7d0000"/></linearGradient><linearGradient id="f"><stop offset="0" stop-color="#9e9e9f"/><stop offset=".09" stop-color="#b5b5b6"/><stop offset=".22" stop-color="#d0d0d0"/><stop offset=".36" stop-color="#e5e5e5"/><stop offset=".52" stop-color="#f3f3f3"/><stop offset=".7" stop-color="#fcfcfc"/><stop offset="1" stop-color="#fff"/></linearGradient><linearGradient id="g" gradientUnits="userSpaceOnUse" x1="18.5932" x2="18.5932" xlink:href="#f" y1="9.73345" y2="12.3252"/><linearGradient id="h" gradientUnits="userSpaceOnUse" x1="18.5932" x2="18.5932" xlink:href="#f" y1="2420.04" y2="2421.59"/><linearGradient id="i" gradientUnits="userSpaceOnUse" x1="24.8353" x2="31.8261" xlink:href="#f" y1="10.8903" y2="10.8903"/><linearGradient id="j" gradientUnits="userSpaceOnUse" x1="28.3307" x2="28.3307" xlink:href="#f" y1="2420.04" y2="2421.59"/><linearGradient id="k" gradientUnits="userSpaceOnUse" x1="38.0638" x2="38.0638" xlink:href="#f" y1="9.76407" y2="12.2863"/><linearGradient id="l" gradientUnits="userSpaceOnUse" x1="38.0638" x2="38.0638" xlink:href="#f" y1="2353.74" y2="2355.25"/><linearGradient id="m" gradientUnits="userSpaceOnUse" x1="19.4375" x2="21.8997" xlink:href="#f" y1="26.2713" y2="27.9435"/><linearGradient id="n" gradientUnits="userSpaceOnUse" x1="12.2678" x2="16.1202" xlink:href="#f" y1="27.1411" y2="27.1411"/><linearGradient id="o" gradientUnits="userSpaceOnUse" x1="44.8195" x2="34.4344" y1="27.8672" y2="30.2548"><stop offset=".03" stop-color="#9e9e9f"/><stop offset=".09" stop-color="#b5b5b6"/><stop offset=".17" stop-color="#d0d0d0"/><stop offset=".25" stop-color="#e5e5e5"/><stop offset=".35" stop-color="#f3f3f3"/><stop offset=".46" stop-color="#fcfcfc"/><stop offset=".65" stop-color="#fff"/></linearGradient><path d="m64.5819 31.1419h-2.0416c-.1828 0-.2742-.0478-.3482-.1652l-3.4911-5.1923v5.0531c0 .1653-.1349.3044-.3047.3044h-1.5105c-.1654 0-.3047-.1391-.3047-.3044v-10.7019c0-.1653.135-.2914.3047-.2914h1.5105c.1698 0 .3047.1218.3047.2914v4.84l3.7349-5.0096c.074-.1087.1828-.1218.3482-.1218h1.7368c.2003 0 .2917.0739.2917.1826 0 .074-.0435.1653-.1088.2436l-3.9003 5.04 3.9307 5.5097c.0436.0739.0784.1392.0784.1827 0 .0913-.0784.1391-.2264.1391z" fill="#fff"/><path d="m74.5154 31.1418h-1.6149c-.1393 0-.2568-.1217-.2917-.2565l-.7008-2.8919h-3.5041l-.7008 2.8919c-.0305.1348-.1524.2565-.2917.2565h-1.6149c-.1524 0-.2743-.1087-.2743-.2565 0-.0174.0174-.0479.0174-.0783l2.4986-9.5452c.3657-1.4133 1.4626-1.5525 2.1199-1.5525s1.7543.1392 2.1199 1.5525l2.4986 9.5452c0 .0304.0174.0609.0174.0783 0 .1522-.1219.2565-.2742.2565zm-4.1135-9.406c-.0479-.1827-.0914-.2435-.2438-.2435-.1523 0-.2002.0608-.2437.2435l-1.097 4.5225h2.6814z" fill="#b11219"/><g fill="#fff"><path d="m87.1301 31.0027c-.7617.1522-1.7542.2609-3.3213.2609-1.6454 0-4.083-1.0828-4.083-4.6748v-2.1917c0-3.6093 2.3157-4.6878 4.1309-4.6878 1.4626 0 2.7729.1827 3.2778.274.2002.0435.2916.1217.2916.3174v1.022c0 .213-.0609.3218-.3047.3218h-.0478c-.7009-.0609-1.7543-.1218-3.2169-.1218-1.0186 0-1.9936.7132-1.9936 2.8788v2.1917c0 2.1612 1.0534 2.8614 1.9501 2.8614.5615 0 1.036-.0131 1.5061-.0435v-3.8833c0-.1696.1219-.3044.2917-.3044h1.5104c.1655 0 .3047.1348.3047.3044v5.1139c0 .2001-.0914.3218-.2916.3653z"/><path d="m95.6185 31.1419h-1.2972c-.1654 0-.3047-.1392-.3047-.3044v-.2436c-.7008.4262-1.4147.6697-2.1503.6697-1.2667 0-2.6379-.487-2.6379-2.5439v-.0609c0-1.7351 1.0665-2.6353 3.7174-2.6353h.962v-.6696c0-.9872-.4396-1.2307-1.3407-1.2307-.9751 0-1.9806.0609-2.4855.1218h-.074c-.1524 0-.2743-.0479-.2743-.261v-.9741c0-.1652.0914-.2739.2917-.3174.6094-.1218 1.493-.2435 2.5465-.2435 2.1634 0 3.3517.961 3.3517 2.9092v5.4793c0 .1652-.1393.3044-.3047.3044zm-1.7063-3.7746h-.962c-1.3886 0-1.6933.4392-1.6933 1.2915v.0609c0 .7436.3351.9436 1.0969.9436.5485 0 1.1144-.1826 1.554-.4261v-1.8743z"/><path d="m108.538 31.1419h-1.402c-.165 0-.304-.1522-.304-.3218v-5.1748c0-1.1742-.244-1.4742-1.097-1.4742-.292 0-.871.0913-1.419.3827.047.3348.061.7131.061 1.0958v5.1749c0 .1696-.135.3218-.305.3218h-1.402c-.165 0-.305-.1522-.305-.3218v-5.1749c0-1.1741-.2-1.4742-1.053-1.4742-.322 0-.779.1653-1.4016.5001v6.149c0 .1696-.1349.3218-.3047.3218h-1.4016c-.1698 0-.3048-.1522-.3048-.3218v-7.9624c0-.1652.135-.3044.3048-.3044h1.3233c.1654 0 .3047.1392.3047.3044v.3218c.6399-.4131 1.2799-.7305 2.1809-.7305s1.432.2609 1.78.6871c.779-.4262 1.463-.6871 2.516-.6871 2.072 0 2.529 1.4176 2.529 3.1962v5.1749c0 .1696-.139.3218-.304.3218z"/><path d="m112.617 21.4139h-1.476c-.17 0-.322-.1391-.322-.3044v-1.3393c0-.1696.152-.3044.322-.3044h1.476c.169 0 .304.1348.304.3044v1.3393c0 .1653-.135.3044-.304.3044zm-.044 9.7279h-1.402c-.165 0-.304-.1522-.304-.3218v-7.9623c0-.1653.139-.3044.304-.3044h1.402c.165 0 .305.1391.305.3044v7.9623c0 .1696-.14.3218-.305.3218z"/><path d="m121.641 31.1419h-1.402c-.165 0-.305-.1522-.305-.3218v-4.9618c0-1.322-.121-1.7047-1.292-1.7047-.518 0-1.084.2131-1.724.548v6.1185c0 .1696-.135.3218-.305.3218h-1.402c-.169 0-.304-.1522-.304-.3218v-7.9624c0-.1652.135-.3044.304-.3044h1.324c.165 0 .304.1392.304.3044v.3218c.884-.5609 1.463-.7305 2.469-.7305 2.193 0 2.637 1.4785 2.637 3.4093v4.9618c0 .1696-.139.3218-.304.3218z"/><path d="m131.161 23.9405-.505.2c.243.3479.383.6871.383 1.2176v.1087c0 1.9047-1.311 2.7701-3.613 2.7701-.81 0-1.358-.1392-1.663-.2609-.183.1217-.257.2609-.257.3957 0 .3044.165.4262.518.5044l1.798.4262c2.072.4871 3.413.8088 3.413 2.4352v.1087c0 1.5525-1.141 2.3918-3.735 2.3918-2.595 0-3.779-.9263-3.779-2.5266v-.1348c0-.6262.292-1.235.78-1.6742-.427-.3218-.688-.8523-.688-1.4002v-.0174c0-.4697.2-.9437.609-1.2307-.457-.4696-.627-1.0219-.627-1.7829v-.1087c0-1.5221.993-2.8005 3.626-2.8005h3.565c.231 0 .414.1826.414.4131v.6392c0 .2305-.061.2609-.244.3349zm-1.937 7.7927c0-.3349-.201-.5349-1.798-.9132l-1.358-.3175c-.231.3175-.383.5175-.383 1.0654v.1348c0 .6262.383 1.0046 1.815 1.0046s1.724-.3218 1.724-.8697v-.1088zm-.166-6.349c0-.7306-.322-1.2959-1.632-1.2959-1.311 0-1.646.5784-1.646 1.2959v.1218c0 .5609.227 1.2002 1.646 1.2002 1.266 0 1.632-.4392 1.632-1.2002z"/></g><path d="m27.4729 5.31975s14.108 3.64849 16.7371 4.33122c2.6292.68273 3.5303 1.43503 3.4432 4.63563-.087 3.1962-.2524 13.2937-.4483 16.1073-.1959 2.8092-.3004 4.4225-1.6541 5.5184-1.3538 1.0958-7.4654 6.0576-9.3633 7.5753-1.8978 1.5133-4.1527 2.0482-7.4043.874-3.2517-1.1741-13.9121-4.9052-15.9841-5.7749-2.072-.8698-2.7772-2.8266-2.90778-5.4575-.13494-2.6397-.68777-14.8723-.87059-17.1858-.18718-2.3134.85318-4.5704 4.76647-6.30113 3.9133-1.7264 5.4412-2.44827 8.3446-3.71806 2.9035-1.26545 5.3411-.61316 5.3411-.61316z" fill="url(#a)"/><path d="m44.2101 9.64666c2.0328.61314 2.1677 1.34374.148 2.38734l-8.7582 4.5139c-1.8369.9524-4.588 1.7829-6.6209 1.1698l-17.2768-5.1923c-2.03287-.6131-.518-1.722 2.2504-2.95267l7.6221-3.35713c2.9164-1.41765 4.07-1.41765 5.9026-.89582l16.7371 4.33123z" fill="url(#c)"/><path d="m32.4702 41.6568c0 2.0352-1.6498 3.2441-3.687 2.7005l-15.984-5.7749c-2.0372-.5436-2.88169-2.8397-2.88169-4.8748l-.8967-17.7641c0-2.0352.84012-3.0397 2.88169-2.4962l16.8807 5.3271c2.0372.5479 3.6783 2.3483 3.6783 4.3834l.013 18.4947z" fill="url(#d)"/><path d="m47.2051 30.3852c0 2.1482-.0783 4.0399-1.6541 5.5184l-9.3632 7.5753c-2.1547 1.1437-2.8425-.2392-2.8425-2.3874l.3047-17.9685c0-2.1526.5485-4.1529 2.7032-5.2966l9.6505-5.3662c1.6585-1.148 1.6585-.3262 1.6585 1.8221l-.4484 16.1072z" fill="url(#e)"/><path d="m15.1021 10.8902c0 .8436 1.5627 1.5307 3.4955 1.5307 1.9283 0 3.4954-.6871 3.4954-1.5307 0-.8437-1.5671-1.53073-3.4954-1.53073-1.9284 0-3.4955.68703-3.4955 1.53073z" fill="url(#g)"/><path d="m15.1021 10.8902c0 .8436 1.5627 1.5307 3.4955 1.5307 1.9283 0 3.4954-.6871 3.4954-1.5307 0-.8437-1.5671-1.53073-3.4954-1.53073-1.9284 0-3.4955.68703-3.4955 1.53073z" fill="url(#h)"/><path d="m18.5932 9.57702c1.8457 0 3.3387.62618 3.4693 1.42198.0044-.0348.0261-.0739.0261-.1087 0-.8436-1.5627-1.53071-3.4954-1.53071s-3.4954.68711-3.4954 1.53071c0 .0391.0174.0739.0261.1087.1306-.7914 1.6236-1.42198 3.4693-1.42198z" fill="#e50012"/><path d="m18.5931 10.1509c1.6149 0 2.9643.4827 3.3604 1.135.0566-.0913.0915-.187.1089-.287-.1306-.7914-1.6237-1.422-3.4693-1.422-1.8457 0-3.3388.6262-3.4694 1.422.0175.1.0523.1913.1089.287.4004-.6523 1.7455-1.135 3.3648-1.135z" fill="#ccc"/><path d="m24.8353 10.8903c0 .8436 1.5627 1.5307 3.4954 1.5307 1.9284 0 3.4954-.6871 3.4954-1.5307 0-.8437-1.567-1.53074-3.4954-1.53074s-3.4954.68704-3.4954 1.53074z" fill="url(#i)"/><path d="m24.8353 10.8903c0 .8436 1.5627 1.5307 3.4954 1.5307 1.9284 0 3.4954-.6871 3.4954-1.5307 0-.8437-1.567-1.53074-3.4954-1.53074s-3.4954.68704-3.4954 1.53074z" fill="url(#j)"/><path d="m28.3307 9.57699c1.8457 0 3.3387.62621 3.4693 1.42201.0044-.0348.0261-.0739.0261-.1087 0-.8437-1.5627-1.53074-3.4954-1.53074s-3.4954.68704-3.4954 1.53074c0 .0391.0174.0739.0261.1087.1306-.7915 1.6236-1.42201 3.4693-1.42201z" fill="#e50012"/><path d="m28.3304 10.1509c1.615 0 2.9644.4827 3.3605 1.135.0566-.0913.0914-.187.1089-.287-.1306-.7914-1.6237-1.422-3.4694-1.422-1.8456 0-3.3387.6262-3.4693 1.422.0174.1.0523.1913.1089.287.4004-.6523 1.7455-1.135 3.3648-1.135z" fill="#ccc"/><path d="m34.6641 10.8904c0 .8219 1.5192 1.4872 3.3953 1.4872s3.3997-.6653 3.3997-1.4872-1.5236-1.48726-3.3997-1.48726-3.3953.66536-3.3953 1.48726z" fill="url(#k)"/><path d="m34.6641 10.8904c0 .8219 1.5192 1.4872 3.3953 1.4872s3.3997-.6653 3.3997-1.4872-1.5236-1.48726-3.3997-1.48726-3.3953.66536-3.3953 1.48726z" fill="url(#l)"/><path d="m38.064 9.61651c1.7935 0 3.2473.60879 3.3736 1.38289.0043-.0348.0261-.0696.0261-.1044 0-.8219-1.5192-1.48722-3.3953-1.48722s-3.3997.66532-3.3997 1.48722c0 .0348.0174.0696.0262.1044.1262-.7697 1.5801-1.38289 3.3735-1.38289z" fill="#e50012"/><path d="m38.0635 10.1685c1.5714 0 2.8817.4697 3.2691 1.1045.0566-.0913.0871-.1826.1045-.2783-.1263-.7697-1.5802-1.38282-3.3736-1.38282s-3.2473.60882-3.3735 1.38282c.0174.0957.0479.187.1045.2783.3874-.6348 1.6976-1.1045 3.269-1.1045z" fill="#ccc"/><path d="m25.0615 32.529c-.3221-.6393-.8097-1.6047-1.0795-2.1396-.2699-.5348-.296-1.2306-.0653-1.5437s.8009-1.0176 1.2623-1.5699l3.0253-3.6311c.4614-.5522.2743-1.1784-.4091-1.4002l-3.5346-1.1089c-.6835-.2174-1.2493-.3262-1.5279.0522-.3875.5305-.6225.9219-1.0404 1.5089l-.444.6219c-.4179.5827-1.1056 1.5351-1.5322 2.1134l-.8445 1.1437c-.4266.5784-.5093 1.5742-.1872 2.2135l4.5053 9.1842c.3483.7915.7574 1.2437 1.776 1.6264l3.2517 1.1828c.6791.2349.9707-.1.6442-.7392l-3.8045-7.5144z" fill="url(#m)"/><path d="m18.2183 35.834-.3482-6.9795-.2133-8.7321h-.0087c-.1306-.8697-1.1753-1.4742-1.1753-1.4785-.9751-.3131-2.1416-.7436-3.1298-1.048-1.2319-.2131-1.2101.7871-1.2101.7871.1741 3.4789.6486 12.437.7792 15.7246v.0783c.0218.1956.161 1.0001 1.0534 1.4133.9359.3261 2.146.7566 3.0166 1.0741.1088.0261 1.2362.2609 1.2362-.8393z" fill="url(#n)"/><path d="m18.8756 27.0106.8444-1.1437c.4266-.5784 1.1144-1.5264 1.5323-2.1134l.444-.6219c.4179-.5827.6529-.9784 1.0403-1.509.2786-.3783.8402-.2696 1.5279-.0521l3.5346 1.1089c.3352.1087.5485.313.6269.5609.1218-.4261-.1089-.8306-.6269-.9958l-3.5346-1.1089c-.6834-.2174-1.2493-.3262-1.5279.0522-.3874.5305-.6224.9219-1.0403 1.5089l-.444.6219c-.4179.5827-1.1057 1.5351-1.5323 2.1134l-.8444 1.1437c-.2873.387-.4136.9654-.37 1.4959.0348-.3957.161-.7784.37-1.061z" fill="#e50012"/><path d="m13.3474 34.6251s0-.0652 0-.0783c-.1306-3.2875-.6051-12.2457-.7792-15.7246 0 0-.0218-.9958 1.2101-.7871.9881.3088 2.1547.735 3.1298 1.0481 0 0 .1611.0956.3613.2609-.3482-.4262-.7966-.6958-.7966-.6958-.9751-.3131-2.1416-.7436-3.1298-1.048-1.2319-.2131-1.2101.7871-1.2101.7871.1741 3.4789.6486 12.437.7792 15.7246v.0782c.0174.1696.1306.8045.7487 1.2394-.2394-.3435-.3004-.6871-.3134-.8045z" fill="#e50012"/><path d="m45.0763 31.5592c-.0087-.0392-.0174-.0739-.0217-.1131l-1.6759-8.8799c-.0174-.113-.0392-.2261-.0566-.3392-.0479-.2739-.0958-.5522-.1437-.8262-.0565-.3392-.1175-.6784-.1741-1.0176-.0522-.3087-.1088-.6175-.161-.9306-.0349-.2174-.074-.4305-.1132-.6479-.0174-.1-.0218-.1914-.0914-.274-.1872-.2131-.5006-.3087-.7835-.2696-.0784.0087-.1524.0261-.2264.0478-.0479.0131-.1306.074-.1785.074-.222.1217-.4527.2435-.6703.3609-.0914.0478-.1785.0957-.2656.1435-.7661.4827-1.0098 1.3568-1.0098 1.3568-.0958.5305-.209 1.148-.2569 1.4002l-.309 1.6351-2.9209 15.1071-.2002.9698-.0087.0434c-.0392.1914-.1045.6567.1523.7393.2003.0652.37-.0957.5093-.2044.1567-.1217.3091-.2392.4615-.3609.1218-.0957.4048-.3175.8488-.661.4353-.3392.5267-.8871.5267-.8828.3178-1.9308.6268-3.718.9272-5.3531l2.8425-2.0874c.2785 1.4829.4918 2.7962.6572 3.9573 0 0 .0392.3653.4615.1348.3438-.2696.7661-.6001 1.1622-.9176.4005-.3131.6704-.4827.8184-.948.1088-.3392-.0349-.9132-.1045-1.2524zm-3.7522-4.1703-1.0491.7305c-.1959.1348-.3177.0609-.2786-.1696l.2525-1.3785c.0435-.2261.1088-.6001.1524-.8306l.4831-2.7092c.0392-.2304.1002-.2261.1393 0l.5833 3.6877c.0349.2304-.0914.5261-.2873.661z" fill="url(#o)"/><path d="m45.0765 31.5592c-.0087-.0392-.0174-.0739-.0218-.1131l-1.6759-8.8799c-.0174-.113-.0392-.2261-.0566-.3392-.0479-.2739-.0957-.5522-.1436-.8262-.0566-.3392-.1175-.6784-.1741-1.0176-.0523-.3087-.1089-.6175-.1611-.9306-.0348-.2174-.074-.4305-.1132-.6479-.0174-.1-.0217-.1914-.0914-.274-.1872-.2131-.5006-.3087-.7835-.2696-.0784.0087-.1524.0261-.2264.0478-.0479.0131-.1306.074-.1784.074-.222.1217-.4527.2435-.6704.3609-.0914.0478-.1785.0957-.2655.1435-.7661.4827-1.0099 1.3568-1.0099 1.3568 0 .0217-.0087.0478-.0131.0696.1306-.2957.4049-.7828.9141-1.1002.0828-.0479.1742-.0957.2656-.1435.2176-.1175.4483-.2436.6703-.361.0436 0 .1306-.0609.1785-.0739.074-.0218.1524-.0348.2264-.0478.2829-.0392.5963.0565.7835.2696.0696.0826.074.1739.0914.2739.0392.2175.074.4305.1132.648.0522.3087.1088.6175.161.9306.061.3392.1176.6784.1742 1.0176.0478.2739.0957.5522.1436.8262.0174.1131.0392.2261.0566.3392l1.6759 8.8755c.0087.0391.013.0739.0217.1131.0653.3131.1785.8132.1176 1.1611.0348-.0696.0696-.1435.0957-.2305.1089-.3392-.0348-.9132-.1044-1.2524z" fill="#c90018"/></svg>