<?xml version="1.0" encoding="utf-8"?>
<svg xmlns="http://www.w3.org/2000/svg" fill="none" height="19" viewBox="0 0 53 19" width="53">
<g clip-path="url(#clip0_13314_295557)">
<path d="M27.7286 0H27.1887V18.7114H27.7286V15.1112H34.5473V12.9313H29.3008V10.421H33.7858V8.22474H29.3008V5.79652H34.5473V3.60025H27.7286V0Z" fill="#D3DCE1"/>
<path d="M6.50467 10.6591L4.56702 7.52272L2.08338 3.63922L2.05875 3.60022H0V15.1112H2.28454V8.03587L3.98819 10.7925L6.7284 15.1112H8.80357V3.60022H6.50467V10.6591Z" fill="#D3DCE1"/>
<path d="M10.0884 15.1112H17.6337V12.9313H12.3873V10.421H16.8722V8.22471H12.3873V5.79649H17.6337V3.60022H10.0884V15.1112Z" fill="#D3DCE1"/>
<path d="M18.5596 5.81291H21.1972V15.1112H23.4961V5.81291H26.1172V3.60022H18.5596V5.81291Z" fill="#D3DCE1"/>
<path d="M42.2012 10.6776L40.2636 7.54327L37.7799 3.65977L37.7553 3.61871H35.6965V15.1297H37.979V8.05437L39.6827 10.811L42.4249 15.1297H44.5001V3.61871H42.2012V10.6776Z" fill="#D3DCE1"/>
<path d="M45.4402 3.61871V5.83141H48.0778V15.1297H50.3767V5.83141H52.9978V3.61871H45.4402Z" fill="#D3DCE1"/>
</g>
<defs>
<clipPath id="clip0_13314_295557">
<rect fill="white" height="18.7114" width="53"/>
</clipPath>
</defs>
</svg>