<svg fill="none" height="50" viewBox="0 0 140 50" width="140" xmlns="http://www.w3.org/2000/svg"><path d="m30.198 10.8267c1.993-1.48343 4.5956-1.91117 7.0368-1.77408 2.1822.1042 4.3924.80615 6.0207 2.27858 1.6729 1.5383 2.7112 3.7236 2.8921 5.9693-1.2915.0055-2.5803.0027-3.8691.0027-.2672-1.2037-.7599-2.4513-1.8121-3.1944-1.8538-1.3627-4.4146-1.4669-6.5663-.8116-1.8149.5237-3.0786 2.1908-3.3597 3.9978-1.2972.0165-2.5943.0082-3.8886.0055.2477-2.5034 1.4808-4.9493 3.5462-6.4738zm20.3198-1.81521c1.2832-.00548 2.5636-.00548 3.844 0 .0613 2.75841.014 5.51961.0251 8.28081-1.2971.0192-2.5943.0192-3.8942 0 .0139-2.7612-.0334-5.5224.0251-8.28081zm17.0269.03017c1.2442-.03565 2.4912-.06855 3.7327-.00823.3145.24129.0918.73485.167 1.07487-.0139 2.3992 0 4.7984-.0083 7.1949-1.2972-.0027-2.5943.0055-3.8886-.0055-.0084-2.7529-.0084-5.5031-.0028-8.25604zm12.8766 1.30794c1.8538-1.18181 4.1976-1.55472 6.3576-1.17084 2.0292.36742 3.6576 1.77954 4.8545 3.36444 1.1969-1.5602 2.8197-2.90105 4.8016-3.31783 2.5107-.52098 5.372-.01097 7.265 1.77683 1.715 1.6424 2.591 3.9813 2.775 6.2983-1.291.0055-2.586.0027-3.877.0027-.198-1.3737-.638-2.8599-1.862-3.6824-1.626-1.0228-3.8918-.9323-5.459.159-1.1245.8171-1.5977 2.2045-1.7619 3.5207-1.286.0027-2.5748.0082-3.8636-.0055-.2143-1.382-.746-2.8297-1.9457-3.6742-1.9318-1.2614-4.9296-.8281-6.2184 1.1351-.5122.7568-.7293 1.6534-.8657 2.5418-1.311.0055-2.6193.0165-3.9303-.0109.2644-2.6597 1.4335-5.3825 3.7299-6.9372zm30.7807-1.33811c1.28-.00548 2.56-.00548 3.844 0 .058 2.75841.011 5.51961.025 8.28081-1.3.0219-2.6.0082-3.897.0109.014-2.7639-.034-5.5278.028-8.29171zm8.267.03017c4.3-.07404 8.601-.01645 12.904-.02742.045 1.29696.02 2.59386.022 3.89086-1.464.0247-2.925-.0027-4.386.0192-.128 1.456-.039 2.9202-.067 4.3789-1.297 0-2.594.0055-3.892-.0055-.011-1.4587.006-2.9147-.011-4.3734-1.528-.0219-3.056.011-4.581-.0219 0-1.286-.014-2.5748.011-3.86074zm-112.469.10419c2.2992-.00548 4.5956.00549 6.8948-.00548 2.7919-.13162 5.6923 1.07483 7.4098 3.27393 1.0856 1.3847 1.4474 3.1642 1.517 4.8752-1.311.0247-2.6221.011-3.9331.011-.0279-1.5437-.721-3.2026-2.2101-3.8854-1.8038-.8144-3.8441-.4168-5.7592-.4771-.0445 1.456-.0111 2.9092-.0223 4.3652-1.29986-.0027-2.59699.011-3.8969-.0137 0-2.7145.00278-5.4291 0-8.14365zm0 9.13075c1.29713-.0246 2.59425-.0137 3.8914-.0082.0111 3.3781.0028 6.759.0055 10.1398h-3.8969zm11.8606.1234c1.3111.0028 2.6193-.0055 3.9276.0082.0167 3.3754.0028 6.748.0084 10.1234-1.3194.1097-2.6416.0713-3.9638-.0055.0111-3.3753-.0417-6.7507.0278-10.1261zm7.8301-.1261c1.2972-.0165 2.5943-.0192 3.8942.0027-.1058 1.6726.2004 3.4631 1.4029 4.7272 2.6527 2.8187 8.32 2.1086 9.8092-1.5821.5344-.9734.3924-2.1004.4509-3.1588 1.311.0028 2.6221-.0109 3.9331.0137.1559 2.4897-.437 5.0836-2.0264 7.0688-1.6116 2.0812-4.2978 3.1149-6.8976 3.2109-2.7334.181-5.6812-.4278-7.7187-2.3334-2.1155-2.0291-3.1705-5.0672-2.8476-7.949zm23.802 10.2714c.0167-3.4302-.0334-6.8577.0251-10.2879 1.2888.011 2.5803-.0054 3.8719.0165.0195 2.1058-.0334 4.2144.0195 6.3175l.0918.0932c2.675.0549 5.3528.0055 8.0305.022 0 1.2777-.0028 2.5582 0 3.836-4.0083.1206-8.0305.1151-12.0388.0027zm17.0548-10.2769c1.2971-.0055 2.5942-.0164 3.8913.0082 0 3.4193-.0027 6.8358 0 10.2523-1.2971.1042-2.5998.1069-3.8969 0 .0028-3.4193-.0084-6.8413.0056-10.2605zm9.1856 0c1.2971-.0055 2.5943-.0164 3.8914.0082v10.2797c-1.2971.0877-2.6026.0877-3.8969.0055.0055-3.4302-.0084-6.8632.0055-10.2934zm12.885.0027c1.3138-.0137 2.6304-.0109 3.9443-.0027.0111 3.4247 0 6.8522.0055 10.2797-1.3194.0959-2.6499.1151-3.9665-.0137.0111-3.4193-.0223-6.8413.0167-10.2633zm12.9909 10.2523c-.142-3.4083-.042-6.844-.047-10.2605h3.863c.159 3.433.106 6.8796.031 10.3153-1.281.0329-2.572.1124-3.847-.0548zm8.568.0466c-.009-3.4357-.003-6.8714-.003-10.3071h3.88c.039 3.4275.006 6.855.017 10.2824-1.295.1042-2.597.0905-3.894.0247zm12.876-10.3016c1.295-.0082 2.592-.0164 3.892.0082 0 3.4248-.003 6.8495 0 10.2742-1.298.0905-2.603.1124-3.897-.0137.002-3.422-.006-6.8467.005-10.2687z" fill="#fffc00"/><path d="m34.6711 35.8143c1.1636-1.0447 2.9868-.9954 4.3145-.2879-.167.3948-.3312.7897-.4927 1.1873-.8267-.3181-1.9178-.7705-2.6527-.0192-.8072 1.009-.8267 2.6131-.0473 3.644.8267.7404 2.0014.2962 2.9366.0549.0028.425.0028.8527.0056 1.2777-.9965.3236-2.0932.4552-3.1148.1783-1.1524-.3236-1.8232-1.5109-1.8956-2.6296-.1113-1.1873.0251-2.5391.9464-3.4055zm22.1542-.6883h1.5309v6.7864h-1.5309zm19.276 0h5.2191v1.2339h-1.8789c.0056 1.8454-.0111 3.6935.0112 5.5388-.515.0083-1.03.0137-1.5421.0192v-5.558h-1.8093c-.0028-.4113-.0028-.8226 0-1.2339zm22.0344-.0027c.5623.0028 1.1274.0027 1.6924.0027.4569.8857.9099 1.7741 1.3499 2.6707.49-.8747.952-1.7658 1.392-2.6679.557-.0028 1.116-.0028 1.676-.0082-.749 1.4039-1.576 2.7666-2.28 4.1897-.111.861-.025 1.7357-.045 2.6021h-1.467c-.008-.8418.039-1.6835-.022-2.5226-.7096-1.4505-1.5419-2.8407-2.2963-4.2665z" fill="#fff"/></svg>