<svg fill="none" height="50" viewBox="0 0 140 50" width="140" xmlns="http://www.w3.org/2000/svg"><g fill="#fff"><path d="m111.392 20.5437-.006.9699c-.684-.5019-1.322-.9487-2.212-.9487-.983-.0805-2.006.504-2.085 1.5522-.091.8259.45 1.4273 1.102 1.836 1.115.6861 2.498 1.1244 3.259 2.2573.767 1.2579.487 3.1362-.748 4.0087-1.384 1.0164-3.564.8131-5.013.0296 0-.3981.002-.7983.002-1.1964.99.9762 2.284 1.6432 3.68 1.1202 1.225-.4659 1.445-2.2044.555-3.0832-.964-.9403-2.627-1.3045-3.576-2.3548-1.119-1.2304-.697-3.4729.765-4.2501 1.248-.7348 3.013-.5675 4.277.0593z"/><path clip-rule="evenodd" d="m55.7975 20.3763c-1.1462-.0007-2.2932-.0013-3.4388.0148.0697.0697.1492.1383.2303.2084.1979.1711.4057.3509.5049.573.1324.4223.1394.8941.146 1.3432.0012.0826.0025.1646.0044.245-.0032 2.0096-.0028 4.019-.0023 6.0278l.0002 2.0065h1.6292v-4.3454c.3091-.0207.6225-.0254.936-.0301.9994-.0148 2.0017-.0298 2.8839-.5649 1.5445-.8725 1.6716-3.3543.4428-4.5381-.6674-.7052-1.7818-.9169-2.7118-.9402zm-.443.5811c-.1483.0021-.296.004-.4428.0033l-.0005 1.6285c-.0004 1.0857-.001 2.1714.0005 3.2569.1802-.0043.3605-.004.5406.0008.6818.0121 1.3789.0246 1.9255-.4349.7436-.612.8029-1.5501.7563-2.4438-.0339-.8724-.5974-1.7851-1.4957-1.9672-.4221-.0551-.8547-.0494-1.2839-.0436z" fill-rule="evenodd"/><path d="m70.8883 21.9286c.0021.5908.0085 1.1816.0149 1.7703.7203.0021 1.4385-.0106 2.1567.0021.0085.1631.0191.3283.0276.4934-.7331.0127-1.464.0085-2.1949.0127.0063 1.637-.0085 3.276.0042 4.9129.0127.4955.1059.9953.5911 1.2388.6674.2732 1.3538-.1567 1.964-.3896l-.0932.5823c-.8178.4807-2.1547.5485-3.0043.1144-.6822-.3494-.9428-1.0377-.9618-1.7682-.0276-1.5607 0-3.1235-.0106-4.6842-.3623-.0085-.7246-.0191-1.0869-.036.7966-.8492 1.6886-1.5141 2.5932-2.2489zm55.1247 1.6115c.769-.2266 1.78-.2202 2.454.2647.62.4722.735 1.1986.762 1.9313.022 1.6411-.008 3.2823.013 4.9213-.519-.0148-1.036.0233-1.555.0064-.017-1.7915.021-3.5831-.013-5.3724-.008-.5718-.354-1.097-.949-1.169-.763-.1313-1.328.2838-1.849.7814-.221.2393-.435.4701-.437.8132-.032 1.6475.002 3.2971-.011 4.9446h-1.495c-.013-1.999.021-4.0023-.013-6.0013.025-.4764-.424-.7475-.686-1.0969.739.0063 1.481.0042 2.22.0063.011.3727.015.7454.019 1.1181.458-.451.905-.9592 1.54-1.1477zm9.477.2139c0 .2816-.002.5633-.004.8449-.799-.5485-1.583-.919-2.564-.5654-.638.2456-.928 1.1393-.362 1.6073.743.6141 1.828.8174 2.582 1.4505.632.5294.822 1.5162.549 2.2765-.25.6543-.818 1.0694-1.462 1.2917-1.097.3515-2.203.2033-3.265-.1884.003-.3135.003-.6269.005-.9403.887.5697 1.877 1.1224 2.928.576.69-.343.9-1.3447.326-1.8847-.739-.6352-1.968-.8089-2.699-1.5416-.786-.7983-.606-2.2404.347-2.8312 1.041-.6628 2.511-.5125 3.619-.0953zm-53.5148-.0593c.7182.0085 1.4364.0063 2.1546.0021.0085.504.0233 1.0059.0276 1.5077.4216-.7199.8157-1.4421 1.7012-1.6411.5657-.1292.9894.108 1.4894.3176-.0911.3156-.1822.6311-.2754.9466-.6059-.2965-1.2034-.4976-1.8453-.1567-.7564.4362-.9873 1.2854-1.0191 2.1049-.0275 1.3362.0127 2.6746-.019 4.0129-.5128.0021-1.0255.0085-1.5382.0085-.0169-2.0372.0339-4.0807-.0212-6.1157-.0127-.4638-.3792-.6586-.6546-.9868z"/><g clip-rule="evenodd" fill-rule="evenodd"><path d="m120.113 24.5353c-1.017-1.0419-2.68-1.3532-4.057-.9974-1.822.4743-3.002 2.2235-2.716 4.0976.205 1.855 1.836 3.1849 3.671 3.1997 1.642.1038 3.248-.7475 3.858-2.3146.449-1.2959.265-2.9921-.756-3.9853zm-1.117.504c-.445-.8788-1.328-1.3616-2.311-1.1012-.776.2224-1.246.8831-1.492 1.6179-.307.9826-.317 2.1049-.017 3.0896.301.9275 1.002 1.7449 2.049 1.7364 1.032-.0063 1.742-.8661 2.013-1.7872.305-1.1139.29-2.5094-.242-3.5555zm-51.46 1.9666c-.0354-.7676-.068-1.4745-.4994-2.1445-.8623-1.4866-3.1228-1.7174-4.4788-.8386-2.144 1.3214-2.2923 4.9065-.1758 6.3275 1.5593.9444 3.5275.7454 5.0508-.1843-.0508-.1715-.1017-.343-.1546-.5167-1.0657.612-2.3941 1.0843-3.5551.4278-1.0297-.6798-1.1377-1.8339-1.2246-2.9583.84-.0042 1.6801-.0038 2.5203-.0032.8403.0004 1.681.0011 2.5221-.0032zm-1.5508-.6439c-.05-.6599-.0973-1.2806-.5015-1.8521-.4449-.684-1.5827-.6671-2.1081-.0911-.5635.5739-.7203 1.4506-.8305 2.2129 1.0085.0091 2.0187.0072 3.0288.0051l.4331-.0008c-.0079-.0921-.0149-.1834-.0218-.274zm14.8205.7526c-.0403-1.3066-.3157-2.5708-1.5466-3.2527-1.2034-.5739-2.8835-.4553-3.8771.4913-1.6611 1.4442-1.6822 4.483.0614 5.8658 1.3284.9741 3.322.9444 4.7563.2181.4481-.2211.4458-.2431.402-.6605-.0045-.0423-.0094-.0887-.0142-.14-.8221.4341-1.6017.8132-2.5615.7497-.7881-.0043-1.4449-.4786-1.8072-1.1584-.3487-.617-.3928-1.2485-.4404-1.9289l-.013-.1802c.9166-.0034 1.8329-.0032 2.7494-.0028.7635.0002 1.5273.0005 2.2909-.0014zm-1.5403-.6343c-.0508-.7437-.0968-1.4179-.5847-2.0403-.4449-.5972-1.4958-.5781-1.9937-.0614-.6038.6289-.7733 1.4188-.8707 2.2553 1.1525.0063 2.3072.0063 3.4597 0zm17.5975-4.1346c.7839.4214.9449 1.423.519 2.1578-.3262.5324-.8659.863-1.3898 1.184-.0784.0478-.1562.0957-.2331.1438.328.3792.6545.7602.9808 1.1414l.0002.0002c.5483.6404 1.0968 1.2809 1.6546 1.9141.4089-1.0842.3157-2.0181-.0889-3.079h.0061c.3114-.0043.6252-.0085.9366-.017.2945 1.3172.1632 2.3315-.5805 3.4623.445.5379.8899 1.0779 1.3305 1.62-.5995.0021-1.2012 0-1.8008-.0063l-.0665-.078-.0005-.0006c-.1526-.1781-.3047-.3566-.4563-.5355-1.1992.9042-3.0275 1.0503-4.3242.2795-1.1122-.6205-1.3516-2.2383-.6144-3.2315.3403-.4811.788-.7613 1.2695-1.0624l.1394-.0875c-.5868-.7517-.9978-1.5162-.769-2.5051.3178-1.4463 2.3072-1.9503 3.4873-1.3002zm-.8645.2668c.642.3431.6314 1.2367.4534 1.8444-.1307.4469-.4309.6845-.7616.9464-.0659.0521-.1331.1053-.2002.1612-.0547-.0782-.1113-.1563-.1682-.2351-.4168-.577-.853-1.1806-.728-1.9334.1208-.667.7606-1.0588 1.4046-.7835zm.3498 6.0786c-.633-.7594-1.2665-1.5194-1.9536-2.2224-.9703 1.1138-.7033 3.1573.6674 3.8286.8538.3558 1.5975.0805 2.3475-.3536-.3596-.4108-.7104-.8316-1.0613-1.2526z"/><path d="m24.6739 13.7339c-.9986-2.1709-2.7242-3.96264-4.9402-4.89554-4.6121-1.93987-10.34452-.41796-13.36512 3.57814-3.44935 4.4529-3.08236 11.2583.78162 15.3409 1.19977 1.2344 2.9536 2.3137 4.7091 2.3719-2.5848-1.7388-3.79869-4.9467-3.44229-7.9834.18879-1.5078.82749-2.9292 2.01489-3.9115 1.6585-1.3985 3.9593-1.8112 6.0183-1.1375-1.5879.7901-2.7612 2.2097-3.0065 3.9926-.3105 2.0316.644 4.0032 2.3466 5.123-.2651.5733-.533 1.1453-.801 1.7173v.0001l-.0002.0004-.0001.0001v.0001c-.3651.7793-.7302 1.5587-1.0883 2.3416 1.5085.2381 2.9588-.1269 4.2609-.8923.0547.679.1871 1.0669.5682 1.6277-.3035 1.0211-.7128 1.5537-1.588 2.1498.6476.1446 1.2492.171 1.9108.1234-.3264.7848-.7833 1.3597-1.4026 1.9293.4905.067.9739.104 1.4697.1093-.6334 1.6137-.4305 3.6558.8487 4.9044.1093-.6631.277-1.2662.5646-1.8729.3105 1.4338 1.0392 2.7317 2.2742 3.5641 1.5262 1.0334 3.2747 1.1868 5.0691 1.0352-1.1451-.3915-1.8262-1.2821-2.3237-2.3402 1.0163.7865 2.0837 1.2186 3.3399 1.469-.3705-1.1128-.4957-2.2009-.4657-3.3719.0497.0491.0978.0982.1453.1466.2275.2317.4416.4497.751.5941.4199.1982.8424.2216 1.2866.2463.0895.005.1799.01.2713.0165-.4887-.8606-.7287-1.603-.8398-2.5871.8802.398 1.7566.8075 2.6327 1.2169l.0005.0003.0005.0002c.4512.2108.9022.4216 1.3537.6308.4341.1922.8769.3403 1.341.1358.3015-.1328.4398-.419.5753-.6996.0175-.0363.035-.0724.0528-.1081.4569-1.0052.921-2.0069 1.385-3.0086-1.1927-.5502-2.3872-1.1004-3.5834-1.6453-.2814.6107-.5645 1.2209-.8477 1.8312l-.0002.0004-.0005.0011c-.2014.4341-.4029.8683-.6037 1.3028l-.0013-.0006c-.7512-.3508-1.5024-.7015-2.2501-1.0558-.0035-.1409-.0052-.2801-.007-.4193v-.0004c.5522.0212 1.071-.0123 1.6179-.0952-.6157-.5696-1.0851-1.1498-1.3974-1.9346.6634.0547 1.2545.0282 1.9073-.1181-.8751-.5908-1.288-1.1322-1.5897-2.1498.3811-.5467.5099-.9628.5717-1.6277 1.3003.7671 2.7489 1.1287 4.2574.8923-.3451-.7566-.6979-1.51-1.0507-2.2635l-.0003-.0006-.0002-.0006c-.2802-.5983-.5603-1.1966-.8367-1.7966.891-.6155 1.6197-1.4144 2.0238-2.4302.7198-1.7458.3952-3.8321-.8399-5.2658-.5046-.619-1.1539-1.0299-1.842-1.4179 2.2496-.7442 4.8168-.1569 6.4629 1.5572 1.078 1.1181 1.5703 2.6735 1.625 4.2025.0759 2.1126-.614 4.3294-1.999 5.9448-.3605.43-.7869.7655-1.2209 1.107-.0928.073-.1859.1463-.2789.2209 1.1045-.0071 2.2214-.5167 3.1459-1.0881 2.1861-1.3932 3.6382-3.8039 4.2963-6.2693.808-3.0156.4463-6.3786-1.1151-9.0962-1.1539-2.0298-2.9571-3.6646-5.0849-4.62219-2.3219-1.04753-5.0108-1.33851-7.4933-.75126-1.9285.45322-3.7052 1.49193-4.9985 2.99975-.6457.7336-1.138 1.5642-1.5756 2.4319zm4.2788 3.2871c-1.5474.6843-2.5584 1.7706-3.0912 3.3789-.8416-.1728-1.5244-.1745-2.3661-.0052-.5381-1.6084-1.542-2.6876-3.0894-3.3754.5876-.6543 1.2704-1.1886 2.0961-1.5114 2.2143-.9011 4.8944-.3333 6.4506 1.5131zm-11.5196 1.5396c1.1892-.4039 2.546-.1129 3.4599.7495 1.0516.9664 1.3939 2.5465.8328 3.8621-.5664 1.3738-2.0202 2.2555-3.5023 2.1092-1.6356-.1323-2.9977-1.492-3.1335-3.125-.1606-1.5766.8416-3.1003 2.3431-3.5958zm12.3435-.0194c1.3215-.4233 2.8036.007 3.6928 1.0704.9122 1.0687 1.0745 2.6471.3917 3.878-.6651 1.2345-2.0678 1.9628-3.4634 1.7794-1.5862-.1799-2.8865-1.5201-3.0189-3.1126-.1641-1.596.8699-3.1391 2.3978-3.6152zm2.7612 1.1199c.8099.6772 1.0675 1.663.8893 2.6823l-.0184-.0393c-.2399-.5126-.4646-.9926-.9308-1.3451-.9405-.7654-2.3414-.7724-3.2871-.0159-.4518.3372-.6741.7819-.914 1.2617-.0261.0523-.0525.105-.0793.158-.09-.8694-.0124-1.6789.5752-2.3667.9174-1.1304 2.6624-1.2838 3.7651-.335zm-12.0471.2292c.6599.6984.7675 1.5572.674 2.4813-.0222-.0445-.0442-.0887-.066-.1327-.2461-.4966-.4746-.9577-.9415-1.3028-.9474-.7548-2.3501-.7372-3.2852.03-.4799.3668-.7058.8659-.9475 1.402-.1499-.9841.0388-1.9205.7905-2.6153 1.0515-1.0035 2.8-.9417 3.7757.1375zm3.2271 1.9451c.7181-.1499 1.2315-.1499 1.9443.0424.0512.9822.2911 1.9293.8398 2.7546.6405 1.0158 1.6003 1.6718 2.6942 2.125-1.0233-.1252-1.9425-.4655-2.86-.9223.9439 1.2045 2.022 1.8923 3.5129 2.2467-.0016.1549.0015.3115.0045.4686v.0001c.0075.3865.0151.7764-.0451 1.1538-.0992.276-.2875.5425-.4772.8109-.2999.4243-.6031.8532-.562 1.3317-.0027.5406-.0009 1.0815.0008 1.6225.0018.5409.0036 1.0819.0009 1.6224-.6659-.3081-1.3313-.618-1.9967-.9279-.4735-.2205-.947-.4411-1.4209-.661.0006-.2792 0-.5581-.0006-.837-.0014-.6374-.0028-1.2745.0095-1.9123.591-.545 1.1768-1.0987 1.752-1.663.0202-.0218.041-.0438.0622-.0661.2256-.2384.4844-.5118.4053-.8633-.1368-.3495-.5113-.3725-.8356-.3924l-.043-.0026c-1.3551-.0159-2.7119-.0124-4.0687-.0018l-.0571.0033c-.3172.0177-.7286.0407-.8533.3847-.1023.335.1818.6419.3917.8676.3475.3464.7039.6839 1.0605 1.0215.2789.264.5578.5282.8327.7967-.0016.3946-.0018.7892-.0019 1.1837v.0014c-.0002.4938-.0005.9876-.0034 1.4813-.6501.2998-1.2991.6024-1.9479.905l-.0005.0002-.0008.0004c-.4882.2276-.9764.4553-1.4649.6816-.0089-.4873-.0042-.9766.0005-1.4664v-.0002c.0074-.7687.0148-1.5383-.0305-2.302-.1198-.2598-.2981-.4972-.4761-.7343-.2123-.2828-.4243-.5652-.5366-.8846-.0609-.3971-.0562-.8071-.0516-1.2129.0015-.1348.0031-.2692.0022-.4025 1.4415-.3615 2.4701-1.0458 3.3382-2.252-.8346.4126-1.6656.7265-2.5831.8958.8787-.4126 1.6903-.8941 2.2955-1.6735.764-.9259 1.0815-2.0422 1.1698-3.2238zm2.3558 6.3518c-.0318-.003-.0584-.0056-.0763-.0083-.2899.0023-.5832-.0037-.8778-.0098-.8078-.0168-1.6247-.0337-2.4057.1227.6758.5907 1.5439.6225 2.3961.5766.4446-.0423 1.0162-.1111 1.3691-.4126.1804-.2122-.211-.2499-.4054-.2686zm1.8086 7.9322c-1.0628-.4992-2.1252-.9981-3.1958-1.4807-.9552.4187-1.8993.8642-2.8437 1.3098-.3639.1717-.7279.3434-1.0926.5136.9651.8853 2.1631 1.4373 3.474 1.5255 1.6321.1287 3.1847-.4162 4.3845-1.5272-.2422-.1136-.4843-.2273-.7264-.341z"/></g></g></svg>