<svg fill="none" height="50" viewBox="0 0 140 50" width="140" xmlns="http://www.w3.org/2000/svg"><g fill="#fff"><path d="m32.0882 20.9592c-.0219-.0508-.0351-.1017-.057-.1547-1.3357-3.1383-6.4054-4.0908-12.2503-2.6521l-.9594-.5746c2.8777-1.189 5.7444-1.8123 8.1444-1.6421 3.5828.2542 5.3346 2.2123 5.1223 5.0235zm-5.1967 6.5948c-3.7425 4.5815-10.5313 7.7507-15.1301 7.4236-4.59904-.3271-5.29981-4.3162-1.5507-8.8955.0746-.095.1557-.1856.2344-.2807v5.7462c-.0131.3011.0533.6003.1927.867.1393.2666.3465.4912.6002.6507.2536.1592.5447.2474.8433.2557s.5941-.0637.8559-.2087l13.7922-8.0667c.2364-.1437.4311-.3474.5646-.5909s.201-.518.1959-.7961c-.005-.2782-.0826-.5501-.225-.7884-.1423-.2384-.3444-.4348-.5859-.5695l-5.5865-3.0941c1.3739-.4262 2.8104-.6102 4.2464-.5437 4.5988.3338 5.2973 4.3119 1.5526 8.8911zm-17.51934 9.8878c-4.22877-.3049-5.91283-2.9813-4.81791-6.6301-.01584.5937.09547 1.1839.32637 1.7304 1.65335 3.8986 9.07278 4.4202 16.57118 1.1913.1555-.0663.3086-.1393.4597-.2034-4.2156 2.6123-8.9041 4.1704-12.54811 3.9118zm4.87474-20.39 9.248 5.5937c.1634.093.2999.2273.3962.3896s.149.3471.153.5361c.004.1891-.0409.3759-.1303.5422s-.2201.3063-.3794.4062l-9.3445 5.4677c-.1788.0982-.3804.1467-.5839.1404-.2036-.0063-.4018-.0671-.5742-.1762-.1726-.1092-.3133-.2628-.4077-.4448-.0943-.1821-.1389-.3861-.1293-.5913l-.0438-10.8602c.0076-.2073.068-.409.1755-.5858.1075-.1769.2584-.3228.4382-.4238.1795-.1008.3819-.1532.5875-.1522.2056.0011.4074.0557.5859.1584zm21.402 2.0266c-1.938-4.5726-9.9902-5.5804-18.7018-2.6211l-3.8719-2.336c-.2636-.1541-.5624-.2366-.8671-.2395s-.605.074-.8714.2231c-.2666.1494-.4903.3658-.6492.6281-.1589.2624-.2477.5618-.2577.869v3.7748c-7.50257 4.3207-11.85813 10.5309-10.003649 14.9113 2.148389 5.0544 11.773249 5.7461 21.496349 1.547 9.7233-4.1991 15.8726-11.7111 13.7264-16.7567zm7.7307 6.5772-.8412 2.9703c-.1248.442-.2189.8619-.2976 1.2177-.0626.264-.1001.5334-.1119.8045-.0078.1365.0125.2731.0596.4012.0471.1282.12.2452.2142.3436.2096.1864.483.2831.7622.2696.4948 0 1.0058-.2667 1.5329-.8.6282-.6807 1.1456-1.4572 1.5331-2.3007.5746-1.23 1.0577-2.5013 1.4452-3.8035.3591-1.2465.5497-2.2277.5497-2.9261.02-.4307-.0932-.857-.3242-1.22-.0844-.1403-.2029-.2568-.3442-.3383-.1413-.0816-.3009-.1256-.4638-.128-.7315 0-1.3994.4531-2.0104 1.3481-.6109.8951-1.1781 2.2874-1.7038 4.1616zm-5.2779-6.8954c1.3139-.0973 2.5426-.221 3.7228-.3757 1.1805-.1547 2.3215-.3183 3.4208-.526l-.9263 3.1847c.9241-1.231 1.8045-2.1349 2.6496-2.6897.756-.5488 1.6634-.8455 2.5951-.8486 1.2309 0 2.1901.3713 2.847 1.1161.6569.7447 1.0052 1.8166 1.0052 3.1979-.0136 1.2529-.2418 2.494-.6744 3.6687-.4677 1.2841-1.1176 2.493-1.9295 3.5892-.9548 1.2884-1.9707 2.2564-3.0418 2.8951-1.0386.6348-2.2298.9711-3.4446.9725-.4773.0013-.9518-.0733-1.4059-.221-.4255-.141-.8251-.3516-1.1827-.6233l-.946 3.4521c-.0684.2092-.1161.4246-.1426.6432-.0326.2121-.048.4265-.0458.6409 0 .4133.125.7138.381.884.2564.1702.7753.2696 1.5551.316v.8067h-8.8278v-.842c.0434 0 .0866-.0044.1294-.0133.0408-.0101.0827-.0161.1246-.0177.5498 0 .9593-.1348 1.2309-.411.2715-.2763.5584-.9946.8541-2.1637l3.5038-13.7377c.0614-.221.1095-.442.1468-.663.0307-.1614.0489-.3245.0548-.4885.0169-.148-.0065-.2978-.0679-.4334-.0614-.1355-.1583-.2516-.2804-.3357-.2367-.1547-.6766-.221-1.3138-.221z"/><path clip-rule="evenodd" d="m54.3029 11.1819c1.3138-.1017 2.5796-.2409 3.8039-.4089 1.2239-.168 2.3717-.358 3.4557-.5945l-4.8487 18.4209c-.0307.1016-.068.221-.1094.3823-.047.1538-.0764.3125-.0877.473-.011.179.0342.3569.1294.5083.0469.0606.1076.1088.177.1408.0693.0319.1453.0465.2215.0426.2374-.0335.4521-.1597.5979-.3514.4803-.5779.9194-1.1894 1.3138-1.8299l.7754.5635c-.9745 1.5648-1.9118 2.7007-2.7922 3.4035-.7705.6615-1.7449 1.0333-2.757 1.052-.8433 0-1.5024-.221-1.9602-.6807-.4575-.4597-.6854-1.105-.6854-1.9647 0-.4177.2366-1.5294.7029-3.3262l.0461-.1812 3.2192-11.9896c.0285-.1105.068-.274.1206-.4906.1481-.4935.2471-1.0006.2955-1.5139.008-.1294-.0176-.2587-.0745-.375s-.143-.2156-.2497-.288c-.3101-.1676-.6605-.2441-1.0116-.221h-.2759z" fill-rule="evenodd"/><path d="m69.4833 20.7227c.0209-.3751-.0839-.7463-.2977-1.0542-.09-.1241-.2086-.2243-.3456-.292-.1369-.0678-.2882-.101-.4407-.0969-.2558.0127-.5062.0782-.7359.1922-.2298.114-.4339.2742-.5998.4708-.584.6675-1.0835 1.4054-1.4871 2.1968-.6275 1.1377-1.1467 2.3328-1.5505 3.5692-.3437.9691-.5365 1.986-.5716 3.0146-.0221.4199.0883.8361.3154 1.189.0977.1337.2259.2416.3739.3147.1479.0731.3111.1092.4758.1052.519 0 1.0513-.2962 1.601-.9061.648-.7626 1.174-1.6224 1.5592-2.5482.4902-1.1534.9035-2.3384 1.237-3.5472.3091-1.136.4666-2.0067.4666-2.6079zm5.8494-2.7029-2.5864 9.1121v.0309c-.3941 1.4041-.5913 2.2227-.5913 2.4554-.011.1839.0342.3667.1294.5238.0684.126.2016.202.3437.1967.4183 0 .9657-.484 1.6207-1.4542.1991-.2763.3524-.4951.4553-.6498l.7534.568c-.8453 1.4233-1.6862 2.4753-2.5447 3.1449-.7841.6441-1.763.9989-2.7746 1.0056-.8234 0-1.4498-.1768-1.8747-.5238-.4248-.347-.6569-.8707-.6569-1.547.0027-.2575.0231-.5145.0615-.7691.0394-.3116.105-.7161.1969-1.2089-.7817 1.3724-1.6336 2.3935-2.5535 3.0521-.8875.6595-1.9631 1.0115-3.0658 1.0033-1.1673 0-2.0848-.3491-2.7593-1.0475-.6746-.6984-1.014-1.6642-1.014-2.8842.0253-1.5326.3575-3.0443.9767-4.4444.6241-1.5137 1.5085-2.9046 2.6125-4.1085.7707-.8805 1.6801-1.6272 2.6915-2.2101.8211-.4795 1.749-.7426 2.6978-.7646.8236 0 1.463.1922 1.9383.5746.4753.3823.7885.9768.9372 1.768l.4775-1.8233z"/><path clip-rule="evenodd" d="m73.8261 19.2795v-.842c1.259-.1348 2.5358-.3028 3.8366-.4906 1.3007-.1879 1.9929-.2785 2.0892-.2785.5192 0 1.2002 2.1902 2.0236 6.5816.3351 1.7481.6067 3.1582.8234 4.2124.981-1.9155 1.652-3.307 2.0126-4.1749.3612-.8663.5387-1.5116.5387-1.9227 0-.3205-.3001-.7072-.9046-1.1492-.6042-.4421-.9087-.9614-.9087-1.5272-.0129-.295.0368-.5894.146-.8634.1091-.2741.2751-.5215.4868-.7256.4573-.411 1.0566-.6245 1.6687-.5945.2957-.0165.5916.0278.8698.13.2782.1021.5329.2602.7487.4645.4069.4603.6163 1.0642.5825 1.6796 0 .8973-.4511 2.3471-1.3423 4.3384-1.0749 2.3209-2.2973 4.5695-3.6596 6.7318-1.7518 2.8539-3.3449 4.9329-4.7784 6.2368-1.4336 1.304-2.8141 1.9588-4.1411 1.9648-.876 0-1.5724-.1879-2.0782-.5658-.2432-.1773-.4393-.4121-.5711-.6839-.1318-.2717-.1951-.572-.1845-.8742-.0064-.2811.0492-.5601.1628-.817.1136-.2568.2824-.485.4941-.6682.4591-.3982 1.0504-.6074 1.6558-.5856.6093.03 1.1967.2381 1.6906.5989.5999.4044 1.0072.5945 1.2064.5945.3592 0 .7687-.2902 1.2287-.8708.4731-.5856.7095-1.1381.7095-1.673-.0089-.4952-.0455-.9896-.1096-1.4807-.0722-.6034-.186-1.3393-.3306-2.2101-.2764-1.7109-.5838-3.4166-.9218-5.1163-.3067-1.5338-.6001-2.7471-.8497-3.6311-.2192-.7603-.4381-1.2531-.6723-1.4874-.2345-.2343-.5913-.3448-1.1125-.3448h-.0416c-.1216.0237-.2444.0385-.3679.0442z" fill-rule="evenodd"/><path clip-rule="evenodd" d="m93.9997 28.8314c-.8053 1.1429-1.7701 2.1627-2.8646 3.0278-.924.7072-1.7687 1.0602-2.5337 1.0586-.2698.0132-.5393-.0313-.7907-.1308-.2514-.0994-.479-.2514-.6679-.446-.3734-.4292-.5666-.988-.5387-1.5581.004-.2579.0281-.5149.0724-.7691.0505-.3182.1193-.6334.206-.9437l2.7811-10.4337h-2.9303l.274-.8973c1.2503-.259 2.4066-.8574 3.3439-1.7305.9658-.884 1.844-2.1327 2.6147-3.7129h1.0009l-1.3139 5.2379h2.6759l-.2715 1.105h-2.7505l-2.6717 10.0757c-.0592.221-.1075.4287-.1404.6188-.0236.1641-.0381.3294-.0436.4951-.0189.2767.0646.5507.2345.7691.0784.0899.1762.1605.2859.2064.1096.046.2283.0661.3468.0588.3505 0 .76-.1945 1.2483-.6034.6696-.599 1.2839-1.2581 1.8352-1.9691z" fill-rule="evenodd"/><path d="m96.7306 25.397c2.1547-.0994 3.9684-.663 5.4224-1.6863 1.454-1.0232 2.19-2.199 2.19-3.5184.013-.1815-.011-.364-.071-.5356-.06-.1717-.156-.3287-.28-.4611-.295-.2388-.669-.355-1.047-.3249-1.313 0-2.516.5658-3.6261 1.7238-1.1102 1.1581-1.9687 2.7626-2.5885 4.8025zm-.2542 1.105c-.0965.3543-.1696.7146-.2189 1.0786-.0488.3091-.0722.6218-.0702.9348 0 .873.2191 1.5471.6766 2.0001.2568.2622.5642.4686.9031.6066.339.138.7024.2046 1.0679.1957.8453 0 1.8181-.3868 2.8861-.9437 1.302-.7014 2.523-1.544 3.642-2.5129l.708 1.0299c-1.599 1.3835-3.106 2.409-4.525 3.0632-1.297.6376-2.7179.9765-4.1607.9923-1.3314 0-2.3761-.389-3.1075-1.147-.7315-.7581-1.095-1.8477-1.095-3.2555.0133-1.4085.3059-2.8001.8607-4.093.5597-1.3615 1.3562-2.6114 2.3519-3.6908.8997-.9735 1.9722-1.7688 3.1622-2.3449 1.1084-.5335 2.3194-.8134 3.5474-.8199 1.117 0 1.993.2519 2.628.7514.315.2356.568.5449.737.9011.17.3561.25.7485.235 1.1432 0 1.5647-.95 2.9217-2.831 4.0643s-4.3427 1.8101-7.3976 2.0465z"/><path clip-rule="evenodd" d="m117.508 26.7164-.041 1.9758c-1.012 1.4232-2.111 2.4841-3.309 3.1935-1.187.6998-2.54 1.0633-3.916 1.052-1.548 0-2.814-.4973-3.784-1.5029-.97-1.0055-1.452-2.3117-1.452-3.9493.015-1.2735.295-2.5295.824-3.6864.542-1.2557 1.313-2.3981 2.273-3.3682.856-.8789 1.87-1.5848 2.989-2.0796 1.061-.4854 2.212-.7378 3.377-.7404 1.209 0 2.17.2696 2.886.8.34.2366.616.5546.803.9253.188.3708.28.7827.27 1.1986.005.253-.043.5043-.139.7381s-.238.4453-.419.6211c-.168.1807-.372.3242-.598.4216s-.47.1465-.716.1442c-.187.0086-.374-.022-.549-.0897s-.334-.1711-.467-.3037c-.131-.1362-.233-.2978-.299-.4748-.067-.1771-.097-.3659-.089-.5551.018-.3647.126-.7194.313-1.0321.141-.2244.244-.4709.305-.7293-.005-.0968-.037-.1901-.094-.2686-.056-.0785-.134-.1387-.224-.1734-.269-.1256-.564-.184-.86-.1702-.805.0135-1.591.2423-2.278.663-.792.4758-1.481 1.1072-2.026 1.8565-.69.9213-1.239 1.941-1.631 3.0255-.366 1.0011-.557 2.0583-.565 3.1251 0 1.1558.302 2.0796.915 2.7559.31.3575.691.6444 1.12.8418.428.1974.893.3007 1.364.303.827 0 1.642-.3713 2.441-.8685.8-.4973 2.138-1.5139 3.576-3.6488z" fill-rule="evenodd"/><path clip-rule="evenodd" d="m115.684 32.9554 5.475-19.0485c.032-.118.055-.2387.068-.3603.018-.1111.027-.2232.026-.3359.015-.13-.002-.2617-.047-.3842-.046-.1225-.12-.2324-.215-.3208-.174-.1149-.671-.179-1.481-.179h-1.248l.193-.8708c.946-.0355 1.889-.1411 2.82-.316.84-.1627 1.664-.3948 2.466-.694h.99l-3.791 13.1565c1.639-1.6452 3.433-3.1255 5.357-4.4201 1.622-1.0409 2.919-1.5691 3.885-1.5691.51 0 .876.1171 1.125.3491.132.15.232.3251.296.5149.063.1898.087.3905.072.5902-.005.1861-.03.3713-.072.5525-.044.221-.103.4729-.173.7404l-2.768 8.9618c-.053.1891-.097.3809-.13.5746-.037.2004-.056.4038-.056.6077.006.1203.062.2321.155.3072.101.0885.219.2454.353.2454.269 0 .657-.2873 1.123-.6387.552-.427 1.057-.9123 1.507-1.4476l.565.4641c-.795.9903-1.72 1.8662-2.751 2.6034-.887.6012-1.703.9024-2.446.9039-.411.0224-.818-.0977-1.152-.3403-.139-.111-.249-.2536-.322-.4162s-.107-.3404-.098-.5187c0-.1527.015-.3052.044-.4552.037-.1782.087-.3534.151-.5238l2.847-9.269c.052-.2033.085-.358.105-.4641.014-.0951.021-.1912.022-.2873.005-.1017-.011-.2033-.049-.2977s-.096-.1792-.17-.2482c-.172-.1287-.383-.1914-.596-.1768-.405 0-1.001.2409-1.787.7315-.967.6241-1.883 1.3247-2.74 2.0951-.747.6138-1.433 1.2992-2.049 2.0466-.412.531-.732 1.1289-.944 1.768l-1.884 6.3937c-.219-.0331-.979-.0552-1.197-.0707-.22-.0155.1-.0133-.128-.0133-.227 0-.464 0-.685.0133s-.436.0133-.666.0464zm-32.5311 5.2379v.2475c-.0044.1204.0119.2409.0483.3558.0789.3006.3327.442.7663.442.1485.0024.2964-.0192.438-.0641.1145-.0399.2159-.1109.2929-.2051.0771-.0942.1268-.208.1438-.3289.017-.1208.0005-.2441-.0475-.3561-.0481-.1121-.1259-.2086-.2249-.279-.1583-.0953-.3221-.1809-.4906-.2564l-.5736-.2475c-.1996-.0815-.391-.1822-.5716-.3006-.1512-.096-.2745-.2306-.3576-.3901s-.1229-.3382-.1155-.5182c-.0109-.1887.0336-.3765.1278-.54.0942-.1634.2341-.2954.4021-.3794.3362-.1522.7028-.224 1.071-.2099.5541 0 .9548.0994 1.1978.3005.195.1636.2935.4796.2935.9548v.0884h-.7883v-.1083l-.0132-.221c-.0504-.3448-.2825-.5128-.7007-.5061-.5302 0-.7973.2055-.8039.6122 0 .2585.1667.4707.4972.632.208.1039.4381.2056.6964.3117.2189.0822.4312.1812.635.2961.1791.0962.3275.2415.4283.419.1007.1775.1496.3801.1411.5844 0 .8111-.5672 1.2199-1.6819 1.2199-.378.0272-.7564-.0492-1.0949-.221-.1418-.0789-.2613-.193-.3471-.3315-.0858-.1384-.1351-.2966-.1433-.4597l-.011-.3558v-.179z" fill-rule="evenodd"/><path d="m86.1751 36.6705c-.0102-.2715.0253-.5428.1051-.8023.0647-.1426.1613-.2682.282-.3671.1208-.0989.2626-.1684.4144-.2031.2696-.0868.5513-.1293.8343-.1259.283-.0027.5646.0397.8344.1259.1507.0353.2913.1051.4109.204.1197.0989.2151.2242.2789.3662.0798.2595.1169.5304.1097.8023v1.4918c.0024.2329-.013.4656-.0461.6961-.0877.5879-.6111.8841-1.5661.8841-.6917 0-1.1583-.1371-1.3927-.4133-.1794-.2078-.2692-.5989-.2648-1.1713zm.7883 1.4874c-.0158.2463.0132.4934.0856.7293.066.122.1732.2159.302.2652.1456.0619.302.0941.4599.095.1414.0018.2816-.0261.4117-.0818.1115-.033.2104-.0993.2839-.19.0734-.0907.118-.2016.1278-.3183.0132-.1392.0197-.305.0219-.4994v-1.4918c.0214-.2321-.0171-.4659-.1118-.6785-.1246-.221-.37-.3183-.7335-.3161-.1357-.0021-.2707.0204-.3985.0663-.1175.0293-.223.0949-.3015.1877-.0786.0927-.1263.208-.1365.3295-.0173.1363-.0239.2737-.0198.4111z"/><path clip-rule="evenodd" d="m90.1606 35.2362h.7863v3.3593c.0292.4332.2911.6504.7861.652.497 0 .7708-.2034.8168-.61.0176-.1468.027-.2942.0285-.442v-2.9593h.7883v3.0145c0 .1912-.0094.3824-.0285.5724-.0191.2-.1121.3854-.2605.5194-.2891.2696-.7269.4022-1.3139.4044-.5869.0023-1.0578-.1326-1.3269-.3956-.1462-.1389-.2373-.3266-.2564-.5282-.0132-.1193-.0198-.3072-.0198-.5724z" fill-rule="evenodd"/><path d="m95.4166 35.2362h.4707c.1673 0 .3342.0133.4994.0398.5803.0884.876.442.876 1.0674.0182.2692-.0638.5356-.2301.747-.1489.1614-.438.2697-.865.3293.1958.0102.3891.0487.5738.115.0793.0351.1492.0886.2041.1563.0548.0676.0929.1473.1113.2326.0298.1353.0473.2728.0526.4111l.0329.5238c.0112.2842.0728.5642.1816.8266h-.8124l-.0812-.2851c-.0244-.1007-.0384-.2037-.0416-.3072l-.0305-.3978-.0285-.4177c-.002-.1365-.0506-.2681-.1375-.3727s-.2069-.1759-.3398-.202c-.1359-.024-.2737-.0359-.4117-.0353h-.5455v2.0178h-.7927v-4.4489h1.3139zm-.5214.4995v1.4277h.5628c.1465.0019.293-.0077.438-.0287.0987-.0056.1949-.0335.2813-.0818.0865-.0482.1611-.1154.2182-.1967.0719-.1536.1029-.3235.0899-.4929.0101-.1022-.0093-.2052-.056-.2966-.0467-.0913-.1186-.1672-.207-.2183-.2281-.0912-.4735-.1298-.7183-.1127z"/><path clip-rule="evenodd" d="m100.234 36.4075v-.2055c-.019-.3558-.2384-.5327-.6566-.5304-.3766 0-.6199.095-.7337.2806-.0583.0803-.0939.175-.1029.2741v2.1194c-.018.2098.0154.4206.0965.6144.079.1016.1824.1813.3004.2316s.2467.0694.3741.0557c.4161 0 .6572-.1922.7052-.5679l.033-.2874v-.1524h.786v.4331c-.003.1452-.037.2881-.098.4194-.062.1313-.15.2482-.259.3431-.134.1083-.29.1839-.458.221-.2216.0566-.4497.084-.6787.0818-.2035.0039-.4068-.0139-.6065-.0531-.6571-.1171-.9723-.5304-.9767-1.2464v-1.7681c-.0017-.1806.0108-.3607.0373-.5392.0247-.1854.1005-.36.2189-.5039.2496-.3028.7008-.4553 1.3489-.4597.9068 0 1.3968.2806 1.4648.8265.014.1158.021.2325.02.3492v.1746h-.815zm1.47-1.1713h2.573v.4994h-1.787v1.4101h1.686v.4972h-1.686v1.5471h1.837v.5017h-2.628z" fill-rule="evenodd"/><path d="m106.366 36.6704c-.013-.2718.022-.5436.105-.8022.063-.1429.159-.2689.279-.3679s.262-.1683.413-.2023c.271-.087.553-.1295.837-.126.283-.0026.564.0398.834.126.151.0364.291.1065.411.2053.12.0987.216.2235.281.3649.08.2594.116.5306.108.8022v1.4918c.002.2328-.013.4655-.044.6962-.092.5879-.611.884-1.568.884-.695 0-1.159-.1377-1.393-.4133-.18-.2077-.267-.5982-.263-1.1713zm.786 1.4874c-.016.2465.013.494.088.7293.065.1218.172.216.3.2652.145.0619.302.0942.46.0951.141.0019.281-.0259.411-.0818.111-.0337.21-.1002.283-.1908s.117-.2012.127-.3175c.013-.1392.022-.305.024-.4995v-1.4918c.022-.2321-.017-.4658-.112-.6785-.124-.221-.37-.3182-.733-.316-.136-.0021-.271.0204-.399.0663-.116.0303-.219.0965-.296.1893-.076.0928-.122.2075-.131.3278-.02.1361-.027.2737-.022.4111z"/><path clip-rule="evenodd" d="m112.861 35.2362v.4994h-1.721v1.4056h1.656v.5017h-1.656v2.0399h-.788v-4.4466zm2.617 2.957v.2476c-.005.1204.011.2409.047.3558.078.3006.334.442.766.442.148.002.296-.0196.438-.0641.137-.0358.258-.1188.341-.2346.083-.1157.124-.2571.114-.3997.003-.1073-.023-.2134-.074-.3074-.052-.094-.127-.1725-.219-.2274-.158-.0963-.322-.1819-.491-.2564l-.571-.2475c-.199-.0819-.39-.1825-.57-.3006-.15-.0965-.273-.2313-.356-.3907-.082-.1594-.122-.3379-.114-.5176-.011-.189.033-.3771.128-.5407.095-.1635.235-.2953.404-.3787.335-.1524.701-.2243 1.068-.21.552 0 .953.0995 1.198.3006.195.1636.292.4796.292.9548v.0884h-.782v-.1083l-.016-.221c-.048-.3448-.28-.5128-.7-.5061-.532 0-.795.2055-.802.6121 0 .2586.167.4708.497.6321.204.1039.438.2056.697.3116.218.0823.431.1813.635.2962.178.0968.326.2423.426.4198.099.1774.148.3797.139.5836 0 .811-.57 1.2199-1.682 1.2199-.378.0272-.756-.0492-1.095-.221-.142-.0782-.262-.1922-.348-.3308-.086-.1385-.135-.2971-.143-.4604l-.017-.3624v-.1791zm3.053-2.957h.786v3.3593c.029.442.292.6497.784.6519.493.0022.771-.2033.819-.6099.016-.1437.025-.2874.029-.4421v-2.9592h.786v3.0145c.001.1912-.008.3823-.028.5724-.019.2002-.112.386-.261.5194-.287.2696-.729.4022-1.314.4044s-1.06-.1326-1.331-.3956c-.144-.1403-.234-.3274-.255-.5282 0-.1193-.017-.3072-.017-.5724zm6.277 1.1713v-.2055c-.02-.3559-.244-.5327-.657-.5304-.375 0-.616.095-.73.2806-.058.0807-.094.1751-.105.2741v2.1194c-.016.21.018.4206.099.6144.078.1016.181.1813.299.2316.118.0502.246.0694.373.0557.418 0 .657-.1922.707-.5679l.033-.2874v-.1525h.787v.4332c-.003.1454-.036.2885-.098.42-.061.1315-.15.2482-.26.3425-.133.1078-.288.1834-.455.221-.223.0564-.452.084-.681.0818-.203.0041-.405-.0137-.604-.0531-.658-.1171-.973-.5304-.975-1.2464v-1.7681c-.005-.1804.007-.3609.035-.5393.022-.1861.098-.3616.219-.5038.252-.3028.701-.4553 1.351-.4597.908 0 1.397.2756 1.465.8265.013.1161.019.2325.02.3492v.1746h-.786l-.038-.1105zm3.797 0v-.2055c-.02-.3559-.239-.5327-.657-.5304-.377 0-.62.095-.734.2806-.059.0799-.094.1749-.101.2741v2.1194c-.016.2096.017.4202.097.6144.079.1011.182.1805.299.2307.118.0503.246.0697.373.0566.421 0 .657-.1922.707-.5679l.033-.2874v-.1525h.789v.4332c-.004.145-.037.2876-.098.4188-.061.1313-.149.2483-.257.3437-.134.1087-.292.1844-.46.221-.223.0567-.451.0842-.681.0818-.202.0039-.404-.0139-.602-.0531-.657-.1171-.973-.5304-.977-1.2464v-1.7681c-.005-.1805.008-.3611.037-.5393.023-.1858.099-.3611.219-.5038.252-.3028.701-.4553 1.352-.4597.906 0 1.394.2756 1.462.8265.015.1158.022.2325.022.3492v.1746h-.788zm1.474-1.1713h2.566v.4994h-1.785v1.4101h1.676v.4972h-1.676v1.5471h1.838v.5017h-2.628zm3.777 2.957v.2476c-.004.1206.014.2409.051.3558.079.3006.333.442.764.442.148.0022.296-.0195.438-.0641.118-.036.223-.1052.303-.1996.08-.0943.132-.2098.149-.3327.017-.123-.001-.2483-.053-.3611-.051-.1129-.133-.2085-.237-.2757-.158-.0957-.322-.1812-.491-.2564l-.571-.2475c-.199-.0813-.388-.182-.567-.3006-.151-.0964-.274-.2311-.357-.3905s-.123-.338-.116-.5178c-.012-.1888.032-.3769.127-.5404.094-.1636.234-.2955.403-.379.336-.1526.702-.2245 1.07-.21.554 0 .953.0995 1.201.3006.192.1636.289.4796.289.9548v.0884h-.787v-.1083l-.015-.221c-.048-.3448-.282-.5128-.701-.5061-.527 0-.797.2055-.801.6121 0 .2586.166.4708.495.6321.206.1039.438.2056.701.3116.217.0831.429.1821.632.2962.182.0945.333.2389.437.4165.103.1775.155.381.148.5869 0 .811-.567 1.2199-1.684 1.2199-.378.0276-.756-.0488-1.095-.221-.142-.0779-.263-.1917-.349-.3304s-.135-.2974-.141-.4608l-.014-.3558v-.179zm3.649 0v.2476c-.006.1205.01.2411.048.3558.077.3006.333.442.764.442.149.0024.297-.0192.438-.0641.118-.0357.224-.1048.304-.199s.132-.2096.15-.3326c.017-.123-.001-.2484-.052-.3614-.052-.113-.134-.2088-.238-.2761-.157-.0957-.322-.1812-.49-.2564l-.572-.2475c-.198-.0813-.388-.182-.567-.3006-.152-.0955-.276-.2299-.359-.3895-.084-.1596-.124-.3386-.116-.5188-.01-.1889.035-.3766.129-.54.095-.1634.235-.2953.403-.3794.336-.1526.703-.2245 1.071-.21.553 0 .953.1002 1.198.3006.195.1636.293.4796.293.9548v.0884h-.786v-.1083l-.02-.221c-.046-.3448-.28-.5128-.701-.5061-.525 0-.794.2055-.799.6121 0 .2586.165.4708.497.6321.204.1039.438.2056.697.3116.218.0823.43.1813.633.2962.179.0962.327.2414.428.4189.101.1776.15.3801.141.5845 0 .811-.567 1.2199-1.68 1.2199-.378.0272-.756-.0492-1.095-.221-.142-.0782-.262-.1922-.348-.3308-.086-.1385-.135-.2971-.142-.4604l-.016-.3558v-.179z" fill-rule="evenodd"/></g></svg>