<?xml version="1.0" encoding="utf-8"?>
<svg xmlns="http://www.w3.org/2000/svg" fill="none" height="17" viewBox="0 0 56 17" width="56">
<path d="M49.3994 12.7207C49.6008 12.0346 49.7872 11.4081 49.9886 10.7816C50.3317 9.70768 50.7344 8.64119 51.0327 7.56725C51.3975 6.63212 51.6673 5.66268 51.8382 4.67357C51.8805 4.56452 51.9766 4.4854 52.0917 4.46474C52.6873 4.42027 53.2861 4.45034 53.8742 4.55424C54.7556 4.70923 55.3904 5.48679 55.3658 6.38144C55.2795 7.21272 55.0968 8.03115 54.8213 8.82018C54.6722 9.43919 54.4484 10.0433 54.2545 10.6474C53.8581 11.8854 52.7055 12.7241 51.4056 12.7207H49.3994Z" fill="#D3DCE1"/>
<path clip-rule="evenodd" d="M41.7996 0.847657H48.4073C49.1905 0.839969 49.962 1.03799 50.6447 1.42192C51.5433 1.94165 52.1516 2.84718 52.2929 3.87558C52.4036 4.58627 52.3396 5.31323 52.1065 5.99364C51.9228 6.59723 51.7429 7.20235 51.5629 7.80778L51.5628 7.80807L51.5628 7.8081C51.1802 9.09515 50.7972 10.3836 50.3762 11.6617C49.6714 13.9237 47.7535 15.5965 45.4167 15.9873C45.0654 16.0547 44.7079 16.0847 44.3502 16.0768H31.2242C30.4163 16.0834 29.6292 15.821 28.9868 15.331C27.96 14.5502 27.4375 13.274 27.622 11.9973C27.6557 11.6539 27.7308 11.3158 27.8458 10.9905C28.0019 10.4797 28.156 9.96795 28.3102 9.45596L28.3102 9.45585L28.3102 9.45584C28.7527 7.98678 29.1957 6.51589 29.6879 5.0614C30.3499 2.94575 32.115 1.3609 34.2894 0.929694C34.6248 0.856158 34.9679 0.823603 35.3112 0.832741L41.7996 0.847657ZM47.1917 2.2572H45.5957C45.1807 2.27486 44.7709 2.35532 44.38 2.49585C42.9642 2.94025 41.8607 4.05768 41.4341 5.47903C40.9121 7.13967 40.4025 8.8003 39.9053 10.4609C39.726 11.0278 39.584 11.6058 39.4802 12.1912C39.3548 12.8703 39.5823 13.5666 40.0843 14.0408C40.4924 14.4497 41.0504 14.6734 41.6281 14.6598H44.4919C45.2783 14.6776 46.0537 14.4734 46.7293 14.0706C47.8387 13.471 48.6669 12.458 49.0338 11.2515C49.1669 10.8125 49.3065 10.3747 49.4459 9.93703L49.446 9.93679L49.446 9.93675C49.6738 9.222 49.9014 8.50793 50.1003 7.79099C50.3613 6.94825 50.6149 6.09804 50.8461 5.24783C50.9909 4.7893 51.014 4.301 50.9132 3.83082C50.6867 2.92433 49.8857 2.27861 48.9518 2.24974C48.6284 2.24531 48.2814 2.24877 47.9264 2.25231C47.6836 2.25474 47.437 2.2572 47.1917 2.2572ZM40.8823 2.2572H41.3148V2.28703C41.0314 3.31623 40.7107 4.27085 40.3453 5.2553H39.8083H34.5878C34.2372 5.26276 34.2074 5.27767 34.103 5.60582C34.003 5.91058 33.9091 6.21838 33.8154 6.52533C33.7624 6.69913 33.7094 6.87265 33.6555 7.04521C33.2229 8.40752 32.7929 9.77481 32.3653 11.1471C32.3406 11.2212 32.3224 11.2953 32.3022 11.378C32.2918 11.4202 32.2809 11.4647 32.2683 11.5125C32.3498 11.5566 32.438 11.5869 32.5294 11.602H35.0949C35.1663 11.5929 35.2364 11.5754 35.3037 11.5498L35.8407 9.78973C35.6124 9.68524 35.38 9.6912 35.1478 9.69715C34.9326 9.70267 34.7174 9.70818 34.5057 9.62566C34.6398 9.05833 34.831 8.5017 35.0151 7.96564C35.0972 7.72654 35.1779 7.49153 35.2515 7.26149C36.7414 7.16013 38.2364 7.16013 39.7263 7.26149C39.7336 7.3583 39.7336 7.45553 39.7263 7.55235C39.5995 7.961 39.4766 8.37029 39.3538 8.77929C39.0575 9.7661 38.7617 10.7512 38.4137 11.7213C37.9322 13.1642 36.734 14.2522 35.2515 14.5926C35.0989 14.6374 34.9407 14.66 34.7817 14.6598H31.0527C30.115 14.6531 29.3013 14.0113 29.0763 13.1011C28.9683 12.6879 28.9683 12.2539 29.0763 11.8407C29.2083 11.3407 29.3661 10.8472 29.5256 10.3481C29.5375 10.3112 29.5493 10.2742 29.5611 10.2372C30.0583 8.63623 30.5555 7.03278 31.0527 5.42683C31.5368 3.80655 32.8929 2.59757 34.5579 2.30195C34.7273 2.26822 34.8999 2.25322 35.0725 2.2572H40.8823Z" fill="#D3DCE1" fill-rule="evenodd"/>
<path d="M44.6711 5.2926C45.7077 5.2926 46.6922 5.2926 47.7437 5.2926C47.5871 6.0384 47.3112 6.78419 47.1173 7.44795C46.9234 8.11171 46.6996 8.81275 46.4833 9.49143C46.2671 10.1701 46.0508 10.8786 45.8345 11.5498C44.8174 11.6878 43.7864 11.6878 42.7693 11.5498C42.7618 11.4754 42.7618 11.4005 42.7693 11.3261C43.3957 9.33481 44.0297 7.33608 44.6711 5.2926Z" fill="#D3DCE1"/>
<path d="M5.67334 8.55171C6.06006 8.59293 6.45006 8.59293 6.83678 8.55171L7.19476 7.41064H6.01641C5.89708 7.78354 5.79267 8.15644 5.67334 8.55171Z" fill="#D3DCE1"/>
<path clip-rule="evenodd" d="M29.6358 4.45734H4.53979C3.18698 4.45718 1.99486 5.34596 1.60882 6.64252C1.25429 7.72972 0.958039 8.83507 0.72132 9.95384C0.588226 10.445 0.606421 10.9648 0.773525 11.4454C1.07659 12.2575 1.88695 12.7651 2.74988 12.6835H27.8682C28.1901 10.6024 28.8436 8.67184 29.496 6.74466L29.496 6.74465L29.496 6.74459L29.496 6.74453L29.496 6.74446L29.496 6.74441L29.4961 6.74434C29.7508 5.99186 30.0053 5.2399 30.2399 4.47971C30.1492 4.47678 30.0653 4.47271 29.9857 4.46884C29.8624 4.46284 29.7491 4.45734 29.6358 4.45734ZM6.34461 9.8196H5.27067L4.85302 11.0203H3.64484C3.65654 10.9121 3.67648 10.8049 3.7045 10.6996C4.13706 9.28263 4.57708 7.85816 5.0171 6.44115C5.0171 6.37953 5.04723 6.32092 5.07876 6.25957C5.09684 6.2244 5.11538 6.18834 5.12897 6.15029H5.4422H7.53788C7.84426 6.10549 8.15164 6.22499 8.3473 6.46497C8.54296 6.70496 8.5981 7.03011 8.4925 7.32119C8.38218 7.81729 8.22486 8.30176 8.02265 8.76803C7.74435 9.44016 7.07083 9.86223 6.34461 9.8196ZM7.8362 11.0278H11.5652H11.6025C11.6297 10.946 11.657 10.8654 11.6839 10.7857L11.684 10.7854L11.6841 10.7852L11.6841 10.7852L11.6841 10.7852C11.7971 10.4506 11.9045 10.1327 11.9828 9.8196C12.1298 9.42293 12.2397 9.01347 12.311 8.59649H11.0133L10.618 9.77485H9.49932C9.69323 9.15584 9.87968 8.5592 10.0512 7.96257C10.259 7.36684 10.4309 6.75916 10.5658 6.14283C10.1536 6.11667 9.74005 6.11667 9.32779 6.14283C9.04311 7.09761 8.75071 8.04724 8.45664 9.0023L8.45655 9.00258L8.45643 9.00299L8.45639 9.00311C8.24979 9.6741 8.04236 10.3478 7.8362 11.0278ZM17.1288 7.17202C17.0617 7.45542 16.9796 7.73882 16.8976 8.02222L16.6972 8.67189C16.4802 9.37541 16.2623 10.0823 16.0399 10.7891L15.9504 11.0278C15.5432 11.0539 15.1346 11.0539 14.7273 11.0278C14.7613 10.739 14.8485 10.4792 14.9338 10.225C14.9983 10.0329 15.0617 9.84392 15.1002 9.64806C14.72 9.55932 14.3245 9.55932 13.9443 9.64806C13.8844 9.83058 13.8234 10.0143 13.7616 10.2002C13.6694 10.4776 13.5756 10.7599 13.4819 11.0502H12.311C12.311 10.9383 12.311 10.8264 12.3632 10.7295C12.6988 9.63314 13.0344 8.54428 13.3849 7.45542C13.6069 6.66876 14.3354 6.13386 15.1524 6.15774H16.3383C16.7753 6.14353 17.1493 6.46877 17.1959 6.90353C17.2035 6.99411 17.1933 7.0853 17.1661 7.17202H17.1288ZM21.6661 6.6741L21.7378 6.42624H21.7751C21.7873 6.30433 21.7823 6.18131 21.7602 6.0608C21.3605 6.03095 20.9591 6.03095 20.5595 6.0608C20.3627 6.73711 20.1558 7.39822 19.9472 8.06501L19.9472 8.06503L19.9471 8.06509L19.8137 8.49209H19.217C19.0318 8.52178 18.8429 8.52178 18.6577 8.49209C18.7491 8.12629 18.8621 7.77125 18.9757 7.41441L18.9757 7.41437L18.9757 7.41431L18.9757 7.41429C19.1122 6.98545 19.2495 6.55398 19.3513 6.09809C18.9391 6.06824 18.5254 6.06824 18.1133 6.09809L17.9044 6.76184L17.3675 8.507C17.2463 8.76762 17.2564 9.07038 17.3949 9.32226C17.5334 9.57413 17.7835 9.74498 18.0685 9.78231C18.0811 9.78545 18.0923 9.79919 18.1045 9.81403C18.1212 9.83442 18.1396 9.85689 18.1655 9.85689L17.8373 10.9905H19.1052C19.2394 10.5654 19.3587 10.2 19.4855 9.8196H19.6123C20.2901 9.73616 20.8562 9.26346 21.0591 8.61141C21.2846 7.99469 21.4747 7.33668 21.6661 6.6741ZM22.4836 6.17266C22.9623 6.08983 23.4517 6.08983 23.9305 6.17266C23.8513 6.441 23.7695 6.70935 23.6882 6.97617C23.6316 7.16169 23.5753 7.34647 23.5203 7.53C23.0269 7.61714 22.5221 7.61714 22.0287 7.53C22.2132 7.12791 22.3395 6.72581 22.4642 6.32887L22.5134 6.17266H22.4836ZM26.6302 10.4386C26.8316 9.78231 27.033 9.12601 27.2269 8.46226C27.2757 8.33393 27.2961 8.19651 27.2865 8.05953C27.2436 7.62592 26.8718 7.29983 26.4363 7.31373H25.258C24.4443 7.30911 23.7209 7.83059 23.4681 8.60396C23.3475 9.06195 23.2052 9.51683 23.0632 9.9706C22.9855 10.2188 22.908 10.4667 22.8341 10.7146C22.8156 10.8106 22.8032 10.9078 22.7968 11.0054C23.2012 11.0427 23.6081 11.0427 24.0125 11.0054L24.0127 11.0046C24.2588 10.2218 24.5048 9.43897 24.7583 8.63379H25.9068C25.8386 8.8746 25.7703 9.08948 25.7044 9.29705C25.6479 9.4752 25.593 9.64795 25.5414 9.82706C25.3959 10.2098 25.2933 10.6075 25.2356 11.0129H26.4438C26.4694 10.9296 26.4977 10.8464 26.5259 10.7638C26.5633 10.6539 26.6004 10.545 26.6302 10.4386Z" fill="#D3DCE1" fill-rule="evenodd"/>
<path d="M14.3096 8.55173H15.4805L15.831 7.39575H14.6601C14.5482 7.78357 14.4364 8.149 14.3096 8.55173Z" fill="#D3DCE1"/>
</svg>