<svg fill="none" height="50" viewBox="0 0 140 50" width="140" xmlns="http://www.w3.org/2000/svg"><path d="m68.9423 34.5086c-.0964.0023-.1928.0069-.2869.0069-17.9316 0-35.8655 0-53.7971.0023-.8862 0-1.7447-.1076-2.5368-.5286-1.421-.7552-2.1579-1.9635-2.3025-3.5424-.06431-.6934.039-1.3708.2456-2.0367.7691-2.4829 1.5243-4.9704 2.2934-7.4533.8104-2.6202 3.5399-4.6752 6.3889-4.6706 17.3462.0229 34.6947.0114 52.0409.0114 1.0468 0 2.0936.0023 3.1382.0046-.2296.5355-.4638 1.0664-.6336 1.6248-1.1502 3.7415-2.3026 7.4853-3.4619 11.2245-.5418 1.7506-1.1754 3.4807-1.0882 5.3571zm-25.9986-14.5472c-.4224 0-.8448 0-1.2672 0-1.6116.0091-3.1933 1.1144-3.6823 2.6476-.8356 2.6317-1.6299 5.277-2.4449 7.9156-.0712.2311-.0046.3112.2364.3089.7094-.0092 1.4211-.0115 2.1304 0 .2135.0046.3008-.0778.3628-.2723.2915-.9406.5991-1.8742.8907-2.8147.0574-.1854.1469-.2586.3466-.2541.7094.0115 1.4211.0046 2.1304.0046.3627 0 .3765.0183.2709.3547-.2801.8833-.5601 1.7667-.8402 2.65-.0918.2929-.0666.3272.2502.3272.7094.0023 1.4211-.0046 2.1304.0069.1951.0023.2893-.0572.3467-.2517.1997-.6889.4178-1.3708.629-2.055.606-1.9635 1.219-3.9223 1.8136-5.8903.4637-1.5401-.3765-2.6637-1.9812-2.6774-.4408-.0023-.8838 0-1.3246 0zm-21.6323 8.1512h1.0652c1.6047-.0114 3.1589-1.1053 3.6731-2.6225.3283-.968.6359-1.9428.9206-2.9246.4247-1.46-.4109-2.5881-1.9284-2.6019-1.747-.016-3.4917 0-5.2387-.0068-.1814 0-.2778.0526-.3329.2334-1.0583 3.4509-2.1189 6.9018-3.1864 10.3527-.0735.2357.0069.2906.2204.2883.7185-.0046 1.4394-.0069 2.1579.0023.1998.0023.287-.0732.3444-.2586.2204-.7323.4637-1.4554.6795-2.19.0643-.2174.1722-.286.388-.2769.4132.0137.8241.0046 1.2373.0046zm28.3495-2.6889c.0321-.119.0528-.2105.078-.2997.4844-1.5905.9711-3.1786 1.4555-4.769.1194-.3868.1148-.3936-.3031-.3936-.4224 0-.8448-.0069-1.2672 0-.3328.0068-.73-.1236-.9848.0526-.2571.1785-.248.5995-.3467.9153-.4821 1.5607-.9825 3.1168-1.421 4.6889-.3512 1.2564.3604 2.3022 1.6345 2.4898.2617.0389.2893.135.2158.3593-.225.6911-.4247 1.389-.6497 2.0779-.0803.2471 0 .3066.2319.3043.7186-.0069 1.4394-.0091 2.158-.0023.1951 0 .2892-.0641.3466-.2563.2135-.7323.4545-1.46.6657-2.1945.0597-.2129.1676-.2769.3742-.309 1.5955-.2448 2.6975-1.1442 3.2186-2.6454.5946-1.714 1.0836-3.4646 1.6253-5.1946.0712-.2243.0161-.2952-.2135-.2929-.6611.0069-1.3246.0206-1.9857-.0046-.3191-.0137-.4454.0961-.5349.3959-.4798 1.611-.9849 3.2152-1.483 4.8193-.0345.1099-.023.2563-.2089.2563-.8632-.0022-1.7241 0-2.6102 0zm-19.8279 5.4441c1.2672 0 2.5345-.0046 3.7994.0046.2181 0 .3237-.0664.3903-.2792.5027-1.6247 1.0123-3.2472 1.5312-4.8674.0803-.254.016-.3249-.2365-.3204-.7093.0092-1.421.0115-2.1304 0-.2135-.0045-.303.0755-.3627.2723-.2227.73-.4683 1.4555-.691 2.1855-.062.2013-.1607.2677-.3696.2654-.652-.0114-1.3062-.0046-1.9582-.0046-.3995 0-.4018-.0045-.2847-.3867.753-2.4669 1.506-4.9338 2.259-7.4007.1125-.3661.101-.3821-.264-.3821-.691 0-1.382.0091-2.073-.0046-.225-.0046-.3123.0801-.3788.2883-1.0675 3.4509-2.1396 6.8995-3.2186 10.3436-.0734.2357-.0344.2929.2135.2906 1.2581-.0092 2.5138-.0046 3.7718-.0046zm35.6887-8.2084c-.482 0-.8861.0137-1.2878-.0023-1.6575-.0641-3.3012 1.2723-3.7512 2.7575-.5165 1.7094-1.0399 3.4165-1.5565 5.126-.0895.2975-.0688.3226.2549.3249.691 0 1.382-.0091 2.073.0069.2364.0046.3305-.0801.3994-.3021.5028-1.6339 1.0216-3.2632 1.5266-4.8971.0574-.19.1378-.2518.3375-.2495.7094.0115 1.421.0115 2.1304-.0023.2502-.0045.3053.0367.225.293-.5051 1.6041-.9918 3.2129-1.483 4.8193-.0919.2998-.0712.3295.2456.3318.5372.0023 1.0744 0 1.6116 0 .5479 0 .9022-.2631 1.0629-.7895.4936-1.627 1.0078-3.2472 1.4761-4.8811.3535-1.2357-.2755-2.2792-1.4715-2.4921-.6153-.1098-1.2443-.016-1.7884-.0434zm-6.5679.4851c.4499 0 .9022-.0023 1.3522 0 .1239 0 .2089-.0137.2548-.1602.2846-.9405.5785-1.881.8746-2.8193.0528-.1647-.0046-.1968-.1561-.1968-.9206.0046-1.8411.0046-2.7617 0-.124 0-.1905.0366-.2273.1625-.28.9337-.5624 1.865-.8494 2.7964-.0482.1602-.0183.2243.163.2197.45-.0092.9022-.0023 1.3522-.0023z" fill="#16648e"/><path d="m68.9424 34.5087c-.0873-1.8765.5463-3.6065 1.0881-5.3571 1.1571-3.7393 2.3095-7.4831 3.4619-11.2246.1722-.5584.4064-1.0893.6336-1.6248.6681-1.3066 1.5014-2.4943 2.5551-3.5149 1.9146-1.8559 4.1437-3.14197 6.7998-3.62711.6451-.11671 1.2948-.16019 1.9468-.16019h28.1333c1.662 0 3.24.32724 4.706 1.1236 2.257 1.2243 3.449 3.158 3.788 5.6592.023.1716.042.341.06.5126.06 1.4005-.204 2.7415-.62 4.0779-1.249 4.0276-2.456 8.0688-3.675 12.1056-.211.6956-.501 1.3593-.783 2.0275-.126.2128-.246.4302-.379.6384-2.436 3.7644-5.849 6.0185-10.335 6.5609-.93.1121-1.878.0755-2.819.0755-8.8017.0045-17.6034 0-26.4028.0045-1.5013 0-2.943-.2585-4.2676-.9977-2.3347-1.2998-3.5652-3.3113-3.8384-5.9361-.0115-.1144-.0345-.2265-.0528-.3387zm33.6336 4.2426v.0046h3.111c.423 0 .843-.0229 1.26-.0961 1.713-.2998 3.221-1.0389 4.576-2.1053 1.63-1.2792 2.86-2.8536 3.478-4.8468 1.262-4.0802 2.502-8.1673 3.755-12.2521.326-1.0618.643-2.1167.542-3.254-.133-1.4966-.81-2.65-2.087-3.4441-.922-.5744-1.951-.7757-3.023-.7757-2.103 0-4.206 0-6.306 0-.413 0-.824.0297-1.231.0938-1.407.2151-2.699.7346-3.879 1.5172-1.887 1.2517-3.2901 2.8971-3.9697 5.0802-1.3544 4.3434-2.6859 8.6936-4.0312 13.0393-.3306 1.0641-.4913 2.1465-.2755 3.2518.4569 2.3227 2.2636 3.6866 4.5409 3.7781 1.1795.048 2.3625.0091 3.5425.0091zm-10.9385-26.7581c-1.949 0-3.8981.0183-5.8448-.0046-1.7034-.0206-3.292.373-4.7613 1.2175-2.1579 1.238-3.7442 2.968-4.5041 5.3685-1.4004 4.4189-2.7892 8.8401-4.185 13.2589-.2916.92-.466 1.8491-.3513 2.8193.1584 1.3548.7507 2.4532 1.8733 3.2496.9458.6704 2.0248.8924 3.1566.8947 2.2084.0069 4.4146.0069 6.623 0 .7989 0 1.5909-.1007 2.3485-.3684 3.0992-1.1007 5.2273-3.2083 6.2672-6.3045 1.0124-3.0161 1.894-6.0757 2.8306-9.1147.085-.2769.0391-.3272-.303-.3272-3.0051 0-6.0078 0-9.0129-.0046-.2617 0-.3902.0824-.4706.341-.5027 1.595-1.0239 3.1854-1.5381 4.7758-.101.3135-.0849.3364.2594.3364h2.275c.3513 0 .3949.055.2962.3845-.3306 1.087-.6704 2.1739-.9895 3.2632-.0734.2517-.1951.3204-.4453.3204-1.9008-.0092-3.8017-.0046-5.7025-.0046-.3972 0-.4109-.0137-.2961-.3799 1.3246-4.222 2.6538-8.4418 3.9715-12.6639.0918-.2952.2204-.4005.5395-.4005 4.146.0115 8.292.0069 12.4403.0138.2479 0 .365-.0618.4454-.3135.6313-2.0047 1.281-4.0047 1.9237-6.0071.1033-.3226.0827-.3501-.28-.3501-2.1878 0-4.3779 0-6.5657 0z" fill="#fff"/><path d="m117.039 34.5018c.283-.6682.574-1.3296.783-2.0275 1.219-4.0368 2.429-8.0781 3.675-12.1056.414-1.3364.678-2.6774.62-4.0779 1.141.0046 2.284-.016 3.425.0183 1.173.0366 2.223.4416 3.061 1.2746 1.324 1.3158 1.68 2.9269 1.182 4.6775-.712 2.5081-1.508 4.991-2.282 7.4807-.255.817-.726 1.5195-1.318 2.1328-1.373 1.4257-3.032 2.3181-5.007 2.5996-.477.0687-.957.0389-1.437.0389-.902 0-1.802-.0091-2.704-.0137z" fill="#15648e"/><path d="m122.677 12.0755c.007-1.2563 1.045-2.27462 2.305-2.25632 1.27.01602 2.268 1.03202 2.262 2.30212-.007 1.2449-1.031 2.2449-2.292 2.2358-1.283-.0092-2.279-1.0092-2.275-2.2793zm2.285-1.8764c-1.059 0-1.904.8398-1.906 1.8902 0 1.0503.84 1.8902 1.901 1.8948 1.058.0022 1.899-.833 1.901-1.8903 0-1.0572-.836-1.8947-1.896-1.8925z" fill="#170e11"/><g fill="#fcfdfc"><path d="m42.9437 19.9613c.4408 0 .8838-.0023 1.3246 0 1.6047.0115 2.4449 1.1373 1.9812 2.6774-.5923 1.9658-1.2075 3.9269-1.8136 5.8903-.2112.6843-.4293 1.3662-.629 2.055-.0574.1945-.1515.254-.3467.2517-.7093-.0091-1.421-.0045-2.1304-.0068-.3168 0-.342-.0344-.2502-.3273.2778-.8833.5602-1.7666.8402-2.6499.1056-.3364.0919-.3547-.2709-.3547-.7093 0-1.421.0068-2.1304-.0046-.1997-.0023-.2892.0709-.3466.254-.2916.9405-.6015 1.8742-.8907 2.8147-.0597.1945-.147.2769-.3627.2723-.7094-.0137-1.4211-.0114-2.1304 0-.2411.0023-.3077-.0778-.2365-.3089.815-2.6385 1.6093-5.2839 2.4449-7.9155.4867-1.5332 2.0707-2.6385 3.6823-2.6477h1.2672zm-1.6873 5.4624c.3925 0 .7851-.0046 1.1777.0023.1469.0023.2181-.0412.264-.1899.2387-.7941.4844-1.5859.7369-2.3777.0528-.1625.0275-.2197-.1515-.2197-.7852.0069-1.5703.0069-2.3554 0-.1423 0-.2043.0549-.2433.1831-.2388.8032-.4798 1.6087-.7301 2.4097-.0528.1716.0046.1945.1538.1922.3834-.0046.7668 0 1.1502 0z"/><path d="m21.3115 28.1149c-.4132 0-.8265.0091-1.2374-.0046-.2158-.0069-.3237.0595-.388.2769-.2158.7323-.4591 1.4577-.6795 2.19-.0551.1854-.1423.2609-.3443.2586-.7186-.0115-1.4394-.0069-2.158-.0023-.2158 0-.2938-.0526-.2204-.2883 1.0675-3.4486 2.1281-6.8995 3.1864-10.3527.0551-.1808.1516-.2334.3329-.2334 1.747.0045 3.4918-.0092 5.2388.0068 1.5174.0138 2.353 1.1419 1.9283 2.6019-.2846.9818-.5922 1.9566-.9205 2.9246-.5143 1.5172-2.0684 2.611-3.6731 2.6225-.3559.0023-.7094 0-1.0652 0zm1.522-5.4601c-.3834 0-.769.0046-1.1524-.0023-.1469-.0023-.2204.0412-.2663.1922-.2319.7895-.4729 1.5744-.7186 2.3594-.0574.1807-.016.2334.1745.2311.7668-.0092 1.5358-.0069 2.3049 0 .1354 0 .2089-.0343.2502-.1694.2456-.8055.4936-1.6087.7461-2.4096.0505-.1579-.0046-.2037-.1607-.2014-.3926.0069-.7874 0-1.18 0z"/><path d="m49.6585 25.4261h2.6102c.186 0 .1745-.1465.2089-.2563.4982-1.6065 1.0033-3.2106 1.4831-4.8194.0895-.2998.2157-.4096.5348-.3959.6612.0252 1.3247.0115 1.9858.0046.2273-.0023.2824.0686.2135.2929-.5441 1.7323-1.0307 3.4829-1.6253 5.1947-.5212 1.5011-1.6231 2.4005-3.2186 2.6453-.2089.0321-.3145.0984-.3742.309-.2112.7345-.4499 1.46-.6657 2.1945-.0551.1923-.1515.2586-.3467.2563-.7185-.0068-1.4394-.0045-2.1579.0023-.2319 0-.3122-.0595-.2319-.3043.2273-.6888.427-1.3891.6497-2.0779.0735-.2265.0459-.3227-.2158-.3593-1.2741-.1876-1.9858-1.2334-1.6345-2.4897.4385-1.5722.9389-3.1283 1.421-4.6889.0987-.3158.0872-.7369.3467-.9154.2548-.1762.6519-.0458.9848-.0526.4224-.0092.8448 0 1.2672 0 .4178 0 .4201.0068.303.3936-.4866 1.5904-.971 3.1785-1.4554 4.769-.0276.0892-.0482.1808-.0781.2997z"/><path d="m29.8308 30.8678c-1.258 0-2.5138-.0046-3.7718.0046-.2479 0-.287-.0549-.2135-.2906 1.0813-3.4463 2.1533-6.8949 3.2185-10.3436.0643-.2082.1539-.2929.3788-.2883.691.0137 1.382.0046 2.073.0046.3651 0 .3742.016.264.3821-.7529 2.4669-1.5059 4.9338-2.2589 7.4007-.1171.3822-.1148.3867.2847.3867.6519 0 1.3062-.0068 1.9582.0046.2089.0046.3076-.0641.3696-.2654.2227-.73.4683-1.4555.691-2.1855.0597-.1968.1492-.2746.3627-.2723.7094.0115 1.421.0115 2.1304 0 .2548-.0023.3191.0664.2364.3204-.5188 1.6202-1.0284 3.2427-1.5312 4.8674-.0665.2128-.1722.2792-.3902.2792-1.2673-.0092-2.5345-.0046-3.7994-.0046z"/><path d="m65.5194 22.6616c.5441.0275 1.1731-.0663 1.7884.0435 1.196.2128 1.825 1.2563 1.4715 2.4921-.466 1.6339-.9803 3.2563-1.4761 4.8811-.1607.5263-.515.7895-1.0629.7895-.5372 0-1.0744 0-1.6116 0-.3168 0-.3375-.0298-.2456-.3318.4912-1.6065.9779-3.2175 1.483-4.8194.0803-.2586.0252-.2997-.225-.2929-.7094.016-1.421.016-2.1304.0023-.1997-.0023-.2801.0595-.3375.2494-.5027 1.634-1.0239 3.2633-1.5266 4.8972-.0689.222-.163.3066-.3995.3021-.691-.0138-1.382-.0046-2.073-.0069-.3237 0-.3443-.0275-.2548-.325.5188-1.7094 1.04-3.4165 1.5565-5.1259.4499-1.4852 2.0937-2.8239 3.7511-2.7576.4018.0161.8058.0023 1.2879.0023z"/><path d="m58.9537 23.1445c-.4499 0-.9022-.0069-1.3521.0023-.1814.0046-.2112-.0595-.163-.2197.2869-.9314.5716-1.8627.8494-2.7964.0367-.1259.1033-.1625.2272-.1625.9206.0023 1.8412.0046 2.7618 0 .1515 0 .2089.0321.1561.1968-.2962.9383-.59 1.8765-.8747 2.8193-.0436.1465-.1286.1602-.2548.1602-.45-.0046-.9022 0-1.3522 0z"/></g><path d="m102.576 38.7513c-1.18 0-2.362.0389-3.5419-.0092-2.2773-.0915-4.084-1.4554-4.5409-3.7781-.2158-1.1053-.0551-2.1854.2755-3.2518 1.3453-4.3456 2.6768-8.6959 4.0312-13.0392.6819-2.1832 2.0821-3.8285 3.9691-5.0803 1.18-.7826 2.473-1.302 3.88-1.5172.409-.0617.817-.0938 1.23-.0938h6.307c1.074 0 2.1.2014 3.023.7758 1.276.7941 1.956 1.9474 2.087 3.444.101 1.1373-.216 2.1923-.542 3.2541-1.253 4.0825-2.493 8.1718-3.756 12.252-.617 1.9932-1.848 3.5676-3.478 4.8468-1.356 1.0641-2.865 1.8056-4.575 2.1054-.418.0732-.838.0961-1.26.0961-1.038-.0023-2.073 0-3.111 0v-.0046zm2.179-6.6203c.989 0 1.977-.0069 2.966.0046.243.0022.363-.071.432-.3067.197-.6888.417-1.3707.629-2.055 1.111-3.5859 2.222-7.1741 3.333-10.76.108-.3501.099-.3615-.257-.3615-1.958 0-3.917.0045-5.875-.0069-.257 0-.372.0824-.448.325-.548 1.7803-1.111 3.5561-1.666 5.3342-.778 2.4806-1.554 4.9612-2.33 7.4395-.108.341-.078.3845.28.3845h2.936z" fill="#bd3636"/><path d="m91.6374 11.9932h6.5656c.3628 0 .3834.0275.2801.3501-.6428 2.0024-1.2925 4.0002-1.9238 6.0071-.0803.2517-.1974.3158-.4453.3135-4.146-.0069-8.2921 0-12.4404-.0138-.3213 0-.4476.1053-.5394.4005-1.3178 4.2244-2.647 8.4442-3.9716 12.664-.1148.3661-.1033.3798.2962.3798 1.9008 0 3.8016-.0045 5.7024.0046.2526 0 .3719-.0686.4454-.3204.3191-1.0915.6589-2.1762.9894-3.2632.0988-.3295.0574-.3822-.2961-.3845-.7576 0-1.5174 0-2.275 0-.3444 0-.3604-.0228-.2594-.3364.5142-1.5904 1.0353-3.1808 1.5381-4.7758.0803-.2586.2089-.341.4706-.341 3.005.0069 6.0078.0046 9.0129.0046.3443 0 .3902.048.303.3272-.939 3.0413-1.8182 6.0986-2.8306 9.1147-1.0399 3.0985-3.168 5.2038-6.2672 6.3045-.7553.2677-1.5473.3661-2.3485.3684-2.2084.0046-4.4146.0069-6.623 0-1.1341-.0046-2.2131-.2265-3.1566-.8947-1.1226-.7964-1.7149-1.8948-1.8733-3.2496-.1148-.9725.062-1.8993.3512-2.8192 1.3958-4.4189 2.7847-8.8424 4.1851-13.259.7621-2.4005 2.3485-4.1305 4.5041-5.3685 1.4693-.8422 3.0579-1.238 4.7613-1.2175 1.949.0229 3.8957.0046 5.8448.0046z" fill="#bd3636"/><path d="m124.962 10.1968c1.06 0 1.896.8353 1.896 1.8925s-.84 1.8948-1.901 1.8902c-1.061-.0023-1.903-.8421-1.901-1.8948 0-1.0503.847-1.8902 1.906-1.8902zm.355 2.0321c.056-.0252.078-.0412.104-.0503.372-.1374.56-.4028.514-.7278-.048-.3409-.271-.5377-.684-.5675-.324-.0229-.652-.0091-.976-.0274-.179-.0092-.229.0549-.227.2288.009.6682.007 1.3387 0 2.0069 0 .1488.023.2243.2.2243.186 0 .202-.087.195-.2289-.007-.1624 0-.3249 0-.4874 0-.3364.108-.4119.434-.3021.103.0344.179.1053.248.1877.135.1648.238.3455.339.5309.186.3387.202.3455.611.2471-.216-.3638-.411-.7368-.755-1.0366z" fill="#fcfdfc"/><path d="m41.2563 25.4238c-.3834 0-.7667-.0046-1.1501 0-.1492 0-.2066-.0206-.1538-.1922.2502-.801.4913-1.6042.73-2.4097.039-.1282.101-.1831.2433-.1831.7852.0046 1.5703.0046 2.3554 0 .1814 0 .2043.0572.1515.2197-.2525.7895-.5004 1.5813-.7369 2.3776-.0436.1488-.1148.1946-.264.19-.3926-.0069-.7851-.0023-1.1777-.0023z" fill="#16648e"/><path d="m22.8336 22.6548c.3925 0 .7874.0046 1.18 0 .1561-.0023.2089.0435.1607.2014-.2526.8032-.5005 1.6064-.7461 2.4096-.0414.1351-.1148.1694-.2503.1694-.769-.0069-1.5358-.0069-2.3048 0-.1929 0-.2319-.0504-.1745-.2311.2456-.785.4867-1.5699.7185-2.3594.0437-.151.1194-.1945.2663-.1922.3834.0069.7691.0023 1.1525.0023z" fill="#16648e"/><path d="m104.755 32.131c-.978 0-1.958 0-2.936 0-.358 0-.388-.0412-.28-.3844.776-2.4806 1.554-4.9612 2.33-7.4396.558-1.7781 1.118-3.5538 1.667-5.3342.075-.2426.19-.3272.447-.325 1.958.0092 3.917.0046 5.875.0069.356 0 .365.0114.257.3616-1.111 3.5882-2.222 7.1741-3.333 10.76-.212.6842-.432 1.3661-.629 2.0549-.069.2357-.189.3113-.432.3067-.989-.0137-1.977-.0046-2.966-.0046z" fill="#fff"/><path d="m125.32 12.2312c.344.2998.539.6728.755 1.0367-.409.0984-.425.0938-.611-.2472-.101-.1854-.204-.3661-.339-.5309-.069-.0824-.145-.1533-.248-.1876-.326-.1099-.434-.0344-.434.302 0 .1625-.005.325 0 .4874.004.1419-.009.2312-.195.2289-.177 0-.202-.0755-.2-.2243.004-.6682.007-1.3387 0-2.0069 0-.1739.046-.238.227-.2288.326.0183.652.0045.976.0274.413.0298.636.2266.684.5675.046.325-.14.5882-.514.7278-.026.0091-.051.0228-.104.0503zm-.471-.2837c.136-.0206.292-.0229.436-.0687.251-.0778.322-.3684.149-.5492-.101-.1076-.821-.1991-.938-.119-.014.0091-.035.0275-.035.0412-.002.2082-.044.4279.012.6201.039.1419.238.0298.378.0756z" fill="#170e11"/><path d="m124.847 11.9474c-.14-.048-.338.0664-.379-.0755-.055-.1922-.014-.4119-.011-.6201 0-.0138.02-.0298.034-.0412.117-.0801.838.0137.939.119.172.1808.099.4714-.149.5492-.143.0457-.299.048-.436.0686z" fill="#fcfdfc"/></svg>