<svg fill="none" height="50" viewBox="0 0 140 50" width="140" xmlns="http://www.w3.org/2000/svg"><g fill="#fff"><path d="m11.6452 27.9362c-.4605-.5107-1.4283-2.2128-1.85469-3h17.07579c-3.0698 7.6085-9.1242 13.2127-11.7676 15.0638-12.43267-8.9872-15.242384-23.7447-15.09315818-30h29.99445818c-.0512 6.0255-1.343 10.4681-1.9826 11.9362h-19.56992c-.46047-.9192-.91668-2.3405-1.08722-2.9362h18.54664c.7675-2.1957.9594-4.9574.9594-6.0638h-23.72701c.76745 11.7447 8.29271 20.4681 11.95941 23.3617 4.0931-3.6766 6.3101-7.1064 6.907-8.3617z"/><path d="m39 29.876v-8.7563h4.2171c.8107 0 1.5014.1269 2.0721.3805.5706.2509 1.0055.6 1.3048 1.0475.3027.4447.454.9578.454 1.5392 0 .5815-.1531 1.0946-.4593 1.5392-.3061.4447-.7498.791-1.3309 1.039-.5775.248-1.2769.372-2.0981.372h-2.6879v-1.4837h2.3226c.4349 0 .7933-.0612 1.0751-.1838.2854-.1254.4976-.2979.6368-.5173.1426-.2224.214-.4775.214-.7654 0-.2907-.0714-.5444-.214-.761-.1392-.2195-.3514-.3891-.6368-.5088-.2853-.1226-.6472-.1838-1.0856-.1838h-1.524v7.2427z"/><path d="m54.8243 21.1197h2.2599v5.6865c0 .6385-.1861 1.1971-.5584 1.676-.3688.4788-.8856.8522-1.5501 1.1202-.6646.2651-1.4388.3976-2.3226.3976-.8873 0-1.6632-.1325-2.3278-.3976-.6645-.268-1.1812-.6414-1.5501-1.1202-.3688-.4789-.5532-1.0375-.5532-1.676v-5.6865h2.2599v5.5283c0 .3335.0887.6299.2662.8893.1809.2594.4349.4632.762.6114s.7081.2223 1.143.2223c.4384 0 .8194-.0741 1.143-.2223.3271-.1482.5794-.352.7568-.6114.1809-.2594.2714-.5558.2714-.8893z"/><path d="m64.4482 23.638c-.0418-.3449-.221-.6128-.5376-.8038s-.7463-.2865-1.2891-.2865c-.3689 0-.6803.0428-.9343.1283-.254.0827-.4488.1981-.5845.3463-.1323.1482-.1984.3164-.1984.5045-.0069.1568.0331.2936.1201.4105.0904.1169.214.218.3705.3036.1566.0826.3376.1553.5428.218.2053.0599.4245.1112.6577.1539l.9603.1882c.4662.0855.8942.1995 1.2839.342s.7272.3178 1.0126.5259c.2853.2081.5062.4532.6628.7354.1601.2822.2418.6057.2453.9705-.0035.5359-.1705 1.0005-.501 1.3938-.3271.3905-.8003.6941-1.4197.9107-.6158.2138-1.3587.3207-2.2286.3207-.8629 0-1.6145-.1083-2.2547-.3249-.6367-.2167-1.1343-.5373-1.4927-.962-.3549-.4276-.541-.9563-.5584-1.5863h2.1868c.0244.2936.127.5388.308.7354.1844.1939.4297.3407.7359.4404.3096.0969.6593.1454 1.049.1454.3828 0 .7151-.0456.9969-.1368.2853-.0912.5063-.2181.6628-.3806.1566-.1624.2349-.3491.2349-.5601 0-.1966-.0713-.3619-.214-.4959-.1392-.134-.3445-.248-.6159-.3421-.2679-.094-.5967-.1795-.9864-.2565l-1.1639-.2394c-.9012-.1796-1.6127-.4604-2.1346-.8423-.522-.3819-.7812-.8964-.7777-1.5435-.0035-.5301.1688-.9933.5167-1.3895.3514-.3962.8333-.7055 1.4457-.9278s1.3083-.3335 2.0877-.3335c.7933 0 1.4858.1112 2.0773.3335.595.2223 1.0577.5316 1.3883.9278.3305.3962.501.8551.5115 1.3767z"/><path d="m67.9865 29.876v-8.7563h2.2599v3.6128h4.5877v-3.6128h2.2547v8.7563h-2.2547v-3.6171h-4.5877v3.6171z"/><path d="m88.8535 23.9501c-.0731-.2081-.1757-.3919-.308-.5515-.1322-.1625-.294-.2993-.4854-.4105-.1878-.114-.4036-.2009-.6471-.2608-.2401-.0598-.5063-.0898-.7986-.0898-.5463 0-1.0264.1112-1.4405.3335-.4106.2223-.7307.5459-.9603.9706-.2297.4218-.3445.9377-.3445 1.5477s.1131 1.1288.3393 1.5563c.2261.4276.5462.7539.9603.9791.4141.2223.9029.3335 1.4666.3335.5115 0 .9482-.0741 1.31-.2223.3654-.1511.6437-.3635.8351-.6371.1949-.2736.2923-.5971.2923-.9705l.4593.0555h-2.7558v-1.3938h4.4729v1.1031c0 .7696-.1983 1.4309-.595 1.9839-.3967.5501-.9429.9748-1.6388 1.2741-.6959.2964-1.4927.4446-2.3904.4446-1.0021 0-1.8824-.181-2.641-.543-.7585-.3648-1.35-.8822-1.7745-1.552-.421-.6727-.6315-1.4708-.6315-2.3943 0-.7097.1252-1.3425.3758-1.8983.254-.5587.6089-1.0319 1.0647-1.4195s.9864-.6827 1.5918-.885c.6055-.2024 1.2614-.3036 1.9677-.3036.6054 0 1.1691.0727 1.691.2181.5219.1425.9847.3448 1.3883.6071.4071.2622.7394.5743.9969.9363.2575.3592.4228.7554.4958 1.1886z"/><path d="m94.165 29.876h-2.4218l3.69-8.7563h2.9124l3.6844 8.7563h-2.4214l-2.6775-6.7553h-.0835zm-.1514-3.4418h5.7203v1.4451h-5.7203z"/><path d="m103.023 21.1197h2.787l2.944 5.8832h.125l2.944-5.8832h2.787v8.7563h-2.192v-5.6993h-.089l-2.766 5.6566h-1.493l-2.766-5.678h-.089v5.7207h-2.192z"/><path d="m118.438 21.1197v8.7563h-2.26v-8.7563z"/><path d="m128.943 21.1197v8.7563h-1.952l-4.65-5.5112h-.078v5.5112h-2.26v-8.7563h1.983l4.614 5.5069h.094v-5.5069z"/><path d="m137.604 23.9501c-.073-.2081-.175-.3919-.308-.5515-.132-.1625-.294-.2993-.485-.4105-.188-.114-.404-.2009-.647-.2608-.24-.0598-.506-.0898-.799-.0898-.546 0-1.026.1112-1.44.3335-.411.2223-.731.5459-.961.9706-.229.4218-.344.9377-.344 1.5477s.113 1.1288.339 1.5563c.226.4276.547.7539.961.9791.414.2223.903.3335 1.466.3335.512 0 .948-.0741 1.31-.2223.366-.1511.644-.3635.835-.6371.195-.2736.293-.5971.293-.9705l.459.0555h-2.756v-1.3938h4.473v1.1031c0 .7696-.198 1.4309-.595 1.9839-.397.5501-.943.9748-1.639 1.2741-.696.2964-1.493.4446-2.39.4446-1.002 0-1.883-.181-2.641-.543-.759-.3648-1.35-.8822-1.775-1.552-.421-.6727-.631-1.4708-.631-2.3943 0-.7097.125-1.3425.376-1.8983.254-.5587.608-1.0319 1.064-1.4195s.987-.6827 1.592-.885c.606-.2024 1.261-.3036 1.968-.3036.605 0 1.169.0727 1.691.2181.522.1425.985.3448 1.388.6071.407.2622.74.5743.997.9363.257.3592.423.7554.496 1.1886z"/></g></svg>