<svg fill="none" height="50" viewBox="0 0 140 50" width="140" xmlns="http://www.w3.org/2000/svg"><g fill="#ff7800"><path d="m123.722 15.258v12.6587 1.3889l-6.62-12.129c-.802-1.4444-1.354-1.9147-2.398-1.9147-1.043 0-1.781.7282-1.781 2.1826v2.8194 12.6587h2.347v-12.6587-1.3889l6.62 12.129c.802 1.4444 1.355 1.9147 2.398 1.9147 1.044 0 1.781-.7282 1.781-2.1726v-2.8294-12.6587z"/><path d="m77.0958 15.2699h-3.2058l-6.4568 6.9444v-6.9444h-2.339v17.6587h2.339v-7.252l.6899-.744 5.9379 8.0039h3.0348l-7.355-9.746z"/><path d="m101.47 16.3294c-1.303-.8671-2.7946-1.0595-4.2648-1.0595h-4.3105v17.6587h2.4255v-6.2024h1.885c1.4702 0 2.9618-.1984 4.2648-1.0595s2.379-2.3393 2.379-4.6687c0-2.3293-1.085-3.8095-2.379-4.6686zm-1.242 7.375c-.6505.5178-1.6607.8413-3.0228.8413h-1.885v-7.0953h1.885c1.3621 0 2.3723.3214 3.0228.8413.408.321.737.7316.964 1.2005.227.469.345.984.345 1.5058 0 .5219-.118 1.0369-.345 1.5058-.227.469-.556.8796-.964 1.2006z"/><path d="m24.8559 30.8572c.3028-.3892.5631-.8103.7764-1.256.6309-1.3135.627-2.8194.625-3.8155v-3.4762c0-.992 0-2.5019-.625-3.8135-1.1184-2.3254-3.1193-3.49-5.4898-3.496h-.0295c-2.3704 0-4.3693 1.1726-5.4877 3.496-.631 1.3116-.627 2.8175-.6251 3.8135v3.4762c0 .9921 0 2.502.6251 3.8155 1.1203 2.3274 3.1252 3.494 5.5035 3.494.9217.0093 1.834-.1878 2.6711-.5773l1.883 2.4821h3.3178zm-.9395-4.9703c0 .8076.0098 1.9107-.3932 2.7421-.4225.877-1.4309 2.2063-3.3984 2.2063s-2.9758-1.3293-3.3984-2.2063-.3931-2.127-.3931-2.9365v-3.2897c0-.8076-.0314-2.0575.3931-2.9345.4246-.877 1.4309-2.2064 3.3984-2.2064s2.9759 1.3294 3.3984 2.2064c.4226.877.3932 2.1269.3932 2.9345z"/><path d="m55.2194 18.127c1.6-1.2183 3.4259-1.3433 6.2445-.6825v-1.633s-1.3955-.8115-3.6107-.8115c-2.2151 0-3.5065.5774-4.5344 1.502-1.1794 1.0536-2.0737 2.7361-2.3351 5.3571-.1415 1.4986-.1415 3.0074 0 4.506.2614 2.6151 1.1636 4.2976 2.3351 5.3571 1.0279.9246 2.3036 1.5 4.5344 1.5 2.2309 0 3.6107-.8214 3.6107-.8214v-1.6329c-2.8186.6607-4.6445.5357-6.2445-.6826-1.6314-1.2401-1.9655-3.5496-1.9655-5.9781 0-2.4286.3341-4.7401 1.9655-5.9802z"/><path d="m86.0311 17.0655c1.1936.0491 2.3831.173 3.5615.371v-1.9008c-1.5405-.4173-3.1357-.592-4.729-.5178-.9278.0337-1.8498.1627-2.7518.3849-1.2854.3333-2.0009.9524-2.3979 1.5595-.2463.3762-.4026.8051-.4565 1.2528-.0539.4476-.0039.9018.1459 1.3266.0048.0123.0087.0249.0118.0377.0275.0754.057.1547.0904.2321.4521 1.1786 1.14 2.0834 2.1149 3.1488 1.0457 1.1429 3.2156 3.1885 4.1277 4.2897.568.7024 1.2363 1.6409.9041 2.4504-.3656.8869-1.9655 1.502-3.878 1.4464-1.1931-.0567-2.3821-.1805-3.5615-.371v1.8909s1.482.6587 4.7271.5278c3.2451-.131 4.5344-1.008 5.1477-1.9445.3069-.5192.4793-1.1081.5012-1.7123v-.0516c.0019-.1006-.002-.2013-.0118-.3016-.0472-.9087-.2319-1.5873-1.3759-2.9246-1.2834-1.494-3.5851-3.6944-4.6209-4.7837l-.285-.3016c-.7587-.8194-1.5901-1.8452-1.2029-2.8194.4088-1.0338 2.2171-1.3254 3.9389-1.2897z"/><path d="m47.6777 15.2679h-2.4255v17.6686h2.4255z"/><path d="m109.281 15.2401h-2.425v17.6686h2.425z"/><path d="m31.8925 15.2699h-2.341v11.5754c0 2.0694.6919 6.3492 5.9536 6.3492 5.2618 0 5.9556-4.2877 5.9556-6.3492v-11.5754h-2.3409v11.5754c0 3.6904-2.5041 4.1666-3.6147 4.1666-1.1105 0-3.6126-.4662-3.6126-4.1666z"/></g></svg>