<svg fill="none" height="50" viewBox="0 0 140 50" width="140" xmlns="http://www.w3.org/2000/svg" xmlns:xlink="http://www.w3.org/1999/xlink"><linearGradient id="a" gradientUnits="userSpaceOnUse" x1="22.6054" x2="-.112624" y1="25.6395" y2="20.0311"><stop offset="0" stop-color="#34bcd5"/><stop offset="1" stop-color="#a1509e"/></linearGradient><g clip-rule="evenodd" fill-rule="evenodd"><path d="m.948342 10.8361h10.749158c.6079-.0033 1.2133.0792 1.7982.2449l.0094.0029c4.0881 1.1889 7.015 3.7614 8.8899 7.5752.0966.1963.3069.4541.09.6428-.2168.1888-.4269-.0693-.6192-.1805-1.1924-.6887-2.4467-1.1985-3.8306-1.3091-3.4892-.279-6.9849-.059-10.47691-.1256-.4188-.008-.56386.1974-.59042.6056-.04522.6954.36492.7536.89242.7536 3.56531-.0089 7.13051-.0104 10.69581-.0043.4451-.009.8901.0245 1.3289.1 1.5904.2878 2.7393 1.6835 2.7163 3.2995.0024 3.6548.0024 7.3101 0 10.9658 0 .9691-.0078.9753-.991.9761-3.1901.002-6.3802.002-9.5703 0-4.84455-.0025-9.95301-3.4527-11.78174-7.9585-.076488-.1884-.2692138-.4158-.094197-.5865.221173-.2157.429912.0439.614161.1547 1.373196.8261 2.840776 1.3666 4.451716 1.3804 3.2592.0278 6.52026.0188 9.78056.0261.4279.0012.7227-.1049.7301-.6281.0079-.5614-.3105-.6546-.7649-.6723-2.9546-.1159-5.91008-.0349-8.86483-.0469-1.00734-.0042-2.01373.0941-3.0222-.0149-1.65785-.1786-3.0636408-1.5808-3.0764515-3.2472-.0282589-3.6751 0-7.3509.0099849-11.0264.0006211-.5114.4147216-.926.9261386-.9273z" fill="url(#a)"/><path d="m36.0184 17.5c-1.3651 0-2.5005.3045-3.3561.9646-.8704.6595-1.3038 1.5772-1.3038 2.7024 0 .2948.0337.5766.1043.8431l.0016.0059c.0635.2269.1342.4384.2129.6336l.0069.0172.0083.0165c.1064.2113.2527.4117.4309.6022l.0056.0061.0059.0058c.159.158.3023.2942.4293.4077l.0079.007.0081.0067c.1696.1378.3838.2626.6296.3782l.008.0036c.2406.1075.4361.1925.585.2542.1641.0679.3899.1441.6692.2285l.0108.0033.011.0027c.2864.0711.4916.1236.6181.1578.1386.0376.3595.0924.6585.1636l.01.0024.01.0019c.308.0589.4974.0978.5811.1183.1433.0386.3779.0936.6967.164.3224.0711.5599.1242.7134.1594l.0069.0015c.1433.0305.3522.0898.6332.1828.277.0917.4702.1713.5924.2367.1275.0681.2861.172.478.3177l.0068.0052.007.0049c.1585.1111.2549.2219.3111.3264l.0085.016.0099.0153c.0778.1201.1518.285.2149.5046l.0036.0125.0043.0123c.065.1842.1003.3949.1003.6362 0 .8786-.3237 1.5315-.9672 2.0111-.6481.48-1.592.7481-2.8862.7481-1.3758 0-2.3636-.3326-3.031-.9335-.6616-.6073-1.0195-1.4897-1.0195-2.7158v-.4984h-1.2546v.6765c0 1.5014.4857 2.7004 1.5123 3.5161l.0052.004c1.0051.7749 2.2864 1.1437 3.8056 1.1437 1.505 0 2.7471-.3207 3.675-1.0152l.0032-.0025c.9421-.7187 1.4118-1.7133 1.4118-2.9341 0-.7051-.165-1.3334-.5184-1.8617-.353-.5276-.8721-.9232-1.5267-1.1994-.4281-.1855-1.2915-.4182-2.5427-.6997-.1544-.041-.4062-.0902-.7398-.1474-.3223-.0686-.5739-.1209-.7537-.1568-.1701-.0454-.4045-.1135-.7051-.2054-.2948-.0901-.5143-.1704-.6664-.24-.1584-.0845-.3435-.198-.5565-.3428-.1942-.1319-.3233-.2557-.4042-.3664-.0942-.1416-.1848-.3191-.269-.5371-.0648-.1963-.0996-.4182-.0996-.6695 0-.7868.2843-1.362.8433-1.7808.577-.4323 1.4133-.6757 2.562-.6757 1.3391 0 2.2755.2796 2.8808.7681.5914.4773.9344 1.2091.9729 2.274l.0155.4291h1.2735l-.0171-.4614c-.0515-1.3939-.542-2.496-1.5239-3.224-.9467-.7019-2.1668-1.0319-3.6196-1.0319zm22.8235.267h-1.2725v2.7058h1.2725zm81.1581 0h-1.255v13.5644h1.255zm-93.5447 16.733v-4.1899c.152.1778.3198.3422.5037.4927l.0075.0058c.7139.5591 1.5934.8254 2.6074.8254 1.3324 0 2.4302-.4924 3.2492-1.4792l.0019-.0023c.8093-.9883 1.1937-2.2649 1.1937-3.7876 0-1.5542-.3824-2.8449-1.1944-3.8241-.8076-.9884-1.9006-1.4806-3.2325-1.4806-.9732 0-1.8207.258-2.5128.7983-.2359.1843-.4495.3979-.6416.6394v-1.1707h-1.2367v13.1728zm-.0179-8.0817c0-1.4028.2992-2.4189.8366-3.1077.5369-.6732 1.2893-1.0221 2.3178-1.0221.9994 0 1.7492.3512 2.3017 1.0422l.002.0025c.5608.6911.8687 1.6778.8687 3.0139 0 1.3199-.3118 2.3148-.8871 3.0324-.567.6956-1.3138 1.0441-2.2853 1.0441-1.0852 0-1.8375-.375-2.3374-1.0893-.5369-.7791-.817-1.7431-.817-2.916zm32.2967 3.9519c-1.0256 0-1.8162-.3536-2.4169-1.0516-.5963-.7185-.9167-1.6996-.9167-2.9893 0-1.2498.3241-2.2138.9333-2.9342.6152-.7139 1.4079-1.071 2.4183-1.071 1.0083 0 1.778.361 2.3564 1.0791l.0045.0054c.5972.718.9189 1.7055.9189 3.0097 0 1.2661-.3203 2.2219-.9148 2.9158-.5885.6871-1.3673 1.0361-2.383 1.0361zm.0359-9.2744c-1.3739 0-2.5112.4874-3.3679 1.4712-.8512.9776-1.2562 2.2527-1.2562 3.7801 0 1.5349.3906 2.8145 1.2158 3.7927l.0043.0049c.846.9737 1.9784 1.4537 3.3502 1.4537 1.3795 0 2.5132-.4712 3.3494-1.4349.8414-.9558 1.2389-2.2208 1.2389-3.7452 0-1.5561-.3895-2.848-1.2152-3.8273-.8322-.9992-1.9542-1.4952-3.3193-1.4952zm15.4602.6192c-.3229.2332-.5963.5268-.8235.8743-.186-.3109-.4206-.5814-.706-.8073-.5615-.4564-1.2651-.6684-2.0738-.6684-.8446 0-1.582.2178-2.1801.6818-.1439.1115-.2773.2356-.4008.3715v-.8397h-1.2546v10.0042h1.2546v-5.7675c0-1.0304.2556-1.8052.7226-2.3699l.0025-.003c.4635-.5705 1.0517-.8491 1.802-.8491.7841 0 1.2713.2259 1.5663.5964.3265.4101.5128.9853.5128 1.7711v6.622h1.2546v-6.3906c0-.826.2295-1.446.6515-1.9051.4304-.4555.9987-.6938 1.7501-.6938.7649 0 1.2556.2116 1.5626.5601l.0042.0046c.3371.372.5302.9017.5302 1.6426v6.7822h1.2725v-6.6576c0-1.0437-.2569-1.9233-.8238-2.5847-.5888-.6873-1.4625-.9933-2.5278-.9933-.8045 0-1.5126.1977-2.0961.6192zm39.0428 3.4252c-.034.0225-.078.0461-.136.069-.07.0159-.176.0343-.324.0542-.164.0116-.316.0233-.457.035-.139.0115-.379.0289-.722.0524-.335.012-.632.03-.891.0543-1.245.0864-2.249.3697-2.951.9049-.727.554-1.081 1.3399-1.081 2.2979 0 .906.313 1.6614.966 2.2091l.004.0037c.644.5261 1.512.7599 2.543.7599.968 0 1.817-.2268 2.52-.7052.275-.1867.522-.4082.743-.6624l.021.1489.003.0187.004.0184c.042.1805.11.373.236.5231l.026.0311.032.0259c.106.0884.234.1654.373.2341l.023.0115.024.0087c.195.0704.412.098.637.098.239 0 .469-.0279.689-.0862l.333-.0881v-1.2677l-.582.1806c-.16.0496-.287.0687-.386.0687s-.15-.0142-.172-.0232l-.002-.0007c-.028-.07-.059-.215-.059-.4745v-5.5005c0-.9898-.325-1.7952-1.042-2.3161-.672-.4996-1.534-.7279-2.543-.7279-1.093 0-2.011.2824-2.701.8972-.681.6062-1.042 1.473-1.133 2.5366l-.041.4824h1.237l.038-.4042c.077-.83.339-1.3868.732-1.7401.394-.3538.983-.5614 1.832-.5614.887 0 1.468.1975 1.826.5145.348.3083.558.7963.558 1.5504 0 .2771-.029.4717-.072.6-.041.1265-.084.1559-.092.1607zm-3.031 5.2478c-.797 0-1.353-.1759-1.725-.47-.36-.2962-.551-.7027-.551-1.2745 0-.4111.074-.7283.2-.9701.125-.2389.303-.4157.544-.5396.291-.1501.577-.2543.859-.3164l.015-.0039c.29-.0747.651-.1309 1.088-.1651l.009-.0009c.224-.0222.529-.0394.919-.0512l.013-.0008c.395-.0237.678-.0416.848-.0537l.013-.001.014-.0018c.183-.0243.39-.0545.62-.0905l.011-.0018.011-.0023c.112-.0234.219-.0505.32-.0824v.893c0 .887-.347 1.6701-1.08 2.3662l-.001.0009c-.524.5007-1.219.7659-2.127.7659zm-66.2225-9.0608v1.0573c.1607-.1748.3388-.3366.5344-.4851l.0033-.0025c.7026-.5234 1.5149-.7833 2.4196-.7833 1.1608 0 2.1174.329 2.798 1.0462.67.6939.9837 1.6145.9837 2.7098v6.4618h-1.2725v-6.3372c0-.8481-.2176-1.4866-.6131-1.958l-.0035-.0043c-.3531-.4316-.9367-.69-1.8568-.69-1.0465 0-1.7556.346-2.2159.988l-.0019.0026c-.4996.6864-.7574 1.512-.7574 2.4984v5.5005h-1.2725v-10.0042zm55.5945-.2136c1.161 0 2.118.3292 2.798 1.0467.67.6939.984 1.6142.984 2.7093v6.4618h-1.273v-6.3372c0-.8481-.218-1.4866-.613-1.958l-.004-.0043c-.353-.4316-.936-.69-1.856-.69-1.047 0-1.756.346-2.216.988l-.002.0026c-.5.6864-.758 1.512-.758 2.4984v5.5005h-1.272v-10.0042h1.255v1.0573c.16-.1748.338-.3366.534-.4851l.003-.0025c.703-.5234 1.515-.7833 2.42-.7833zm-9.694 2.2997c.474.615.75 1.3333.821 2.1684h-6.346c.102-.8476.411-1.5665.92-2.1712l.002-.0025c.578-.6979 1.338-1.0483 2.324-1.0483 1.025 0 1.761.3571 2.275 1.0478zm-4.708 5.8821c-.487-.689-.771-1.5124-.836-2.4855h7.639v-.801c0-1.2782-.376-2.408-1.133-3.3691-.776-1.0117-1.876-1.5084-3.241-1.5084-1.357 0-2.477.5046-3.319 1.5128-.835.9883-1.233 2.2665-1.233 3.7919 0 1.5129.392 2.7754 1.218 3.7415l.002.0027c.844.9716 1.964 1.4537 3.314 1.4537 1.162 0 2.15-.3534 2.925-1.0832l.003-.0028c.761-.7286 1.214-1.6596 1.37-2.7687l.071-.5065h-1.293l-.044.3965c-.084.763-.401 1.4099-.962 1.956-.542.5287-1.221.7983-2.07.7983-1.108 0-1.886-.3864-2.411-1.1282zm-46.3701-7.9682h-1.2725v10.0042h1.2725z" fill="#fff"/></g></svg>