<svg fill="none" height="50" viewBox="0 0 140 50" width="140" xmlns="http://www.w3.org/2000/svg"><path d="m10.71 8.76879c1.26-.49 2.5666-.84 3.8966-1.02666.2567 2.61337 1.0033 5.13327 2.1933 7.44327 1.19-2.31 1.96-4.8533 2.24-7.44327 1.33.18666 2.6367.53666 3.8967 1.02666-.28 2.12331-.8167 4.20001-1.5867 6.18331 2.1467-.7933 4.06-2.1 5.6-3.85 1.0733.84 2.03 1.7967 2.87 2.87-2.6367 2.9867-6.1366 4.97-9.9866 5.67 1.1666 1.26 2.45 2.3566 3.85 3.29 2.3799-2.38 5.2499-4.1767 8.3999-5.2267.56 1.26.9567 2.5667 1.2367 3.8967-2.1233.7-4.0833 1.82-5.7867 3.2666 1.96.7 3.99 1.0967 6.0667 1.1667-.0933 1.3767-.3267 2.73-.7233 4.06-6.1367-.3967-11.9-3.22-16.0767-7.8633-4.1766 4.6666-9.93992 7.4899-16.076569 7.8633-.396666-1.33-.629998-2.6833-.723331-4.06 2.07666-.07 4.12999-.49 6.08998-1.2367-1.72666-1.4466-3.68665-2.5666-5.786647-3.29.279999-1.3299.699997-2.6133 1.236657-3.8499 3.14999 1.05 6.01998 2.8466 8.39998 5.2266 1.42333-.9333 2.70663-2.0533 3.87333-3.3133-3.85-.7-7.37332-2.7067-9.98665-5.6933.84-1.0734 1.82-2.03 2.89333-2.87 1.51666 1.75 3.45332 3.0566 5.60002 3.85-.7934-1.9367-1.33-3.99-1.61-6.09001zm-1.61003 19.92661c1.23663-.56 2.42663-1.2133 3.54663-1.9833 1.4 1.8433 2.8 3.7333 4.1533 5.5766 1.4-1.8433 2.8-3.71 4.1534-5.5766 1.12.7466 2.31 1.4233 3.5466 1.9833-1.8666 2.59-3.85 5.11-5.6933 7.6766v5.7633c-1.33.1634-2.66.1634-3.9666 0v-5.7633z" fill="#f96432"/><path d="m117.273 18.3589c1.144-.7234 2.52-1.0034 3.827-.7467 1.237.1633 2.427.6767 3.407 1.4933l-1.377 2.0534c-1.003-.84-2.287-1.26-3.57-1.19-.583.07-1.213.5133-1.12 1.1666.093.6534.49.8867.933 1.05 1.447.56 3.057.7 4.317 1.68 1.33 1.19 1.563 3.22.56 4.7133-.653.91-1.657 1.4934-2.753 1.6334-2.24.3266-4.48-.3734-6.16-1.9134l1.54-1.9133c.91.84 2.03 1.3533 3.243 1.4933.653.1167 1.33-.0466 1.867-.4666.21-.2334.303-.5834.256-.91-.07-.3267-.256-.6067-.56-.7467-1.516-.8166-3.383-.7933-4.783-1.9133-.747-.63-1.143-1.61-1.073-2.59.023-1.12.56-2.2167 1.446-2.8933zm-61.7861 0c1.54-.7934 3.3134-.98 4.9934-.5367 1.0266.2567 2.0066.7467 2.8 1.47l-1.68 2.0767c-.77-.7467-1.75-1.19-2.8-1.2367-1.0967-.0933-2.1934.3733-2.8934 1.2367-1.3766 1.7266-1.2133 4.2466.3734 5.7633 1.4233 1.12 3.3833 1.19 4.8533.14 0-.4434 0-.8867 0-1.33h-1.26c0-.7 0-1.4 0-2.1233h3.78v4.6899c-1.6567 1.47-3.85 2.17-6.02 1.9134-1.61-.1634-3.08-.98-4.1067-2.2634-1.1666-1.5633-1.5866-3.5699-1.1899-5.5066.3966-1.8433 1.5399-3.4067 3.1499-4.2933zm12.8333.2333c1.6334-.98 3.5934-1.26 5.4134-.77 1.0033.2567 1.9599.7467 2.7299 1.4467-.56.6766-1.12 1.3766-1.6566 2.0533-.7934-.77-1.7967-1.2133-2.8933-1.2367-1.1667-.07-2.31.4667-2.9867 1.47-1.2133 1.7734-.9333 4.2.6533 5.6233 1.4234 1.0034 3.3134 1.0034 4.76 0v-1.2833h-1.2367v-2.1233h3.78v4.7133c-1.3766 1.2133-3.1266 1.89-4.9466 1.9133-1.75.0934-3.4533-.5366-4.7367-1.7733-1.2366-1.2833-1.8666-3.0566-1.7733-4.8533.07-2.1 1.1433-4.0367 2.8933-5.18zm-27.6965-.77h3.0799c.9334 1.8433 1.9134 3.6867 2.87 5.53l2.8934-5.53h2.9866c-1.5166 2.8233-3.1033 5.6-4.62 8.4466v3.9667h-2.59c0-1.3067 0-2.6367 0-3.9433-1.5166-2.8467-3.1033-5.6467-4.6199-8.47zm38.3832 0h4.06c2.2399-.1167 4.3866 1.0267 5.5999 2.9867 1.0034 1.7733 1.1434 3.9433.3267 5.8333-.98 2.1233-3.0567 3.5233-5.3433 3.5933-1.54 0-3.1033 0-4.6667 0 .0234-4.1533.0234-8.2833.0234-12.4133zm2.6366 2.4033v7.5133c1.19 0 2.4734.14 3.5233-.56 1.0267-.7466 1.61-1.9366 1.61-3.2199 0-1.2834-.63-2.4734-1.6566-3.1967-1.0267-.63-2.2867-.49-3.4767-.5367zm9.59-2.4033h5.4366c1.5167-.0467 2.94.7467 3.7329 2.0767.817 1.6566.537 3.6633-.6995 4.9933-.42.3967-.91.6766-1.4234.8866l2.9399 4.4334h-3.0799c-.84-1.33-1.7033-2.6367-2.5666-3.9667h-.7v-2.4033c.8866-.0467 1.8666.1867 2.66-.35.49-.3733.7466-.98.6766-1.61s-.4433-1.1667-1.0033-1.4233c-1.0967-.21-2.2167-.28-3.3366-.1867v9.9633h-2.6134c-.0233-4.1533-.0233-8.2833-.0233-12.4133zm10.8495 12.4366 5.134-12.4833h2.426l5.134 12.4833h-2.8c-.374-.9566-.747-1.8666-1.097-2.8h-4.013l.933-2.3799h2.147l-1.587-4.0367c-1.213 3.08-2.427 6.16-3.64 9.24h-2.637zm24.85-12.4366h2.614v12.4133h-2.614zm4.807 0h2.66v9.94h5.6v2.4733h-8.26c0-4.1533-.023-8.2833 0-12.4133z" fill="#ededed"/></svg>