<!-- Generated by IcoMoon.io -->
<svg version="1.1" xmlns="http://www.w3.org/2000/svg" width="32" height="32" viewBox="0 0 32 32">
<title>apollogames</title>
<path d="M14.797 15.603l1.384-1.331c0 0-0.352 0.24-3.51-2.423-3.158-2.651-4.089-3.382-4.089-3.382l3.623 3.85c2.504 2.675 2.629 3.19 2.592 3.286zM20.484 12.305c2.78-3.022 3.535-3.922 3.535-3.922s-0.604 0.528-4.013 3.466c-2.793 2.399-3.321 2.519-3.435 2.483l1.384 1.331c0 0-0.239-0.336 2.529-3.358zM16.571 14.331l-0.025-0.024c0 0 0 0.024 0.025 0.024zM12.23 19.261c-2.78 3.022-3.535 3.922-3.535 3.922s0.604-0.528 4.013-3.466c2.793-2.399 3.321-2.519 3.435-2.483l-1.384-1.331c0-0.012 0.252 0.336-2.529 3.358zM16.143 17.222l0.025 0.024c0 0 0-0.012-0.025-0.024zM20.622 19.201c-2.516-2.675-2.629-3.19-2.592-3.286l-1.384 1.331c0 0 0.352-0.24 3.51 2.423 3.158 2.651 4.089 3.382 4.089 3.382l-3.623-3.85z"></path>
<path d="M31.831 15.699c0 0-2.969-0.036-7.549-0.264-2.592-0.132-4.378-0.3-5.448-0.432-1.107-0.18-1.409-0.492-1.56-1.487-0.151-1.067-0.365-2.854-0.516-5.217-0.264-4.018-0.39-7.232-0.39-7.232s-0.038 2.854-0.277 7.232c-0.126 2.279-0.289 3.91-0.415 4.953-0.151 1.295-0.44 1.607-1.875 1.787-1.145 0.144-2.894 0.324-5.171 0.456-4.189 0.252-7.549 0.384-7.549 0.384s2.969 0.036 7.549 0.264c2.579 0.132 4.353 0.3 5.422 0.432 1.12 0.18 1.434 0.492 1.585 1.499 0.013 0.072 0.378 3.034 0.516 5.217 0.264 4.018 0.39 7.232 0.39 7.232s0.038-2.855 0.277-7.232c0.138-2.579 0.327-4.318 0.465-5.325 0.176-0.983 0.528-1.247 1.824-1.415 1.145-0.144 2.906-0.324 5.171-0.468 4.202-0.264 7.549-0.384 7.549-0.384z"></path>
</svg>
