<!-- Generated by IcoMoon.io -->
<svg version="1.1" xmlns="http://www.w3.org/2000/svg" width="32" height="32" viewBox="0 0 32 32">
<title>apparat</title>
<path d="M14.774 3.315c0 0.066 1.12 2.854 2.488 6.197l2.488 6.077-5.276 0.088c-3.741 0.062-5.356 0.203-5.552 0.483-0.34 0.488-5.721 13.237-5.721 13.554 0 0.126 0.896 0.186 1.99 0.134l1.99-0.095 4.152-9.818h10.187l4.132 9.818 2.158 0.095c1.287 0.057 2.116-0.029 2.055-0.213-0.057-0.169-2.574-6.185-5.594-13.369l-5.49-13.061-2.003-0.005c-1.102-0.003-2.003 0.049-2.003 0.115z"></path>
</svg>
