<!-- Generated by IcoMoon.io -->
<svg version="1.1" xmlns="http://www.w3.org/2000/svg" width="32" height="32" viewBox="0 0 32 32">
<title>atmosfera</title>
<path d="M26.708 18.88l-1.195-2.528c-3.302-0.177-6.637-0.266-10.004-0.269s-6.718 0.088-10.055 0.272l-1.197 2.525c3.688-0.223 7.438-0.336 11.251-0.339 3.791 0 7.523 0.113 11.199 0.339zM21.319 7.483l-0.477-1.004c-1.769-0.052-3.547-0.079-5.332-0.079s-3.581 0.027-5.384 0.081l-0.476 1.002c1.94-0.061 3.892-0.1 5.86-0.1s3.886 0.038 5.809 0.1zM24.536 14.287l-2.371-5.007c-2.205-0.077-4.424-0.116-6.655-0.119s-4.466 0.037-6.706 0.119l-2.371 5.011c2.997-0.15 6.022-0.225 9.077-0.225s6.063 0.073 9.026 0.221h-0zM29.159 24.064c-2.654-0.199-5.336-0.339-8.047-0.419l0.691 1.494c2.727 0.092 5.42 0.244 8.080 0.457l-0.724-1.532zM27.572 20.704c-3.97-0.256-7.991-0.384-12.061-0.384s-8.109 0.129-12.112 0.388l-0.722 1.536c4.203-0.301 8.481-0.453 12.834-0.457 4.337 0 8.598 0.148 12.784 0.446l-0.722-1.528zM1.083 25.6c2.656-0.212 5.347-0.365 8.072-0.459l0.699-1.494c-2.7 0.081-5.381 0.22-8.044 0.418l-0.727 1.535v0.001z"></path>
</svg>
