<!-- Generated by IcoMoon.io -->
<svg version="1.1" xmlns="http://www.w3.org/2000/svg" width="32" height="32" viewBox="0 0 32 32">
<title>ballywulff</title>
<path d="M18.076 1.067c0.695 1.872 1.475 3.623 2.354 5.327 0.51 0.989 1.063 1.964 1.588 2.953 0.156 0.289 0.255 0.365 0.51 0.076 2.396-2.709 5.501-3.881 8.819-4.521 0.184-0.030 0.355-0.076 0.652-0.137-0.638 0.731-1.219 1.355-1.772 1.994-1.787 2.070-3.105 4.445-3.786 7.2-0.142 0.578-0.822 0.883-1.304 0.639-0.269-0.137-0.113-0.35-0.085-0.533 0.269-2.207 1.063-4.186 2.41-5.921-0.227-0.107-0.354 0.046-0.496 0.137-1.914 1.111-3.417 2.755-4.75 4.582-0.355 0.487-0.496 0.411-0.766-0.030-1.262-1.994-2.268-4.14-3.19-6.332-0.099-0.244-0.213-0.502-0.369-0.837-1.219 2.557-2.084 5.16-2.978 7.854-1.999-1.994-4.154-3.653-6.664-4.764 1.205 1.933 1.593 1.779 2.416 4.047-0.533 0.533-0.629 1.631-1.282 1.966-0.185 0.095-0.34-0.259-0.411-0.441-0.978-2.314-2.098-4.536-3.445-6.621-0.383-0.594-0.794-1.172-1.262-1.872 3.715 0.076 6.905 1.431 9.812 3.866 0.567-1.507 1.063-3.014 1.716-4.445 0.638-1.446 1.347-2.831 2.283-4.186z"></path>
<path d="M11.583 17.067c0.293 0.955 0.421 1.911 0.597 2.834 0.035 0.188-0.012 0.439 0.187 0.532 0.175 0.078 0.585-0.078 0.374 0.454-0.199 0.517 0.012 1.394-0.726 1.472-0.901 0.11-0.784 0.063-1.135-1.002-0.562-1.691 0.094-2.913 0.702-4.291z"></path>
<path d="M26.642 17.133c-0.99 0-1.979 0-2.969 0-0.075 0-0.165 0.031-0.21 0.076-0.465 0.566-0.915 1.148-1.38 1.714-0.015 0.031-0.075 0.031-0.15 0.061 0.060-0.643 0.465-1.178 0.465-1.852-0.3 0-0.57 0.046-0.84 0-1.425-0.245-2.534 0.168-3.239 1.5-0.255 0.122-0.195-0.061-0.195-0.168 0.075-0.23 0.105-0.459 0.21-0.658 0.24-0.49 0.15-0.673-0.42-0.643-0.72 0.031-1.455 0.015-2.174 0-0.33 0-0.48 0.122-0.585 0.444-0.75 2.495-1.515 4.974-2.294 7.453-0.135 0.429-0.060 0.551 0.36 0.536 0.795-0.031 1.605-0.046 2.399 0 0.615 0.030 1.035-0.138 1.365-0.689 0.27-0.474 0.63-0.872 1.005-1.362 0.090 0.566-0.075 1.010-0.135 1.454-0.060 0.413 0.030 0.597 0.495 0.582 0.87-0.031 1.755-0.031 2.624 0 0.435 0.015 0.675-0.138 0.9-0.505 1.515-2.479 3.059-4.943 4.589-7.438 0.090-0.138 0.27-0.245 0.18-0.505zM23.463 21.602c-0.615 0.995-1.23 1.974-1.83 2.984-0.21 0.367-0.45 0.566-0.885 0.52-0.465-0.046-0.945-0.015-1.425-0.015-0.96 0-0.945 0-0.84-0.995 0.045-0.474 0.090-0.964 0.135-1.439 0-0.015 0-0.015 0.015-0.031-0.030-0.168 0.015-0.337-0.15-0.474-0.63 0.826-1.275 1.638-1.875 2.479-0.255 0.352-0.525 0.49-0.93 0.459-0.645-0.031-1.305-0.015-1.949 0-0.3 0-0.375-0.076-0.285-0.413 0.705-2.219 1.38-4.453 2.054-6.688 0.090-0.291 0.27-0.367 0.555-0.383 1.89-0.107 1.89-0.122 1.245 1.699-0.195 0.566-0.39 1.132-0.6 1.729 0.375 0.092 0.48-0.23 0.63-0.413 0.705-0.857 1.395-1.729 2.084-2.602 0.27-0.337 1.89-0.597 2.234-0.383 0.255 0.168 0.075 0.367 0.015 0.536-0.3 0.949-0.6 1.882-0.915 2.846 0.33 0.153 0.42-0.153 0.555-0.321 0.615-0.78 1.245-1.53 1.8-2.357 0.39-0.582 0.825-0.811 1.484-0.735 0.39 0.046 0.78 0.015 1.305 0.015-0.855 1.408-1.634 2.693-2.429 3.979z"></path>
<path d="M0 21.201c0.188-0.74 0.303-1.512 0.578-2.221 2.384-6.222 6.573-10.096 12.698-11.341 1.445-0.299 2.875-0.221 4.262 0.315 2.817 1.087 3.597 4.284 1.661 6.773-1.214 1.559-2.875 2.111-4.652 2.363-0.376 0.063-0.766 0.095-1.127 0.22-0.52 0.173-0.563 0.536-0.145 0.898 0.318 0.268 0.679 0.488 0.997 0.772 1.271 1.181 1.416 3.103 0.332 4.489-0.997 1.276-2.268 1.89-3.814 1.827-0.419-0.016-0.809-0.126-1.156-0.378-0.405-0.284-0.578-0.709-0.491-1.213 0.087-0.473 0.347-0.819 0.795-0.913 0.477-0.11 0.823 0.094 1.098 0.535 0.563 0.929 0.78 0.945 1.531 0.189 1.43-1.433 1.401-3.386-0.058-4.757-0.925-0.851-0.852-1.481 0.246-2.032 0.78-0.394 1.604-0.677 2.398-1.040 0.939-0.425 1.806-0.992 2.427-1.89 0.751-1.087 0.896-2.284 0.361-3.544s-1.517-1.811-2.73-1.811c-3.077 0.016-5.648 1.418-7.83 3.638-2.644 2.709-4.666 5.907-5.677 9.765-0.173 0.646-0.188 1.292-0.116 1.953 0.188 1.512 1.488 2.331 2.774 1.748 0.766-0.347 1.3-0.961 1.705-1.733 0.737-1.386 1.329-2.835 1.892-4.316 0.693-1.78 1.502-3.512 2.413-5.182 0.852-1.544 1.878-2.93 3.583-3.449 0.404-0.126 0.823-0.189 1.329 0.095-2.023 0.945-2.933 2.804-3.727 4.757-0.896 2.189-1.777 4.394-2.745 6.552-0.838 1.874-1.979 3.465-3.915 4.142-2.355 0.835-4.348-0.457-4.738-3.103-0.029-0.142 0.029-0.315-0.144-0.41 0-0.11 0-0.205 0-0.315 0.116-0.362 0.116-0.74 0-1.103-0.014-0.079-0.014-0.173-0.014-0.283z"></path>
</svg>
