<!-- Generated by IcoMoon.io -->
<svg version="1.1" xmlns="http://www.w3.org/2000/svg" width="32" height="32" viewBox="0 0 32 32">
<title>belatra</title>
<path d="M8.979 4.466l-6.31 6.395c-0.146 0.143-0.227 0.342-0.223 0.548-0.003 0.213 0.077 0.419 0.223 0.572l6.279 6.395c0.145 0.142 0.339 0.223 0.54 0.226 0.208-0.006 0.408-0.086 0.564-0.226l6.31-6.395c0.146-0.153 0.226-0.359 0.223-0.572 0.004-0.206-0.076-0.404-0.223-0.548l-6.31-6.395c-0.151-0.148-0.354-0.229-0.564-0.226-0.203-0.004-0.399 0.077-0.54 0.226h0.032zM10.568 3.966l2.519 2.577c1.084-0.864 2.212-1.67 3.378-2.416l0.135-0.089 0.111 0.089c0.048 0 13.511 8.586 13.511 16.76 0.005 1.907-0.722 3.741-2.027 5.114-1.282 1.359-3.057 2.128-4.912 2.126-1.407 0.002-2.786-0.404-3.974-1.168-0.867-0.538-1.605-1.264-2.162-2.126 0.612 4.655 5.516 4.929 6.080 4.929h0.048v0.459h-13.408v-0.459h0.048c0.564 0 5.452-0.274 6.080-4.929-0.569 0.852-1.304 1.576-2.162 2.126-1.189 0.761-2.567 1.166-3.974 1.168-1.848-0.007-3.613-0.778-4.888-2.134-1.314-1.368-2.042-3.206-2.027-5.114 0.014-1.045 0.205-2.081 0.564-3.060 0.347-0.942 0.792-1.844 1.327-2.69l-2.655-2.674c-0.262-0.284-0.407-0.658-0.405-1.047-0.003-0.384 0.142-0.754 0.405-1.031l6.358-6.443c0.266-0.244 0.611-0.378 0.97-0.379 0.381 0 0.747 0.147 1.025 0.411h0.032z"></path>
</svg>
