<!-- Generated by IcoMoon.io -->
<svg version="1.1" xmlns="http://www.w3.org/2000/svg" width="32" height="32" viewBox="0 0 32 32">
<title>betgamestv</title>
<path d="M25.801 6.222l1.053 0.126c1.198 0.144 2.361 0.418 3.404 1.052s1.791 1.499 1.976 2.746c0.13 0.864-0.066 1.684-0.407 2.474-0.508 1.179-1.269 2.19-2.132 3.127-1.401 1.521-3.019 2.78-4.746 3.91-0.233 0.153-0.428 0.069-0.445-0.223-0.012-0.29 0.008-0.58 0.060-0.866 0.153-0.878 0.329-1.756 0.489-2.63 0.031-0.168 0.1-0.248 0.289-0.24 0.347 0.015 0.695 0 1.043 0.007 0.17 0.004 0.24-0.055 0.265-0.229 0.055-0.376 0.131-0.749 0.211-1.186h-1.527c0.113-0.679 0.216-1.294 0.329-1.968h-0.724c-0.247 0-0.494 0.009-0.741 0-0.181-0.009-0.257 0.055-0.284 0.239-0.075 0.504-0.18 1.003-0.257 1.507-0.025 0.165-0.101 0.214-0.253 0.212-0.246-0.004-0.494-0.008-0.74 0.006-0.078 0.004-0.21 0.052-0.22 0.1-0.093 0.422-0.165 0.848-0.25 1.312h1.191c-0.055 0.329-0.1 0.619-0.153 0.908-0.149 0.805-0.313 1.608-0.448 2.414-0.101 0.604-0.113 1.203 0.329 1.747-0.275 0.153-0.524 0.298-0.779 0.433-3.181 1.683-6.516 2.948-10.046 3.687-1.677 0.351-3.371 0.57-5.085 0.556-1.54-0.012-3.067-0.171-4.494-0.823-1.338-0.614-2.216-1.582-2.375-3.096-0.013-0.052-0.033-0.102-0.060-0.149v-0.713c0.027-0.046 0.048-0.095 0.061-0.146 0.107-1.009 0.491-1.92 1.011-2.776 1.023-1.687 2.428-3.023 3.978-4.219 0.561-0.433 1.148-0.832 1.723-1.246l0.055 0.042c-0.516 2.929-1.033 5.858-1.555 8.828 0.538 0 1.012 0.008 1.485-0.008 0.062 0 0.156-0.115 0.174-0.19 0.069-0.285 0.11-0.577 0.156-0.819 0.315 0.265 0.591 0.589 0.941 0.775 1.216 0.648 2.433 0.549 3.545-0.231 1.318-0.923 1.812-2.271 1.741-3.832-0.099-2.175-2.031-3.131-3.853-2.586-0.593 0.178-1.064 0.549-1.482 1.067 0.254-1.349 0.502-2.643 0.736-3.939 0.012-0.093 0.047-0.182 0.102-0.258s0.129-0.137 0.213-0.176c2.429-1.31 4.974-2.393 7.603-3.233 2.116-0.679 4.272-1.189 6.494-1.38 0.343-0.030 0.684-0.075 1.027-0.114h1.372zM16.191 18.271h0.339c1.462 0 2.926-0.004 4.388 0.004 0.228 0 0.341-0.067 0.355-0.298 0.029-0.481 0.1-0.961 0.093-1.441-0.004-0.498-0.164-0.981-0.459-1.382s-0.709-0.698-1.184-0.849c-1.137-0.375-2.251-0.271-3.265 0.364-1.473 0.923-2.065 2.317-1.93 4.011 0.103 1.289 0.912 2.207 2.156 2.524 1.071 0.274 2.11 0.162 3.074-0.39 0.388-0.223 0.726-0.532 1.124-0.828l-1.020-0.956c-0.104 0.098-0.183 0.172-0.262 0.246-0.721 0.667-1.759 0.843-2.594 0.439-0.584-0.28-0.915-0.847-0.815-1.442z"></path>
<path d="M11.836 17.313c-0.037 0.906-0.306 1.701-1.104 2.232-0.497 0.329-1.050 0.417-1.628 0.298-0.683-0.142-1.108-0.586-1.216-1.254-0.16-0.988 0.125-1.863 0.892-2.54 0.502-0.444 1.108-0.59 1.764-0.5 0.723 0.099 1.254 0.735 1.292 1.518 0.004 0.082 0.001 0.164 0.001 0.246z"></path>
<path d="M16.362 17.004c0.141-0.782 0.967-1.536 1.713-1.569 0.313-0.013 0.645 0 0.941 0.093 0.552 0.169 0.864 0.716 0.787 1.285-0.009 0.069-0.092 0.182-0.142 0.182-1.092 0.011-2.185 0.008-3.299 0.008z"></path>
</svg>
