<!-- Generated by IcoMoon.io -->
<svg version="1.1" xmlns="http://www.w3.org/2000/svg" width="32" height="32" viewBox="0 0 32 32">
<title>bombaylive</title>
<path d="M26.667 18.204c0-3.83-2.284-7.179-5.683-8.913 0.389-0.699 0.598-1.469 0.598-2.289 0-1.613-0.805-2.987-2.077-3.902-1.247-0.89-2.466-1.445-4.777-1.3-2.336 0.144-3.66 1.469-3.66 1.469-0.052 0.049-0.13 0.121-0.182 0.169-0.598 0.626-0.883 1.397-0.883 2.168 0 0.964 0.416 1.903 1.272 2.577 0.155 0.121 0.337 0.241 0.493 0.337 0.234 0.121 0.544 0.024 0.623-0.216l0.337-0.818 0.052-0.096v-0.024c-0.052-0.024-0.104-0.049-0.155-0.072-0.908-0.53-1.427-1.494-1.297-2.529 0.052-0.337 0.155-0.626 0.312-0.916 0.104-0.169 1.090-1.541 3.815-1.301 0.416 0.049 0.856 0.144 1.324 0.313 0.207 0.072 0.416 0.169 0.598 0.265h0.027c1.22 0.651 2.024 1.855 2.024 3.251 0 1.108-0.416 2.24-1.245 2.938-0.13 0.096-0.259 0.216-0.416 0.313-0.493 0.265-1.064 0.434-1.634 0.53v-4.242c0-0.216-0.155-0.409-0.364-0.458l-1.349-0.386v5.178h-1.194c-0.312 0-0.571 0.169-0.675 0.434l-0.337 0.89 2.050 0.024c1.297 0.049 2.518 0.288 3.633 0.699 0.337 0.121 0.674 0.265 1.012 0.409 1.661 0.818 2.958 2.168 3.608 3.806 0.337 0.795 0.493 1.662 0.493 2.554 0 0.386-0.027 0.771-0.104 1.132-0.103 0.795-0.364 1.541-0.726 2.24-1.349 2.649-4.256 4.504-7.63 4.504-1.791 0-3.451-0.53-4.827-1.42-0.207-0.144-0.416-0.289-0.623-0.458-0.286-0.216-0.519-0.433-0.753-0.674-0.908-0.964-1.479-2.168-1.479-3.493 0-2.915 2.543-5.083 5.683-5.083 0.753 0 1.453 0.121 2.102 0.361 0.598 0.241 1.142 0.578 1.558 1.011 0.441 0.53 0.701 1.18 0.701 1.903s-0.259 1.325-0.675 1.855c-0.544 0.578-1.324 0.674-1.686 0.674-0.467-0.024-0.883-0.121-1.167-0.193-0.234-0.072-0.519 0.049-0.598 0.265l-0.207 0.53c0.467 0.216 1.012 0.362 1.558 0.409h0.519c0.078 0 0.155 0 0.234-0.024 2.466-0.216 4.464-2.336 4.464-4.769 0-2.047-1.349-3.781-3.296-4.481-0.078-0.024-0.155-0.049-0.234-0.072-0.856-0.289-1.765-0.458-2.725-0.458-2.362 0-4.489 0.988-5.917 2.529-1.147 1.229-1.848 2.867-1.848 4.65v0.386c0 0.144 0.027 0.289 0.027 0.409 0.467 4.263 4.359 7.588 9.005 7.611v1.806l1.401-0.337c0.182-0.049 0.312-0.193 0.312-0.386v-1.011c5.865-0.193 10.537-4.648 10.537-10.117v-0.072c0.052-0.024 0.052-0.072 0.052-0.096v0z"></path>
</svg>
