<!-- Generated by IcoMoon.io -->
<svg version="1.1" xmlns="http://www.w3.org/2000/svg" width="32" height="32" viewBox="0 0 32 32">
<title>booming</title>
<path d="M15.412 1.067c2.092 0 3.878 0.195 5.344 0.571s2.672 0.917 3.603 1.623c0.931 0.706 1.603 1.548 2.031 2.54s0.641 2.104 0.641 3.337c0 0.676-0.092 1.308-0.29 1.939-0.198 0.616-0.504 1.202-0.916 1.744s-0.947 1.037-1.603 1.488c-0.657 0.451-1.435 0.842-2.351 1.172 2 0.481 3.466 1.248 4.428 2.315s1.435 2.45 1.435 4.134c0 1.262-0.244 2.45-0.748 3.547s-1.237 2.044-2.199 2.856c-0.962 0.812-2.153 1.443-3.572 1.909-1.42 0.451-3.023 0.691-4.84 0.691h-12.107v-29.866h11.146zM11.29 6.252v7.365h3.664c0.779 0 1.481-0.060 2.107-0.165s1.16-0.301 1.588-0.571c0.443-0.271 0.763-0.646 0.992-1.127s0.336-1.082 0.336-1.804c0-0.706-0.092-1.293-0.275-1.774-0.183-0.466-0.458-0.857-0.825-1.142-0.382-0.286-0.855-0.496-1.42-0.616-0.58-0.12-1.252-0.18-2.046-0.18h-4.122v0.015zM16.237 25.687c0.931 0 1.695-0.12 2.275-0.346 0.596-0.226 1.054-0.526 1.389-0.902s0.565-0.782 0.687-1.248c0.122-0.466 0.183-0.932 0.183-1.413 0-0.541-0.076-1.037-0.214-1.473-0.153-0.436-0.397-0.812-0.748-1.112s-0.824-0.526-1.404-0.691c-0.58-0.165-1.313-0.241-2.199-0.241h-4.916v7.425h4.947z"></path>
</svg>
