<svg xmlns="http://www.w3.org/2000/svg" width="30" height="30" viewBox="0 0 30 30" fill="none">
<g clip-path="url(#clip0_16092_38095)">
<path d="M19.9502 9.90006H10.3501C10.3501 9.90006 12.0001 10.6501 12.3001 12.1501H13.6501V20.8501H15.9001V12.1501H17.1002C17.8502 10.8001 19.9502 9.90006 19.9502 9.90006Z" fill="#d9d9d9"/>
<path d="M12.7499 8.40026L14.9999 6.75026L17.0998 8.40026L16.3499 5.85026L18.4498 4.20026H15.7499L14.9999 1.65026L14.0999 4.20026H11.3999L13.6499 5.85026L12.7499 8.40026Z" fill="#d9d9d9"/>
<path d="M10.8002 14.7001C11.4002 14.5501 12.0002 13.8001 12.0002 12.7501C12.0002 11.8501 11.5502 10.9501 10.6502 10.3501C9.90024 9.90011 9.75024 9.60011 7.50024 9.75011C5.40024 9.90011 4.50024 11.4001 4.50024 11.4001V19.6501C4.50024 19.6501 6.15024 20.7001 7.50024 20.7001C10.5002 20.7001 11.8502 19.9501 12.4502 18.9001C13.2002 17.5501 12.6002 16.0501 12.3002 15.6001C12.0002 15.1501 11.5502 14.8501 10.8002 14.7001ZM6.90024 12.7501C6.90024 12.4501 7.05024 12.3001 7.35024 12.1501C7.80024 11.8501 8.55024 11.8501 9.00024 12.1501C9.30024 12.3001 9.30024 12.7501 9.30024 13.0501C9.30024 13.8001 8.40024 13.9501 7.50024 13.9501H6.90024C6.90024 13.9501 6.90024 13.0501 6.90024 12.7501ZM9.30024 18.6001C9.00024 18.7501 8.25024 18.7501 7.35024 18.6001C7.20024 18.6001 6.90024 18.4501 6.90024 18.4501V15.7501H8.10024C8.55024 15.7501 9.15024 15.9001 9.45024 16.2001C9.90024 16.6501 10.3502 18.3001 9.30024 18.6001Z" fill="#d9d9d9"/>
<path d="M19.8003 8.10023L20.8503 7.50023L21.9003 8.40023L21.6003 7.05023L22.8003 6.45023L21.4503 6.30023L21.1503 4.95023L20.7003 6.15023L19.3503 6.00023L20.2503 6.90023L19.8003 8.10023Z" fill="#d9d9d9"/>
<path d="M4.65016 10.2L5.10016 9.44997L5.85016 9.59997L5.25016 8.99997L5.70016 8.39997L4.95016 8.69997L4.50016 8.09998V8.84997L3.75016 9.14997L4.50016 9.29997L4.65016 10.2Z" fill="#d9d9d9"/>
<path d="M8.0998 8.40023L8.9998 7.50023L10.1998 8.10023L9.5998 6.90023L10.4998 6.00023L9.2998 6.15023L8.6998 4.95023L8.3998 6.30023L7.0498 6.45023L8.2498 7.05023L8.0998 8.40023Z" fill="#d9d9d9"/>
<path d="M22.0503 16.5002H23.4003V18.6002C22.9503 18.9002 22.6503 18.9002 21.9003 18.9002C21.1503 18.9002 20.4003 18.6002 19.8003 18.0002C19.3503 17.4002 19.0503 16.5001 19.0503 15.3001C19.0503 14.2502 19.5003 13.2002 19.9503 12.7502C20.7003 12.1502 21.3003 11.8502 21.9003 11.8502C22.8003 11.8502 23.7003 12.1502 24.3003 12.9002L25.3503 10.9501C24.3003 10.3501 23.7003 9.75015 22.3503 9.75015C20.5503 9.75015 19.2003 10.2002 18.1503 11.2502C17.1003 12.1502 16.6503 13.5001 16.6503 15.3001C16.6503 17.1002 17.1003 18.4502 18.0003 19.3502C18.9003 20.2502 20.1003 21.0002 21.7503 21.0002C22.3503 21.0002 24.4503 20.8502 25.8003 19.9502V14.5501H22.0503V16.5002Z" fill="#d9d9d9"/>
<path d="M25.1997 4.79997C22.4997 2.09997 18.8997 0.599976 14.9996 0.599976C11.0996 0.599976 7.49961 2.09997 4.7996 4.79997C2.0996 7.49997 0.599609 11.1 0.599609 15C0.599609 18.8999 2.0996 22.4999 4.7996 25.1999C7.49961 27.8999 11.0996 29.3999 14.9996 29.3999C18.8997 29.3999 22.4997 27.8999 25.1997 25.1999C27.8997 22.4999 29.3997 18.8999 29.3997 15C29.3997 11.1 27.8997 7.49997 25.1997 4.79997ZM6.4496 25.9499C6.7496 25.9499 7.04961 25.9499 7.34961 25.9499C9.29961 26.0999 11.5496 27.1499 13.4996 28.7999C10.9496 28.4999 8.39961 27.4499 6.4496 25.9499ZM17.9997 28.4999C17.2497 28.1999 16.4996 27.7499 15.7496 27.1499C13.6496 25.7999 10.9496 24.1499 8.69961 23.5499C10.6496 23.5499 12.7496 24.2999 14.8496 25.0499C17.0997 25.7999 19.6497 26.6999 22.0497 26.8499C20.6997 27.5999 19.3497 28.1999 17.9997 28.4999ZM23.8497 25.6499C23.2497 25.6499 22.6497 25.6499 22.1997 25.6499C19.9497 25.4999 17.6997 24.7499 15.4496 23.9999C14.0996 23.5499 12.7496 23.0999 11.3996 22.7999C12.5996 22.9499 14.6996 23.0999 15.2996 23.2499C18.5997 23.9999 21.5997 23.8499 22.1997 23.8499C23.5497 23.8499 25.0497 23.5499 26.3997 23.0999C25.4997 23.9999 24.7497 24.8999 23.8497 25.6499ZM14.5496 22.6499C12.7496 22.3499 10.4996 22.0499 8.24961 22.1999C6.74961 22.3499 5.2496 22.6499 3.8996 23.2499C2.0996 20.8499 1.19961 17.9999 1.19961 15C1.19961 7.34997 7.3496 1.19998 14.9996 1.19998C17.5497 1.19998 20.0997 1.94997 22.3497 3.29997C28.7997 7.34997 30.7497 15.9 26.6997 22.3499C22.6497 24.1499 17.6997 22.9499 14.5496 22.6499Z" fill="#d9d9d9"/>
<path d="M25.5003 8.09998L24.9003 8.69997L24.1503 8.39997L24.6003 8.99997L24.1503 9.59997L24.9003 9.44997L25.3503 10.2V9.29997L26.1003 9.14997L25.3503 8.84997L25.5003 8.09998Z" fill="#d9d9d9"/>
</g>
<defs fill="#d9d9d9">
<clipPath id="clip0_16092_38095" fill="#d9d9d9">
<rect width="30" height="30" fill="white"/>
</clipPath>
</defs>
</svg>