<!-- Generated by IcoMoon.io -->
<svg version="1.1" xmlns="http://www.w3.org/2000/svg" width="32" height="32" viewBox="0 0 32 32">
<title>btg</title>
<path d="M21.28 10.56h-10.24c0 0 1.76 0.8 2.080 2.4h1.44v9.28h2.4v-9.28h1.28c0.8-1.44 3.040-2.4 3.040-2.4z"></path>
<path d="M13.6 8.96l2.4-1.76 2.24 1.76-0.8-2.72 2.24-1.76h-2.88l-0.8-2.72-0.96 2.72h-2.88l2.4 1.76-0.96 2.72z"></path>
<path d="M11.52 15.68c0.64-0.16 1.28-0.96 1.28-2.080 0-0.96-0.48-1.92-1.44-2.56-0.8-0.48-0.96-0.8-3.36-0.64-2.24 0.16-3.2 1.76-3.2 1.76v8.8c0 0 1.76 1.12 3.2 1.12 3.2 0 4.64-0.8 5.28-1.92 0.8-1.44 0.16-3.040-0.16-3.52s-0.8-0.8-1.6-0.96zM7.36 13.6c0-0.32 0.16-0.48 0.48-0.64 0.48-0.32 1.28-0.32 1.76 0 0.32 0.16 0.32 0.64 0.32 0.96 0 0.8-0.96 0.96-1.92 0.96h-0.64c0 0 0-0.96 0-1.28zM9.92 19.84c-0.32 0.16-1.12 0.16-2.080 0-0.16 0-0.48-0.16-0.48-0.16v-2.88h1.28c0.48 0 1.12 0.16 1.44 0.48 0.48 0.48 0.96 2.24-0.16 2.56z"></path>
<path d="M21.12 8.64l1.12-0.64 1.12 0.96-0.32-1.44 1.28-0.64-1.44-0.16-0.32-1.44-0.48 1.28-1.44-0.16 0.96 0.96-0.48 1.28z"></path>
<path d="M4.96 10.88l0.48-0.8 0.8 0.16-0.64-0.64 0.48-0.64-0.8 0.32-0.48-0.64v0.8l-0.8 0.32 0.8 0.16 0.16 0.96z"></path>
<path d="M8.64 8.96l0.96-0.96 1.28 0.64-0.64-1.28 0.96-0.96-1.28 0.16-0.64-1.28-0.32 1.44-1.44 0.16 1.28 0.64-0.16 1.44z"></path>
<path d="M23.52 17.6h1.44v2.24c-0.48 0.32-0.8 0.32-1.6 0.32s-1.6-0.32-2.24-0.96c-0.48-0.64-0.8-1.6-0.8-2.88 0-1.12 0.48-2.24 0.96-2.72 0.8-0.64 1.44-0.96 2.080-0.96 0.96 0 1.92 0.32 2.56 1.12l1.12-2.080c-1.12-0.64-1.76-1.28-3.2-1.28-1.92 0-3.36 0.48-4.48 1.6-1.12 0.96-1.6 2.4-1.6 4.32s0.48 3.36 1.44 4.32 2.24 1.76 4 1.76c0.64 0 2.88-0.16 4.32-1.12v-5.76h-4v2.080z"></path>
<path d="M26.88 5.12c-2.88-2.88-6.72-4.48-10.88-4.48s-8 1.6-10.88 4.48-4.48 6.72-4.48 10.88c0 4.16 1.6 8 4.48 10.88s6.72 4.48 10.88 4.48c4.16 0 8-1.6 10.88-4.48s4.48-6.72 4.48-10.88c0-4.16-1.6-8-4.48-10.88zM6.88 27.68c0.32 0 0.64 0 0.96 0 2.080 0.16 4.48 1.28 6.56 3.040-2.72-0.32-5.44-1.44-7.52-3.040zM19.2 30.4c-0.8-0.32-1.6-0.8-2.4-1.44-2.24-1.44-5.12-3.2-7.52-3.84 2.080 0 4.32 0.8 6.56 1.6 2.4 0.8 5.12 1.76 7.68 1.92-1.44 0.8-2.88 1.44-4.32 1.76zM25.44 27.36c-0.64 0-1.28 0-1.76 0-2.4-0.16-4.8-0.96-7.2-1.76-1.44-0.48-2.88-0.96-4.32-1.28 1.28 0.16 3.52 0.32 4.16 0.48 3.52 0.8 6.72 0.64 7.36 0.64 1.44 0 3.040-0.32 4.48-0.8-0.96 0.96-1.76 1.92-2.72 2.72zM15.52 24.16c-1.92-0.32-4.32-0.64-6.72-0.48-1.6 0.16-3.2 0.48-4.64 1.12-1.92-2.56-2.88-5.6-2.88-8.8 0-8.16 6.56-14.72 14.72-14.72 2.72 0 5.44 0.8 7.84 2.24 6.88 4.32 8.96 13.44 4.64 20.32-4.32 1.92-9.6 0.64-12.96 0.32z"></path>
<path d="M27.2 8.64l-0.64 0.64-0.8-0.32 0.48 0.64-0.48 0.64 0.8-0.16 0.48 0.8v-0.96l0.8-0.16-0.8-0.32 0.16-0.8z"></path>
</svg>
