<!-- Generated by IcoMoon.io -->
<svg version="1.1" xmlns="http://www.w3.org/2000/svg" width="32" height="32" viewBox="0 0 32 32">
<title>casinia</title>
<path d="M29.833 15.869h-13.41v4.759h7.72c-1.436 3.028-4.050 4.505-7.348 4.559-5.119 0-9.55-3.955-9.55-9.204 0-5.078 4.282-8.89 9.236-8.89 3.002 0 5.633 1.197 7.892 3.562l3.574-3.505c-3.016-3.269-6.993-5.072-11.466-5.015-7.634 0-14.346 5.997-14.346 13.896 0 7.722 7.234 13.839 14.661 13.836 6.581-0.003 11.098-4.36 12.695-10.521 0-0.057 0.029-0.114 0.086-0.142 0.029-0.029 0.086-0.057 0.143-0.086 0.175-1.089 0.169-2.154 0.114-3.248z"></path>
</svg>
