<!-- Generated by IcoMoon.io -->
<svg version="1.1" xmlns="http://www.w3.org/2000/svg" width="32" height="32" viewBox="0 0 32 32">
<title>claw</title>
<path d="M24.738 17.786c-1.004 0.42-0.733 1.026-1.243 1.429-4.382 3.514-7.218 1.934-8.158-0.504-0.348-1.195-0.24-2.487 0.302-3.599s1.474-1.957 2.598-2.354l1.307 1.076c0.115 0.087 0.257 0.124 0.397 0.102s0.266-0.101 0.352-0.22l1.354-1.984c0.083-0.128 0.116-0.285 0.092-0.439s-0.102-0.291-0.22-0.385l-0.271-0.235 1.482 1.228c0.115 0.087 0.257 0.124 0.397 0.102s0.266-0.101 0.352-0.22l1.338-1.984c0.078-0.106 0.12-0.236 0.12-0.37s-0.042-0.264-0.12-0.37c0.159 0.151-1.323-1.379 0.319 0.336 0.173 0.172 0.38 0.3 0.606 0.376s0.465 0.098 0.701 0.064 0.46-0.123 0.659-0.26c0.198-0.137 0.365-0.32 0.488-0.534 0.217-0.298 0.354-0.652 0.396-1.025s-0.012-0.751-0.157-1.094c-0.246-0.491-0.588-0.921-1.004-1.261l-0.191-0.168c-1.37-1.127-7.378-2.825-13.703 0.252-8.206 4.002-10.803 12.629-7.601 17.959 3.681 6.121 12.492 4.809 17.113 1.564 1.824-1.166 3.342-2.796 4.414-4.742 0.044-0.102 0.076-0.209 0.096-0.32 0.168-0.431 0.168-0.914 0-1.345-0.078-0.224-0.198-0.43-0.351-0.606s-0.339-0.317-0.545-0.418c-0.206-0.1-0.428-0.156-0.655-0.165s-0.452 0.029-0.665 0.113z"></path>
</svg>
