<!-- Generated by IcoMoon.io -->
<svg version="1.1" xmlns="http://www.w3.org/2000/svg" width="32" height="32" viewBox="0 0 32 32">
<title>elk</title>
<path d="M9.311 26.631h21.356v1.482h-21.611c-1.022 0-3.627-0.204-5.569-2.248-2.044-2.146-2.146-4.802-2.146-5.313v-9.145c-0.051-0.817 0.051-3.423 2.095-5.671 1.839-1.993 4.598-2.146 5.415-2.146l21.816-0.034v1.429l-21.816 0.035c-0.664 0-2.912 0.102-4.343 1.686-1.744 1.844-1.739 4.076-1.737 4.612 0 0.014 0 0.026 0 0.037v9.196c0 0.306 0.051 2.503 1.737 4.292 1.533 1.635 3.679 1.788 4.547 1.788h0.256zM30.667 11.509v-5.058l-21.765-0.051c0 0-2.146-0.051-3.321 1.226-1.482 1.584-1.328 3.627-1.328 3.627v9.247c0 0-0.051 1.839 1.328 3.321 1.431 1.482 3.679 1.328 3.679 1.328h21.407v-5.058h-18.75c0 0-0.409 0.051-0.817-0.306-0.307-0.255-0.307-0.766-0.307-0.766v-0.664h19.874v-4.905h-19.823v-0.715c0 0-0.051-0.511 0.255-0.869 0.358-0.409 0.92-0.358 0.92-0.358h18.648z"></path>
</svg>
