<!-- Generated by IcoMoon.io -->
<svg version="1.1" xmlns="http://www.w3.org/2000/svg" width="32" height="32" viewBox="0 0 32 32">
<title>endorphina</title>
<path d="M16.043 27.952c-1.379 0-2.724-0.217-4.023-0.651-2.123-0.71-3.651-1.845-4.559-2.672-0.562-0.512-0.901-1.038-1.008-1.565l-0-0.002c0.013-0.433 0.335-1.137 1.798-2.016 0.873-0.524 1.751-0.869 1.76-0.872l5.911-2.755 0.013 0.024c-0.007 0.005-0.742 0.495-1.576 1.167-0.769 0.619-1.782 1.523-2.24 2.314-0.437 0.753-0.649 1.42-0.65 2.039-0.001 0.584 0.188 1.144 0.577 1.712 0.721 1.051 2.359 1.629 4.559 1.629 0.282 0 0.574-0.009 0.874-0.029 2.35-0.151 5.693-0.818 8.274-3.14l0.062-0.055-0.041 0.072c-0.005 0.009-0.512 0.899-1.633 1.898-1.035 0.922-2.818 2.128-5.442 2.64-0.896 0.175-1.782 0.262-2.655 0.262z"></path>
<path d="M16.043 3.2c-1.379 0-2.724 0.217-4.023 0.651-2.123 0.71-3.651 1.845-4.559 2.672-0.562 0.512-0.901 1.038-1.008 1.565l-0 0.002c0.013 0.434 0.335 1.137 1.798 2.016 0.873 0.524 1.751 0.869 1.76 0.872l5.911 2.755 0.013-0.024c-0.007-0.005-0.742-0.495-1.576-1.167-0.769-0.619-1.782-1.523-2.24-2.314-0.437-0.753-0.649-1.42-0.65-2.039-0.001-0.584 0.188-1.144 0.577-1.712 0.721-1.051 2.359-1.629 4.559-1.629 0.282 0 0.574 0.010 0.874 0.029 2.35 0.151 5.693 0.818 8.274 3.14l0.062 0.055-0.041-0.072c-0.005-0.009-0.512-0.899-1.633-1.898-1.035-0.922-2.818-2.128-5.442-2.64-0.896-0.175-1.782-0.262-2.655-0.262z"></path>
<path d="M6.486 23.296l-0.047-0.23c-0.276-1.353 0.946-2.505 2.024-3.522l0.077-0.073c1.355-1.279 2.065-2.624 2.052-3.888 0.012-1.265-0.697-2.61-2.052-3.889l-0.077-0.073c-1.078-1.017-2.3-2.169-2.024-3.522l0.047-0.229 0.007 0.234c0.045 1.473 3.497 2.835 3.532 2.849l5.916 2.759c0.085 0.045 1.692 0.92 1.692 1.811 0 0.020-0.001 0.040-0.002 0.061 0.001 0.020 0.002 0.040 0.002 0.061 0 0.895-1.624 1.775-1.693 1.812l-5.915 2.757c-0.035 0.014-3.489 1.376-3.532 2.85l-0.007 0.235z"></path>
</svg>
