<!-- Generated by IcoMoon.io -->
<svg version="1.1" xmlns="http://www.w3.org/2000/svg" width="32" height="32" viewBox="0 0 32 32">
<title>evolution</title>
<path d="M22.171 25.731c-0.046 0-0.081 0-0.173 0h-0.092v-0.465h0.127c0.092-0.012 0.196 0 0.277 0.036 0.069 0.036 0.115 0.107 0.115 0.191 0 0.131-0.104 0.227-0.219 0.227-0.012-0-0.023-0-0.035 0.012zM22.702 25.504c0-0.143-0.058-0.274-0.162-0.358-0.127-0.107-0.254-0.107-0.439-0.107h-0.462v1.479h0.265v-0.549h0.242l0.289 0.549h0.3l-0.323-0.596c0.173-0.060 0.289-0.227 0.289-0.418zM22.125 26.935c-0.612 0-1.108-0.513-1.108-1.145s0.496-1.145 1.108-1.145c0.612 0 1.108 0.513 1.108 1.145s-0.496 1.145-1.108 1.145zM22.125 24.359c-0.762 0-1.385 0.644-1.385 1.431s0.623 1.431 1.385 1.431c0.762 0 1.385-0.644 1.385-1.431s-0.623-1.431-1.385-1.431z"></path>
<path d="M7.467 5.634c6.648-3.662 15.224 0.203 15.87 9.53-12.315 1.002-13.804-4.735-15.87-9.53z"></path>
<path d="M7.467 25.647c6.648 3.662 15.224-0.203 15.87-9.541-12.315-0.99-13.804 4.747-15.87 9.541z"></path>
</svg>
