<!-- Generated by IcoMoon.io -->
<svg version="1.1" xmlns="http://www.w3.org/2000/svg" width="32" height="32" viewBox="0 0 32 32">
<title>felixgaming</title>
<path d="M9.468 0c3.185 2.221 6.577 3.829 10.356 4.888-1.674 2.61-3.346 5.172-3.941 8.285 0.343-0.468 0.719-0.915 1.021-1.408 0.84-1.371 1.632-2.771 2.475-4.139 0.892-1.448 2.097-2.501 3.825-2.855 2.544-0.521 4.546 1.168 4.457 3.769-0.007 0.195-0.001 0.391-0.001 0.709 1.071-0.793 1.232-1.962 1.692-3.030 0.679 1.713 1.334 3.363 1.991 5.021-0.975-0.388-1.946-0.774-2.917-1.16-0.059 0.085-0.118 0.17-0.177 0.256 0.221 0.279 0.439 0.56 0.664 0.835 1.427 1.737 1.054 4.101-0.837 5.324-1.611 1.042-3.345 1.151-5.15 0.669-1.668-0.445-3.329-0.913-4.997-1.361-0.3-0.081-0.614-0.112-0.922-0.166-0.039 0.074-0.078 0.149-0.117 0.223 0.738 0.49 1.464 0.997 2.215 1.465 1.216 0.759 2.481 1.445 3.664 2.251 1.033 0.704 1.786 1.675 2.198 2.884 0.522 1.528 0.262 2.913-0.875 4.045-1.068 1.064-2.369 1.175-3.744 0.608-0.133-0.055-0.276-0.088-0.482-0.153-0.161 0.296-0.314 0.601-0.487 0.894-1.13 1.903-3.682 2.273-5.295 0.745-1.585-1.502-1.844-3.402-1.455-5.422 0.23-1.192 0.61-2.355 0.78-3.603-0.178 0.252-0.429 0.481-0.522 0.762-0.91 2.736-1.822 5.472-2.665 8.229-0.209 0.685-0.173 1.445-0.246 2.171-0.134 1.339-0.202 1.391-1.636 1.154-0.198-2.293 0.325-4.457 1.349-6.493 1.247-2.478 2.587-4.909 3.865-7.372 1.179-2.271 0.548-4.1-1.815-5.148-1.148-0.509-2.346-0.906-3.531-1.326-1.182-0.419-2.377-0.805-3.645-1.232 2.216-3.153 3.852-6.55 4.905-10.321z"></path>
<path d="M7.315 14.475c2.623-0.817 4.011-0.401 4.528 1.335 0.539 1.807-0.366 2.988-2.796 3.652-0.057 2.572-0.957 3.844-2.739 3.707-0.604-0.047-1.302-0.296-1.738-0.692-0.431-0.391-0.717-1.060-0.826-1.651-0.112-0.606 0.069-1.265 0.122-1.9-0.073-0.046-0.147-0.092-0.22-0.138-0.509 0.827-1.018 1.654-1.551 2.519-0.464-1.316-0.941-2.67-1.428-4.050 0.943 0.369 1.83 0.718 2.718 1.065 0.045-0.080 0.090-0.16 0.135-0.24-0.308-0.336-0.63-0.66-0.921-1.009-1.042-1.254-0.851-3.007 0.419-3.942 1.203-0.885 3.085-0.514 3.927 0.774 0.126 0.193 0.25 0.387 0.37 0.571z"></path>
</svg>
