<!-- Generated by IcoMoon.io -->
<svg version="1.1" xmlns="http://www.w3.org/2000/svg" width="32" height="32" viewBox="0 0 32 32">
<title>foxium</title>
<path d="M21.207 15.473c-2.024 1.949-4.391 3.272-7.269 3.713-0.829 0.116-1.171 0.394-1.098 1.253 0.052 0.688 0.042 1.382 0.032 2.079-0.009 0.62-0.018 1.243 0.017 1.865 0.025 0.785-0.434 0.766-0.991 0.743l-0.009-0c-0.052 0-0.103 0.001-0.153 0.002-0.526 0.007-0.989 0.014-0.944-0.79 0.025-0.696 0.018-1.392 0.012-2.088s-0.012-1.392 0.012-2.088c0.025-0.627-0.195-0.882-0.829-1.021-4.879-1.067-7.757-4.223-9.586-8.446-0.244-0.557-0.049-0.719 0.488-0.859 4.805-1.114 10.367 1.926 11.66 6.52 0.268 0.905 0.61 0.951 1.439 0.766 4.83-1.067 8.318-4.733 9.001-9.652 0.122-0.789 0.415-0.928 1.122-0.882l0.12 0.004c0.572 0.017 0.984 0.030 1.075 0.855 0.317 2.529 2.195 4.362 5.001 4.826 0.897 0.142 0.915 0.569 0.938 1.109 0.003 0.077 0.007 0.156 0.013 0.237 0.066 0.73-0.341 0.785-0.867 0.856-0.059 0.008-0.12 0.016-0.181 0.026-4.244 0.742-6.586 3.504-8.074 7.123-0.366 0.905-0.561 1.856-0.634 2.831-0.072 0.802-0.539 0.738-0.995 0.676-0.164-0.022-0.326-0.045-0.469-0.026-0.683 0.093-0.659-0.371-0.634-0.835 0.415-4.478 2.635-7.959 6.562-10.441 0.147-0.093 0.269-0.162 0.415-0.232 0.061-0.029 0.117-0.058 0.185-0.095 0.096-0.052 0.215-0.121 0.4-0.23-1.073-0.65-1.878-1.369-2.634-2.367-0.829 1.764-1.805 3.272-3.122 4.571zM10.181 16.076c-1.342-2.738-3.732-4.014-7.050-4.478 1.586 2.599 3.488 4.385 6.22 5.29 0.044 0.016 0.091 0.035 0.138 0.054 0.292 0.117 0.631 0.252 0.862-0.007 0.195-0.232-0.025-0.58-0.171-0.859z"></path>
</svg>
