<!-- Generated by IcoMoon.io -->
<svg version="1.1" xmlns="http://www.w3.org/2000/svg" width="32" height="32" viewBox="0 0 32 32">
<title>gameburger</title>
<path d="M18.766 1.288c6.107 1.094 11.133 6.276 11.999 12.384 0.241 1.681 0.211 3.354-0.060 5.027-1.034 6.132-6.209 11.183-12.346 12.067-1.663 0.245-3.367 0.216-5.032-0.066-6.215-1.058-11.228-6.234-12.095-12.462-0.232-1.572-0.254-3.195 0.024-4.77 1.153-6.443 6.239-11.35 12.686-12.241 1.608-0.211 3.229-0.23 4.822 0.060zM16.023 30.354c7.535 0.185 14.354-6.162 14.354-14.321 0-8.176-6.746-14.434-14.336-14.404-7.99 0.036-14.33 6.503-14.408 14.315-0.072 7.842 6.573 14.608 14.39 14.41z"></path>
<path d="M23.808 17.588c0.52 0.359 0.46 0.962 0.167 1.5-0.143 0.257-0.347 0.466-0.58 0.64-0.143 0.108-0.245 0.215-0.251 0.406-0.006 0.137-0.060 0.269-0.084 0.407-0.173 0.902-0.699 1.506-1.542 1.877-1.028 0.454-2.115 0.676-3.221 0.825-1.010 0.137-2.026 0.155-3.036 0.108-1.596-0.072-3.155-0.323-4.649-0.938-1.016-0.418-1.518-1.171-1.661-2.211-0.024-0.155-0.066-0.245-0.203-0.329-0.861-0.532-0.968-1.243-0.323-2.020 0.884 0.729 1.912 1.064 3.048 1.076 0.102 0 0.167 0.054 0.227 0.12 0.227 0.251 0.526 0.395 0.837 0.496 0.992 0.329 1.99 0.317 2.982-0.006 0.15-0.048 0.293-0.108 0.46-0.036 0.675 0.299 1.392 0.311 2.109 0.257 0.615-0.048 1.213-0.203 1.715-0.61 0.072-0.060 0.143-0.096 0.245-0.072 0.341 0.084 0.675 0 1.004-0.054 0.89-0.143 1.685-0.508 2.402-1.052-0.012 0.251-0.185 0.412-0.353 0.556-0.765 0.664-1.685 0.927-2.677 1.004-0.376 0.030-0.753 0.060-1.111 0.263-0.867 0.49-1.811 0.43-2.755 0.347-0.335-0.030-0.651-0.281-0.98-0.179-0.705 0.215-1.422 0.191-2.127 0.143-0.681-0.042-1.368-0.167-1.864-0.723-0.090-0.102-0.209-0.096-0.329-0.102-0.329-0.012-0.651 0.018-0.98-0.048-0.365-0.078-0.699-0.233-1.070-0.353 0.012 0.155 0.060 0.257 0.126 0.359 0.293 0.454 0.771 0.604 1.237 0.771 1.428 0.526 2.928 0.58 4.416 0.64 1.428 0.054 2.856-0.024 4.278-0.161 0.98-0.096 1.942-0.263 2.863-0.616 0.681-0.257 1.315-0.616 1.727-1.261 0.233-0.371 0.185-0.657-0.149-0.938 0.036-0.024 0.066-0.054 0.102-0.084zM9.329 20.181c0.096 0.885 0.49 1.482 1.291 1.835 1.368 0.61 2.809 0.879 4.279 0.962 0.926 0.048 1.864 0.048 2.797-0.036 1.195-0.108 2.36-0.341 3.478-0.789 0.801-0.317 1.386-0.837 1.518-1.739 0.012-0.066 0.102-0.156 0.006-0.215-0.078-0.048-0.149 0.024-0.221 0.060-0.717 0.323-1.476 0.49-2.241 0.64-0.55 0.108-1.112 0.143-1.673 0.203-0.574 0.066-1.153 0.072-1.715 0.060-0.687-0.012-1.38-0.006-2.074-0.066-0.735-0.066-1.476-0.114-2.211-0.209-1.082-0.137-2.163-0.323-3.233-0.705z"></path>
<path d="M8.697 14.969c-0.060-2.265 1.368-3.592 3.048-4.71 1.482-0.986 3.167-1.339 4.924-1.177 2.737 0.251 4.882 1.5 6.257 3.933 0.353 0.622 0.544 1.303 0.353 2.032-0.096 0.114-0.197 0.233-0.293 0.347-0.042 0.042-0.078 0.084-0.119 0.125-0.382 0.233-0.783 0.418-1.219 0.544-1.554 0.436-3.149 0.448-4.739 0.52-0.759 0.036-1.524 0.006-2.295-0.030-0.998-0.048-1.996-0.096-2.982-0.257-0.902-0.149-1.799-0.329-2.558-0.891-0.036-0.078-0.096-0.12-0.185-0.126 0.018-0.155-0.078-0.239-0.191-0.311zM16.023 16.182c1.44 0.012 2.88-0.048 4.308-0.251 0.657-0.090 1.315-0.227 1.918-0.52 0.627-0.311 0.795-0.681 0.633-1.357-0.191-0.819-0.627-1.506-1.189-2.104-1.679-1.805-3.765-2.612-6.233-2.463-1.494 0.090-2.832 0.58-4.034 1.458-0.98 0.717-1.757 1.608-2.199 2.761-0.359 0.938-0.149 1.404 0.783 1.775 0.4 0.162 0.813 0.269 1.231 0.347 1.584 0.293 3.179 0.365 4.781 0.353z"></path>
<path d="M8.236 5.263c0.185 0.012 0.341 0.090 0.484 0.209 0.663 0.556 1.327 1.106 1.99 1.668 0.251 0.215 0.293 0.436 0.137 0.646s-0.394 0.233-0.657 0.042c-0.341-0.239-0.669-0.496-1.004-0.747-0.066-0.048-0.137-0.149-0.233-0.078-0.102 0.084 0.006 0.161 0.042 0.233 0.197 0.4 0.436 0.783 0.58 1.207 0.084 0.251 0.102 0.49-0.12 0.681-0.215 0.185-0.436 0.132-0.663 0.018-0.376-0.197-0.759-0.383-1.141-0.574-0.066-0.030-0.143-0.102-0.209-0.012-0.054 0.072 0.018 0.132 0.054 0.185 0.185 0.293 0.382 0.58 0.568 0.873 0.072 0.12 0.137 0.245 0.173 0.377 0.054 0.197-0.030 0.353-0.203 0.454-0.179 0.108-0.341 0.078-0.484-0.066-0.066-0.060-0.12-0.137-0.167-0.209-0.466-0.669-0.926-1.339-1.392-2.008-0.293-0.424-0.305-0.651-0.060-0.938 0.263-0.311 0.496-0.335 0.956-0.114 0.4 0.197 0.801 0.394 1.201 0.592 0.078 0.036 0.161 0.12 0.239 0.030 0.078-0.084-0.006-0.167-0.048-0.239-0.209-0.394-0.43-0.783-0.633-1.177-0.269-0.508 0.048-1.052 0.592-1.052z"></path>
<path d="M23.808 17.588c-0.036 0.030-0.065 0.059-0.101 0.089-0.066 0.078-0.126 0.149-0.191 0.227-0.018 0.024-0.042 0.048-0.060 0.072l-0.001-0.005c-0.717 0.544-1.512 0.908-2.402 1.052-0.329 0.054-0.663 0.138-1.004 0.054-0.102-0.024-0.167 0.012-0.245 0.072-0.496 0.407-1.094 0.562-1.715 0.61-0.717 0.054-1.434 0.042-2.109-0.257-0.167-0.072-0.311-0.012-0.46 0.036-0.992 0.323-1.984 0.341-2.982 0.006-0.311-0.102-0.61-0.245-0.837-0.496-0.060-0.066-0.125-0.12-0.227-0.12-1.141-0.012-2.163-0.353-3.048-1.076-0.114-0.203-0.28-0.395-0.298-0.64-0.030-0.299 0.102-0.532 0.359-0.699 0.054 0.119 0.102 0.239 0.155 0.358-0.167 0.197-0.102 0.365 0.066 0.514 0.353 0.442 0.843 0.628 1.368 0.753 0.030 0.060 0.084 0.072 0.143 0.054 0.030 0 0.066 0.006 0.096 0.006 0.072 0.096 0.167 0.078 0.263 0.054 0.030 0 0.066 0.006 0.096 0.006 0.418 0.132 0.825 0.114 1.249 0 0.084 0.341 0.382 0.544 0.717 0.675 0.998 0.394 1.99 0.388 2.976-0.054 0.108-0.048 0.203-0.096 0.335-0.030 0.705 0.365 1.458 0.442 2.229 0.311 0.639-0.108 1.273-0.269 1.554-0.956 0.113 0.078-0.006 0.299 0.173 0.305 0.604 0.030 1.207 0.036 1.763-0.251 0.544-0.138 1.034-0.383 1.416-0.795 0.179-0.191 0.323-0.406 0.161-0.687 0.066-0.155 0.137-0.305 0.251-0.43 0.388 0.245 0.508 0.562 0.37 0.986-0.012 0.084-0.036 0.174-0.060 0.258z"></path>
<path d="M4.173 15.476c0-0.060 0.006-0.119 0-0.179-0.042-0.675 0.143-0.879 0.938-0.765 0.896 0.131 1.452 0.867 1.446 1.835-0.006 0.89-0.633 1.638-1.5 1.781-0.359 0.060-0.711 0.072-1.064-0.018-1.237-0.305-1.829-2.038-1.046-3.054 0.173-0.227 0.43-0.311 0.621-0.191 0.251 0.161 0.203 0.383 0.096 0.604-0.143 0.299-0.269 0.598-0.215 0.938 0.036 0.227 0.131 0.412 0.305 0.562 0.442 0.376 1.368 0.317 1.757-0.108 0.412-0.448 0.257-1.213-0.275-1.387-0.191-0.060-0.257-0.006-0.257 0.179 0 0.102 0.006 0.197 0.006 0.299-0.006 0.353-0.131 0.46-0.484 0.424-0.173-0.018-0.281-0.090-0.287-0.275 0-0.048-0.018-0.096-0.018-0.149-0.012-0.161-0.018-0.329-0.024-0.496z"></path>
<path d="M25.763 7.916c0.861-0.006 1.697 0.765 1.888 1.739 0.042 0.197 0.054 0.394-0.012 0.586-0.072 0.209-0.221 0.335-0.448 0.311-0.215-0.024-0.293-0.173-0.323-0.371-0.030-0.203-0.048-0.418-0.108-0.616-0.191-0.634-0.723-0.879-1.333-0.634-0.293 0.12-0.538 0.299-0.717 0.562-0.287 0.412-0.215 0.938 0.167 1.261 0.167 0.143 0.364 0.203 0.586 0.155 0.191-0.042 0.293-0.131 0.149-0.329-0.054-0.072-0.096-0.149-0.143-0.227-0.167-0.293-0.143-0.389 0.113-0.568 0.239-0.173 0.4-0.090 0.538 0.132 0.155 0.251 0.329 0.496 0.484 0.753 0.239 0.4 0.179 0.616-0.227 0.855-1.333 0.765-2.486-0.245-2.671-1.303-0.203-1.183 0.801-2.301 2.056-2.307z"></path>
<path d="M16.459 4.353c0.627 0.299 0.801 0.58 0.729 1.148-0.060 0.472-0.406 0.795-0.98 0.891-0.484 0.084-0.974 0.054-1.458 0.048-0.227-0.006-0.37-0.131-0.376-0.377-0.024-0.944-0.048-1.889-0.066-2.833-0.006-0.269 0.131-0.448 0.4-0.472 0.448-0.042 0.896-0.066 1.339 0 0.359 0.054 0.675 0.221 0.777 0.604 0.096 0.389 0.042 0.741-0.364 0.992zM15.688 5.722c0.454 0 0.693-0.245 0.556-0.58-0.102-0.251-0.335-0.257-0.55-0.269-0.335-0.012-0.436 0.078-0.442 0.371-0.012 0.377 0.078 0.478 0.436 0.478zM15.581 4.18c0.257 0 0.418-0.137 0.424-0.353 0.006-0.233-0.167-0.365-0.466-0.371-0.245-0.006-0.371 0.096-0.365 0.347 0.012 0.281 0.108 0.377 0.406 0.377z"></path>
<path d="M27.060 17.276c-0.257 0.102-0.388 0.299-0.568 0.43-0.125 0.096-0.239 0.215-0.37 0.299-0.209 0.132-0.43 0.185-0.621-0.030-0.156-0.173-0.126-0.46 0.090-0.64 0.329-0.269 0.681-0.514 1.022-0.771 0.030-0.024 0.066-0.042 0.102-0.066 0.060-0.042 0.167-0.060 0.149-0.161-0.024-0.12-0.137-0.090-0.221-0.096-0.245-0.024-0.496-0.042-0.741-0.072-0.275-0.030-0.37-0.197-0.341-0.454 0.024-0.245 0.108-0.412 0.406-0.394 0.974 0.042 1.948 0.108 2.916 0.197 0.293 0.024 0.424 0.203 0.418 0.478-0.012 0.418-0.018 0.837-0.108 1.249-0.185 0.849-0.944 1.231-1.703 0.849-0.323-0.161-0.568-0.376-0.43-0.819zM27.58 16.785c0 0.341 0.167 0.538 0.46 0.532 0.269 0 0.43-0.197 0.442-0.526 0.006-0.275-0.143-0.418-0.454-0.424s-0.448 0.12-0.448 0.418z"></path>
<path d="M23.157 7.528c0.036 0.287 0.072 0.52 0.096 0.753 0.018 0.167 0.042 0.335 0.030 0.502-0.012 0.227-0.108 0.406-0.376 0.418-0.263 0.012-0.412-0.143-0.454-0.383-0.042-0.251-0.048-0.514-0.060-0.771-0.012-0.227-0.006-0.454-0.012-0.687 0-0.072 0.036-0.173-0.066-0.203-0.096-0.030-0.131 0.066-0.179 0.125-0.167 0.197-0.329 0.4-0.496 0.598-0.185 0.227-0.371 0.161-0.568 0.006-0.197-0.149-0.269-0.329-0.113-0.538 0.598-0.783 1.201-1.56 1.805-2.331 0.155-0.197 0.365-0.245 0.58-0.096 0.395 0.269 0.795 0.532 1.1 0.903 0.544 0.663 0.347 1.5-0.424 1.853-0.311 0.149-0.46 0.125-0.86-0.149zM23.426 6.942c0.227-0.006 0.448-0.227 0.442-0.442-0.006-0.239-0.293-0.526-0.532-0.526-0.191 0-0.478 0.341-0.46 0.556 0.012 0.203 0.305 0.424 0.55 0.412z"></path>
<path d="M19.549 7.109c-0.914-0.006-1.637-0.544-1.793-1.321-0.054-0.275-0.018-0.538 0.060-0.795 0.185-0.586 0.37-1.171 0.568-1.757 0.113-0.329 0.245-0.389 0.562-0.281s0.377 0.221 0.269 0.568c-0.179 0.586-0.377 1.171-0.544 1.763-0.119 0.442 0.090 0.831 0.478 0.968 0.406 0.143 0.789-0.018 0.962-0.472 0.227-0.58 0.4-1.183 0.604-1.775 0.119-0.347 0.335-0.43 0.663-0.263 0.191 0.096 0.269 0.227 0.197 0.436-0.215 0.657-0.4 1.333-0.657 1.978-0.227 0.598-0.687 0.95-1.368 0.95z"></path>
<path d="M8.648 16.869c-0.054-0.12-0.102-0.239-0.155-0.359-0.066-0.203-0.137-0.406-0.203-0.616-0.143-0.454-0.036-0.711 0.406-0.932 0.114 0.072 0.209 0.155 0.197 0.305-0.078 0.108-0.227 0.149-0.245 0.317-0.054 0.562 0.394 1.297 0.932 1.464 1.697 0.538 3.46 0.645 5.223 0.717 1.171 0.048 2.343 0.042 3.52-0.030 1.040-0.060 2.073-0.119 3.101-0.311 0.902-0.167 1.607-0.556 1.87-1.512 0.090-0.323 0.042-0.436-0.305-0.526 0.096-0.114 0.197-0.233 0.293-0.347 0.538 0.323 0.61 0.562 0.323 1.106-0.030 0.060-0.054 0.126-0.084 0.185-0.119 0.126-0.185 0.275-0.251 0.43-0.048 0.078-0.102 0.155-0.15 0.227-0.024 0.024-0.042 0.048-0.066 0.072-0.060 0.024-0.108 0.054-0.125 0.119-0.394 0.185-0.789 0.371-1.207 0.484-1.584 0.43-3.209 0.514-4.834 0.58-1.41 0.054-2.82-0.042-4.213-0.233-1.171-0.161-2.331-0.37-3.448-0.771-0.227-0.060-0.466-0.126-0.58-0.371z"></path>
<path d="M5.626 10.924c0.466 0 0.932-0.006 1.404 0 0.359 0.006 0.532 0.155 0.52 0.43-0.012 0.293-0.209 0.472-0.55 0.448-0.329-0.024-0.502 0.114-0.568 0.424-0.042 0.185-0.108 0.365-0.185 0.532-0.125 0.257-0.090 0.454 0.155 0.61 0.072 0.048 0.143 0.114 0.191 0.185 0.108 0.167 0.090 0.347-0.036 0.496-0.125 0.155-0.293 0.203-0.478 0.108-0.072-0.036-0.137-0.078-0.197-0.126-0.711-0.622-1.422-1.249-2.127-1.877-0.197-0.173-0.317-0.388-0.281-0.657 0.042-0.335 0.299-0.556 0.699-0.568 0.484-0.012 0.974-0.006 1.464-0.006-0.012 0.006-0.012 0.006-0.012 0zM5.673 12.005c-0.006-0.203-0.054-0.323-0.239-0.317-0.215 0.006-0.436 0.006-0.651 0.006-0.084 0-0.161 0.018-0.191 0.108s0.024 0.149 0.084 0.203c0.137 0.132 0.269 0.263 0.412 0.388 0.221 0.203 0.37 0.173 0.496-0.096 0.048-0.108 0.072-0.221 0.090-0.293z"></path>
<path d="M12.246 3.254c0.281 0 0.37 0.108 0.418 0.281s0.036 0.317-0.149 0.4c-0.257 0.108-0.508 0.221-0.771 0.317-0.203 0.078-0.281 0.209-0.209 0.418 0.078 0.215 0.227 0.293 0.442 0.215 0.197-0.072 0.389-0.149 0.586-0.209 0.215-0.066 0.388-0.030 0.478 0.215s0.042 0.424-0.215 0.52c-0.155 0.060-0.317 0.12-0.472 0.173-0.215 0.078-0.341 0.185-0.239 0.442 0.102 0.251 0.263 0.293 0.496 0.197 0.209-0.084 0.43-0.143 0.645-0.221 0.227-0.084 0.329 0.048 0.406 0.233 0.078 0.191 0.108 0.377-0.132 0.472-0.502 0.209-1.010 0.406-1.536 0.55-0.215 0.060-0.376-0.036-0.454-0.239-0.329-0.885-0.657-1.763-0.968-2.654-0.060-0.167-0.084-0.383 0.102-0.49 0.514-0.317 1.094-0.448 1.572-0.622z"></path>
<path d="M25.123 12.972c-0.024-0.311 0.066-0.448 0.269-0.496 0.92-0.239 1.846-0.478 2.767-0.705 0.239-0.060 0.436 0.042 0.52 0.287 0.161 0.49 0.281 0.992 0.382 1.5 0.042 0.209-0.084 0.305-0.275 0.358-0.185 0.048-0.359 0.072-0.436-0.167-0.084-0.263-0.167-0.532-0.233-0.801-0.060-0.227-0.197-0.281-0.4-0.233-0.215 0.048-0.299 0.185-0.251 0.394 0.048 0.215 0.102 0.424 0.155 0.634 0.066 0.263-0.060 0.383-0.299 0.448-0.245 0.066-0.382-0.024-0.448-0.257-0.060-0.203-0.113-0.4-0.167-0.604-0.060-0.221-0.215-0.239-0.394-0.191-0.185 0.048-0.305 0.155-0.263 0.364 0.054 0.251 0.119 0.502 0.179 0.753 0.060 0.257-0.090 0.365-0.311 0.412s-0.364-0.006-0.43-0.239c-0.137-0.514-0.287-1.028-0.364-1.458z"></path>
<path d="M22.064 27.663c-0.872-0.006-1.703-0.944-1.691-1.907 0.012-0.801 0.777-1.512 1.619-1.512 0.873 0 1.715 0.92 1.709 1.859-0.012 0.861-0.747 1.566-1.637 1.56zM21.162 25.66c0.018 0.49 0.209 0.849 0.574 1.106 0.454 0.323 0.998 0.12 1.135-0.424 0.131-0.502-0.215-1.118-0.735-1.315-0.478-0.179-0.974 0.167-0.974 0.634z"></path>
<path d="M16.197 29.254c-0.735 0.036-0.759 0.012-0.795-0.735-0.030-0.634-0.084-1.267-0.114-1.907-0.018-0.412 0.048-0.496 0.448-0.55 0.347-0.048 0.687-0.072 1.040-0.036 0.508 0.054 0.878 0.299 1.123 0.735 0.633 1.13-0.036 2.385-1.321 2.486-0.125 0.018-0.251 0.006-0.382 0.006zM16.065 27.246c0.018 0.299 0.036 0.592 0.054 0.891 0.024 0.359 0.173 0.472 0.526 0.418 0.215-0.036 0.388-0.143 0.514-0.323 0.233-0.335 0.191-1.010-0.072-1.321-0.173-0.203-0.58-0.305-0.819-0.203-0.251 0.108-0.215 0.329-0.203 0.538z"></path>
<path d="M12.832 28.92c-1.040-0.018-1.631-0.777-1.374-1.787 0.132-0.508 0.281-1.016 0.418-1.524 0.060-0.227 0.185-0.341 0.436-0.281 0.257 0.060 0.341 0.215 0.275 0.46-0.132 0.49-0.275 0.974-0.4 1.464-0.144 0.58 0.125 0.968 0.639 0.944 0.364-0.018 0.508-0.287 0.598-0.58 0.149-0.484 0.275-0.974 0.418-1.458 0.090-0.311 0.251-0.377 0.538-0.251 0.209 0.090 0.215 0.251 0.167 0.424-0.155 0.568-0.299 1.136-0.484 1.691-0.191 0.598-0.652 0.909-1.231 0.897z"></path>
<path d="M23.158 23.337c0-0.496 0.406-1.058 0.878-1.213 0.185-0.060 0.365-0.054 0.472 0.132 0.113 0.197 0 0.341-0.155 0.454-0.119 0.090-0.251 0.167-0.359 0.269-0.113 0.108-0.173 0.251-0.072 0.4 0.108 0.149 0.257 0.12 0.4 0.042 0.191-0.102 0.382-0.215 0.58-0.305 0.43-0.191 0.831-0.12 1.13 0.179 0.299 0.305 0.37 0.741 0.185 1.159-0.179 0.4-0.466 0.693-0.867 0.867-0.197 0.084-0.418 0.143-0.556-0.090-0.137-0.239 0.024-0.389 0.209-0.514 0.155-0.108 0.317-0.209 0.454-0.335s0.191-0.287 0.072-0.454c-0.113-0.161-0.275-0.197-0.448-0.108-0.215 0.108-0.412 0.239-0.633 0.335-0.646 0.317-1.291-0.102-1.291-0.819z"></path>
<path d="M6.928 25.286c-0.615 0-1.321-0.687-1.339-1.303-0.006-0.173 0.036-0.323 0.221-0.371 0.179-0.048 0.311 0.036 0.394 0.191 0.102 0.185 0.185 0.376 0.299 0.55 0.108 0.167 0.269 0.281 0.478 0.161 0.203-0.113 0.215-0.299 0.143-0.49-0.078-0.203-0.173-0.401-0.245-0.604-0.125-0.335-0.096-0.639 0.173-0.903 0.275-0.269 0.604-0.358 0.962-0.257 0.46 0.132 0.753 0.46 0.92 0.903 0.030 0.078 0.024 0.173 0.024 0.263 0 0.143-0.078 0.245-0.215 0.287-0.143 0.042-0.257-0.006-0.335-0.125-0.108-0.167-0.191-0.347-0.311-0.502-0.096-0.119-0.233-0.197-0.388-0.084-0.137 0.096-0.137 0.221-0.078 0.371 0.096 0.239 0.209 0.472 0.269 0.723 0.131 0.645-0.305 1.189-0.974 1.189z"></path>
<path d="M9.708 23.946c0.102 0 0.191 0.042 0.275 0.096 0.4 0.257 0.801 0.514 1.201 0.777 0.125 0.084 0.233 0.191 0.233 0.359 0 0.251-0.233 0.364-0.502 0.257-0.43-0.173-0.43-0.179-0.687 0.221-0.293 0.448-0.58 0.902-0.878 1.351-0.197 0.299-0.305 0.329-0.55 0.161s-0.257-0.263-0.060-0.568c0.305-0.478 0.616-0.95 0.926-1.428 0.221-0.341 0.221-0.347-0.108-0.604-0.131-0.102-0.239-0.221-0.167-0.406 0.054-0.143 0.155-0.221 0.317-0.215z"></path>
<path d="M25.889 21.7c0.179-0.251 0.305-0.46 0.46-0.652 0.108-0.137 0.102-0.233-0.006-0.364-0.149-0.185-0.275-0.389-0.424-0.61 0.257 0.012 0.466 0.102 0.675 0.185s0.329 0.030 0.442-0.149 0.257-0.347 0.412-0.556c0.066 0.263 0.048 0.484 0.036 0.693-0.018 0.215 0.048 0.335 0.269 0.388s0.43 0.143 0.699 0.239c-0.251 0.084-0.448 0.161-0.645 0.215-0.239 0.060-0.353 0.185-0.329 0.442 0.018 0.191 0.006 0.389-0.060 0.61-0.113-0.143-0.245-0.275-0.329-0.436-0.149-0.275-0.341-0.311-0.61-0.191-0.167 0.078-0.353 0.113-0.592 0.185z"></path>
<path d="M5.995 21.652c-0.609-0.317-1.076-0.197-1.368 0.448-0.006 0.018-0.030 0.024-0.102 0.078 0-0.281-0.006-0.52 0-0.759 0.006-0.155-0.054-0.233-0.203-0.281-0.233-0.072-0.466-0.161-0.759-0.263 0.281-0.102 0.502-0.191 0.729-0.257 0.179-0.048 0.239-0.149 0.233-0.323-0.006-0.227 0-0.448 0.060-0.699 0.143 0.185 0.287 0.359 0.418 0.55 0.102 0.149 0.203 0.179 0.376 0.113 0.215-0.084 0.448-0.137 0.735-0.227-0.155 0.221-0.257 0.4-0.382 0.544-0.173 0.197-0.197 0.359-0.006 0.562 0.125 0.137 0.209 0.311 0.311 0.466-0.018 0.018-0.030 0.030-0.042 0.048z"></path>
<path d="M20.145 28.404c0.006 0.173-0.102 0.263-0.239 0.305-0.143 0.042-0.293 0.084-0.406-0.072-0.030-0.042-0.054-0.084-0.072-0.131-0.257-0.843-0.52-1.692-0.771-2.54-0.060-0.197 0.024-0.347 0.233-0.412 0.215-0.066 0.382-0.012 0.454 0.209 0.263 0.855 0.52 1.709 0.782 2.564 0.012 0.024 0.018 0.054 0.018 0.078z"></path>
<path d="M6.038 21.609c0.006 0.018 0.018 0.036 0.024 0.054-0.024-0.006-0.042-0.006-0.066-0.006 0.012-0.024 0.024-0.036 0.042-0.048z"></path>
<path d="M22.865 15.525c0.245 0.203 0.239 0.299-0.048 0.436-0.598 0.281-1.243 0.401-1.882 0.508-1.147 0.191-2.307 0.311-3.472 0.377-0.855 0.048-1.709 0.072-2.558 0.030-1.787-0.084-3.568-0.251-5.283-0.831-0.179-0.060-0.353-0.137-0.52-0.221-0.263-0.137-0.263-0.227-0.024-0.424 0.759 0.568 1.655 0.747 2.558 0.89 0.986 0.162 1.984 0.209 2.982 0.257 0.765 0.036 1.53 0.066 2.295 0.030 1.59-0.072 3.185-0.084 4.739-0.52 0.43-0.114 0.831-0.299 1.213-0.532z"></path>
<path d="M10.315 18.201c0.108-0.072 0.203-0.090 0.263 0.054-0.096 0.024-0.191 0.042-0.263-0.054z"></path>
<path d="M10.077 18.142c0.084-0.078 0.119-0.024 0.143 0.054-0.060 0.018-0.108 0.006-0.143-0.054z"></path>
<path d="M23.523 17.904c-0.018 0.024-0.042 0.048-0.060 0.072 0.018-0.024 0.036-0.048 0.060-0.072z"></path>
<path d="M23.051 17.079c0 0.084-0.030 0.131-0.125 0.119 0.018-0.066 0.066-0.096 0.125-0.119z"></path>
<path d="M23.11 17.006c-0.024 0.024-0.042 0.048-0.066 0.072 0.024-0.024 0.048-0.048 0.066-0.072z"></path>
<path d="M13.351 10.306c-0.203 0.293-0.484 0.335-0.753 0.394-0.060 0.012-0.131 0-0.149-0.066s0.036-0.114 0.084-0.149c0.227-0.173 0.49-0.239 0.818-0.179z"></path>
<path d="M11.118 11.855c-0.012 0.245-0.257 0.603-0.442 0.651-0.036 0.006-0.084 0.012-0.108-0.012-0.048-0.036-0.012-0.096 0.006-0.137 0.102-0.239 0.281-0.406 0.544-0.502z"></path>
<path d="M14.914 9.895c0.125-0.030 0.227 0.018 0.317 0.108-0.060 0.114-0.155 0.155-0.281 0.191-0.251 0.078-0.49-0.030-0.735-0.012-0.036-0.060-0.149-0.066-0.119-0.167 0.024-0.084 0.102-0.066 0.161-0.072 0.197 0.215 0.556 0.191 0.657-0.048z"></path>
<path d="M14.912 9.798c-0.102 0.239-0.46 0.263-0.651 0.048 0.209-0.101 0.43-0.060 0.651-0.048z"></path>
<path d="M19.292 10.296c-0.018 0.239-0.203 0.161-0.334 0.167-0.113 0.012-0.227-0.012-0.185-0.179 0.173 0.012 0.346 0.012 0.52 0.012z"></path>
<path d="M19.644 10.565c-0.137 0.293-0.34 0.173-0.556 0.096 0.137-0.084 0.34 0.060 0.394-0.161 0.054 0.012 0.119 0 0.161 0.066z"></path>
<path d="M15.199 14.084c-0.006 0.006-0.012 0.018-0.018 0.024-0.119 0.46-0.347 0.849-0.855 0.92-0.532 0.072-0.872-0.257-1.141-0.669s-0.323-0.873-0.287-1.345c0.078-0.305 0.191-0.592 0.454-0.795 0.383-0.293 0.89-0.251 1.291 0.125 0.49 0.478 0.639 1.076 0.556 1.739zM14.142 13.14c-0.006-0.239-0.221-0.436-0.448-0.418-0.233 0.012-0.4 0.197-0.4 0.43 0 0.239 0.203 0.424 0.442 0.418 0.227-0.012 0.412-0.209 0.406-0.43z"></path>
<path d="M18.384 14.741c-0.526 0.383-0.777 0.383-1.237 0-0.335-0.598-0.382-1.189 0.054-1.763 0.215-0.281 0.49-0.484 0.867-0.418s0.568 0.341 0.675 0.681c0.167 0.568-0.018 1.052-0.358 1.5zM17.984 13.038c-0.197 0.018-0.329 0.12-0.341 0.329-0.006 0.209 0.119 0.341 0.317 0.353 0.221 0.012 0.358-0.119 0.358-0.341 0.012-0.209-0.113-0.323-0.335-0.341z"></path>
<path d="M14.744 11.399c-0.149-0.018-0.34 0.042-0.52-0.054-0.096-0.054-0.179-0.119-0.102-0.233 0.096-0.131 0.137 0.012 0.197 0.054 0.239 0.185 0.974 0.143 1.135-0.072 0.042-0.054 0.054-0.131 0.143-0.102 0.048 0.018 0.084 0.054 0.090 0.108 0.012 0.084-0.030 0.132-0.096 0.167-0.143 0.072-0.287 0.131-0.454 0.125-0.119 0.006-0.239 0.006-0.394 0.006z"></path>
<path d="M18.090 11.042c0.090 0 0.191-0.006 0.215 0.108 0.018 0.090-0.072 0.131-0.131 0.179-0.311 0.233-0.681 0.299-1.045 0.364-0.090 0.018-0.173-0.024-0.251-0.072-0.066-0.042-0.108-0.090-0.054-0.167 0.060-0.084 0.090-0.066 0.179-0.006 0.293 0.209 1.015-0.066 1.087-0.406z"></path>
<path d="M20.331 12.895c-0.311-0.006-0.603-0.060-0.866-0.239-0.084-0.054-0.131-0.119-0.108-0.221 0.006-0.024 0.030-0.054 0.054-0.066 0.036-0.018 0.060 0 0.090 0.042 0.269 0.358 0.633 0.418 1.045 0.317 0.066-0.018 0.131-0.078 0.161 0.024 0.036 0.114-0.042 0.137-0.131 0.137-0.090 0.012-0.167 0.006-0.245 0.006z"></path>
<path d="M17.583 11.048c0.096 0.006 0.227 0.018 0.185 0.108-0.084 0.191-0.305 0.191-0.478 0.239-0.072 0.018-0.209-0.006-0.179-0.090 0.066-0.233 0.311-0.179 0.472-0.257z"></path>
<path d="M14.852 10.917c0.084 0.030 0.281-0.078 0.287 0.102 0.006 0.137-0.191 0.125-0.311 0.149-0.030 0.006-0.060 0.006-0.090 0-0.114-0.006-0.275 0.006-0.275-0.137 0-0.125 0.167-0.096 0.269-0.114 0.036 0 0.066 0 0.119 0z"></path>
<path d="M19.848 12.351c0.167 0.018 0.323 0.048 0.43 0.179 0.012 0.012-0.006 0.066-0.024 0.072-0.155 0.096-0.299-0.012-0.442-0.048-0.066-0.018-0.149-0.054-0.143-0.131 0.012-0.114 0.125-0.042 0.179-0.072z"></path>
<path d="M18.753 10.445c0.012 0.018 0.012 0.030 0.006 0.048-0.102 0.018-0.197 0.012-0.239-0.102-0.030-0.084 0.024-0.119 0.102-0.125 0.006 0.096 0.042 0.155 0.131 0.179z"></path>
<path d="M18.092 11.042c-0.006-0.006-0.019-0.012-0.025-0.012 0.006 0.006 0.019 0.012 0.025 0.012z"></path>
<path d="M20.72 11.758c0.018 0.018 0.042 0.042 0.060 0.060-0.024-0.018-0.042-0.036-0.060-0.060z"></path>
<path d="M12.593 11.429c0.066-0.137 0.185-0.125 0.263-0.048 0.084 0.084-0.018 0.161-0.078 0.221-0.185 0.185-0.388 0.323-0.657 0.364-0.066 0.012-0.119 0.018-0.155-0.036-0.054-0.078 0.012-0.125 0.054-0.173 0.293 0.119 0.538-0.018 0.573-0.329z"></path>
<path d="M12.513 11.224c-0.036 0.311-0.281 0.448-0.567 0.329 0.155-0.173 0.34-0.287 0.567-0.329z"></path>
</svg>
