<!-- Generated by IcoMoon.io -->
<svg version="1.1" xmlns="http://www.w3.org/2000/svg" width="32" height="32" viewBox="0 0 32 32">
<title>gamingcorps</title>
<path d="M5.292 25.257c0.287 0.319 2.17 1.56 4.719 3.12 4.922 3.014 5.361 3.2 6.813 2.819 0.616-0.16 1.655-0.7 3.58-1.853 1.266-0.753 2.533-1.516 3.774-2.305 1.182-0.753 2.507-1.534 3.225-2.819 0.456-0.807 0.312-1.773 0.312-2.677v-1.826c0-3.652-0.008-3.847-0.295-4.486-0.582-1.339-1.57-2.234-3.655-3.307-2.068-1.064-2.71-1.791-2.904-3.236-0.042-0.346-0.11-0.629-0.143-0.629-0.135 0-1.832 1.746-2.558 2.624-1.469 1.782-2.035 3.369-2.161 6.055-0.084 1.844 0.068 2.748 0.49 2.988 0.363 0.204 0.473 0.098 0.701-0.736 0.11-0.399 0.38-0.957 0.608-1.241 0.439-0.558 1.764-1.321 2.533-1.454l0.49-0.080 0.405 0.922c0.608 1.383 0.76 2.518 0.473 3.679-0.422 1.702-1.528 2.988-3.377 3.901-2.22 1.099-4.609 0.656-6.441-1.188-1.444-1.454-2.026-3.316-1.655-5.248 0.819-4.237 4.913-6.374 6.804-9.991 0.785-1.507 1.224-3.316 0.895-5.035-0.143-0.762-0.506-1.392-0.912-2.030-0.152-0.248-0.642-1.223-0.971-1.223-0.093 0-0.127 0.39-0.101 1.144 0.034 1.073 0.017 1.188-0.355 1.8-0.532 0.886-1.047 1.259-5.597 4.025-1.233 0.754-2.55 1.365-3.689 2.269-1.266 1.011-1.984 2.092-1.992 3.777-0.008 2.828-0.051 5.656-0.034 8.475 0 0.824-0.017 1.667 0.253 2.447 0.152 0.434 0.498 1.028 0.76 1.312l0.008 0.009z"></path>
</svg>
