<!-- Generated by IcoMoon.io -->
<svg version="1.1" xmlns="http://www.w3.org/2000/svg" width="32" height="32" viewBox="0 0 32 32">
<title>gamingrealms</title>
<path d="M22.452 20.514c-1.223 0.302-2.583 0.354-3.648 0.95-2.778 1.554-5.991 1.066-8.084-1.487-1.776-2.169-1.632-6.025 0.31-8.216 1.978-2.236 5.387-2.724 7.848-1.051 0.914 0.622 1.938 1.442 1.098 2.716-0.796 1.207-1.713 0.619-2.656-0.063-1.304-0.946-3.146-0.637-4.145 0.533-1.035 1.218-1.054 3.093-0.040 4.248 1.164 1.323 2.748 1.494 4.259 0.454 2.303-1.584 4.845-0.775 7.288-0.626 0.335 0.022 0.836 1.133 0.87 1.759 0.103 2.165 0.007 4.341 0.044 6.513 0.018 1.114 0.015 2.385-1.312 2.411-0.685 0.015-1.393-1.002-2.303-1.725-3.047 1.941-6.731 2.459-10.611 1.133-4.944-1.692-8.463-7.255-8.15-12.833 0.302-5.407 4.477-10.456 9.487-11.67 4.174-1.014 7.73 0.164 10.891 2.877 0.785 0.674 1.654 1.524 0.593 2.649-1.039 1.107-1.787 0.306-2.616-0.44-2.859-2.575-6.905-3.044-10.254-1.256-3.419 1.826-5.486 5.798-5.084 9.766 0.365 3.611 3.404 7.557 6.742 8.254 3.146 0.656 6.267 0.421 8.666-2.187 0.527-0.574 0.822-1.364 1.227-2.057l-0.42-0.652z"></path>
</svg>
