<!-- Generated by IcoMoon.io -->
<svg version="1.1" xmlns="http://www.w3.org/2000/svg" width="32" height="32" viewBox="0 0 32 32">
<title>goldenrock</title>
<path d="M4.267 4.456c7.628 0 15.244 0 22.872-0.010 0.465 0 0.595 0.094 0.595 0.565-0.022 7.197-0.022 14.383 0 21.58 0 0.471-0.13 0.565-0.595 0.565-7.627-0.010-15.244-0.010-22.872-0.010l0-22.689zM22.702 17.803c0.060-0.131 0.129-0.235 0.205-0.317 0.155-0.164 0.345-0.242 0.558-0.274 0.122-0.016 0.251-0.014 0.383-0.005 0.297 0.010 0.595 0.008 0.892 0.005s0.595-0.005 0.893 0.005c0.095 0.003 0.168-0.004 0.223-0.022 0.165-0.035 0.21-0.149 0.21-0.375-0.011-3.452-0.011-6.893 0-10.345 0-0.314-0.087-0.418-0.422-0.418-6.427 0.010-12.864 0.010-19.29 0-0.098 0-0.176 0.008-0.238 0.027-0.202 0.042-0.249 0.169-0.249 0.434 0.016 0.918 0.014 1.829 0.012 2.744-0.001 0.305-0.001 0.611-0.001 0.917 0 2.197 0 4.383 0.011 6.58 0 0.034-0.006 0.073-0.013 0.114-0.022 0.139-0.047 0.299 0.153 0.315 0.573 0.042 1.158 0.042 1.731 0.010 0.035-0.002 0.067-0.008 0.097-0.017 0.189-0.035 0.291-0.186 0.393-0.339 0.050-0.074 0.099-0.148 0.159-0.209 0.137-0.143 0.283-0.233 0.427-0.273 0.304-0.063 0.592 0.103 0.763 0.482 0.097 0.22 0.184 0.45 0.27 0.68 0.173 0.439 0.346 0.879 0.563 1.433l0.023-0.062 0.020 0.051c0.461-1.225 0.914-2.426 1.362-3.613 0.603-1.598 1.197-3.172 1.787-4.745 0.094-0.264 0.205-0.512 0.496-0.593 0.031-0.007 0.064-0.011 0.099-0.014 0.389-0.031 0.584 0.188 0.768 0.471 0.373 0.582 0.753 1.162 1.134 1.743 0.447 0.682 0.895 1.365 1.333 2.055 0.184 0.282 0.39 0.387 0.736 0.377 0.464-0.012 0.927-0.010 1.391-0.009 0.348 0.001 0.696 0.003 1.043-0.002 0.498-0.010 0.801 0.178 0.985 0.638 0.252 0.649 0.536 1.293 0.833 1.964 0.086 0.194 0.172 0.39 0.259 0.589zM8.183 18.377c-0.071 0.005-0.143 0.004-0.216 0.002-0.216-0.004-0.433-0.002-0.649 0.001-0.325 0.004-0.649 0.008-0.974-0.011-0.357-0.021-0.454 0.105-0.454 0.439v0.003c0 0.002 0 0.005 0 0.007 0 0.004 0 0.007 0 0.011 0.011 2.085 0.021 4.16-0 6.245 0 0.003 0 0.006 0 0.009l-0 0.002c0 0.398 0.13 0.481 0.519 0.481 6.372-0.011 12.756-0.021 19.128 0 0.454 0 0.519-0.157 0.519-0.533 0-0.003 0-0.007 0-0.011-0.010-0.873-0.013-1.746-0.013-2.618-0-0.304 0-0.608 0-0.912 0-0.216 0.001-0.432 0.001-0.648 0.001-0.465 0.001-0.931 0.001-1.396v-0.010c0-0.523 0-0.779-0.133-0.91-0.127-0.126-0.378-0.135-0.868-0.154-0.030-0.001-0.060-0.002-0.092-0.003-0.736-0.031-1.385-0.021-1.655 0.816-0.097 0.324-0.368 0.523-0.736 0.502-0.11-0.006-0.202-0.034-0.28-0.077-0.153-0.092-0.253-0.247-0.335-0.42-0.016-0.036-0.030-0.073-0.045-0.11-0.148-0.352-0.297-0.702-0.446-1.051-0.255-0.597-0.509-1.194-0.755-1.794-0.119-0.303-0.27-0.429-0.617-0.418-0.425 0.017-0.854 0.013-1.282 0.008-0.367-0.004-0.734-0.007-1.098 0.002-0.465 0.011-0.768-0.157-1.006-0.544-0.518-0.827-1.059-1.643-1.597-2.456-0.204-0.308-0.408-0.615-0.61-0.923-0.136 0.074-0.165 0.187-0.193 0.293-0.007 0.029-0.015 0.057-0.024 0.084-0.498 1.313-0.993 2.626-1.488 3.938s-0.99 2.626-1.488 3.938c-0.023 0.061-0.043 0.124-0.064 0.188-0.117 0.362-0.237 0.734-0.78 0.743-0.559 0.009-0.681-0.356-0.803-0.718-0.027-0.079-0.053-0.158-0.084-0.233-0.154-0.376-0.298-0.755-0.445-1.144-0.111-0.293-0.224-0.59-0.344-0.896-0.179 0.204-0.382 0.261-0.595 0.281z"></path>
</svg>
