<!-- Generated by IcoMoon.io -->
<svg version="1.1" xmlns="http://www.w3.org/2000/svg" width="32" height="32" viewBox="0 0 32 32">
<title>high5</title>
<path d="M11.106 13.93c0 0-0.060 0.029-0.12 0.059l3.412-7.589h-14.368v4.677h1.527v3.412h5.598v-3.412h1.826v8.324h-1.826v-3.147h-5.598v0.029h-0.030v3.089h-1.527v4.647h5.987c0.12 0.147 0.239 0.294 0.389 0.471 0.898 1.059 1.826 1.618 2.754 1.912 0.509 0.177 1.078 0.265 1.706 0.265 0.030 0 0.090 0 0.12 0 0.060 0 0.12 0 0.18 0 4.071 0 6.735-2.794 6.735-6.442-0.030-4.795-4.251-6.295-6.765-6.295z"></path>
<path d="M15.087 8.694l-1.137 2.794v0.029c1.437 0.118 6.316 1.177 6.585 6.824 0.090 2.177-0.449 4.353-1.706 5.736h13.171v-4.677l-5.598-0.029c-0.569-0.029-1.167-0.088-1.676-0.294s-0.958-0.559-1.347-0.882c-0.359-0.382-0.688-0.853-0.898-1.353s-0.269-1.088-0.299-1.677c0.030-0.559 0.090-1.147 0.299-1.618 0.18-0.471 0.569-0.882 0.928-1.235 0.389-0.324 0.838-0.647 1.287-0.853 0.509-0.177 1.048-0.294 1.646-0.324h5.598v-4.706h-9.37l-1.197 2.265h-6.286z"></path>
<path d="M24.038 15.254c0 1.706 1.736 2.324 2.814 2.324h3.862v-1.294h-4.43v-1.735h5.688v-1.647h-5.119c-1.317 0.029-2.814 0.471-2.814 2.353z"></path>
</svg>
