<!-- Generated by IcoMoon.io -->
<svg version="1.1" xmlns="http://www.w3.org/2000/svg" width="33" height="32" viewBox="0 0 33 32">
<title>jftw</title>
<path d="M33.020 17.652c0.006-0.013 0.017-0.023 0.037-0.028l0-0.096c0.001-0.036 0.002-0.070 0.005-0.105-0.014-0.014-0.021-0.029-0.020-0.043 0.001-0.013 0.007-0.026 0.020-0.038v-2.568c-0.023-0.018-0.022-0.045-0.021-0.070v-0.012c0-0.027-0.005-0.060 0.021-0.082v-0.163c-0.043-0.011-0.048-0.049-0.048-0.081-0.064-0.957-0.198-1.904-0.395-2.84-0.144-0.687-0.315-1.367-0.52-2.035-0.229-0.744-0.502-1.475-0.831-2.186-0.294-0.636-0.839-1.006-1.533-1.012l-0.895-0.007-0.692-0.003c-0.715-0.003-1.43-0.003-2.145-0.002l-2.715 0.007c-0.635 0-1.004 0.473-0.897 1.109 0.064 0.381 0.128 0.767 0.176 1.148 0.165 1.251 0.294 2.508 0.368 3.77 0.096 1.534 0.144 3.068 0.112 4.602-0.038 1.572-0.112 3.149-0.272 4.716-0.029 0.281-0.059 0.563-0.091 0.844-0.028 0.243-0.057 0.486-0.088 0.728-0.058 0.453-0.124 0.905-0.2 1.354-0.117 0.685 0.251 1.153 0.929 1.153 2.12 0 4.245 0.005 6.366-0.005 0.716 0 1.271-0.359 1.57-1.007 0.593-1.284 1.004-2.638 1.308-4.025 0.213-0.979 0.358-1.974 0.438-2.975l0.001-0.011 0.004-0.022 0.006-0.016zM17.1 6.288c0.314 0 0.628 0.001 0.942 0.003 0.733 0.004 1.466 0.007 2.198-0.008 0.673-0.016 1.309 0.501 1.426 1.235 0.224 1.458 0.433 2.915 0.556 4.379 0.171 2.034 0.208 4.068 0.128 6.108-0.028 0.674-0.069 1.347-0.124 2.019-0.040 0.499-0.088 0.997-0.143 1.495-0.112 1.044-0.262 2.089-0.454 3.122-0.118 0.636-0.662 1.072-1.303 1.072h-6.323c-0.833 0-1.324-0.419-1.463-1.246-0.523-3.084-0.785-6.196-0.726-9.329 0.032-1.724 0.15-3.448 0.368-5.162 0.112-0.87 0.23-1.735 0.39-2.595 0.123-0.653 0.646-1.093 1.303-1.093 1.073-0.005 2.147 0 3.226 0zM1.063 15.628c0.004-0.141 0.010-0.282 0.017-0.422 0.013-0.276 0.030-0.552 0.052-0.827 0.023-0.288 0.050-0.575 0.083-0.861 0.014-0.129 0.030-0.258 0.047-0.386 0.171-1.311 0.459-2.589 0.86-3.84 0.208-0.658 0.438-1.311 0.732-1.937 0.304-0.647 0.838-1.050 1.543-1.055 1.111-0.011 2.221-0.014 3.331-0.013 0.728 0 1.457 0.003 2.185 0.005l0.972 0.003c0.14 0 0.267 0.024 0.378 0.068 0.17 0.069 0.304 0.186 0.39 0.34 0.089 0.16 0.127 0.36 0.103 0.587-0.069 0.647-0.165 1.289-0.256 1.937-0.133 0.935-0.203 1.877-0.272 2.817-0.102 1.344-0.139 2.687-0.134 4.031 0.002 0.86 0.021 1.718 0.059 2.576 0.041 0.933 0.106 1.865 0.198 2.798l0.055 0.522c0.041 0.385 0.086 0.771 0.134 1.156 0.036 0.283 0.074 0.565 0.115 0.847 0.029 0.195 0.059 0.391 0.091 0.586 0.118 0.729-0.24 1.159-0.961 1.159l-1.582 0.001c-1.582 0.001-3.165 0.002-4.746-0.006-0.434-0.003-0.808-0.132-1.102-0.377-0.203-0.168-0.368-0.39-0.489-0.662-0.726-1.626-1.212-3.334-1.501-5.091-0.176-1.055-0.267-2.116-0.299-3.182v-0.772zM16.669 12.956h-0.801c-0.234 0-0.467 0-0.693-0.004l-0.097-0.002c-0.010 0-0.021-0.002-0.032-0.003-0.038-0.005-0.078-0.010-0.091 0.035-0.006 0.015 0.001 0.034 0.012 0.054 0.008 0.015 0.018 0.030 0.027 0.044l0.004 0.005c0.262 0.381 0.523 0.756 0.779 1.137 0.075 0.12 0.118 0.087 0.182-0.005l0.249-0.353 0.25-0.352 0.020-0.027 0.035-0.049 0.242-0.339 0.017-0.019c0.027-0.028 0.057-0.061 0.031-0.101-0.032-0.043-0.091-0.022-0.133-0.022zM17.336 12.966c0.256 0.364 0.491 0.696 0.726 1.023 0.262 0.364 0.262 0.364 0.518-0.005 0.23-0.332 0.454-0.658 0.7-1.017h-1.944zM20.749 14.435l-0.378-0.421-0.165-0.185c-0.21-0.236-0.415-0.466-0.622-0.694-0.073-0.083-0.111-0.021-0.143 0.034l-0.017 0.026c-0.256 0.364-0.507 0.729-0.759 1.099l-0.018 0.023c-0.026 0.031-0.055 0.066-0.030 0.118h2.131zM13.432 14.435h2.141l0.002-0.027c0.001-0.012 0.002-0.021-0.002-0.028-0.107-0.159-0.216-0.318-0.325-0.477l-0.217-0.315-0.062-0.089-0.019-0.028c-0.022-0.034-0.043-0.073-0.064-0.112-0.032-0.061-0.065-0.122-0.103-0.168-0.033-0.040-0.070-0.068-0.113-0.073-0.041-0.004-0.077 0.008-0.111 0.032-0.056 0.039-0.105 0.108-0.153 0.177-0.033 0.046-0.065 0.092-0.099 0.129-0.216 0.232-0.423 0.466-0.638 0.71l-0.238 0.269zM17.737 17.171l-0.385 1.404c0.011 0.011 0.027 0.016 0.038 0.016l0.073-0.083c1.092-1.261 2.184-2.523 3.297-3.811-0.096-0.005-0.144-0.011-0.198-0.011-0.652 0-1.308 0.005-1.96-0.006-0.014-0.001-0.027-0.001-0.040 0l-0.029 0.003c-0.016 0.002-0.030 0.005-0.042 0.010-0.038 0.013-0.065 0.037-0.086 0.071-0.006 0.011-0.012 0.023-0.018 0.036l-0.009 0.023-0.012 0.037-0.268 0.992c-0.12 0.44-0.24 0.879-0.362 1.32zM14.474 15.92c0.748 0.854 1.49 1.708 2.232 2.562 0.012-0.001 0.022-0.004 0.030-0.006 0.009-0.003 0.017-0.008 0.022-0.012s0.009-0.009 0.011-0.015l0.003-0.010 0-0.010c0-0.016-0.005-0.033-0.009-0.050l-0.001-0.003-0.008-0.030-0.349-1.287c-0.206-0.755-0.411-1.509-0.612-2.265-0.029-0.112-0.096-0.111-0.17-0.109l-0.027 0h-2.142c0.009 0.037 0.021 0.068 0.036 0.094 0.023 0.039 0.051 0.069 0.078 0.098l0.029 0.032 0.473 0.549 0.402 0.463zM17.075 18.798c0.060-0.069 0.072-0.135 0.083-0.196 0.004-0.021 0.008-0.040 0.013-0.060l0.945-3.655c0.037-0.142 0.032-0.207-0.144-0.201-0.598 0.005-1.202 0.005-1.8 0-0.057 0-0.094 0.005-0.113 0.025-0.021 0.021-0.021 0.060-0.005 0.127 0.15 0.544 0.283 1.088 0.422 1.632 0.192 0.767 0.395 1.534 0.598 2.328zM16.22 14.446h1.864l-0.924-1.295c-0.064-0.092-0.107-0.054-0.15 0.011-0.278 0.392-0.555 0.778-0.833 1.17-0.043 0.060-0.069 0.114 0.043 0.114zM8.125 12.957h-0.822l-0.42 0.002-0.157-0.001c-0.081-0.001-0.161-0.003-0.24-0.006-0.128-0.005-0.134 0.038-0.064 0.136 0.278 0.381 0.55 0.767 0.823 1.153 0.064 0.092 0.101 0.082 0.16 0l0.225-0.329c0.187-0.273 0.375-0.547 0.565-0.818 0.069-0.098 0.059-0.136-0.070-0.136zM5.85 12.957h-1.832c-0.128 0-0.080 0.071-0.037 0.131l0.51 0.737c0.094 0.136 0.187 0.273 0.28 0.41 0.064 0.092 0.107 0.103 0.171 0.005l0.035-0.052c0.035-0.052 0.072-0.104 0.109-0.155l0.161-0.222 0.604-0.854zM2.833 13.976l-0.406 0.455h2.179c-0.31-0.451-0.604-0.876-0.897-1.3-0.055-0.082-0.096-0.034-0.133 0.008l-0.006 0.008c-0.196 0.223-0.395 0.446-0.598 0.673l-0.139 0.156zM6.064 18.772c0.016 0 0.032 0 0.048-0.005 0.336-1.305 0.667-2.616 1.009-3.927 0.043-0.152-0.027-0.152-0.134-0.152l-0.686 0.001c-0.359 0.001-0.718 0-1.077-0.007-0.198-0.005-0.203 0.065-0.16 0.223l0.721 2.812c0.043 0.166 0.086 0.331 0.13 0.496 0.049 0.186 0.099 0.372 0.147 0.559zM7.351 14.91c-0.267 1.012-0.545 2.024-0.822 3.035-0.013 0.045-0.023 0.091-0.034 0.138l-0.006 0.028c-0.009 0.041-0.018 0.084-0.029 0.126-0.014 0.054-0.031 0.108-0.053 0.16-0.006 0.020-0.013 0.039-0.019 0.058l-0.004 0.011-0.005 0.016-0.013 0.038-0.012 0.036 0.048 0.033 3.37-3.894-1.871-0.002-0.265-0.003c-0.182-0.005-0.24 0.065-0.283 0.223zM2.449 14.746c1.090 1.251 2.184 2.513 3.279 3.775 0.044 0 0.058-0.015 0.060-0.038 0.001-0.009-0.001-0.019-0.004-0.031l-0.008-0.024c-0.326-1.197-0.652-2.399-0.977-3.601-0.011-0.040-0.026-0.069-0.044-0.090-0.013-0.015-0.029-0.026-0.047-0.034-0.030-0.013-0.066-0.017-0.112-0.017-0.673 0.005-1.346 0.005-2.019 0.005-0.043 0-0.096-0.022-0.128 0.054zM9.744 14.437l-0.47-0.524c-0.233-0.26-0.458-0.515-0.684-0.771-0.036-0.039-0.064-0.048-0.086-0.041-0.031 0.010-0.055 0.050-0.079 0.084l-0.085 0.125-0.152 0.221c-0.078 0.113-0.156 0.226-0.233 0.339-0.123 0.18-0.246 0.359-0.39 0.566h2.179zM5.108 14.437h1.949c-0.037-0.065-0.064-0.109-0.096-0.152-0.105-0.149-0.211-0.297-0.316-0.445l-0.134-0.187-0.195-0.276c-0.114-0.159-0.171-0.239-0.229-0.239-0.006 0-0.012 0.001-0.018 0.003-0.008 0.002-0.015 0.006-0.023 0.011-0.047 0.030-0.103 0.108-0.194 0.237-0.015 0.023-0.032 0.046-0.049 0.069l-0.020 0.029-0.673 0.952zM28.277 13.004c0.038-0.071 0.091-0.049 0.134-0.049h1.602c0.011 0 0.023-0.001 0.036-0.003 0.014-0.002 0.028-0.004 0.043-0.003 0.027 0 0.052 0.008 0.065 0.039 0.016 0.036-0.009 0.063-0.034 0.090l-0.013 0.013-0.012 0.016-0.287 0.416-0.33 0.479-0.242 0.35c-0.337-0.468-0.652-0.914-0.962-1.349zM26.531 14.435h-2.131c-0.027-0.060 0.016-0.082 0.037-0.109 0.322-0.363 0.647-0.726 0.973-1.089l0.063-0.070 0.014-0.016c0.043-0.051 0.089-0.104 0.151-0.006 0.172 0.245 0.342 0.492 0.515 0.744l0.377 0.545zM28.293 18.476l0.309-1.127c0.219-0.798 0.439-1.596 0.653-2.399 0.014-0.052 0.029-0.096 0.047-0.133 0.053-0.104 0.134-0.148 0.3-0.144 0.476 0.012 0.952 0.010 1.451 0.008l0.199-0.001 0.432-0.001-0.379 0.439c-1.005 1.163-1.987 2.299-2.969 3.44-0.075 0.005-0.069-0.027-0.043-0.082zM27.652 18.52c-0.881-1.017-1.768-2.034-2.649-3.052-0.115-0.131-0.228-0.263-0.34-0.393l-0.29-0.335c0.043-0.076 0.101-0.049 0.15-0.049 0.405 0 0.81 0 1.215-0.002l0.38-0.001 0.407-0.003c0.049 0 0.088 0.005 0.119 0.021 0.039 0.020 0.065 0.057 0.084 0.121 0.32 1.18 0.646 2.361 0.966 3.547l0.004 0.022 0.001 0.015 0 0.022c0.016 0.049 0.027 0.092-0.048 0.087zM27.655 17.51c-0.225-0.882-0.451-1.764-0.681-2.646-0.032-0.125-0.016-0.18 0.134-0.18 0.294 0.003 0.589 0.004 0.884 0.004l0.429-0.001 0.487-0.003c0.101 0 0.171 0.006 0.134 0.142l-0.994 3.851-0.003 0.008c-0.015 0.031-0.032 0.067-0.077 0.047l-0.312-1.222zM29.484 14.435c0.124-0.181 0.233-0.339 0.342-0.495l0.026-0.038c0.171-0.245 0.337-0.49 0.502-0.735 0.010-0.014 0.020-0.027 0.030-0.038 0.011-0.012 0.021-0.022 0.033-0.027 0.013-0.006 0.027-0.007 0.044 0.001 0.006 0.003 0.012 0.007 0.018 0.012 0.008 0.006 0.016 0.014 0.025 0.024 0.379 0.424 0.753 0.843 1.159 1.295h-2.179zM27.017 14.446l0.478-0.673c0.151-0.213 0.298-0.421 0.446-0.628 0.025-0.035 0.047-0.048 0.068-0.046 0.025 0.003 0.048 0.025 0.070 0.057l0.367 0.513c0.16 0.224 0.319 0.447 0.477 0.673 0.038 0.054 0.059 0.103-0.037 0.103h-1.869zM27.748 12.988c-0.192 0.272-0.374 0.533-0.561 0.794-0.101 0.142-0.208 0.283-0.304 0.43-0.023 0.032-0.044 0.064-0.066 0.083-0.034 0.029-0.071 0.026-0.126-0.056-0.169-0.249-0.339-0.496-0.51-0.741l-0.281-0.406c-0.059-0.087-0.064-0.131 0.059-0.131 0.571 0 1.148 0 1.719 0.005 0.011-0.005 0.032 0.005 0.069 0.022z"></path>
</svg>
