<!-- Generated by IcoMoon.io -->
<svg version="1.1" xmlns="http://www.w3.org/2000/svg" width="33" height="32" viewBox="0 0 33 32">
<title>kagaming</title>
<path d="M28.452 5.485c1.459 0.441 1.562 0.967 0.109 1.719l-6.284 3.25c-1.321 0.686-3.292 1.284-4.751 0.845l-12.409-3.741c-1.459-0.441-0.369-1.252 1.615-2.126l5.475-2.423c2.093-1.021 2.924-1.021 4.235-0.645l12.010 3.122zM14.553 6.384c0 0.607 1.121 1.099 2.499 1.099s2.499-0.492 2.499-1.099-1.121-1.105-2.499-1.105c-1.377 0-2.499 0.495-2.499 1.105zM24.043 7.454c-1.346 0-2.439-0.482-2.439-1.074s1.093-1.071 2.439-1.071c1.346 0 2.439 0.479 2.439 1.071s-1.093 1.074-2.439 1.074zM10.065 7.483c-1.377 0-2.499-0.492-2.499-1.099 0-0.611 1.121-1.105 2.499-1.105s2.499 0.498 2.499 1.105c0 0.607-1.121 1.099-2.499 1.099z"></path>
<path d="M20.030 28.532l-0.009-13.316c0-1.465-1.174-2.765-2.636-3.159l-12.116-3.832c-1.462-0.394-2.065 0.329-2.065 1.797l0.643 12.787c0 1.465 0.603 3.115 2.065 3.51l11.472 4.158c1.462 0.391 2.646-0.479 2.646-1.944zM9.552 19.314l0.25 5.025-0.009 0.003c0 0.792-0.806 0.623-0.887 0.604-0.625-0.229-1.493-0.539-2.165-0.773-0.203-0.090-0.379-0.231-0.511-0.409s-0.217-0.388-0.245-0.608c0.001-0.020 0.001-0.040 0-0.059-0.068-1.779-0.277-5.865-0.43-8.848-0.050-0.986-0.095-1.851-0.126-2.473 0 0 0-0.717 0.881-0.567 0.391 0.122 0.82 0.27 1.243 0.416 0.345 0.119 0.687 0.237 1 0.338l0.005 0.003c0.063 0.039 0.752 0.463 0.842 1.062l0.153 6.287zM13.94 20.42c0.194 0.388 0.54 1.080 0.775 1.544l2.733 5.407c0.234 0.46 0.025 0.701-0.462 0.532l-2.318-0.852c-0.289-0.082-0.555-0.23-0.776-0.434s-0.392-0.456-0.498-0.737l-3.23-6.61c-0.113-0.255-0.16-0.535-0.137-0.814s0.115-0.547 0.268-0.78l0.606-0.827c0.146-0.197 0.332-0.456 0.521-0.718l0.001-0.001c0.207-0.288 0.418-0.58 0.581-0.8l0.312-0.451c0.142-0.201 0.255-0.37 0.365-0.535 0.12-0.179 0.235-0.352 0.379-0.552 0.2-0.272 0.606-0.191 1.096-0.034l2.536 0.798c0.106 0.020 0.204 0.070 0.284 0.143s0.138 0.166 0.169 0.27c0.030 0.104 0.031 0.214 0.003 0.319s-0.084 0.199-0.163 0.274l-2.186 2.614c-0.328 0.398-0.737 0.905-0.906 1.13-0.081 0.176-0.118 0.368-0.11 0.561s0.062 0.382 0.157 0.55z"></path>
<path d="M26.381 18.262l-0.753 0.526c-0.137 0.1-0.228 0.044-0.197-0.119l0.181-0.992c0.028-0.163 0.078-0.432 0.109-0.598l0.347-1.951c0.028-0.163 0.072-0.163 0.097 0l0.422 2.655c0.009 0.091-0.005 0.183-0.041 0.266s-0.093 0.157-0.165 0.213z"></path>
<path d="M29.411 24.391l-6.718 5.454c-1.562 0.823-2.040-0.172-2.040-1.719l0.219-12.94c0-1.547 0.39-2.99 1.937-3.814l6.925-3.86c1.19-0.83 1.19-0.238 1.19 1.312l-0.322 11.597c0 1.547-0.059 2.909-1.19 3.97zM29.074 21.265c0.002-0.027 0.002-0.054 0-0.081l-1.203-6.393c0-0.052-0.011-0.103-0.023-0.154-0.007-0.029-0.013-0.058-0.018-0.087l-0.103-0.595c-0.020-0.112-0.039-0.223-0.058-0.334-0.023-0.134-0.046-0.268-0.070-0.401l-0.112-0.67c-0.014-0.077-0.027-0.155-0.041-0.233s-0.027-0.157-0.041-0.233c-0.002-0.070-0.025-0.137-0.066-0.194-0.071-0.076-0.159-0.133-0.257-0.166s-0.203-0.043-0.305-0.028c-0.055 0.007-0.109 0.018-0.162 0.034-0.017 0-0.041 0.013-0.064 0.027s-0.047 0.027-0.064 0.027l-0.671 0.363c-0.343 0.235-0.597 0.578-0.725 0.974l-0.044 0.247c-0.056 0.312-0.11 0.618-0.137 0.761l-0.225 1.177-2.111 10.874-0.144 0.698v0.034c-0.028 0.138-0.075 0.473 0.109 0.532 0.149 0.048 0.23-0.026 0.309-0.098 0.019-0.017 0.037-0.034 0.057-0.049 0.029-0.023 0.060-0.047 0.092-0.071 0.079-0.061 0.164-0.127 0.242-0.192l0.625-0.476c0.191-0.163 0.324-0.382 0.381-0.626 0.228-1.39 0.45-2.68 0.662-3.854l2.040-1.506c0.2 1.068 0.353 2.013 0.472 2.849 0 0 0.028 0.263 0.331 0.097l0.834-0.657c0.032-0.026 0.063-0.050 0.093-0.073 0.236-0.185 0.4-0.312 0.494-0.612 0.033-0.306 0-0.616-0.097-0.908z"></path>
</svg>
