<!-- Generated by IcoMoon.io -->
<svg version="1.1" xmlns="http://www.w3.org/2000/svg" width="33" height="32" viewBox="0 0 33 32">
<title>kalamba</title>
<path d="M5.258 20.623c1.352-0.022 2.706-0.010 4.058-0.007 0.266 0.002 0.548-0.025 0.793 0.102 0.396 0.182 0.684 0.631 0.584 1.072-0.497 2.263-1.006 4.524-1.511 6.785-0.171 0.769-0.946 1.314-1.719 1.302-1.43-0.003-2.86 0.002-4.289-0.003-0.519 0.001-1.081-0.396-1.044-0.959v-0.122c0.025-0.384 0.127-0.755 0.209-1.129 0.423-1.878 0.845-3.755 1.264-5.634 0.12-0.786 0.868-1.402 1.656-1.406zM26.149 2.182c0.145-0.037 0.294-0.050 0.444-0.049 1.468 0.011 2.936-0.007 4.404 0.009 0.546-0.006 1.033 0.508 0.996 1.053-0.018 0.169-0.065 0.333-0.1 0.499-0.418 1.9-0.85 3.797-1.275 5.696-0.247 1.114-0.889 2.122-1.75 2.865-1.255 1.049-2.758 1.763-4.316 2.239-1.26 0.392-2.555 0.657-3.849 0.912-0.123 0.030-0.256 0.064-0.344 0.161-0.059 0.114 0.034 0.246 0.152 0.264 0.357 0.093 0.728 0.108 1.091 0.165 1.156 0.184 2.295 0.531 3.321 1.101 0.576 0.326 1.135 0.703 1.571 1.207 0.825 0.934 1.282 2.222 1.1 3.468-0.352 2.28-0.959 4.509-1.427 6.766-0.117 0.559-0.547 1.029-1.076 1.232-0.332 0.14-0.698 0.1-1.049 0.104-1.333-0.002-2.667 0.004-4.001-0.003-0.59 0.019-1.116-0.586-0.984-1.169 0.313-1.474 0.664-2.939 0.981-4.412 0.168-0.818 0.306-1.658 0.219-2.495-0.133-0.743-0.35-1.534-0.929-2.058-0.703-0.588-1.513-1.068-2.404-1.306-0.819-0.236-1.689-0.299-2.471-0.657-0.325-0.156-0.654-0.342-0.871-0.639-0.471-0.635-0.5-1.555-0.097-2.232 0.205-0.358 0.565-0.59 0.928-0.762 0.674-0.31 1.419-0.397 2.143-0.518 1.427-0.222 2.897-0.41 4.204-1.066 0.879-0.412 1.738-0.962 2.278-1.79 0.18-0.279 0.319-0.587 0.398-0.911 0.496-2.143 0.961-4.292 1.451-6.436 0.139-0.611 0.663-1.092 1.262-1.242zM9.166 2.186c0.259-0.065 0.527-0.049 0.791-0.051 1.37 0.010 2.74-0.010 4.11 0.009 0.579-0.003 1.070 0.6 0.944 1.166-0.5 2.264-1.014 4.526-1.515 6.79-0.181 0.748-0.932 1.281-1.69 1.283-1.409 0.004-2.817-0.002-4.226 0.003-0.39 0.002-0.81-0.157-1.017-0.504-0.165-0.251-0.159-0.57-0.096-0.853 0.475-2.112 0.946-4.224 1.418-6.337 0.046-0.202 0.080-0.409 0.173-0.596 0.216-0.444 0.637-0.776 1.108-0.911z"></path>
<path d="M8.078 13.389c0.831-0.151 1.71 0.154 2.313 0.734 0.488 0.456 0.769 1.108 0.812 1.77 0.044 0.816-0.313 1.638-0.921 2.181-0.392 0.355-0.9 0.568-1.42 0.645-1.033 0.136-2.123-0.395-2.642-1.3-0.357-0.569-0.427-1.277-0.317-1.929 0.203-1.059 1.115-1.922 2.175-2.101z"></path>
</svg>
