<!-- Generated by IcoMoon.io -->
<svg version="1.1" xmlns="http://www.w3.org/2000/svg" width="33" height="32" viewBox="0 0 33 32">
<title>mrslotty</title>
<path d="M26.686 22.739l-0.676-0.629-23.971 3.81 0.038 0.241 24.083-2.627z"></path>
<path d="M30.893 21.333l-4.881 0.777 0.676 0.629-0.526 0.777 4.956-0.555 0.938-0.925z"></path>
<path d="M26.686 22.739l-24.646 3.293 0.038 0.129 24.083-2.645z"></path>
<path d="M26.012 22.11l0.676 0.629 5.387-0.74-1.183-0.666z"></path>
<path d="M7.238 19.57c3.886 3.034 6.889 5.068 9.705 6.603l0.113 0.056 0.113-0.056c2.816-1.535 5.819-3.57 9.705-6.64l0.282-0.185-0.338-0.185c-0.807-0.37-1.633-0.832-2.497-1.35l-0.094-0.055-0.244 0.111c0.157-0.875 0.308-1.716 0.453-2.528 0.602-3.358 1.113-6.211 1.612-8.847l0.056-0.259h-0.263c-2.853-0.129-5.744-0.277-8.56-0.462h-0.225l-8.804 0.555h-0.263l0.075 0.185c0.296 1.692 0.629 3.497 0.995 5.484 0.33 1.792 0.688 3.733 1.070 5.873l-0.225-0.092-0.113 0.074c-0.882 0.518-1.727 0.98-2.515 1.35l-0.319 0.148 0.282 0.222zM17.055 6.326c-2.816 0.185-5.631 0.37-8.409 0.481l3.304 1.239 1.314 4.069 1.802-2.867c0.657 0.259 1.314 0.518 1.99 0.74l2.515-0.925 2.773-1.062c0.688-0.117 2.748-0.274 2.526 2.093l-0.004 0.023v0.018l0.004-0.042 0.586-3.285 0.009-0.004-0.009-0 0.010-0.055-0.125 0.049c-2.773-0.146-5.511-0.292-8.285-0.474zM23.157 19.736c-2.009 1.35-4.055 2.59-6.101 3.699v-0.925c0.713-0.277 1.427-0.555 2.159-0.888v-4.199l1.502 3.514c0.67-0.307 1.353-0.64 2.028-0.987-0.002-0.006-0.002-0.011-0.002-0.011v-0.018l0.414-0.186zM23.156 19.737l-1.633-3.385c0 0 2.253-0.851 2.628-2.257l-0.939 5.327-0.056 0.314zM21.937 12.189c-0.094 0.74-0.676 1.554-1.314 1.813l-1.389 0.555 0.038-2.553 1.596-0.684c0.657-0.259 1.126 0.13 1.051 0.869h0.019zM16.481 22.28v0c-0.476-0.19-0.946-0.377-1.416-0.601h0.019v-5.919l-1.596 2.645-1.558-3.958 0.62 6.104c-0.086-0.044-0.173-0.088-0.26-0.132-0.425-0.216-0.859-0.436-1.279-0.682 1.99 1.369 4.017 2.627 6.044 3.699v-0.925c-0.193-0.079-0.384-0.155-0.574-0.231l-0-0z"></path>
</svg>
