<!-- Generated by IcoMoon.io -->
<svg version="1.1" xmlns="http://www.w3.org/2000/svg" width="33" height="32" viewBox="0 0 33 32">
<title>netgaming</title>
<path d="M27.62 6.442c-0.855 0.11-1.726 0.55-2.308 1.165-0.133 0.14-0.354 0.429-0.493 0.642s-1.112 1.719-2.163 3.346l-1.911 2.959 0.071 0.148c0.091 0.19 0.563 0.582 0.915 0.759 0.594 0.299 1.322 0.347 2.079 0.136 0.434-0.121 0.973-0.382 1.18-0.57 0.088-0.080 1.126-1.665 2.306-3.523s2.309-3.631 2.507-3.941l0.36-0.564-0.202-0.118c-0.303-0.177-0.972-0.385-1.415-0.44-0.436-0.054-0.496-0.054-0.926 0.001z"></path>
<path d="M15.373 16.387c-0.846 0.1-1.474 0.397-1.857 0.88l-0.145 0.183 2.126 3.318c2.216 3.459 2.394 3.706 2.962 4.11 0.689 0.491 1.415 0.721 2.271 0.723 0.853 0.001 1.579-0.23 2.274-0.725 0.524-0.373 0.797-0.733 2.176-2.873 0.728-1.13 1.277-2.108 1.277-2.123-0.023 0-0.102 0.123-0.232 0.278-0.508 0.606-1.345 1.189-2.133 1.414-0.54 0.154-1.5 0.175-2.128 0.046-1.138-0.234-2.152-0.848-2.865-1.735-0.383-0.477-0.487-0.696-0.694-1.459-0.19-0.7-0.281-0.857-0.77-1.326-0.7-0.67-1.217-0.832-2.263-0.709z"></path>
<path d="M12.891 6.435c-1.029 0.169-1.942 0.676-2.511 1.395-0.129 0.163-1.83 2.774-3.781 5.801-4.028 6.252-3.733 5.793-3.684 5.751 0.021-0.018 0.186 0.098 0.369 0.256 0.821 0.714 1.421 1.025 2.203 0.947 0.47 0 0.751-0.159 1.144-0.485 0.648-0.477 0.99-1.038 3.58-4.918l2.61-3.793 0.394-0.324c1.202-0.806 1.623-1.064 2.298-1.064 1.319 0.069 2.431 0.46 3.010 1.23 0.464 0.617 0.397 0.644-0.865-1.461-0.595-0.929-1.196-1.827-1.335-1.997-0.48-0.582-1.255-1.058-2.017-1.239-0.457-0.109-1.084-0.152-1.415-0.098z"></path>
<path d="M27.618 10.998c-1.387 2.177-2.573 3.99-2.689 4.067-0.466 0.313-1.215 0.614-1.878 0.656-0.51 0-0.848-0.031-1.314-0.264-0.564-0.322-0.789-0.527-1.564-1.756-0.778-1.234-1.404-2.169-1.707-2.55-0.532-0.668-1.536-1.084-2.751-1.138-0.553-0.025-0.643-0.017-0.939 0.078-0.438 0.14-0.906 0.413-1.507 0.877l-0.445 0.42-2.603 3.785c-1.403 2.101-2.699 3.995-2.88 4.207-0.453 0.533-0.837 0.868-1.194 1.043-0.285 0.14-0.33 0.148-0.813 0.147-0.473-0.001-0.538-0.013-0.867-0.153-0.408-0.174-0.764-0.41-1.208-0.801l-0.311-0.274-0.147 0.198c-0.208 0.282-0.449 0.814-0.556 1.23-0.329 1.282 0.016 2.621 0.923 3.58 0.722 0.764 1.601 1.177 2.609 1.228 1.147 0.058 2.153-0.324 2.945-1.116 0.337-0.337 0.588-0.707 2.528-3.725 1.519-2.363 2.231-3.43 2.415-3.62 0.494-0.509 1.194-0.742 2.245-0.751l0.624 0.042 0.343 0.132c0.245 0.121 0.475 0.284 0.707 0.504 0.533 0.505 0.634 0.669 0.805 1.306 0.203 0.755 0.28 0.943 0.53 1.293 0.45 0.628 1 1.205 1.789 1.528 0.81 0.406 1.507 0.602 2.477 0.519 0.885 0 1.425-0.231 2.137-0.704 0.456-0.303 0.708-0.558 1.067-0.994 0.346-0.419 5.092-7.736 5.273-8.132 0.618-1.357 0.34-3.076-0.673-4.159-0.316-0.337-0.75-0.685-0.82-0.708-0.031 0-1.164 1.828-2.552 4.005z"></path>
</svg>
