<!-- Generated by IcoMoon.io -->
<svg version="1.1" xmlns="http://www.w3.org/2000/svg" width="33" height="32" viewBox="0 0 33 32">
<title>nolimit</title>
<path d="M24.198 10.486c-0-0.312-0-0.639-0-1.003l-0-3.621c0-0.118-0.001-0.236-0.004-0.353-0.003-0.101-0.045-0.167-0.148-0.171-0.084-0.003-0.167-0.005-0.251-0.005-0.181-0-0.363-0-0.544-0-0.739-0-1.478-0.001-2.217 0-0.252 0-0.368-0.011-0.422 0.045-0.054 0.057-0.043 0.183-0.044 0.462-0.001 2.314-0 4.24-0 6.518v0.34c0 0.011 0 0.022 0 0.033 0 0.107-0 0.214 0.006 0.32 0.004 0.080 0.042 0.139 0.127 0.145 0.069 0.005 0.139 0.008 0.209 0.008 0.156 0 0.312 0 0.467 0 0.82 0.001 1.641 0.001 2.461-0.001 0.356-0.001 0.359-0.004 0.36-0.397 0.001-0.888 0.001-1.56 0.001-2.323zM6.509 5.425c0.3 0 0.6 0.001 0.899 0.003 0.704 0.003 1.408 0.007 2.112-0.008 0.677-0.014 1.333 0.087 1.981 0.274 1.182 0.341 2.28 0.865 3.25 1.666 1.39 1.147 2.226 2.65 2.549 4.472 0.028 0.159 0.050 0.253 0.068 0.334 0.028 0.124 0.049 0.216 0.077 0.463 0.011 0.102 0.013 0.206 0.013 0.309-0 0.235-0.022 0.259-0.23 0.268-0.030 0.001-0.061 0.001-0.092 0.001l-0.034-0-2.928-0c-0.070 0-0.14-0.001-0.209-0.003-0.099-0.003-0.157-0.057-0.157-0.163 0-0.168-0.011-0.197-0.031-0.243-0.015-0.035-0.034-0.081-0.056-0.206-0.115-0.661-0.345-1.271-0.727-1.812-0.59-0.835-1.405-1.273-2.353-1.473-0.328-0.069-0.661-0.106-0.997-0.106-0.609 0-1.218 0-1.827-0l-1.226-0.001c-0.070 0-0.139 0.003-0.209 0.009-0.082 0.008-0.122 0.063-0.125 0.145-0.005 0.118-0.006 0.235-0.006 0.353l-0 0.482v0.001c-0 0.919-0.001 1.613 0 2.622 0.001 0.396-0.002 0.396-0.358 0.396h-0.006c-0.532-0.001-1.063-0.001-1.595-0.001-0.444 0-0.889 0-1.333-0-0.083-0-0.167-0.003-0.25-0.012-0.060-0.007-0.102-0.048-0.106-0.114-0.007-0.102-0.011-0.205-0.011-0.308l-0-3.451-0-3.451-0-0.038c-0-0.209-0-0.311 0.048-0.361 0.046-0.047 0.134-0.046 0.307-0.045l0.088 0c0.822-0 1.644-0 2.466-0l1.005 0zM26.194 25.038h-1.006c-1.366 0-2.733 0-4.099-0-0.125 0-0.251-0.002-0.376-0.006-0.079-0.002-0.131-0.047-0.137-0.132-0.007-0.102-0.008-0.206-0.008-0.308l-0-1.703c0-2.484-0-4.838 0.002-7.398 0-0.045-0-0.086-0.001-0.124v0c-0.001-0.19-0.002-0.285 0.043-0.332s0.136-0.047 0.319-0.046h0c0.033 0 0.069 0 0.109 0 0.741-0.001 1.483-0.001 2.224-0l0.495 0c0.098 0 0.195 0.001 0.293 0.006 0.078 0.004 0.132 0.046 0.136 0.133 0.006 0.147 0.010 0.294 0.010 0.441 0 0.814 0 1.564 0 2.309v0.006c0 0.898 0 1.787 0.001 2.767 0 0.049-0 0.094-0.001 0.135-0.002 0.191-0.002 0.29 0.044 0.34 0.049 0.053 0.15 0.053 0.357 0.052l0.092-0h2.357c1.46 0 2.92-0 4.38 0l0.099-0c0.191-0.001 0.286-0.001 0.332 0.048s0.045 0.146 0.044 0.338c-0 0.018-0 0.037-0 0.057 0 0.018 0 0.037 0 0.056 0.001 0.957 0.001 1.914 0 2.871 0 0.118-0.001 0.235-0.008 0.353-0.005 0.085-0.057 0.13-0.136 0.133-0.125 0.004-0.251 0.006-0.376 0.006-1.394 0-2.788 0-4.181 0h-1.007zM5.975 24.892c0.085 0.001 0.171 0.002 0.247-0.056 0.038-0.097 0.035-0.2 0.031-0.302-0.001-0.030-0.002-0.059-0.002-0.089 0.001-3.093 0.001-5.879-0-8.971 0-0.118-0.002-0.236-0.007-0.353-0.004-0.087-0.055-0.131-0.134-0.136-0.097-0.006-0.195-0.009-0.292-0.009-0.856-0.001-1.711-0.001-2.567-0l-0.283-0c-0.055-0-0.109-0.001-0.164 0.003-0.168 0.010-0.199 0.040-0.206 0.204-0.004 0.108-0.004 0.216-0.004 0.324l0 0.073c-0 3.048-0.001 5.79-0.001 8.839 0 0.094 0.002 0.189 0.003 0.283l0 0.026c0.002 0.11 0.066 0.153 0.159 0.161 0.055 0.004 0.112 0.005 0.167 0.005h0.005c1.003 0 2.006 0 3.009-0.001l0.037 0zM17.461 19.931l0 4.545 0 0.089c0 0.073 0.001 0.146-0.002 0.22-0.007 0.226-0.026 0.25-0.246 0.251-0.902 0.002-1.803 0.002-2.705 0.001l-0.472-0c-0.041 0-0.083-0.006-0.124-0.012-0.064-0.010-0.096-0.057-0.1-0.12-0.007-0.103-0.009-0.206-0.009-0.308-0-2.951 0-5.626 0-8.55v-0.476c-0-0.022-0-0.044 0-0.066 0.005-0.384 0.005-0.387 0.371-0.387 0.718-0.001 1.435-0.001 2.153-0.001v0h0.814c0.042-0 0.085-0.001 0.127 0.002 0.152 0.009 0.183 0.044 0.19 0.222 0.002 0.043 0.003 0.054 0.003 0.053l-0 0.038 0 4.501zM17.462 15.38c0-0.005-0-0.005-0 0.013 0-0.001 0-0.008 0-0.013z"></path>
</svg>
