<svg xmlns="http://www.w3.org/2000/svg" width="31" height="30" viewBox="0 0 31 30" fill="none">
<path fill-rule="evenodd" clip-rule="evenodd" d="M22.6856 9.83069C22.6855 9.53803 22.6855 9.23119 22.6855 8.89053L22.6853 5.49583C22.6853 5.38546 22.6848 5.27504 22.682 5.16471C22.6796 5.07039 22.6397 5.00829 22.543 5.00484C22.4646 5.00206 22.3862 5.00054 22.3078 5.00053C22.1377 5.00046 21.9678 5.00038 21.7978 5.00031C21.1049 4.99999 20.4122 4.99968 19.7192 5.00068C19.483 5.00103 19.3739 4.99044 19.3239 5.04281C19.2729 5.09611 19.2833 5.21461 19.2831 5.47621C19.2823 7.64598 19.2827 9.45154 19.283 11.587V11.9059C19.283 11.9162 19.283 11.9265 19.283 11.9368C19.283 12.0369 19.2828 12.1371 19.2882 12.237C19.2921 12.3123 19.328 12.3674 19.4069 12.373C19.472 12.3777 19.5372 12.3806 19.6026 12.3806C19.7486 12.3807 19.8947 12.3808 20.0407 12.3808C20.8097 12.3813 21.5789 12.3818 22.3479 12.3803C22.6817 12.3797 22.6845 12.3765 22.685 12.0084C22.6859 11.1761 22.6858 10.5457 22.6856 9.83069ZM6.10229 5.08623C6.38337 5.08623 6.66446 5.08754 6.94554 5.08884C7.60568 5.09193 8.26581 5.09499 8.9257 5.08111C9.56042 5.06774 10.1753 5.16311 10.783 5.33846C11.8907 5.65814 12.9204 6.14896 13.8299 6.89989C15.1331 7.97561 15.9163 9.38398 16.2196 11.0924C16.2462 11.2418 16.2663 11.33 16.2836 11.4056C16.3102 11.5216 16.3299 11.6079 16.3554 11.84C16.3658 11.9357 16.3675 12.0329 16.3673 12.1293C16.3672 12.3497 16.3467 12.3721 16.1517 12.3803C16.1231 12.3816 16.0944 12.3814 16.0657 12.3812L16.0341 12.381L13.2892 12.3809C13.2238 12.3809 13.1583 12.3802 13.0931 12.3779C13.0004 12.3747 12.9455 12.3241 12.9459 12.2251C12.9463 12.0672 12.9352 12.0408 12.9167 11.9971C12.9028 11.9641 12.8847 11.9212 12.8643 11.8043C12.7562 11.1847 12.5404 10.6124 12.1826 10.1054C11.6298 9.32233 10.8651 8.91156 9.97707 8.72448C9.66913 8.65959 9.35738 8.62526 9.04234 8.62549C8.47129 8.62589 7.90024 8.62553 7.32923 8.62516L6.17977 8.62466C6.11451 8.62466 6.04909 8.62708 5.98417 8.63306C5.90768 8.64011 5.87017 8.69184 5.8672 8.76889C5.8629 8.87909 5.86175 8.98948 5.86175 9.09978L5.86153 9.55161V9.55211C5.8611 10.4133 5.86079 11.0646 5.86191 12.0101C5.86241 12.3818 5.86013 12.3818 5.52651 12.3814H5.52125C5.02292 12.3808 4.52453 12.3808 4.02615 12.3809C3.60953 12.3809 3.1929 12.3809 2.77633 12.3806C2.69819 12.3805 2.61971 12.3777 2.54206 12.3689C2.48539 12.3626 2.4464 12.3237 2.44244 12.2616C2.436 12.1655 2.43236 12.069 2.43236 11.9726L2.43203 8.73754L2.4317 5.50244L2.43167 5.46646C2.43145 5.27008 2.43134 5.17459 2.47649 5.12841C2.51922 5.08471 2.60249 5.08518 2.76455 5.08608L2.84753 5.08636C3.61832 5.08609 4.3891 5.08614 5.15988 5.08619H5.16291L6.10229 5.08623ZM24.5568 23.4729H23.6139C22.3329 23.4731 21.052 23.4731 19.771 23.4727C19.6534 23.4727 19.5358 23.4711 19.4183 23.4672C19.3441 23.4649 19.2955 23.4231 19.2899 23.3434C19.2833 23.2474 19.2822 23.1506 19.2822 23.0542L19.282 21.4572C19.282 19.1286 19.2819 16.9211 19.2838 14.5219C19.2838 14.4795 19.2835 14.441 19.2833 14.4059V14.4059C19.282 14.2281 19.2814 14.1388 19.3234 14.0943C19.3656 14.0495 19.451 14.0499 19.6225 14.0509H19.6226C19.6536 14.051 19.6875 14.0512 19.7245 14.0511C20.4193 14.0499 21.1146 14.0503 21.8096 14.0507H21.8098L22.2741 14.0509C22.3657 14.051 22.4573 14.052 22.5486 14.0567C22.6215 14.0605 22.6725 14.0994 22.676 14.1811C22.6818 14.3188 22.6853 14.4568 22.6853 14.5947C22.6856 15.3574 22.6856 16.0611 22.6856 16.7592V16.7611V16.7627V16.7644C22.6858 17.6059 22.6858 18.4396 22.6864 19.3589C22.6864 19.4052 22.6861 19.4472 22.6858 19.4854C22.6843 19.6649 22.6836 19.7571 22.7268 19.8041C22.7725 19.8537 22.867 19.8534 23.0614 19.8526L23.1478 19.8524H25.3572C26.726 19.8524 28.0948 19.8522 29.4636 19.8526L29.5564 19.8522C29.7355 19.8514 29.8242 19.8509 29.8679 19.8974C29.9107 19.9431 29.9102 20.0341 29.9091 20.2146C29.909 20.2316 29.909 20.2494 29.9088 20.2681C29.9088 20.2849 29.9088 20.3024 29.9088 20.3206C29.9096 21.2177 29.9093 22.1149 29.9088 23.0121C29.9088 23.1224 29.9076 23.2327 29.9014 23.3429C29.8967 23.4226 29.8483 23.4647 29.774 23.4672C29.6565 23.4712 29.5387 23.4727 29.4212 23.4727C28.1145 23.4731 26.8079 23.4731 25.5012 23.4729H24.5568ZM5.60198 23.3364C5.68155 23.3376 5.76193 23.3387 5.83327 23.2839C5.86936 23.1926 5.866 23.0966 5.86265 23.0007C5.86167 22.9729 5.86069 22.9451 5.86069 22.9174C5.86152 20.0181 5.8612 17.4062 5.86054 14.5069C5.86054 14.3965 5.85855 14.286 5.85409 14.1758C5.85062 14.0941 5.80238 14.0528 5.72869 14.0479C5.63749 14.0419 5.54598 14.039 5.45462 14.039C4.65248 14.0384 3.85049 14.0385 3.04851 14.0387L2.82566 14.0387L2.78306 14.0386C2.7318 14.0383 2.68049 14.0381 2.62939 14.0412C2.47212 14.0507 2.44271 14.0783 2.43627 14.2327C2.43209 14.3339 2.43231 14.4354 2.43253 14.5369L2.43263 14.6054C2.4323 17.4632 2.43214 20.0336 2.43214 22.8916C2.43214 22.9801 2.43366 23.0687 2.43519 23.1572L2.43561 23.1814C2.43742 23.2842 2.49739 23.3252 2.58512 23.3322C2.63716 23.3364 2.68969 23.3366 2.74191 23.3366H2.74641H2.74652H2.74662C3.68689 23.3367 4.62701 23.3369 5.56712 23.3361L5.60198 23.3364ZM16.3701 18.6857L16.3703 22.9466L16.3707 23.0304C16.3711 23.0991 16.3715 23.1677 16.3693 23.2362C16.3625 23.4476 16.3452 23.4709 16.1387 23.4714C15.2933 23.4736 14.4481 23.4729 13.6028 23.4722H13.6027L13.1602 23.4719C13.1213 23.4719 13.0822 23.4666 13.0435 23.4606C12.9834 23.4512 12.9533 23.4074 12.9495 23.3484C12.9432 23.2522 12.9409 23.1557 12.9409 23.0594C12.9408 20.2924 12.9409 17.7854 12.9411 15.0439V15.0261L12.9411 14.6181L12.9411 14.5974C12.941 14.5767 12.941 14.556 12.9412 14.5353C12.9459 14.1755 12.946 14.1728 13.289 14.1722C13.9617 14.171 14.6344 14.1713 15.3072 14.1715H15.3072L16.0324 14.1717L16.07 14.1715C16.1097 14.1712 16.1495 14.171 16.1891 14.1735C16.3315 14.1824 16.3607 14.2144 16.3672 14.3813C16.3688 14.4215 16.3696 14.4315 16.3701 14.4308L16.37 14.466L16.3701 18.6857ZM16.3704 14.4189C16.3704 14.4145 16.3702 14.4142 16.3701 14.4308C16.3704 14.4303 16.3705 14.4229 16.3704 14.4189Z" fill="#d9d9d9"/>
</svg>