<!-- Generated by IcoMoon.io -->
<svg version="1.1" xmlns="http://www.w3.org/2000/svg" width="33" height="32" viewBox="0 0 33 32">
<title>onair</title>
<path d="M10.117 10.907c1.116 0 2.208 0.331 3.136 0.951s1.652 1.502 2.079 2.533c0.427 1.031 0.539 2.166 0.321 3.261s-0.755 2.101-1.545 2.89c-0.789 0.789-1.795 1.327-2.89 1.545s-2.23 0.106-3.261-0.321-1.913-1.151-2.533-2.079c-0.62-0.928-0.951-2.020-0.951-3.136 0.002-1.496 0.598-2.931 1.656-3.989s2.492-1.653 3.989-1.656zM10.117 8.533c-1.582 0-3.129 0.469-4.445 1.348s-2.341 2.128-2.946 3.59c-0.606 1.462-0.764 3.070-0.455 4.622s1.071 2.977 2.189 4.096 2.544 1.881 4.096 2.189c1.552 0.309 3.16 0.15 4.622-0.455s2.711-1.631 3.59-2.946c0.879-1.316 1.348-2.862 1.348-4.445 0-2.122-0.843-4.157-2.343-5.657s-3.535-2.343-5.657-2.343z"></path>
<path d="M25.934 16.204h-6.565l-3.386 8.329h2.748l2.41-6.222h8.272l-3.977-9.778h-2.532l-0.825 2.036h1.641l2.213 5.636zM27.575 20.373h2.72l1.688 4.16h-2.814l-1.594-4.16z"></path>
</svg>
