<!-- Generated by IcoMoon.io -->
<svg version="1.1" xmlns="http://www.w3.org/2000/svg" width="33" height="32" viewBox="0 0 33 32">
<title>onextwo</title>
<path d="M22.999 14.826l2.268-1.652 0.011-0.929c0-0.518 0.367-0.799 0.94-0.799 0.832 0 1.058 0.454 1.058 0.842v1.318c0 0.378-0.443 0.886-1.242 1.545l-1.966 1.534c-0.67 0.616-1.004 1.22-1.004 1.782v2.549h6.34l-0.011-1.177-3.975 0.043-0.14 0.022v-0.13l-0.011-0.778c0-0.605 0.378-1.242 1.112-1.879l1.998-1.523c0.681-0.572 1.048-1.123 1.048-1.642v-1.642c0-1.296-1.080-1.933-3.262-1.933-2.139 0-3.197 0.832-3.197 2.538l0.032 1.912z"></path>
<path d="M10.104 21.003v-8.371c0-1.577-0.799-2.322-2.333-2.322h-2.527v1.188h0.67c0.745 0 1.166 0.205 1.166 0.907v8.597h3.024z"></path>
<path d="M22.987 9.825h-0.644l3.852-5.589c-0.36-0.285-0.731-0.548-1.113-0.789l0.131 0.099-4.529 6.159h-0.786l-3.023 4.164-2.925-4.153c-0.371 0-1.844-0.011-3.001-0.011l4.409 6.301-4.213 5.841h0.644l-3.852 5.6c0.502 0.406 1.026 0.767 1.572 1.107-0.066-0.044-0.131-0.088-0.196-0.142l-0.142-0.11 4.289-6.323h0.797l3.023-4.164 2.925 4.153c0.371 0 1.844 0.011 3.001 0.011l-4.409-6.301 4.191-5.852z"></path>
<path fill="none" stroke="#000" stroke-linejoin="miter" stroke-linecap="butt" stroke-miterlimit="4" stroke-width="1.0667" d="M31.467 16c0 7.953-6.447 14.4-14.4 14.4s-14.4-6.447-14.4-14.4c0-7.953 6.447-14.4 14.4-14.4s14.4 6.447 14.4 14.4z"></path>
</svg>
