<!-- Generated by IcoMoon.io -->
<svg version="1.1" xmlns="http://www.w3.org/2000/svg" width="33" height="32" viewBox="0 0 33 32">
<title>pariplay</title>
<path d="M7.242 25.413c3.225 0.742 6.513 1.111 9.808 1.099 3.296 0.012 6.584-0.356 9.808-1.099-1.866 1.804-5.558 3.031-9.808 3.031s-7.942-1.229-9.808-3.031zM9.48 23.857l-6.653-20.301h5.003l3.824 12.803 4.164-12.803h2.461l4.209 12.653 3.78-12.653h5.003l-6.654 20.301h-1.405c-0.73-0-1.443-0.246-2.040-0.703s-1.050-1.104-1.297-1.852l-1.592-4.814 4.16-0.129-5.396-3.61-2.823 8.554c-0.247 0.748-0.7 1.395-1.297 1.852s-1.31 0.703-2.040 0.703h-1.407z"></path>
</svg>
