<!-- Generated by IcoMoon.io -->
<svg version="1.1" xmlns="http://www.w3.org/2000/svg" width="33" height="32" viewBox="0 0 33 32">
<title>playngo</title>
<path d="M20.506 20.465h3.754l2.61-8.851h-3.754l-2.61 8.851z"></path>
<path d="M28.311 5.333h-17.774c-2.573 0-5.655 2.451-6.675 5.79-0.858 2.796-2.399 7.367-2.772 10.282-0.348 2.73 2.138 5.26 4.723 5.26 4.288 0 12.864 0 17.153 0 2.573 0 6.202-2.69 6.96-5.101 0.808-2.584 2.125-7.036 2.946-9.858 0.758-2.597-0.82-6.281-4.562-6.374zM9.506 24.732c-0.907 0-2.063 0-3.232 0-1.765 0-5.021-0.556-2.548-6.758l1.976-6.665c0.497-1.868 2.797-4.147 5.606-4.108 1.032 0.013 7.47 0 7.47 0l-1.131 4.214-0.037 0.132h-7.756l-0.659 2.213-1.33 4.399-0.099 0.331-0.559 1.882h4.052l0.671-2.239h-2.076l1.317-4.386h5.842l-1.802 6.652c-0.696 2.359-2.784 4.333-5.705 4.333zM31.071 11.415l-2.685 9.116c-0.696 2.359-3.319 4.2-5.705 4.2-0.907 0-2.063 0-3.232 0-1.939 0.013-4.748-0.967-2.548-6.758l1.976-6.665c0.696-2.359 3.045-4.412 5.854-4.373 1.032 0.013 3.866 0 3.866 0 2.014 0 3.194 2.359 2.474 4.479z"></path>
</svg>
