<svg xmlns="http://www.w3.org/2000/svg" width="31" height="30" viewBox="0 0 31 30" fill="none">
<g clip-path="url(#clip0_16092_38014)">
<path d="M19.2242 19.1864H22.7433L25.1903 10.8882H21.6712L19.2242 19.1864Z" fill="#d9d9d9"/>
<path d="M26.542 5H9.87882C7.46674 5 4.5769 7.29814 3.62139 10.4286C2.81736 13.0497 1.37244 17.3354 1.02286 20.0683C0.696589 22.6273 3.02711 25 5.45084 25C9.47098 25 17.5113 25 21.5314 25C23.9435 25 27.346 22.4783 28.0568 20.2174C28.8143 17.795 30.0494 13.6211 30.8185 10.9752C31.5293 8.54037 30.0494 5.08696 26.542 5ZM8.91166 23.1863C8.06102 23.1863 6.97733 23.1863 5.88199 23.1863C4.22732 23.1863 1.17435 22.6646 3.49321 16.8509L5.34596 10.6025C5.81207 8.85093 7.9678 6.71428 10.6013 6.75155C11.5684 6.76398 17.6045 6.75155 17.6045 6.75155L16.5441 10.7019L16.5091 10.8261H9.23793L8.62035 12.9006L7.37352 17.0248L7.2803 17.3354L6.75593 19.0994H10.5547L11.1839 17H9.23793L10.4731 12.8882H15.9498L14.2602 19.1242C13.6076 21.3354 11.65 23.1863 8.91166 23.1863ZM29.1289 10.7019L26.6119 19.2484C25.9594 21.4596 23.5007 23.1863 21.2634 23.1863C20.4128 23.1863 19.3291 23.1863 18.2337 23.1863C16.4159 23.1988 13.7824 22.2795 15.8449 16.8509L17.6977 10.6025C18.3502 8.3913 20.5526 6.46584 23.1861 6.5031C24.1532 6.51553 26.81 6.5031 26.81 6.5031C28.6977 6.5031 29.8047 8.71429 29.1289 10.7019Z" fill="#d9d9d9"/>
</g>
<defs fill="#d9d9d9">
<clipPath id="clip0_16092_38014" fill="#d9d9d9">
<rect width="30" height="30" fill="white" transform="translate(0.984375)"/>
</clipPath>
</defs>
</svg>