<!-- Generated by IcoMoon.io -->
<svg version="1.1" xmlns="http://www.w3.org/2000/svg" width="33" height="32" viewBox="0 0 33 32">
<title>pragmatic</title>
<path d="M17.581 31.711c-6.175 0-11.198-5.023-11.198-11.198s5.023-11.198 11.198-11.198 11.198 5.023 11.198 11.198c0 6.175-5.023 11.198-11.198 11.198zM17.581 10.692c-5.414 0-9.828 4.407-9.828 9.827s4.407 9.828 9.828 9.828c5.421 0 9.827-4.407 9.827-9.828s-4.413-9.827-9.827-9.827z"></path>
<path d="M14.723 6.841c0 0.027-0.034 0.034-0.041 0.007-0.308-1.343-3.098-6.956-3.386-6.846-0.329 0.117 0.274 5.88 0.713 7.58 0.007 0.027-0.027 0.034-0.041 0.014-1.946-3.104-4.187-3.043-4.619-2.981-0.027 0.007-0.027 0.041-0.007 0.048 2.686 1.384 3.982 5.339 4.105 5.729 0.007 0.014 0.021 0.021 0.041 0.014 1.494-0.905 3.207-1.48 5.044-1.645 0.014 0 0.027-0.014 0.021-0.027-0.082-0.35-0.857-3.982 0.631-6.504 0.014-0.021-0.007-0.048-0.028-0.041-0.384 0.13-2.351 1.302-2.433 4.653z"></path>
<path d="M23.503 15.591c0.468-1.243-0.599-2.796-2.384-3.469s-3.612-0.21-4.080 1.033c-0.468 1.243 0.599 2.796 2.384 3.469s3.612 0.21 4.080-1.033z"></path>
<path d="M9.42 23.556v-5.661h1.597c0.541 0 1.042 0.13 1.316 0.336 0.459 0.35 0.582 0.953 0.582 1.302 0 0.528-0.178 0.85-0.356 1.083-0.151 0.192-0.535 0.37-0.795 0.473-0.343 0.13-1.24 0.103-1.24 0.103l-0.007 2.371-1.097-0.007zM10.941 18.882h-0.418v1.295h0.418c0.308 0 0.48-0.055 0.651-0.171s0.26-0.274 0.26-0.473c0-0.199-0.082-0.356-0.254-0.473-0.171-0.123-0.343-0.178-0.658-0.178z"></path>
<path d="M19.178 17.751h0.987l2.358 5.805h-1.227l-0.48-1.179h-2.262l-0.48 1.179h-1.179l2.282-5.805zM20.473 21.294l-0.391-0.925c-0.123-0.315-0.267-0.727-0.425-1.234h-0.027c-0.185 0.61-0.322 1.021-0.397 1.234l-0.384 0.918h1.624v0.007z"></path>
<path d="M13.552 23.597v-5.702h1.13v4.646h1.569v1.055h-2.699z"></path>
<path d="M23.427 23.549v-2.494l-1.727-3.194h1.042l1.186 2.227h0.021l1.186-2.227h1.042l-1.755 3.194v2.494h-0.994z"></path>
</svg>
