<svg xmlns="http://www.w3.org/2000/svg" width="31" height="30" viewBox="0 0 31 30" fill="none">
<g clip-path="url(#clip0_16092_38009)">
<path d="M16.4826 29.7292C10.6938 29.7292 5.98438 25.0197 5.98438 19.231C5.98438 13.4422 10.6938 8.73279 16.4826 8.73279C22.2714 8.73279 26.9807 13.4422 26.9807 19.231C26.9807 25.0197 22.2714 29.7292 16.4826 29.7292ZM16.4826 10.0242C11.4069 10.0242 7.26933 14.1554 7.26933 19.2374C7.26933 24.3195 11.4005 28.4507 16.4826 28.4507C21.5645 28.4507 25.6957 24.3195 25.6957 19.2374C25.6957 14.1554 21.5582 10.0242 16.4826 10.0242Z" fill="#d9d9d9"/>
<path d="M13.8032 6.41347C13.8032 6.43917 13.7711 6.4456 13.7647 6.4199C13.4756 5.16064 10.8607 -0.101311 10.5908 0.00148566C10.2824 0.110708 10.8478 5.514 11.259 7.10735C11.2654 7.13305 11.2333 7.13949 11.2204 7.1202C9.39581 4.20975 7.29487 4.26757 6.89011 4.3254C6.86441 4.33182 6.86441 4.36395 6.88371 4.37037C9.40224 5.66819 10.6165 9.37532 10.7322 9.74154C10.7386 9.75438 10.7515 9.76082 10.7707 9.75439C12.1713 8.9063 13.7776 8.36662 15.4994 8.21242C15.5122 8.21242 15.5251 8.19957 15.5187 8.18672C15.4416 7.85905 14.7156 4.4539 16.1098 2.08955C16.1226 2.07029 16.1033 2.04459 16.084 2.051C15.7243 2.17309 13.8803 3.27174 13.8032 6.41347Z" fill="#d9d9d9"/>
<path d="M22.0342 14.6166C22.4734 13.4511 21.4727 11.9951 19.7992 11.3645C18.1257 10.7339 16.413 11.1676 15.9738 12.3331C15.5347 13.4986 16.5353 14.9546 18.2089 15.5852C19.8824 16.2157 21.595 15.7821 22.0342 14.6166Z" fill="#d9d9d9"/>
<path d="M8.83081 22.0836V16.7766H10.3278C10.8354 16.7766 11.3044 16.8987 11.5614 17.0914C11.9918 17.4191 12.1075 17.9846 12.1075 18.3122C12.1075 18.8069 11.9404 19.1089 11.7734 19.3272C11.632 19.5072 11.2722 19.6742 11.0281 19.7706C10.7069 19.8927 9.86522 19.8671 9.86522 19.8671L9.85877 22.0901L8.83081 22.0836ZM10.2571 17.7019H9.86522V18.9161H10.2571C10.5462 18.9161 10.7069 18.8647 10.8675 18.7556C11.0281 18.6462 11.1116 18.4986 11.1116 18.3122C11.1116 18.1259 11.0345 17.9781 10.8739 17.8689C10.7133 17.7532 10.5527 17.7019 10.2571 17.7019Z" fill="#d9d9d9"/>
<path d="M17.9793 16.6416H18.9045L21.1147 22.0835H19.9645L19.5148 20.9783H17.3946L16.9449 22.0835H15.8398L17.9793 16.6416ZM19.1935 19.9633L18.8273 19.096C18.7117 18.8003 18.5768 18.4148 18.429 17.9395H18.4033C18.2298 18.5113 18.1013 18.8968 18.0307 19.096L17.6708 19.9568H19.1935V19.9633Z" fill="#d9d9d9"/>
<path d="M12.7047 22.1221V16.7766H13.7644V21.1327H15.2352V22.1221H12.7047Z" fill="#d9d9d9"/>
<path d="M21.9626 22.0773V19.7387L20.3436 16.7447H21.3201L22.4316 18.8327H22.4509L23.5624 16.7447H24.5391L22.8942 19.7387V22.0773H21.9626Z" fill="#d9d9d9"/>
</g>
<defs fill="#d9d9d9">
<clipPath id="clip0_16092_38009" fill="#d9d9d9">
<rect width="30" height="30" fill="white" transform="translate(0.984375)"/>
</clipPath>
</defs>
</svg>