<!-- Generated by IcoMoon.io -->
<svg version="1.1" xmlns="http://www.w3.org/2000/svg" width="33" height="32" viewBox="0 0 33 32">
<title>pushgaming</title>
<path d="M4.265 3.2v0.126c0 0.85 0.034 1.702 0.1 2.533 0.066 0.842 0.169 1.693 0.302 2.534 0.138 0.86 0.312 1.713 0.516 2.535 0.212 0.858 0.459 1.711 0.737 2.534 0.265 0.785 0.566 1.571 0.893 2.337l0.036 0.084c0.016 0.038 0.033 0.077 0.049 0.113 0.374 0.855 0.792 1.708 1.244 2.535 0.372 0.682 0.783 1.37 1.22 2.044 0.108 0.165 0.216 0.328 0.324 0.49 0.54 0.8 1.127 1.589 1.744 2.342l0.157 0.192c0.108 0.126 0.215 0.256 0.324 0.383 0.386 0.451 0.795 0.901 1.215 1.34 0.263 0.273 0.535 0.547 0.808 0.812 0.173 0.168 0.347 0.332 0.525 0.498s0.353 0.324 0.532 0.481c0.609 0.54 1.247 1.063 1.894 1.554 0.035 0.027 0.070 0.054 0.107 0.080l0.075 0.052 0.074-0.054c0.034-0.025 0.069-0.052 0.101-0.078 0.646-0.489 1.284-1.010 1.896-1.554 0.193-0.171 0.385-0.347 0.572-0.521 0.163-0.151 0.325-0.303 0.485-0.459 0.28-0.273 0.55-0.547 0.804-0.812 0.427-0.445 0.851-0.912 1.258-1.389l0.022-0.026c0.087-0.103 0.174-0.205 0.262-0.31l0.157-0.191c0.611-0.748 1.198-1.537 1.743-2.343 0.124-0.184 0.246-0.369 0.366-0.555 0.411-0.636 0.807-1.176 1.178-1.852 0.072-0.132 0.144-0.262 0.214-0.39 0.366-0.664 0.712-1.292 1.030-2.021l0.077-0.176h-14.402l0.1 0.185c0.423 0.786 0.889 1.452 1.38 2.158l0.214 0.308h8.174c-0.226 0.363-0.466 0.604-0.711 0.965-0.282 0.413-0.582 0.828-0.89 1.232-0.201 0.265-0.421 0.543-0.655 0.826-0.315 0.384-0.645 0.766-0.982 1.137-0.153 0.169-0.322 0.348-0.517 0.552-0.061 0.063-0.121 0.126-0.183 0.189-0.572 0.586-1.166 1.145-1.765 1.663-0.607-0.524-1.2-1.083-1.769-1.666-0.062-0.061-0.121-0.124-0.182-0.186-0.162-0.169-0.32-0.337-0.477-0.505-0.355-0.388-0.699-0.786-1.023-1.182-0.216-0.26-0.43-0.529-0.654-0.824-0.29-0.379-0.576-0.772-0.851-1.172-0.305-0.445-0.598-0.896-0.869-1.341-0.498-0.815-0.954-1.654-1.367-2.515-0.099-0.201-0.194-0.404-0.291-0.62-0.283-0.622-0.544-1.259-0.777-1.892-0.302-0.816-0.571-1.661-0.8-2.513-0.221-0.82-0.409-1.666-0.558-2.514-0.135-0.784-0.242-1.583-0.315-2.379h19.862c-0.073 0.797-0.179 1.596-0.315 2.376-0.144 0.817-0.323 1.631-0.533 2.421h-15.415l0.048 0.161c0.25 0.842 0.536 1.54 0.867 2.347l0.058 0.142h16.474l0.053-0.156c0.273-0.806 0.508-1.502 0.713-2.337 0.204-0.823 0.378-1.676 0.516-2.536 0.135-0.842 0.237-1.694 0.302-2.533 0.067-0.831 0.1-1.684 0.1-2.534v-0.125h-25.6z"></path>
</svg>
