<!-- Generated by IcoMoon.io -->
<svg version="1.1" xmlns="http://www.w3.org/2000/svg" width="33" height="32" viewBox="0 0 33 32">
<title>quickspin</title>
<path d="M25.588 17.144v-8.164c0-2.395-0.801-3.478-1.72-4.215-1.046-0.833-2.904-1.566-6.813-1.566s-5.772 0.732-6.813 1.566c-0.915 0.737-1.72 1.819-1.72 4.215v8.329c-0 0.79 0.179 1.572 0.527 2.297s0.856 1.375 1.494 1.912l2.449 2.063c0.057 0.048 0.125 0.085 0.199 0.108s0.152 0.031 0.23 0.025c0.078-0.007 0.153-0.028 0.221-0.063s0.127-0.082 0.174-0.139l2.075-2.548c0.082-0.1 0.119-0.224 0.107-0.348s-0.075-0.239-0.176-0.324l-1.736-1.462c-0.375-0.316-0.674-0.699-0.878-1.125s-0.31-0.886-0.31-1.351v-5.659c0-1.715 0.722-2.45 0.996-2.644 0.314-0.223 0.982-0.754 3.162-0.754s2.848 0.532 3.162 0.754c0.274 0.194 0.996 0.929 0.996 2.644v5.338c0 0.868-0.306 1.713-0.874 2.411l-5.174 6.353c-0.082 0.1-0.12 0.224-0.108 0.348s0.075 0.24 0.176 0.324l3.636 3.064c0.206 0.173 0.475 0.269 0.755 0.269h4.882c0.112-0 0.221-0.031 0.313-0.089s0.163-0.139 0.204-0.233c0.041-0.095 0.049-0.198 0.024-0.298s-0.082-0.189-0.164-0.258l-3.874-3.261 3.341-4.1c0.804-0.988 1.239-2.186 1.239-3.416z"></path>
</svg>
