<!-- Generated by IcoMoon.io -->
<svg version="1.1" xmlns="http://www.w3.org/2000/svg" width="33" height="32" viewBox="0 0 33 32">
<title>quik</title>
<path d="M25.621 18.218c-0.807 0.608-1.559 1.173-2.32 1.746-0.209-0.286-0.378-0.575-0.602-0.81-0.296-0.31-0.257-0.511 0.015-0.85 6.044-7.534-0.8-18.935-10.241-17.024-6.384 1.292-9.988 8.599-7.362 14.583 2.246 5.119 8.275 7.685 13.422 5.554 0.341-0.141 0.52-0.119 0.748 0.202 0.92 1.292 1.872 2.56 2.829 3.855 0.635-0.478 1.279-0.922 1.872-1.427 0.359-0.304 0.522-0.225 0.776 0.126 1.642 2.263 3.307 4.509 4.964 6.761 0.041-0.018 0.083-0.035 0.124-0.053-1.405-4.209-2.809-8.419-4.227-12.665l0.002 0.002zM14.633 16.234c-2.52 0-4.535-2.047-4.535-4.603 0-2.538 2.052-4.612 4.551-4.601 2.496 0.011 4.572 2.116 4.559 4.617-0.013 2.536-2.059 4.588-4.575 4.588z"></path>
</svg>
