<!-- Generated by IcoMoon.io -->
<svg version="1.1" xmlns="http://www.w3.org/2000/svg" width="33" height="32" viewBox="0 0 33 32">
<title>rabcat</title>
<path d="M5.313 18.045c0.033 0.273 0.128 0.522 0.259 0.766 0.229 0.438 0.51 0.845 0.805 1.233 0.502 0.669 1.045 1.309 1.599 1.939 0.557 0.632 1.124 1.255 1.691 1.877 0.067 0.073 0.133 0.146 0.2 0.22 0.495 0.548 0.961 1.118 1.428 1.689l0.001 0.002c0.024 0.030 0.048 0.059 0.072 0.088 0.448 0.551 0.906 1.092 1.46 1.551 0.453 0.373 0.952 0.672 1.504 0.887 0.92 0.359 1.886 0.467 2.866 0.499 0.349 0.010 0.699 0.005 1.048-0.016 0.527-0.032 1.048-0.084 1.564-0.192 0.677-0.142 1.313-0.38 1.894-0.742 0.764-0.477 1.354-1.131 1.916-1.808 0.126-0.151 0.25-0.306 0.374-0.461 0.142-0.177 0.285-0.355 0.431-0.528 0.435-0.518 0.889-1.017 1.344-1.516 0.116-0.128 0.232-0.255 0.349-0.383 0.551-0.606 1.103-1.215 1.629-1.844 0.63-0.758 1.258-1.516 1.747-2.369 0.215-0.375 0.352-0.761 0.352-1.204-0.007-3.547-0.006-7.093-0.006-10.639v-0.040c0-0.873 0-1.747 0-2.621 0-0.013 0.002-0.028 0.003-0.042 0.005-0.046 0.010-0.095-0.033-0.115-0.066-0.026-0.128 0.026-0.177 0.073-0.006 0.006-0.013 0.012-0.020 0.018-0.013 0.012-0.027 0.023-0.038 0.037-0.186 0.211-0.389 0.407-0.593 0.604-0.133 0.129-0.267 0.258-0.396 0.391-0.439 0.454-0.89 0.9-1.34 1.343-0.281 0.275-0.558 0.553-0.835 0.831-0.302 0.303-0.603 0.605-0.908 0.903-0.237 0.231-0.469 0.466-0.701 0.702-0.3 0.304-0.6 0.607-0.909 0.902-0.139 0.134-0.139 0.134-0.317 0.066-0.032-0.012-0.063-0.024-0.095-0.036-0.108-0.041-0.216-0.082-0.325-0.119-0.751-0.255-1.518-0.443-2.301-0.585-0.843-0.152-1.695-0.247-2.552-0.273-0.726-0.024-1.452-0.021-2.178 0.039-0.592 0.050-1.182 0.115-1.766 0.218-0.98 0.173-1.94 0.412-2.863 0.782-0.087 0.037-0.15 0.021-0.218-0.042-0.113-0.104-0.218-0.214-0.323-0.323-0.067-0.070-0.135-0.141-0.204-0.209-0.228-0.226-0.454-0.453-0.681-0.68s-0.453-0.454-0.681-0.679c-0.073-0.072-0.146-0.145-0.219-0.218-0.432-0.429-0.865-0.858-1.293-1.294-0.149-0.151-0.301-0.301-0.453-0.45-0.051-0.050-0.102-0.1-0.153-0.15-0.247-0.243-0.491-0.489-0.735-0.735-0.339-0.342-0.678-0.683-1.025-1.017-0.057-0.055-0.112-0.105-0.199-0.097v13.772zM26.283 16.999l-1.736 2.763c-0.049 0.077-0.098 0.154-0.147 0.232-0.138 0.217-0.276 0.434-0.407 0.652-0.052 0.089-0.12 0.129-0.218 0.155-0.785 0.204-1.57 0.41-2.356 0.616-0.214 0.056-0.429 0.112-0.644 0.169-0.124 0.033-0.248 0.065-0.372 0.097s-0.248 0.064-0.373 0.097l-0.003 0.001c-0.040 0.010-0.078 0.020-0.131 0.007 2.124-1.604 4.242-3.205 6.36-4.807l0.007-0.005c0.005 0.011 0.011 0.018 0.019 0.024zM12.956 20.065c-1.362-1.029-2.718-2.052-4.077-3.079-0.011 0.043 0.004 0.066 0.017 0.086 0.004 0.006 0.007 0.011 0.010 0.016 0.753 1.196 1.506 2.393 2.257 3.592 0.046 0.071 0.106 0.097 0.183 0.118 0.576 0.15 1.152 0.3 1.728 0.451s1.152 0.302 1.727 0.451c0.033 0.008 0.066 0.018 0.099 0.028 0.101 0.030 0.208 0.061 0.345 0.067-0.767-0.579-1.53-1.155-2.291-1.73z"></path>
</svg>
