<!-- Generated by IcoMoon.io -->
<svg version="1.1" xmlns="http://www.w3.org/2000/svg" width="33" height="32" viewBox="0 0 33 32">
<title>realdealer</title>
<path d="M17.085 22.632c2.026 0 4.053 0.004 6.079-0.003 0.14 0 0.182 0.041 0.179 0.218-0.011 0.494-0.008 0.992 0 1.487 0.003 0.159-0.034 0.201-0.162 0.201-3.005-0.003-6.010-0.003-9.014-0.003-1.057 0-2.116-0.004-3.172 0.003-0.129 0-0.165-0.041-0.162-0.201 0.008-0.501 0.008-1.003 0-1.504-0.003-0.159 0.034-0.201 0.162-0.201 2.029 0.003 4.059 0.003 6.091 0.003z"></path>
<path d="M17.141 20.872c0.409 0 0.818-0 1.226-0 1.635-0.001 3.272-0.001 4.906 0.007 0.131 0 0.173-0.055 0.196-0.204 0.288-1.909 0.581-3.814 0.875-5.719 0.252-1.636 0.506-3.271 0.763-4.903 0.020-0.111-0.011-0.142-0.087-0.166-0.063-0.020-0.126-0.040-0.189-0.061-0.080-0.026-0.16-0.052-0.241-0.077-0.782-0.246-1.564-0.491-2.346-0.737-1.563-0.492-3.127-0.983-4.69-1.472-0.201-0.066-0.408-0.090-0.62-0.059-0.175 0.024-0.343 0.084-0.51 0.143-0.073 0.026-0.146 0.052-0.219 0.075-1.127 0.353-2.252 0.705-3.378 1.056s-2.251 0.704-3.378 1.056l-0.008 0.002c-0.181 0.057-0.272 0.086-0.308 0.157s-0.018 0.187 0.019 0.419l0 0.002c0.049 0.31 0.099 0.62 0.148 0.929 0.158 0.991 0.316 1.981 0.47 2.974 0.23 1.484 0.456 2.967 0.682 4.449l0 0.001c0.089 0.587 0.179 1.173 0.268 1.76 0.053 0.342 0.078 0.366 0.355 0.366h6.065zM16.322 14.233v4.215c0 0.062 0 0.128-0.003 0.19-0.008 0.225-0.061 0.311-0.24 0.318l-0.049 0.002c-0.238 0.010-0.479 0.020-0.716-0.012-0.087-0.013-0.176-0.010-0.265-0.008-0.033 0.001-0.066 0.002-0.099 0.002-0.168 0-0.335-0.001-0.503-0.002-0.391-0.002-0.783-0.004-1.174 0.005-0.103 0.002-0.207 0.006-0.31 0.009-0.208 0.007-0.416 0.014-0.623 0.012-0.224-0.003-0.291-0.066-0.333-0.335-0.12-0.781-0.24-1.562-0.361-2.342l-0-0.002c-0.12-0.78-0.24-1.56-0.36-2.341-0.041-0.265-0.082-0.531-0.123-0.797-0.076-0.489-0.151-0.979-0.229-1.468-0.053-0.339-0.036-0.387 0.232-0.47 1.649-0.505 3.301-1.010 4.95-1.511 0.201-0.062 0.201-0.059 0.201 0.197v4.336c0.003 0.004 0.003 0.004 0.006 0.004zM17.912 13.161c0.001-1.11 0.001-2.22-0.003-3.33 0-0.152 0.017-0.197 0.151-0.156 1.711 0.533 3.424 1.058 5.137 1.584 0.115 0.035 0.14 0.080 0.115 0.232-0.21 1.31-0.411 2.624-0.612 3.938-0.162 1.065-0.324 2.133-0.484 3.198-0.045 0.287-0.089 0.342-0.321 0.335-1.272-0.028-2.541-0.024-3.813-0.021-0.134 0-0.171-0.045-0.171-0.214v-4.457c0-0.37 0-0.74 0-1.11z"></path>
<path d="M2.579 16.564v-1.161c0.083-2.091 0.571-4.082 1.541-5.939 2.079-3.978 5.31-6.502 9.674-7.566 0.959-0.234 1.941-0.342 2.928-0.364h0.664c2.048 0.050 4.003 0.508 5.856 1.387 1.456 0.69 2.757 1.6 3.909 2.725 1.687 1.655 2.906 3.603 3.645 5.848 0.532 1.619 0.767 3.283 0.706 4.987-0.132 3.658-1.458 6.83-3.97 9.486-1.996 2.11-4.433 3.481-7.268 4.135-1.001 0.232-2.016 0.345-3.041 0.364-0.138 0-0.278 0-0.416-0.003-1.243-0.022-2.468-0.19-3.667-0.524-2.31-0.646-4.337-1.788-6.074-3.44-2.021-1.92-3.369-4.237-4.058-6.932-0.254-0.985-0.392-1.989-0.43-3.004zM4.253 15.989c-0.017 6.982 5.718 12.807 12.798 12.791 6.865 0.019 12.655-5.575 12.773-12.562 0.121-7.117-5.63-12.97-12.71-13.014-6.972-0.044-12.845 5.616-12.861 12.785z"></path>
</svg>
