<!-- Generated by IcoMoon.io -->
<svg version="1.1" xmlns="http://www.w3.org/2000/svg" width="33" height="32" viewBox="0 0 33 32">
<title>redrake</title>
<path d="M18.353 26.579h2.374l0.83-5.38c0.089-0.5 0.157-0.995 0.212-1.487 0.031-0.28 0.061-0.561 0.092-0.844 0.023-0.214 0.046-0.428 0.069-0.643l0.081-0.055 1.711 8.404 5.922 0.009-2.758-8.404c1.16-0.428 2.054-1.097 2.69-2.008 0.631-0.906 1.038-1.927 1.216-3.050 0.007-0.060 0.014-0.119 0.021-0.178 0.027-0.223 0.052-0.435 0.072-0.64 0.030-0.258 0.042-0.513 0.042-0.762 0-1.017-0.182-1.855-0.538-2.516-0.36-0.661-0.856-1.186-1.499-1.567-0.64-0.385-1.406-0.657-2.3-0.817s-1.868-0.241-2.918-0.241h-5.273l-0.189 1.218c0.297 0.311 0.551 0.662 0.763 1.051l0.002 0.003c0.43 0.799 0.627 1.769 0.627 2.87 0 0.273-0.014 0.554-0.046 0.841-0.020 0.203-0.045 0.415-0.071 0.628l-0.023 0.198-0.002 0.015-0.002 0.015c-0.195 1.23-0.643 2.357-1.34 3.359-0.418 0.599-0.932 1.104-1.535 1.514l-0.322 2.078 2.095 6.388zM23.751 15.523c-0.305 0.14-0.635 0.212-0.991 0.212l-0.347-0.025 0.775-4.977h0.212c0.627 0 1.123 0.148 1.487 0.453 0.369 0.305 0.551 0.775 0.551 1.419 0 0.089-0.004 0.178-0.013 0.267-0.002 0.014-0.004 0.028-0.006 0.042-0.011 0.080-0.022 0.164-0.037 0.254-0.051 0.322-0.152 0.64-0.292 0.949-0.144 0.313-0.326 0.589-0.551 0.83-0.22 0.241-0.483 0.432-0.788 0.576z"></path>
<path d="M16.748 17.032c0.283-0.258 0.534-0.544 0.754-0.86 0.631-0.906 1.038-1.927 1.216-3.050l0.024-0.205c0.025-0.213 0.050-0.416 0.069-0.613 0.030-0.258 0.042-0.513 0.042-0.762 0-1.017-0.182-1.855-0.538-2.516-0.080-0.147-0.167-0.287-0.261-0.421l-1.307 8.427z"></path>
<path d="M15.267 26.574l0.738-4.757 1.56 4.757h-2.298z"></path>
<path d="M11.648 26.574l-1.711-8.404-0.080 0.055c-0.055 0.5-0.106 0.995-0.161 1.487s-0.123 0.987-0.212 1.487l-0.83 5.38h-5.46l3.13-20.179h5.273c1.051 0 2.025 0.080 2.918 0.241s1.66 0.432 2.3 0.817c0.644 0.381 1.139 0.906 1.5 1.567 0.356 0.661 0.538 1.499 0.538 2.516 0 0.25-0.013 0.504-0.042 0.762-0.026 0.258-0.059 0.53-0.093 0.818-0.178 1.122-0.585 2.143-1.216 3.050-0.635 0.911-1.529 1.58-2.69 2.008l2.753 8.395h-5.917zM10.687 15.735c0.356 0 0.686-0.072 0.991-0.212 0.305-0.144 0.567-0.335 0.788-0.576 0.224-0.242 0.406-0.517 0.55-0.83 0.14-0.309 0.242-0.627 0.292-0.949 0.017-0.106 0.030-0.203 0.038-0.297 0.008-0.089 0.013-0.178 0.013-0.267 0-0.644-0.182-1.114-0.551-1.419-0.364-0.305-0.86-0.453-1.487-0.453h-0.212l-0.775 4.977 0.352 0.025z"></path>
</svg>
