<!-- Generated by IcoMoon.io -->
<svg version="1.1" xmlns="http://www.w3.org/2000/svg" width="33" height="32" viewBox="0 0 33 32">
<title>relax</title>
<path d="M30.066 8.889c-0.245 0-0.489 0-0.734 0-0.067 0.168-0.243 0.139-0.368 0.198-0.942 0.448-1.406 1.304-1.257 2.333 0.119 0.82 0.857 1.562 1.7 1.708 0.948 0.165 1.816-0.294 2.295-1.2 0.074-0.14 0.059-0.35 0.272-0.397 0-0.245 0-0.489 0-0.734-0.137-1.136-0.73-1.815-1.908-1.908z"></path>
<path d="M18.907 13.145c0.985-0.049 1.775-0.762 1.952-1.762 0.202-1.137-0.413-1.988-1.803-2.494-0.245 0-0.489 0-0.734 0-0.104 0.201-0.332 0.174-0.497 0.263-0.906 0.489-1.356 1.505-1.078 2.478 0.267 0.936 1.163 1.564 2.16 1.515z"></path>
<path d="M31.816 20.702c-0.316-0.988-1.25-1.62-2.243-1.515-1.010 0.106-1.816 0.937-1.878 1.935-0.068 1.089 0.563 1.968 1.604 2.234 0.966 0.247 1.963-0.256 2.419-1.199 0.080-0.166 0.042-0.399 0.257-0.496 0-0.196 0-0.391 0-0.587-0.186-0.066-0.118-0.244-0.159-0.372z"></path>
<path d="M24.175 14.017c-1.169 0.010-2.082 0.94-2.075 2.112s0.925 2.102 2.087 2.111c1.178 0.009 2.146-0.976 2.12-2.159-0.025-1.166-0.964-2.075-2.132-2.064z"></path>
<path d="M18.782 19.183c-1.156-0.001-2.086 0.921-2.099 2.079-0.013 1.204 0.912 2.149 2.1 2.146 1.15-0.003 2.095-0.928 2.119-2.075 0.025-1.16-0.951-2.149-2.121-2.15z"></path>
<path d="M11.79 17.324c1.884-0.477 2.742-1.745 2.868-3.516 0.208-2.901-0.977-4.43-3.637-4.77-0.114-0.015-0.25 0.015-0.286-0.15-0.049 0-0.098 0-0.147 0-2.74 0-5.48 0-8.221 0-0.018 0.043-0.023 0.088-0.014 0.134-0.223 0.227-0.109 0.511-0.11 0.765-0.011 3.739-0.018 7.479-0.008 11.218 0.002 0.726-0.314 1.664 0.127 2.125 0.479 0.5 1.438 0.090 2.18 0.18 0.618 0.074 0.732-0.212 0.72-0.761-0.032-1.466-0.004-2.933-0.015-4.399-0.002-0.308 0.020-0.499 0.418-0.487 0.928 0.027 1.858 0.026 2.785-0 0.346-0.009 0.456 0.191 0.59 0.433 0.626 1.131 1.376 2.211 1.865 3.398 0.609 1.478 1.535 2.138 3.121 1.814 0.347-0.071 0.837 0.18 1.027-0.134 0.201-0.33-0.221-0.653-0.395-0.956-0.935-1.625-1.894-3.236-2.869-4.892zM10.088 15.045c-0.192 0.029-0.388 0.047-0.583 0.049-0.609 0.006-1.219 0.002-1.828 0.002 0 0.010 0 0.020 0 0.029-0.659 0-1.317-0.016-1.976 0.006-0.352 0.012-0.464-0.114-0.457-0.461 0.018-0.927 0.015-1.854 0.001-2.78-0.004-0.284 0.086-0.382 0.374-0.377 1.438 0.025 2.88-0.023 4.314 0.066 1.211 0.076 1.669 0.613 1.68 1.69 0.011 1.082-0.44 1.61-1.526 1.775z"></path>
</svg>
