<svg xmlns="http://www.w3.org/2000/svg" width="31" height="30" viewBox="0 0 31 30" fill="none">
<path d="M28.1869 8.33329C27.9576 8.33329 27.7282 8.33329 27.4987 8.33329C27.4356 8.49038 27.2711 8.46318 27.1536 8.51906C26.2704 8.93939 25.8356 9.74181 25.9751 10.7058C26.0866 11.4745 26.7787 12.1701 27.5691 12.3073C28.4579 12.4617 29.2716 12.0315 29.7207 11.1826C29.7899 11.0515 29.7762 10.8546 29.9761 10.8106C29.9761 10.5812 29.9761 10.3518 29.9761 10.1224C29.8479 9.05773 29.2922 8.42076 28.1869 8.33329Z" fill="#d9d9d9"/>
<path d="M17.7251 12.3235C18.6482 12.2777 19.3891 11.6093 19.5554 10.6718C19.7452 9.60541 19.1682 8.80766 17.8649 8.33329C17.6355 8.33329 17.4061 8.33329 17.1767 8.33329C17.0795 8.52206 16.8655 8.49644 16.711 8.57984C15.862 9.03818 15.4399 9.99034 15.7003 10.9034C15.9503 11.7805 16.7906 12.3698 17.7251 12.3235Z" fill="#d9d9d9"/>
<path d="M29.8271 19.4081C29.5304 18.4822 28.6549 17.8892 27.7241 17.9874C26.7769 18.0872 26.0217 18.8656 25.9636 19.8017C25.8999 20.8227 26.4916 21.6466 27.4674 21.8957C28.3729 22.1272 29.3081 21.6554 29.7349 20.7719C29.8101 20.6161 29.7747 20.3974 29.9762 20.3069C29.9762 20.1234 29.9762 19.9399 29.9762 19.7564C29.8017 19.6941 29.8657 19.5281 29.8271 19.4081Z" fill="#d9d9d9"/>
<path d="M22.6638 13.1405C21.5681 13.1502 20.7118 14.0216 20.7185 15.1203C20.7248 16.2199 21.5861 17.0912 22.6751 17.0994C23.7796 17.1077 24.687 16.1843 24.663 15.0757C24.6396 13.9822 23.7596 13.1308 22.6638 13.1405Z" fill="#d9d9d9"/>
<path d="M17.6079 17.9844C16.5245 17.9839 15.6523 18.8479 15.6403 19.9334C15.6283 21.0622 16.4952 21.9482 17.6095 21.9454C18.6879 21.9427 19.5734 21.0756 19.596 20.0001C19.619 18.9124 18.7042 17.985 17.6079 17.9844Z" fill="#d9d9d9"/>
<path d="M11.0527 16.2415C12.8188 15.7943 13.6231 14.6052 13.7417 12.9454C13.9364 10.2256 12.8258 8.79234 10.3322 8.47341C10.2254 8.45971 10.0975 8.48702 10.0639 8.33301C10.0183 8.33301 9.97234 8.33301 9.92639 8.33301C7.35726 8.33301 4.78846 8.33301 2.21933 8.33301C2.20235 8.37342 2.19802 8.41516 2.20601 8.45819C1.99727 8.67102 2.10347 8.93704 2.1028 9.17519C2.09215 12.6807 2.08549 16.1863 2.09515 19.6919C2.09714 20.3727 1.80085 21.2522 2.214 21.6842C2.66277 22.1534 3.56199 21.7686 4.25746 21.8526C4.83641 21.9224 4.94361 21.6539 4.93228 21.1392C4.90266 19.7651 4.92829 18.3899 4.91863 17.0152C4.91664 16.7264 4.93694 16.5474 5.31048 16.5585C6.18039 16.5842 7.05198 16.5824 7.92189 16.5584C8.24649 16.5495 8.34969 16.7374 8.47521 16.9641C9.06214 18.0247 9.76494 19.0367 10.2234 20.1496C10.794 21.5351 11.6626 22.1544 13.1491 21.8499C13.4747 21.7832 13.9334 22.0186 14.1122 21.7242C14.3003 21.4147 13.9054 21.1121 13.742 20.8276C12.8657 19.3042 11.9665 17.7942 11.0527 16.2415ZM9.45798 14.1044C9.27754 14.1318 9.09411 14.1488 8.91166 14.1507C8.34038 14.1565 7.76909 14.1528 7.19779 14.1528C7.19779 14.162 7.19779 14.1711 7.19779 14.1803C6.58023 14.1803 5.96266 14.1654 5.34576 14.1863C5.01551 14.1975 4.91064 14.0799 4.91729 13.7545C4.93461 12.8859 4.93128 12.0167 4.91796 11.148C4.91398 10.882 4.99886 10.79 5.26819 10.7947C6.61653 10.8182 7.96851 10.7727 9.31283 10.8566C10.4484 10.9275 10.8779 11.4315 10.8882 12.4405C10.8985 13.4553 10.4754 13.9503 9.45798 14.1044Z" fill="#d9d9d9"/>
</svg>