<!-- Generated by IcoMoon.io -->
<svg version="1.1" xmlns="http://www.w3.org/2000/svg" width="33" height="32" viewBox="0 0 33 32">
<title>revolver</title>
<path d="M33.046 14.659c-0.245-2-0.837-3.938-1.746-5.719-2.307-0.515-4.477-1.548-6.36-3.028s-3.431-3.371-4.537-5.54c-1.108-0.247-2.238-0.372-3.372-0.372-1.18 0.001-2.356 0.135-3.507 0.401-1.097 2.14-2.624 4.008-4.479 5.476s-3.992 2.502-6.265 3.031c-0.883 1.718-1.469 3.583-1.734 5.512 3.002 3.144 4.685 7.398 4.681 11.831-0.001 0.801-0.056 1.601-0.165 2.395 1.323 1.386 2.868 2.521 4.566 3.355 2.16-1.064 4.52-1.615 6.91-1.615s4.75 0.552 6.91 1.615c1.79-0.884 3.408-2.103 4.775-3.596-0.089-0.714-0.134-1.433-0.136-2.153-0.004-4.317 1.594-8.47 4.459-11.592zM17.046 29.096c-2.341 0-4.629-0.722-6.575-2.075s-3.463-3.277-4.359-5.527c-0.896-2.25-1.131-4.727-0.674-7.116s1.583-4.584 3.238-6.307 3.763-2.896 6.059-3.371c2.296-0.475 4.675-0.232 6.838 0.701s4.011 2.511 5.311 4.536c1.3 2.026 1.994 4.407 1.994 6.843 0 3.266-1.246 6.398-3.465 8.708s-5.227 3.608-8.365 3.609h-0.002z"></path>
<path d="M14.756 22.945l-1.97-5.788v-1.125h1.751v-3.947h-2.252v10.86h-1.782v-12.439h4.739c0.719 0 1.079 0.38 1.079 1.138v4.528c0 0.737-0.355 1.117-1.065 1.139h-0.615l1.97 5.568v0.065h-1.855z"></path>
<path d="M22.53 22.945h-3.765c-0.708 0-1.063-0.38-1.063-1.138v-10.162c0-0.76 0.36-1.14 1.079-1.138h3.738c0.729 0 1.095 0.376 1.096 1.128v2.649h-1.799v-2.199h-2.322v9.282h2.332v-3.5h-1.33v-1.58h3.137v5.521c0 0.76-0.368 1.14-1.104 1.138z"></path>
</svg>
