<!-- Generated by IcoMoon.io -->
<svg version="1.1" xmlns="http://www.w3.org/2000/svg" width="32" height="32" viewBox="0 0 32 32">
<title>rogue</title>
<path fill="#000" opacity="0.573" d="M17.515 11.057l-0.054 0.026c-0.003 0.002-0.007 0.002-0.010 0.002s-0.007-0.002-0.009-0.004c-0.003-0.002-0.004-0.006-0.005-0.009s-0.001-0.007 0.001-0.010c0.524-1.404 1.035-2.812 1.574-4.21 0.031-0.067 0.060-0.134 0.086-0.203 0.734-1.918 1.484-3.829 2.227-5.743 0.039-0.101 0.066-0.175 0.080-0.221l0.056-0.129 0.002 0.009c0 0.001 0.001 0.002 0.002 0.002s0.002 0.001 0.002 0.001 0.002 0 0.003-0 0.002-0.001 0.002-0.002l0.384-0.561c0.001-0.001 0.002-0.002 0.003-0.002s0.003-0 0.004 0c0.001 0 0.002 0.001 0.003 0.002s0.001 0.002 0.001 0.004c-0 0.009-0.003 0.020-0.007 0.032-0.574 1.494-1.149 2.988-1.724 4.482-0.047 0.123-0.096 0.246-0.144 0.368-0.761 1.903-1.525 3.805-2.292 5.705-0.002 0.004-0.012 0.036-0.032 0.096-0.015 0.044-0.040 0.085-0.054 0.124-0.031 0.082-0.063 0.163-0.098 0.244z"></path>
<path fill="#000" d="M21.46 0.553l-0.056 0.13c-0.056 0.086-0.118 0.166-0.186 0.242 0.015-0.066 0.038-0.131 0.068-0.194 0.001-0.002 0.001-0.004 0.001-0.006s-0.001-0.004-0.003-0.006c-0.001-0.002-0.003-0.003-0.005-0.003s-0.004-0-0.006 0c-0.034 0.014-0.156 0.237-0.186 0.283-0.877 1.324-1.753 2.649-2.627 3.975l-1.027 1.554c-0.066 0.069-0.124 0.143-0.174 0.223-0.062 0.098-0.093 0.147-0.094 0.148-1.393 2.059-2.788 4.117-4.186 6.173-0.107 0.158-0.193 0.284-0.258 0.378-0.265 0.386-0.525 0.775-0.791 1.16-0.004 0.006-0.006 0.012-0.007 0.018s-0.003 0.011-0.008 0.016c-0.046 0.042-0.089 0.118-0.122 0.172-0.020 0.032-0.048 0.072-0.085 0.119-0.033 0.042-0.062 0.087-0.086 0.136-0.003 0.007-0.009 0.011-0.015 0.014-0.014 0.005-0.018 0.016-0.015 0.032 0.002 0.007-0 0.012-0.006 0.016-0.013 0.009-0.025 0.021-0.034 0.035-0.15 0.223-0.299 0.445-0.449 0.668-0.017 0.026-0.032 0.063-0.043 0.112-0.002 0.006 0.001 0.009 0.007 0.009l0.148 0.001 4.253 0.046c0.001 0.004-0.001 0.012-0.005 0.024-0.798 2.415-2.099 6.365-3.904 11.848-0.019 0.059-0.061 0.184-0.126 0.374-0.080 0.238-0.157 0.477-0.23 0.718l-0.141 0.411c-0.002-0.003-0.004-0.005-0.006-0.006s-0.003-0-0.003 0.001c-0.23 0.605-0.464 1.209-0.7 1.812-0.025 0.065-0.046 0.143-0.073 0.213-0.002 0.006-0.006 0.011-0.012 0.014l-0.020 0.012c1.537-4.742 3.072-9.485 4.606-14.229 0.097-0.299 0.176-0.567 0.272-0.839 0.008-0.024 0-0.034-0.025-0.032s-0.045-0.006-0.067-0.007c-1.546-0.085-3.092-0.169-4.639-0.255-0.076-0.004-0.151-0.006-0.226-0.004-0.001 0-0.002-0-0.003-0.001s-0.002-0.001-0.002-0.002-0.001-0.002-0.001-0.003 0-0.002 0.001-0.003l11.392-15.777c0.001-0.002 0.003-0.003 0.005-0.003s0.004-0 0.006 0.001c0.002 0.001 0.003 0.003 0.004 0.005s0.001 0.004-0 0.006l-0.114 0.273z"></path>
<path fill="#000" d="M21.404 0.683c-0.014 0.046-0.041 0.12-0.080 0.221-0.743 1.914-1.493 3.825-2.227 5.743-0.026 0.069-0.055 0.136-0.086 0.203-0.003-0.011-0.002-0.023 0.004-0.036 0.728-1.917 1.433-3.844 2.147-5.766l0.057-0.125c0.068-0.076 0.13-0.156 0.186-0.242z"></path>
<path fill="#000" d="M21.218 0.924l-0.057 0.125c-0.034 0.036-0.085 0.103-0.153 0.203-0.836 1.224-1.669 2.45-2.5 3.677-0.012 0.018-0.028 0.033-0.048 0.045 0.874-1.326 1.749-2.651 2.627-3.975 0.030-0.046 0.152-0.269 0.186-0.283 0.002-0.001 0.004-0.001 0.006-0s0.004 0.002 0.005 0.003c0.002 0.002 0.002 0.003 0.003 0.006s0 0.004-0.001 0.006c-0.030 0.063-0.053 0.128-0.068 0.194z"></path>
<path fill="#000" d="M21.161 1.049c-0.715 1.922-1.419 3.849-2.147 5.766-0.005 0.013-0.006 0.025-0.004 0.036-0.539 1.398-1.050 2.806-1.574 4.21-0.001 0.003-0.002 0.007-0.001 0.010s0.003 0.007 0.005 0.009c0.003 0.002 0.006 0.004 0.009 0.004s0.007 0 0.010-0.002l0.054-0.026-0.253 0.726-0.067 0.001c-0.007 0-0.011 0.003-0.014 0.009l-0.305 0.751c-0.001 0.001-0.001 0.003-0.001 0.004s0.001 0.003 0.001 0.004c0.001 0.001 0.002 0.002 0.003 0.003s0.002 0.001 0.004 0.001c1.005 0.001 1.912-0.009 3.015-0.007 0.304 0.001 0.515 0.003 0.635 0.007-0.010 0.024-0.021 0.047-0.033 0.070-1.726 3.25-3.452 6.5-5.176 9.751-0.844 1.59-1.438 2.706-1.783 3.345-0.038 0.071-0.063 0.123-0.075 0.155-0.208 0.361-0.404 0.728-0.588 1.102-0.010 0.020-0.018 0.046-0.025 0.078l-0.47 0.846c-0.015 0.003-0.020 0.002-0.028 0.017-0.096 0.176-0.174 0.316-0.235 0.418-0.536 0.907-1.069 1.816-1.6 2.726 0.011-0.062 0.030-0.134 0.058-0.215 0.091-0.268 0.253-0.758 0.486-1.469l0.141-0.411c0.161-0.415 0.328-0.827 0.488-1.241 1.513-3.898 3.025-7.797 4.537-11.696 0.003-0.007 0-0.011-0.007-0.011l-0.754-0.016-4.253-0.046v-0.008c0-0.004 0.001-0.008 0.003-0.011l7.24-10.966c0.020-0.012 0.036-0.027 0.048-0.045 0.831-1.228 1.664-2.453 2.5-3.677 0.068-0.099 0.119-0.167 0.153-0.203zM15.475 15.842c0-0.001 0.001-0.001 0.001-0.002s0-0.002-0-0.002-0.001-0.001-0.001-0.002-0.001-0.001-0.002-0.001l-0.004-0.002c-0.001-0.001-0.003-0.001-0.004-0s-0.002 0.001-0.003 0.003l-0.066 0.127c-0 0.001-0.001 0.001-0.001 0.002s0 0.001 0 0.002 0.001 0.001 0.001 0.002 0.001 0.001 0.002 0.001l0.004 0.002c0.001 0.001 0.003 0.001 0.004 0s0.002-0.001 0.003-0.003l0.067-0.127z"></path>
<path fill="#000" d="M17.433 6.529l-6.213 9.411c-0.002 0.003-0.003 0.007-0.003 0.011v0.008l-0.148-0.001c-0.006 0-0.009-0.003-0.007-0.009 0.012-0.049 0.026-0.086 0.043-0.112 0.15-0.223 0.299-0.445 0.449-0.668 0.009-0.014 0.021-0.025 0.034-0.035 0.006-0.004 0.008-0.009 0.006-0.016-0.004-0.016 0.001-0.026 0.015-0.032 0.007-0.003 0.012-0.007 0.015-0.014 0.024-0.049 0.053-0.094 0.086-0.136 0.037-0.047 0.065-0.086 0.085-0.119 0.033-0.054 0.076-0.13 0.122-0.172 0.005-0.004 0.007-0.009 0.008-0.016s0.003-0.013 0.007-0.018c0.266-0.385 0.526-0.774 0.791-1.16 0.065-0.094 0.151-0.22 0.258-0.378 1.398-2.056 2.793-4.114 4.186-6.173 0.001-0.001 0.032-0.050 0.094-0.148 0.050-0.080 0.108-0.154 0.174-0.223z"></path>
<path fill="#000" d="M20.792 12.074l-0.255 0.475-0.005 0.005c-0.12-0.004-0.331-0.006-0.635-0.007-1.102-0.002-2.009 0.008-3.015 0.007-0.001 0-0.003-0-0.004-0.001s-0.002-0.002-0.003-0.003c-0.001-0.001-0.001-0.002-0.001-0.004s0-0.003 0.001-0.004l0.305-0.751c0.002-0.006 0.007-0.009 0.014-0.009l0.067-0.001 3.715-0.076c0.001 0 0.002 0 0.004 0.001s0.002 0.002 0.003 0.003 0.001 0.002 0.001 0.004-0 0.003-0.001 0.004l-0.191 0.357z"></path>
<path fill="#000" d="M20.792 12.074l0.416 0.011c0.002 0 0.003 0.001 0.005 0.001s0.003 0.002 0.003 0.003c0.001 0.002 0.001 0.003 0.001 0.005s-0 0.003-0.001 0.005l-0.251 0.446-0.008 0.009-0.417-0.001c-0.002-0-0.003-0.001-0.003-0.003s-0-0.002-0-0.002l0.255-0.475z"></path>
<path fill="#000" opacity="0.573" d="M20.966 12.546l0.38 0.002c0.001 0 0.002 0 0.002 0.001s0.001 0.001 0.002 0.002 0.001 0.001 0.001 0.002-0 0.002-0.001 0.002c-2.723 4.647-5.443 9.296-8.155 13.95-0.11 0.189-0.212 0.375-0.34 0.552 0.007-0.032 0.015-0.058 0.025-0.078 0.183-0.374 0.379-0.742 0.588-1.102l7.5-13.33z"></path>
<path fill="#000" d="M20.537 12.549c0 0.001 0 0.002 0 0.002s0.001 0.002 0.003 0.003l0.417 0.001-7.492 13.321c0.012-0.032 0.036-0.084 0.075-0.155 0.345-0.64 0.939-1.755 1.783-3.345 1.725-3.251 3.45-6.501 5.176-9.751 0.012-0.023 0.023-0.046 0.033-0.070l0.005-0.005z"></path>
<path fill="#000" opacity="0.573" d="M15.472 15.835l-0.004-0.002c-0.003-0.001-0.006-0-0.007 0.002l-0.066 0.127c-0.001 0.003-0 0.006 0.002 0.007l0.004 0.002c0.003 0.001 0.006 0 0.007-0.002l0.067-0.127c0.001-0.003 0-0.006-0.002-0.007z"></path>
<path fill="#000" d="M15.47 16.005l0.754 0.016c0.007 0 0.010 0.004 0.007 0.011-1.512 3.899-3.024 7.798-4.537 11.696-0.161 0.414-0.328 0.826-0.488 1.241 0.073-0.241 0.149-0.48 0.23-0.718 0.064-0.19 0.106-0.315 0.126-0.374 1.804-5.483 3.105-9.433 3.904-11.848 0.004-0.012 0.006-0.020 0.005-0.024z"></path>
<path fill="#000" d="M12.384 27.902l-2.174 4.094c-0.002 0.004-0.005 0.005-0.007 0-0.001-0.001 0.213-0.649 0.232-0.714l0.050-0.149c0.006-0.027 0.019-0.050 0.037-0.070 0.531-0.91 1.064-1.819 1.6-2.726 0.060-0.102 0.139-0.242 0.235-0.418 0.008-0.015 0.013-0.014 0.028-0.017z"></path>
<path fill="#000" d="M11.065 29.379c-0.234 0.711-0.396 1.201-0.486 1.469-0.027 0.081-0.047 0.153-0.058 0.215-0.018 0.020-0.031 0.043-0.037 0.070l-0.275 0.441c0.007-0.053 0.022-0.102 0.042-0.149l0.020-0.012c0.006-0.003 0.010-0.008 0.012-0.014 0.027-0.070 0.047-0.148 0.073-0.213 0.236-0.603 0.47-1.207 0.7-1.812 0.001-0.002 0.002-0.002 0.003-0.001s0.004 0.003 0.006 0.006z"></path>
<path fill="#000" d="M10.484 31.134l-0.050 0.149c-0.103 0.168-0.199 0.339-0.288 0.514-0 0.001-0.001 0.002-0.001 0.002s-0.001 0.001-0.002 0.002-0.002 0.001-0.003 0.001-0.002-0-0.003-0-0.002-0.001-0.002-0.001-0.001-0.001-0.002-0.002-0.001-0.002-0.001-0.003 0-0.002 0-0.003c0.017-0.076 0.042-0.148 0.075-0.217l0.275-0.441z"></path>
<path fill="#000" d="M2.667 19.236v6.329c0 0.024 0.012 0.036 0.035 0.036h1.512c0.020 0 0.031-0.012 0.031-0.036v-1.924h0.535c0.015 0.006 0.472 0.659 1.372 1.959h1.907v-0.036l-1.319-1.924h1.406c0.020 0 0.031-0.012 0.031-0.036v-4.369c0-0.021-0.010-0.033-0.031-0.036h-5.444c-0.021 0-0.032 0.012-0.035 0.036zM6.586 20.807v1.227h-2.341v-1.227h2.341zM8.804 19.236v6.329c0 0.024 0.012 0.036 0.035 0.036h4.656c0.020 0 0.031-0.012 0.031-0.036v-6.329c0-0.021-0.010-0.033-0.031-0.036h-4.656c-0.020 0-0.032 0.012-0.035 0.036zM11.965 20.807v3.187h-1.583v-3.187h1.583zM14.069 19.236v6.329c0 0.024 0.012 0.036 0.035 0.036h4.656c0.020 0 0.031-0.012 0.031-0.036v-3.932c0-0.021-0.010-0.033-0.031-0.036h-2.284c-0.020 0-0.032 0.012-0.035 0.036v1.535c0 0.024 0.012 0.036 0.035 0.036h0.737v0.79h-1.565v-3.187h3.113c0.020 0 0.031-0.010 0.031-0.031v-1.54c0-0.021-0.010-0.033-0.031-0.036h-4.656c-0.020 0-0.032 0.012-0.035 0.036zM19.347 19.236v6.329c0 0.024 0.012 0.036 0.035 0.036h4.638c0.023 0 0.035-0.012 0.035-0.036v-6.329c0-0.021-0.012-0.033-0.035-0.036h-1.512c-0.020 0-0.032 0.012-0.035 0.036v4.758h-1.547v-4.758c0-0.021-0.010-0.033-0.031-0.036h-1.512c-0.020 0-0.032 0.012-0.035 0.036zM24.612 19.236v6.329c0 0.024 0.012 0.036 0.035 0.036h4.656c0.020 0 0.031-0.012 0.031-0.036v-1.54c0-0.018-0.010-0.028-0.031-0.031h-3.113v-0.79h3.113c0.020 0 0.031-0.012 0.031-0.036v-1.535c0-0.021-0.010-0.033-0.031-0.036h-3.113v-0.79h3.113c0.020 0 0.031-0.010 0.031-0.031v-1.54c0-0.021-0.010-0.033-0.031-0.036h-4.656c-0.020 0-0.032 0.012-0.035 0.036z"></path>
</svg>
