<!-- Generated by IcoMoon.io -->
<svg version="1.1" xmlns="http://www.w3.org/2000/svg" width="33" height="32" viewBox="0 0 33 32">
<title>rubyplay</title>
<path d="M20.531 24.911c-1.58 0.941-3.24 1.714-4.957 2.364-2.124 0.804-4.31 1.367-6.551 1.718-0.047 0.007-0.107-0.015-0.128 0.055h-0.104c-0.063-0.11 0.001-0.202 0.049-0.289 0.466-0.835 0.949-1.66 1.41-2.499 0.298-0.465 0.562-0.95 0.823-1.437 0.082-0.152 0.147-0.313 0.258-0.447 0.338-0.527 0.626-1.082 0.929-1.63 0.248-0.356 0.434-0.748 0.656-1.119 0.062-0.103 0.106-0.223 0.25-0.238 0.284 0.048 0.555 0.162 0.855 0.132 0.214-0.021 0.412-0.117 0.626-0.125 0.552 0.285 1.081 0.612 1.614 0.93 0.598 0.354 1.208 0.689 1.804 1.047 0.756 0.44 1.518 0.871 2.266 1.325 0.082 0.050 0.2 0.076 0.197 0.211l0.001 0.001z"></path>
<path d="M10.3 26.286c-0.41 0.806-0.88 1.578-1.326 2.364-0.071 0.126-0.157 0.248-0.178 0.399h-0.052c-0.208-0.59-0.462-1.163-0.622-1.77-0.066-0.127 0.004-0.194 0.109-0.241 0.604-0.271 1.216-0.523 1.828-0.777 0.080-0.034 0.167-0.048 0.24 0.026z"></path>
<path d="M6.41 17.37c-0.041-0.488-0.042-0.977 0.003-1.464 0.101 0.109 0.065 0.245 0.063 0.369-0.002 0.177 0.061 0.19 0.196 0.11 0.354-0.208 0.719-0.397 1.065-0.619 0.417-0.242 0.839-0.476 1.25-0.728 0.572-0.33 1.148-0.655 1.714-0.996 0.481-0.29 0.97-0.565 1.457-0.842 0.101-0.058 0.227-0.18 0.315 0.028 0.030 0.12 0.024 0.242 0.024 0.363 0.001 2.037 0.001 4.075 0 6.112 0 0.121 0.008 0.243-0.028 0.361-0.086 0.175-0.196 0.069-0.301 0.026-0.363-0.23-0.744-0.428-1.112-0.651-0.413-0.247-0.831-0.484-1.246-0.726-0.478-0.291-0.967-0.563-1.451-0.841-0.545-0.334-1.106-0.64-1.658-0.962-0.204-0.119-0.213-0.106-0.224 0.142-0.005 0.109 0.029 0.229-0.067 0.319h0.002z"></path>
<path d="M28.187 18.775c-0.365 0.433-0.767 0.828-1.191 1.201-0.101 0.077-0.197 0.019-0.294-0.010-0.775-0.232-1.538-0.506-2.307-0.756-1.122-0.364-2.247-0.72-3.362-1.106-0.132-0.046-0.298-0.058-0.33-0.246 0.002-0.054 0.021-0.103 0.055-0.141 0.262-0.285 0.441-0.612 0.499-1 0.006-0.043 0.030-0.080 0.067-0.107 0.080-0.043 0.167-0.044 0.255-0.044 0.16 0.012 0.324-0.024 0.481 0.032 0.216 0.185 0.484 0.256 0.746 0.338 1.027 0.322 2.048 0.664 3.069 1.002 0.67 0.222 1.348 0.421 2.013 0.658 0.11 0.039 0.243 0.048 0.299 0.18z"></path>
<path d="M10.657 4.592c0.79 0.138 1.567 0.325 2.331 0.571-0.064 0.173-0.077 0.352-0.077 0.535 0.002 1.705 0.002 3.41 0.001 5.115 0 0.138 0.010 0.277-0.021 0.413-0.049 0.146-0.128 0.116-0.201 0.025-0.101-0.128-0.174-0.276-0.253-0.419-0.187-0.339-0.393-0.666-0.577-1.006-0.373-0.694-0.787-1.364-1.175-2.049-0.047-0.083-0.105-0.159-0.129-0.254-0.010-0.044-0.012-0.089-0.007-0.135 0.051-0.335 0.021-0.671 0.025-1.006 0.006-0.483-0.001-0.966 0.003-1.448 0.001-0.118-0.016-0.245 0.081-0.341z"></path>
<path d="M12.83 11.32c0-1.944 0-3.888 0.003-5.832 0-0.128-0.057-0.296 0.156-0.325 0.513 0.118 1.015 0.27 1.505 0.466-0.063 1.795-0.010 3.591-0.030 5.386-0.003 0.224 0.030 0.451-0.035 0.672-0.033 0.074-0.097 0.102-0.168 0.089-0.391-0.070-0.762 0.018-1.131 0.136-0.083-0.008-0.108-0.079-0.147-0.136-0.060-0.15-0.229-0.261-0.154-0.457z"></path>
<path d="M12.41 13.144c-0.49 0.279-0.98 0.556-1.469 0.836-0.074 0.043-0.143 0.095-0.232 0.103-0.678-0.269-1.33-0.596-1.998-0.886-0.614-0.266-1.219-0.554-1.834-0.818-0.071-0.030-0.142-0.061-0.195-0.122 0.058-0.618 0.156-1.23 0.298-1.834 0.383 0.107 0.731 0.299 1.089 0.463 1.346 0.617 2.704 1.205 4.048 1.826 0.124 0.057 0.269 0.068 0.372 0.172 0.042 0.108 0.021 0.196-0.079 0.26z"></path>
<path d="M20.74 17.83c0.008 0.111 0.095 0.134 0.176 0.162 1.92 0.628 3.841 1.257 5.762 1.884 0.105 0.035 0.196 0.115 0.316 0.1-0.366 0.43-0.792 0.796-1.227 1.151-0.085 0.054-0.165 0.013-0.246-0.014-1.582-0.523-3.164-1.047-4.751-1.554-0.081-0.026-0.168-0.044-0.219-0.125-0.061-0.147-0.038-0.302-0.040-0.455-0.001-0.314-0.018-0.627 0.011-0.94 0.032-0.112 0.077-0.211 0.217-0.208z"></path>
<path d="M14.38 11.731c0-1.928 0-3.855 0.001-5.783 0-0.117-0.037-0.251 0.11-0.318 0.495 0.135 0.976 0.313 1.444 0.524-0.057 1.47-0.012 2.94-0.026 4.41-0.002 0.139 0.020 0.275 0.044 0.412 0.025 0.125-0.053 0.188-0.146 0.242-0.193 0.111-0.38 0.23-0.571 0.343-0.186 0.104-0.367 0.219-0.559 0.312-0.122 0.003-0.239-0.008-0.297-0.141z"></path>
<path d="M12.455 12.884c-0.491-0.108-0.919-0.372-1.373-0.57-1.225-0.536-2.444-1.087-3.663-1.638-0.154-0.070-0.322-0.122-0.445-0.251 0.047-0.427 0.14-0.843 0.258-1.255 1.934 0.851 3.838 1.771 5.797 2.568l0.055 0.156c0.005 0.132-0.114 0.18-0.183 0.258-0.193 0.218-0.296 0.49-0.447 0.733z"></path>
<path d="M13.029 11.737c-0.259 0.048-0.467-0.098-0.682-0.194-1.647-0.734-3.29-1.478-4.933-2.22-0.072-0.032-0.18-0.032-0.182-0.153 0.068-0.426 0.17-0.841 0.311-1.249 0.126-0.012 0.238 0.039 0.346 0.089 1.184 0.54 2.378 1.053 3.556 1.605 0.148 0.069 0.317 0.087 0.448 0.193 0.301 0.432 0.53 0.908 0.801 1.358 0.036 0.059 0.058 0.127 0.128 0.156 0.026 0.16 0.126 0.281 0.206 0.415z"></path>
<path d="M21.57 16.635c-0.084 0.001-0.167 0.002-0.251 0.003-0.14-0.297-0.206-0.626-0.381-0.909-0.022-0.035-0.009-0.083 0.024-0.117 0.34-0.169 0.717-0.172 1.079-0.23 1.7-0.272 3.401-0.547 5.102-0.816 0.315-0.050 0.629-0.1 0.942-0.159 0.315 0.276 0.583 0.595 0.841 0.924-0.089 0.133-0.237 0.135-0.369 0.156-1.575 0.25-3.149 0.51-4.724 0.756-0.69 0.108-1.377 0.231-2.069 0.327-0.068 0.009-0.136 0.026-0.195 0.066l0.001-0.001z"></path>
<path d="M26.398 12.719c0.299 0.238 0.583 0.492 0.813 0.8 0.050 0.066 0.135 0.067 0.17 0.139-0.073 0.15-0.222 0.154-0.354 0.175-2.024 0.325-4.050 0.644-6.074 0.97-0.134 0.021-0.274 0.064-0.392-0.051-0.086-0.356-0.079-0.711-0.006-1.067 0.071-0.096 0.182-0.087 0.282-0.103 1.786-0.29 3.573-0.568 5.358-0.863 0.069-0.012 0.137-0.018 0.204 0.002l-0.001-0z"></path>
<path d="M28.185 18.774c-1.425-0.47-2.853-0.932-4.274-1.414-0.552-0.187-1.12-0.326-1.659-0.554-0.084-0.036-0.163-0.058-0.166-0.166 0.063-0.073 0.151-0.083 0.237-0.082 1.204 0.002 2.409-0.026 3.614 0.013 0.915 0.375 1.875 0.613 2.803 0.952 0.135 0.049 0.287 0.072 0.374 0.208-0.286 0.369-0.597 0.716-0.928 1.043z"></path>
<path d="M20.586 14.761c0.53-0.029 1.047-0.153 1.57-0.227 0.853-0.12 1.703-0.263 2.553-0.401 0.682-0.11 1.363-0.229 2.045-0.341 0.21-0.034 0.427-0.036 0.624-0.134 0.247 0.238 0.5 0.471 0.706 0.749-0.141 0.183-0.362 0.145-0.546 0.176-1.44 0.241-2.882 0.466-4.323 0.698-0.758 0.122-1.517 0.246-2.275 0.369-0.228-0.048-0.342-0.212-0.416-0.417-0.006-0.161-0.052-0.327 0.062-0.472z"></path>
<path d="M17.326 6.731c1.112 0.462 2.177 1.019 3.211 1.635 0.007 0.025 0.006 0.049-0.005 0.073-0.27 0.248-0.611 0.379-0.917 0.569-0.321 0.2-0.655 0.38-0.98 0.574-0.37 0.213-0.743 0.421-1.106 0.646-0.103 0.050-0.207 0.14-0.313 0.003-0.057-0.092-0.068-0.196-0.069-0.301-0.006-0.971-0.004-1.942-0.001-2.914 0-0.078 0.003-0.157 0.039-0.228 0.030-0.059 0.068-0.104 0.141-0.057z"></path>
<path d="M20.588 19.453c0.197 0.021 0.382 0.088 0.569 0.15 1.384 0.454 2.768 0.907 4.152 1.361 0.154 0.051 0.306 0.107 0.459 0.162-0.343 0.34-0.713 0.647-1.102 0.933-0.102 0.062-0.201 0.014-0.297-0.018-1.216-0.415-2.441-0.799-3.659-1.207-0.058-0.019-0.115-0.036-0.153-0.090-0.049-0.085-0.036-0.181-0.048-0.273-0.004-0.242-0.004-0.485 0-0.727 0.002-0.102-0.005-0.21 0.079-0.291z"></path>
<path d="M11.896 9.807c-0.319 0.013-0.569-0.182-0.84-0.3-1.053-0.461-2.097-0.943-3.142-1.422-0.123-0.056-0.271-0.056-0.37-0.165 0.114-0.536 0.269-1.060 0.463-1.573 0.746 0.398 1.535 0.703 2.301 1.059 0.101 0.047 0.212 0.076 0.294 0.158 0.405 0.585 0.724 1.222 1.084 1.834 0.077 0.131 0.194 0.244 0.209 0.408z"></path>
<path d="M17.324 6.732c-0.128 0.021-0.098 0.123-0.098 0.204-0.002 1.012-0.003 2.025 0.002 3.037 0 0.101 0.032 0.203 0.050 0.304 0.018 0.105-0.072 0.123-0.132 0.159-0.224 0.134-0.445 0.273-0.671 0.405-0.184 0.063-0.335 0.213-0.542 0.219-0.093-0.114-0.105-0.249-0.104-0.389 0.001-1.395 0.001-2.79 0-4.185 0-0.123-0.002-0.244 0.108-0.33 0.474 0.166 0.943 0.344 1.389 0.576l-0.002 0.001z"></path>
<path d="M6.683 12.257c0.329 0.048 0.605 0.232 0.901 0.36 0.973 0.423 1.937 0.866 2.904 1.303 0.084 0.038 0.181 0.063 0.223 0.163-0.219 0.213-0.504 0.321-0.761 0.471-0.311 0.181-0.606 0.392-0.945 0.52-0.311-0.016-0.552-0.217-0.825-0.329-0.506-0.209-1-0.448-1.503-0.667-0.084-0.037-0.215-0.054-0.157-0.207 0.009-0.543 0.082-1.079 0.164-1.613z"></path>
<path d="M26.020 16.64c-1.311 0-2.622 0-3.933 0-0.172-0.002-0.345-0.003-0.517-0.005 0.104-0.189 0.299-0.149 0.46-0.175 1.373-0.223 2.749-0.428 4.119-0.662 0.926-0.158 1.859-0.265 2.777-0.468 0.385 0.411 0.752 0.838 1.065 1.309-0.112 0.080-0.241 0.084-0.371 0.084-1.040 0-2.081 0-3.121 0-0.165 0-0.325-0.026-0.48-0.082z"></path>
<path d="M12.31 22.789c-0.285 0.506-0.568 1.012-0.854 1.517-0.021 0.037-0.050 0.068-0.074 0.102-0.731 0.372-1.501 0.654-2.247 0.988-0.386 0.173-0.774 0.338-1.166 0.495-0.085 0.034-0.168 0.101-0.266 0.031-0.136-0.374-0.239-0.756-0.306-1.149 0.037-0.106 0.137-0.126 0.222-0.161 1.414-0.598 2.823-1.204 4.232-1.812 0.087-0.038 0.173-0.082 0.267-0.097 0.076-0.012 0.18-0.059 0.193 0.085z"></path>
<path d="M12.307 22.787c-0.098-0.102-0.189-0.025-0.281 0.014-1.457 0.622-2.915 1.244-4.372 1.865-0.086 0.037-0.174 0.071-0.262 0.106-0.103-0.287-0.17-0.582-0.207-0.885-0.015-0.128 0.097-0.13 0.167-0.159 1.834-0.778 3.662-1.57 5.494-2.352 0.072-0.031 0.145-0.057 0.225-0.038 0.041 0.014 0.072 0.038 0.082 0.083-0.264 0.266-0.374 0.629-0.578 0.932-0.095 0.141-0.18 0.289-0.27 0.434l0.001-0.001z"></path>
<path d="M20.587 20.757c0.397 0.039 0.753 0.219 1.126 0.338 0.986 0.314 1.967 0.642 2.951 0.964-0.456 0.398-0.937 0.763-1.44 1.098-0.127 0.023-0.231-0.048-0.343-0.086-0.68-0.233-1.365-0.447-2.048-0.671-0.111-0.036-0.239-0.052-0.297-0.18-0.063-0.432-0.029-0.866-0.022-1.3 0.001-0.061 0.023-0.119 0.072-0.162z"></path>
<path d="M24.362 10.971c0.415 0.307 0.817 0.628 1.187 0.988-0.050 0.209-0.237 0.178-0.376 0.2-0.809 0.127-1.616 0.262-2.426 0.387-0.596 0.092-1.191 0.192-1.788 0.281-0.135 0.020-0.274 0.053-0.396-0.051-0.094-0.234-0.029-0.478-0.050-0.717 0.010-0.141-0.024-0.288 0.047-0.422 0.101-0.1 0.238-0.091 0.362-0.112 1.146-0.189 2.295-0.36 3.44-0.554z"></path>
<path d="M11.070 19.4c0.377 0.182 0.744 0.385 1.087 0.627-0.112 0.145-0.284 0.192-0.439 0.259-1.465 0.629-2.932 1.253-4.396 1.885-0.142 0.061-0.284 0.13-0.446 0.107-0.086-0.327-0.137-0.659-0.154-0.997 0.365-0.233 0.779-0.357 1.17-0.529 1.023-0.451 2.057-0.875 3.080-1.326 0.032-0.014 0.065-0.022 0.099-0.025z"></path>
<path d="M11.071 19.399c-0.241 0.239-0.571 0.301-0.864 0.429-1.091 0.481-2.19 0.938-3.288 1.403-0.062 0.026-0.131 0.033-0.197 0.049-0.087-0.395-0.124-0.797-0.148-1.2 0.261-0.189 0.57-0.276 0.86-0.401 0.732-0.317 1.467-0.629 2.198-0.949 0.063-0.028 0.128-0.048 0.197-0.059 0.432 0.211 0.845 0.457 1.242 0.729z"></path>
<path d="M13.089 21.382c-0.342 0.066-0.639 0.247-0.954 0.38-1.221 0.512-2.437 1.037-3.654 1.559-0.433 0.186-0.863 0.379-1.295 0.569-0.086-0.25-0.136-0.508-0.161-0.77 0.019-0.198 0.205-0.188 0.322-0.238 1.046-0.451 2.093-0.897 3.139-1.348 0.539-0.232 1.081-0.455 1.619-0.69 0.139-0.061 0.274-0.154 0.44-0.121 0.183 0.218 0.42 0.391 0.542 0.66z"></path>
<path d="M20.587 12.778c0.677-0.029 1.336-0.19 2.004-0.285 0.837-0.119 1.672-0.257 2.506-0.397 0.153-0.026 0.33 0 0.452-0.137 0.312 0.22 0.578 0.492 0.848 0.76-0.433 0.183-0.903 0.181-1.355 0.263-0.815 0.148-1.632 0.282-2.452 0.397-0.668 0.094-1.326 0.253-2.003 0.286-0.129-0.174-0.046-0.376-0.076-0.564 0-0.113-0.012-0.23 0.076-0.323z"></path>
<path d="M12.573 20.758c-0.4 0.076-0.749 0.286-1.119 0.44-1.461 0.612-2.916 1.242-4.372 1.866-0.021 0.009-0.036 0.036-0.053 0.054-0.081-0.275-0.134-0.555-0.152-0.842 0.899-0.383 1.799-0.764 2.697-1.149 0.806-0.346 1.61-0.695 2.415-1.042 0.055-0.024 0.113-0.040 0.169-0.059 0.083 0.036 0.167 0.071 0.251 0.106 0.129 0.188 0.246 0.38 0.163 0.625z"></path>
<path d="M24.362 10.971c-0.073 0.141-0.22 0.114-0.336 0.134-0.832 0.142-1.665 0.288-2.5 0.404-0.312 0.043-0.62 0.133-0.939 0.122-0.137-0.213-0.046-0.451-0.073-0.676 0.020-0.289-0.040-0.582 0.039-0.868 0.048-0.073 0.126-0.082 0.202-0.094 0.616-0.096 1.229-0.214 1.849-0.288 0.22 0.060 0.376 0.224 0.554 0.35 0.411 0.292 0.824 0.582 1.205 0.915l0.002-0z"></path>
<path d="M7.705 25.922c0.742-0.313 1.484-0.625 2.226-0.939 0.379-0.161 0.755-0.329 1.134-0.489 0.102-0.043 0.205-0.091 0.32-0.085-0.312 0.558-0.623 1.116-0.934 1.673-0.041 0.074-0.062 0.165-0.15 0.204-0.269-0.001-0.484 0.153-0.718 0.252-0.441 0.186-0.879 0.378-1.321 0.56-0.090 0.037-0.151 0.074-0.138 0.181-0.174-0.441-0.317-0.892-0.419-1.356z"></path>
<path d="M9.826 18.67c-0.181 0.185-0.432 0.229-0.654 0.327-0.822 0.361-1.649 0.712-2.474 1.064-0.038 0.016-0.084 0.012-0.126 0.018-0.065-0.45-0.113-0.901-0.105-1.356 0.035-0.077 0.103-0.109 0.176-0.137 0.587-0.228 1.166-0.481 1.736-0.75 0.502 0.244 0.985 0.522 1.448 0.835l-0.001-0z"></path>
<path d="M20.587 22.269c0.759 0.201 1.499 0.463 2.243 0.712 0.137 0.046 0.279 0.080 0.394 0.174-0.84 0.634-1.72 1.205-2.638 1.718-0.052-0.052-0.075-0.118-0.075-0.188 0-0.777-0.037-1.555 0.019-2.332 0.011-0.033 0.030-0.061 0.057-0.084z"></path>
<path d="M20.586 22.323c0 0.851 0.001 1.701 0.001 2.551-0.018 0.012-0.037 0.026-0.055 0.038-0.538-0.383-1.132-0.669-1.69-1.018-0.26-0.163-0.526-0.317-0.789-0.476-0.019-0.159 0.108-0.209 0.212-0.254 0.696-0.299 1.401-0.573 2.105-0.854 0.073-0.029 0.148-0.050 0.217 0.013z"></path>
<path d="M10.603 7.563c-0.315-0.032-0.573-0.219-0.857-0.335-0.516-0.211-1.019-0.452-1.525-0.684-0.090-0.041-0.203-0.065-0.214-0.197 0.195-0.69 0.434-1.365 0.722-2.022 0.127-0.030 0.161 0.076 0.205 0.153 0.534 0.91 1.050 1.831 1.585 2.74 0.046 0.077 0.035 0.168 0.081 0.242l0.002 0.104z"></path>
<path d="M10.603 7.46c-0.399-0.682-0.79-1.369-1.198-2.045-0.22-0.365-0.381-0.769-0.674-1.088 0.055-0.080 0.14-0.059 0.21-0.048 0.575 0.088 1.151 0.164 1.714 0.316 0 0.811-0.002 1.623 0.002 2.434 0.001 0.148-0.010 0.291-0.054 0.432z"></path>
<path d="M6.515 13.87c0.048 0.166 0.212 0.152 0.327 0.205 0.718 0.336 1.456 0.626 2.158 0.998-0.267 0.243-0.609 0.363-0.905 0.558-0.105 0.069-0.224 0.116-0.337 0.172-0.402-0.135-0.779-0.324-1.159-0.509-0.112-0.054-0.174-0.134-0.16-0.267 0.014-0.129-0.020-0.26 0.022-0.387 0.003-0.258-0.012-0.517 0.055-0.77z"></path>
<path d="M26.016 16.64l3.972-0.003c-0.252 0.397-0.564 0.746-0.877 1.093-0.918-0.306-1.836-0.613-2.754-0.919-0.122-0.041-0.246-0.076-0.341-0.171z"></path>
<path d="M8.379 17.835c-0.127 0.232-0.386 0.245-0.587 0.34-0.433 0.202-0.882 0.368-1.324 0.548-0.075-0.449-0.059-0.901-0.059-1.353 0.002-0.181 0.002-0.363 0.005-0.544 0.002-0.074 0.009-0.155 0.115-0.090 0.612 0.375 1.264 0.681 1.85 1.1z"></path>
<path d="M22.602 9.706c-0.076 0.156-0.23 0.098-0.346 0.115-0.557 0.078-1.104 0.227-1.67 0.246-0.125-0.163-0.052-0.353-0.074-0.53 0.001-0.282-0.001-0.563 0.002-0.845 0.001-0.102-0.006-0.207 0.072-0.29 0.708 0.379 1.376 0.819 2.017 1.304l-0-0.001z"></path>
<path d="M6.459 14.64c0.016 0.578 0.020 0.569 0.578 0.798 0.248 0.101 0.52 0.163 0.719 0.366-0.371 0.294-0.81 0.474-1.207 0.724-0.109 0.068-0.136 0.025-0.137-0.079-0.002-0.181-0.002-0.362-0.003-0.544-0.008-0.422-0.014-0.845 0.049-1.265z"></path>
<path d="M20.585 8.403c0 0.381 0.001 0.762 0 1.143-0.035 0.016-0.063 0.007-0.083-0.027-0.071-0.375-0.095-0.75 0.026-1.121 0.001-0.010 0.003-0.021 0.006-0.031l0.052 0.036-0.001-0.001z"></path>
<path d="M14.691 21.439c0.431-0.243 0.863-0.485 1.294-0.728 0.102 0.017 0.179-0.049 0.265-0.083 1.336-0.53 2.661-1.086 3.996-1.619 0.108-0.043 0.22-0.116 0.34-0.025 0 0.156 0.001 0.313 0.002 0.469-0.001 0.348-0.002 0.696-0.002 1.043-0.042 0.085-0.122 0.115-0.202 0.148-1.25 0.512-2.505 1.012-3.753 1.528-0.136 0.056-0.262 0.127-0.389 0.2-0.518-0.311-1.066-0.569-1.551-0.934z"></path>
<path d="M16.242 22.373c0.004-0.134 0.11-0.163 0.204-0.201 1.379-0.559 2.76-1.117 4.14-1.675 0 0.087-0 0.174 0.001 0.26 0 0.504 0 1.009 0 1.513-0.001 0.018-0.001 0.034-0.002 0.052-0.509 0.132-0.974 0.381-1.465 0.559-0.258 0.094-0.512 0.2-0.766 0.308-0.118 0.050-0.243 0.097-0.303 0.228-0.615-0.326-1.215-0.68-1.81-1.043z"></path>
<path d="M20.584 18.985c-0.481 0.1-0.915 0.334-1.367 0.512-1.004 0.396-1.999 0.811-2.998 1.219-0.081 0.034-0.159 0.074-0.236-0.005 0.586-0.351 1.171-0.704 1.758-1.053 0.945-0.562 1.891-1.121 2.837-1.682 0.002 0.336 0.004 0.672 0.007 1.008z"></path>
<path d="M16.087 12.624c-0.465-0.262-0.931-0.524-1.396-0.786 0.141-0.158 0.34-0.217 0.519-0.312 0.901 0.054 1.8 0.13 2.701 0.187 0.72 0.046 1.44 0.114 2.161 0.151 0.387 0.020 0.387 0.006 0.389-0.374 0-0.113-0.004-0.226 0.005-0.338 0.004-0.062 0.010-0.124 0.045-0.178 0.021-0.029 0.047-0.035 0.079-0.019 0 0.226 0.001 0.452 0.001 0.678 0 0.139 0 0.278-0.001 0.417-0.057 0.222-0.025 0.448-0.022 0.671 0.002 0.177-0.073 0.234-0.232 0.222-0.781-0.058-1.563-0.104-2.343-0.168-0.635-0.052-1.272-0.065-1.904-0.151l-0.002 0.001z"></path>
<path d="M20.534 11.109c0 0.052 0 0.104 0 0.156 0 0.788-0.005 0.806-0.795 0.667-0.324-0.057-0.646-0.040-0.97-0.080-0.627-0.076-1.262-0.071-1.893-0.121-0.494-0.039-0.986-0.102-1.482-0.1-0.084 0-0.152-0.024-0.189-0.106 0.216-0.196 0.497-0.291 0.725-0.468 0.154-0.123 0.336-0.191 0.517-0.261 0.575-0.004 1.145 0.066 1.718 0.098 0.667 0.038 1.332 0.109 2 0.135 0.127 0.005 0.26-0.015 0.368 0.080l0.001 0.001z"></path>
<path d="M20.58 15.302c-0.909-0.546-1.819-1.092-2.729-1.638 0.067-0.137 0.197-0.12 0.315-0.126 0.414-0.019 0.823 0.045 1.235 0.068 0.274 0.016 0.55 0.016 0.823 0.056 0.175 0.026 0.225-0.061 0.237-0.219 0.009-0.125-0.054-0.285 0.127-0.351 0 0.191-0.001 0.382-0.001 0.573 0 0.365 0.001 0.73 0.001 1.096-0.003 0.18-0.005 0.361-0.007 0.541z"></path>
<path d="M20.534 11.109c-0.816 0.004-1.626-0.089-2.438-0.148-0.512-0.037-1.027-0.043-1.537-0.114-0.039-0.005-0.075-0.034-0.112-0.051 0.276-0.174 0.552-0.347 0.828-0.521 0.086-0.035 0.172-0.070 0.258-0.105 0.31-0.148 0.629-0.027 0.94-0.016 0.523 0.019 1.045 0.067 1.568 0.103 0.168 0.011 0.346 0.010 0.497 0.111 0.031 0.195 0.037 0.389-0.004 0.584 0 0.052-0 0.103-0 0.156l0.001 0.001z"></path>
<path d="M20.536 10.381c-0.652-0.051-1.303-0.122-1.956-0.146-0.349-0.013-0.695-0.071-1.045-0.063 0.341-0.246 0.704-0.452 1.086-0.626 0.273-0.154 0.556-0.014 0.834-0.022 0.298-0.009 0.596 0.061 0.897 0.053 0.068-0.002 0.137 0.015 0.19 0.065 0.026 0.246 0.040 0.493-0.006 0.739z"></path>
<path d="M20.538 9.65c-0.641 0.021-1.276-0.084-1.915-0.105 0.284-0.238 0.626-0.379 0.936-0.572 0.319-0.199 0.648-0.384 0.972-0.575 0.002 0.383 0.004 0.765 0.006 1.148 0.033 0.034 0.028 0.069 0 0.104z"></path>
<path d="M20.585 13.091c-0.105 0.141-0.044 0.302-0.048 0.453-0.004 0.191-0.089 0.237-0.262 0.219-0.365-0.039-0.732-0.085-1.098-0.092-0.353-0.006-0.699-0.092-1.053-0.060-0.094 0.009-0.19-0.002-0.275 0.052-0.6-0.327-1.191-0.671-1.766-1.040 0.119-0.073 0.251-0.066 0.377-0.048 0.442 0.064 0.887 0.066 1.33 0.099 0.844 0.064 1.688 0.128 2.531 0.201 0.161 0.014 0.211-0.030 0.217-0.192 0.008-0.212-0.061-0.431 0.047-0.635 0 0.243 0.001 0.487 0.001 0.731 0 0.104-0.001 0.208-0.001 0.312l-0.001 0.001z"></path>
<path d="M20.533 9.649c0-0.034 0-0.070 0-0.104 0.017 0 0.034 0 0.051 0 0 0.174 0.002 0.349 0.002 0.523 0 0.295-0.002 0.59-0.002 0.886-0.017 0-0.034 0-0.051 0 0-0.191 0-0.383 0-0.574 0-0.243 0-0.488 0-0.731z"></path>
</svg>
