<!-- Generated by IcoMoon.io -->
<svg version="1.1" xmlns="http://www.w3.org/2000/svg" width="33" height="32" viewBox="0 0 33 32">
<title>slotmill</title>
<path d="M31.975 15.003c-0.011-0.533-0.175-1.299-0.288-1.753-0.072-0.281 0.083-0.156 0.246 0.32-0.158-0.725-0.41-1.502-0.465-1.502s-0.025 0.112-0.036 0.159c-0.042-0.101-0.1-0.345-0.169-0.518-0.087-0.211-0.175-0.333-0.113-0.142 0.12 0.345 0.582 2.186 0.631 2.511-0.050-0.173-0.106-0.375-0.144-0.512-0.439-1.535-1.054-3.015-1.834-4.411 0.058 0.049 0.087 0.071 0.121 0.104 0.008-0.079 0.014-0.142 0.024-0.243 0.155 0.222 0.291 0.411 0.423 0.604-0.273-0.724-0.761-1.335-1.162-1.964-0.017 0.028-0.030 0.049-0.052 0.086-0.459-0.64-1.079-1.168-1.331-1.915-0.011 0.033-0.019 0.052-0.028 0.077-0.033-0.369-0.519-0.154-0.47-0.533 0.282 0.145 0.753 0.525 0.979 0.73s0.324 0.205 0.404 0.213c0.080 0.008-0.080-0.12-0.033-0.161 0.061-0.052 0.664 0.739 0.971 1.081-0.85-1.877-3.112-2.56-4.703-3.761-4.172-2.676-9.779-3.367-14.247-0.804-0.199 0.115-0.471 0.284-0.587 0.361s0.138-0.006 0.149 0.005c-0.121 0.086-0.23 0.156-0.36 0.246s0.147 0.025 0.087 0.069c-0.059 0.044-0.313 0.382 0.019 0.167s0.708-0.463 0.908-0.463c0.2 0-0.795 0.552-1.16 0.788-0.573 0.369-1.082 0.697-1.408 0.925-0.273 0.192-0.556 0.385-0.616 0.345-0.108-0.079 0.277-0.391 0.323-0.463 0.075-0.112-0.415 0.2-0.301 0.082 0.36-0.352 0.739-0.684 1.135-0.995 0.277-0.208 0.448-0.331 0.443-0.419s-0.285 0.055-0.583 0.217c-2.169 1.171-2.919 3.656-3.898 5.713l0.271-0.020c-0.232 0.49-0.528 0.925-0.573 1.455 0.111-0.079 0.175-0.189 0.305-0.23 0.052 0.173-0.047 0.331-0.087 0.495 0.013 0 0.024 0.009 0.036 0.011 0.066-0.173 0.133-0.351 0.196-0.518 0.055 0.005 0.1 0.008 0.155 0.014-0.183 1.309-0.324 2.609-0.683 3.891l0.017-0.016c-0.31 0.943 0.096 1.877-0.025 2.881h-0.036c-0.087-0.493-0.262-0.974-0.155-1.491-0.017 0.022-0.033 0.043-0.074 0.093-0.014-0.14-0.031-0.271-0.045-0.397-0.010-0.096-0.138-0.096-0.13-0.011 0.047 0.526-0.077 1.043 0.087 1.575 0.022-0.073 0.041-0.15 0.052-0.186 0.168 0.791 0.597 2.692 0.481 2.451s-0.185-0.58-0.279-0.87c0.119 1.031 0.492 2.005 0.873 2.965-0.031 0-0.116-0.068-0.183-0.222-0.039-0.093-0.139-0.086-0.122-0.033 0.1 0.25 0.215 0.495 0.343 0.733-0.052-0.164-0.11-0.361-0.093-0.388 0.235 0.274 0.486 0.812 0.644 1.1s0.716 1.269 0.349 0.755c-0.367-0.514-1.16-1.554-1.538-2.437-0.114-0.259-0.18-0.648-0.235-0.652s-0.045 0.118-0.052 0.162c-0.036-0.049-0.042-0.289-0.087-0.273-0.077 0.027 0.222 1.085 0.134 0.94s-0.25-0.806-0.285-1.003c0.031 0.424 0.155 0.81 0.144 0.913-0.36-0.564-0.196-1.171-0.196-1.472 0.004 0.172 0.038 0.342 0.1 0.503-0.045-0.328 0.022-0.675 0.009-0.777s-0.155-0.019-0.147 0.102c-0.028-0.063-0.037-0.173-0.072-0.164s-0.033 0.123-0.038 0.194c-0.019-0.028-0.022-0.077-0.045-0.060s-0.008 0.304-0.077 0.259c-0.039-0.023 0-0.259 0-0.473 0-0.194-0.025-0.362-0.064-0.345-0.083 0.028-0.014 0.126-0.039 0.426-0.022 0.274-0.262-0.123-0.24 0.058 0.008 0.066-0.064 0.279-0.009 0.527s-0.011 0.624 0.052 0.556 0.039-0.11 0.087-0.145c0.013 0.019 0.005 0.076 0.041 0.057s0.028-0.098 0.047-0.167c1.060 6.167 6.862 8.998 12.411 10.68l-0.105 0.047c6.747 1.285 13.671-4.057 15.5-10.196 0.047-0.162 0.158-0.787 0.232-1.239-0.246 0.81-0.417 0.787-0.412 0.73 0.066-0.541 0.141-0.911 0.279-1.163 0.396-0.612 0.152-2.174 0.030-2.253-0.094-0.060-0.13 0.076-0.138 0.076 0.010-0.123 0.044-0.53-0.050-0.333-0.072 0.145 0.175 3.744-1.063 5.284-0.050-0.974 0.481-1.906 0.769-2.849l-0.023-0.008c-0.074 0.117-0.147 0.238-0.226 0.369-0.009-0.039-0.017-0.066-0.023-0.091-0.1 0.058-0.087 0.222-0.244 0.23 0.037-0.199 0.073-0.388 0.106-0.577-0.796 1.435-1.073 3.253-2.149 4.577-0.186 0.227 0.147-0.558 0.34-1.086 0.175-0.465 0.141-0.673-0.183-0.091-0.379 0.684-1.082 1.521-1.659 2.052-2.047 1.876-4.421 3.561-7.342 3.662v0.019h0.262c-2.075 0.238-4.484 0.052-6.41-0.829 0.003-0.007 0.007-0.013 0.010-0.019 0.272 0.096 0.847 0.396 0.825 0.255-0.009-0.060-0.736-0.282-1.5-0.634-1.043-0.484-2.216-1.135-2.293-1.198-0.136-0.11 0.138 0.173 0.127 0.18-1.474-1.006-2.495-2.626-3.278-4.267-0.119-0.246-0.318-0.426-0.437-0.703-0.083-0.197-0.125-0.564-0.102-0.596 0.094-0.153-0.135-0.306-0.119-0.060 0.063 0.345 0.151 0.686 0.262 1.019 0.044 0.123-0.103-0.128-0.158-0.276-0.37-0.981-0.403-1.157-0.484-1.509 0 0.998 0.752 2.578 0.869 2.855-0.161-0.109-0.393-0.424-0.501-0.744 0.108 0.378 0.222 0.691 0.213 0.816-0.547-0.966-0.982-3.050-1.115-3.050s0 0.331 0.014 0.487c-0.318-0.473-0.524-1.972-0.404-2.355 0.087-1.713 0.357-3.465 0.966-5.079-0.001-0.003-0.001-0.007 0-0.010 0-0.011 0.009-0.022 0.011-0.033 0.524-1.371 1.284-2.64 2.379-3.69-0.009-0.005-0.017-0.013-0.025-0.019-0.193 0.173-0.384 0.337-0.578 0.503 0.233-0.741 1.043-1.124 1.342-1.777l-0.038-0.025c0.161-0.148 0.32-0.291 0.509-0.46-0.327 0.148-0.487 0.487-0.855 0.508 0.94-1.053 2.325-1.953 3.367-2.563-0.097 0.058-0.087 0.243 0.102 0.309 0.175 0.060 0.31-0.259 0.54-0.345 1.428-0.564 2.969-0.495 4.379-0.227-1.516-0.536-3.458-0.372-3.878-0.274 0.457-0.224 1.126-0.197 1.384-0.211 4.384-0.224 8.551 2.615 11.093 6.061 0.141 0.192 0.437 0.648 0.547 0.985 0.047 0.143 0.31 0.599 0.402 0.534s-0.056-0.432-0.241-0.648c-0.255-0.298-0.407-0.662-0.722-1.222 0.293 0.345 0.524 0.612 0.772 0.908-0.575-0.99-2.020-2.424-2.171-2.831 0.829 0.599 1.463 1.376 1.992 2.221 0.473 0.761 0.952 1.764 1.242 2.371 0.019 0.046 0.042 0.091 0.069 0.134-0.025-0.086-0.431-1.025-0.437-1.025-0.246-0.771-0.678-1.501-1.040-2.25 0.235 0.199 0.204 0.202 0.274 0.139s-0.39-0.623-0.476-0.988c0.299 0.46 0.597 0.922 0.912 1.411-0.072-0.173-0.13-0.323-0.19-0.47l0.024-0.010c0.374 0.457 0.744 0.913 1.115 1.37-0.343-0.705-0.913-1.283-1.253-1.966 0.022-0.011 0.041-0.019 0.060-0.030 0.319 0.518 1.018 1.171 1.174 1.37s-0.329-0.637-0.127-0.407c0.202 0.23 0.512 0.667 0.578 0.763s0.119 0.098 0.033-0.024c-0.086-0.123-0.653-0.927-0.979-1.392l0.033-0.024c0.835 1.075 1.629 2.204 2.096 3.484-0.492-1.934-1.921-3.465-3.076-5.057 0.587 0.459 0.99 1.075 1.484 1.611 0.010-0.008 0.020-0.015 0.030-0.022-0.069-0.126-0.138-0.259-0.207-0.381 1.098 0.944 1.842 3.583 1.914 3.755s-0.050-0.358-0.133-0.719c-0.083-0.361 0.058-0.259 0.055-0.011s0.383 0.977 0.155 1.362c-0.019-0.030-0.036-0.060-0.069-0.117 0.185 0.555 0.116 1.13 0.334 1.64 0.105 0.856 0.047 1.712 0 2.563h0.028c0.033-0.259 0.069-0.526 0.102-0.786h0.036v0.304c0.050-0.468-0.033-0.979 0.138-1.409 0.031 0.249 0.061 0.498 0.094 0.744 0.020-0.001 0.039-0.002 0.059-0.005 0.102-1.045-0.011-2.085-0.12-3.124 0.017 0 0.030 0 0.044-0.005 0.022 0.142 0.044 0.281 0.069 0.454 0.028-0.066 0.042-0.101 0.061-0.145 0.127 0.334 0.175 0.691 0.396 0.974-0.066-0.383 0.025-0.749 0.028-1.133 0.175 0.44 0.257 1.283 0.293 1.36s0.038-0.060 0.027-0.086c0.122 0.355 0.21 1.414 0.216 1.25 0.011-0.344-0.001-0.689-0.036-1.032 0.075 0.236 0.131 0.478 0.168 0.723zM28.204 24.879c-0.224 0.164-0.249 0.167 0.028-0.173s0.882-1.295 1.111-1.704c0.23-0.409-0.041 0.503 0.169 0.129s0.354-0.55 0.597-1.449c0.022 0.285-0.277 1.436-0.658 2.084s-1.118 1.414-1.397 1.732c-0.279 0.318 0.509-0.716 0.797-1.069 0.207-0.246 0.381-0.519 0.517-0.81-0.291 0.402-0.944 1.097-1.165 1.261zM7.622 22.787c0.349 0.95 1.813 2.399 2.517 2.768-1.159-0.493-2.125-1.169-2.287-1.484-0.104-0.202 0.065-0.163 0.215 0.012 0.131 0.169 0.295 0.31 0.482 0.415-0.586-0.747-0.847-1.234-0.927-1.712zM12.198 2.74c-0.349 0.107-0.658 0.202-0.255-0.014 0.362-0.192 1.165-0.473 1.31-0.323s-0.709 0.23-1.055 0.337zM24.146 6.418c0.708 0.126 0.822 0.925 1.060 1.146-0.443-0.405-0.889-0.854-1.060-1.146zM26.309 7.468c-0.096-0.089-0.167-0.201-0.205-0.325 0.147 0.139 0.284 0.288 0.41 0.446 0.044 0.052-0.061 0.001-0.204-0.121z"></path>
<path d="M6.199 13.439c0.093-0.445 0.186-0.89 0.279-1.335l0.038 0.008-0.262 1.351-0.055-0.023z"></path>
<path d="M4.475 14.34c-0.025-0.343 0.001-0.687 0.076-1.023h0.037c-0.035 0.34-0.072 0.68-0.108 1.019l-0.004 0.004z"></path>
<path d="M29.134 21.028c-0.105 0.193-0.233 0.556 0 0.359s0.107-0.555 0-0.359z"></path>
<path d="M30.941 18.524c0.087-0.227 0.015-0.691 0.129-0.411s-0.263 0.769-0.129 0.411z"></path>
<path d="M3.41 19.059c0.069 0.137 0.017-0.622-0.099-0.616s-0.168 0.086-0.116 0.307c0.052 0.221 0.159 0.198 0.215 0.308z"></path>
<path d="M3.61 18.31c-0.038-0.097-0.175-0.406-0.13-0.47s0.108-0.039 0.152 0.103c0.044 0.142 0.021 0.477-0.022 0.367z"></path>
<path d="M5.664 18.51c0.015-0.060 0.074-0.251 0.034-0.28s-0.079-0.006-0.093 0.079c-0.013 0.085 0.042 0.268 0.059 0.201z"></path>
<path d="M3.717 17.535c0.117-0.008 0.032 0.136-0.030 0.192-0.033 0.029-0.107-0.184 0.030-0.192z"></path>
<path d="M4.075 18.861c0.093 0.023 0.030 0.108-0.018 0.134-0.025 0.016-0.089-0.16 0.018-0.134z"></path>
<path d="M28.341 12.14c-0.087-0.209 0.145 0.211 0.291 0.604 0.087 0.232 0.165 0.427 0.122 0.545-0.076 0.211-0.21-0.661-0.413-1.149z"></path>
<path d="M28.545 10.969c0.154 0.28 0.252 0.427 0.313 0.402s0.087-0.154 0-0.265c-0.087-0.111-0.399-0.295-0.313-0.137z"></path>
<path d="M29.098 11.438c0.037 0.111 0.237 0.060 0.153-0.053s-0.193-0.068-0.153 0.053z"></path>
<path d="M31.079 17.558c0.010 0.101-0.183 0.097-0.152-0.015s0.141-0.096 0.152 0.015z"></path>
<path d="M31.637 19.292c0.044-0.152-0.096-0.173-0.108-0.037-0.014 0.149 0.063 0.184 0.108 0.037z"></path>
<path d="M30.7 18.472c0.042 0.203-0.238 0.369-0.224 0.107s0.181-0.328 0.224-0.107z"></path>
<path d="M9.325 3.070c0.125-0.074 0.388-0.196 0.349-0.276s-0.256 0.077-0.349 0.165c-0.093 0.088-0.124 0.185 0 0.111z"></path>
<path d="M6.774 19.708c-0.077-0.040-0.013-0.132 0.034-0.103s0.065 0.154-0.034 0.103z"></path>
<path d="M27.477 11.557c-0.070 0.015-0.005 0.217 0.075 0.188s0.006-0.205-0.075-0.188z"></path>
<path d="M28.545 10.519c-0.007 0.002-0.014 0.005-0.019 0.009s-0.010 0.010-0.014 0.016c-0.003 0.006-0.005 0.013-0.006 0.020s0.001 0.014 0.003 0.021 0.006 0.013 0.011 0.018c0.005 0.005 0.011 0.009 0.018 0.012s0.014 0.004 0.021 0.003 0.014-0.002 0.020-0.005c0.081-0.028 0.045-0.111-0.035-0.093z"></path>
<path d="M28.308 11.778c-0.026-0.095 0.253 0.148 0.183 0.265s-0.141-0.115-0.183-0.265z"></path>
<path d="M12.246 5.083c-0.108 0.054-0.229 0.137-0.104 0.167 0.052 0.016 0.108 0.012 0.157-0.012s0.086-0.065 0.105-0.116c0.028-0.094-0.047-0.093-0.158-0.039z"></path>
</svg>
