<!-- Generated by IcoMoon.io -->
<svg version="1.1" xmlns="http://www.w3.org/2000/svg" width="32" height="32" viewBox="0 0 32 32">
<title>spadegaming</title>
<path d="M26.899 11.468c3.085 4.703 2.060 9.363-0.548 11.537-1.554 1.295-3.699 1.518-5.38 1.449 0.141 0.254 0.327 0.512 0.573 0.754 0.986 0.982 2.68 1.484 5.036 1.484v1.268c-2.773 0-4.818-0.646-6.068-1.921-1.1-1.116-1.301-2.445-1.326-3.079 1.157 0.225 4.376 0.661 6.254-0.903 2.187-1.821 2.991-5.817 0.292-9.927-2.686-4.096-9.266-8.183-9.543-8.358l-0.188-0.116-0.188 0.116-0.022 0.014c-0.498 0.312-6.885 4.324-9.521 8.344-2.701 4.11-1.897 8.106 0.292 9.927 1.878 1.565 5.097 1.128 6.254 0.903-0.028 0.634-0.229 1.965-1.326 3.079-1.25 1.275-3.295 1.921-6.069 1.921v-1.268c2.356 0 4.052-0.499 5.036-1.484 0.246-0.242 0.432-0.5 0.573-0.754-1.679 0.069-3.826-0.156-5.38-1.449-2.609-2.174-3.633-6.834-0.548-11.537 2.845-4.331 9.667-8.573 9.955-8.752l0.944-0.583 0.943 0.583c0.288 0.179 7.11 4.421 9.955 8.752z"></path>
<path d="M19.996 26.463c-1.271-1.296-1.478-2.812-1.5-3.525-0.007-0.236 0.007-0.384 0.009-0.407l0.036-0.374 0.395 0.096c0.036 0.008 4.055 0.992 6.049-0.669 1.929-1.608 2.639-5.352 0.161-9.126-2.356-3.592-8.035-7.325-9.145-8.037-1.113 0.712-6.789 4.446-9.145 8.037-2.479 3.773-1.768 7.518 0.161 9.126 1.994 1.659 6.013 0.677 6.048 0.669l0.396-0.096 0.036 0.374c0.008 0.091 0.199 2.207-1.492 3.931-1.391 1.413-3.603 2.134-6.581 2.134v1.27c3.379 0 5.93-0.86 7.589-2.547 1.967-2.004 1.895-4.039 1.863-4.892-0.005-0.141-0.015-0.287-0.027-0.433-0.013-0.161-0.029-0.32-0.046-0.472-0.062-0.54-0.138-0.974-0.138-0.974l-1.948 0.482c-0.861 0.211-3.6 0.599-4.79-0.392-1.517-1.261-2.001-4.329 0.089-7.515 1.88-2.863 6.097-5.88 7.988-7.144 1.891 1.266 6.106 4.281 7.988 7.144 2.089 3.186 1.605 6.253 0.089 7.515-1.193 0.991-3.93 0.603-4.791 0.392l-1.948-0.482c0 0-0.067 0.379-0.126 0.869-0.038 0.315-0.073 0.675-0.086 1.009-0.031 0.854-0.105 2.887 1.864 4.892 1.656 1.686 4.206 2.547 7.586 2.547v-1.27c-2.978 0-5.191-0.721-6.584-2.134z"></path>
</svg>
