<!-- Generated by IcoMoon.io -->
<svg version="1.1" xmlns="http://www.w3.org/2000/svg" width="33" height="32" viewBox="0 0 33 32">
<title>spinmatic</title>
<path d="M12.815 17.463c-0.054 0.065-0.122 0.109-0.197 0.13-0.065 0-0.24 0.025-0.503 0.025h-7.197c-0.1 0.748-0.166 1.503-0.198 2.259-0.022 0.308 0.029 0.619 0.147 0.894 0.159 0.206 0.363 0.354 0.588 0.431 0.716 0.084 1.434 0.118 2.152 0.104h4.799c0.719 0.016 1.436-0.019 2.152-0.104 0.279-0.076 0.536-0.239 0.745-0.473 0.14-0.248 0.243-0.523 0.306-0.813 0.157-0.751 0.278-1.515 0.359-2.284l0.107-0.97c0.112-1.054 0.176-1.735 0.176-2.048v-0.158c0.031-0.363-0.047-0.725-0.219-1.024-0.259-0.278-0.594-0.431-0.941-0.431-0.567-0.060-1.138-0.077-1.706-0.056h-4.812c0.032-0.181 0.053-0.366 0.065-0.551 0.012-0.086 0.041-0.167 0.087-0.236 0.053-0.081 0.134-0.13 0.219-0.13 0.203-0.026 0.409-0.035 0.613-0.025h4.303c0.491 0.014 0.98-0.012 1.467-0.083 0.24-0.025 0.476-0.095 0.7-0.206 0.328-0.218 0.564-0.589 0.657-1.024 0.173-0.783 0.292-1.582 0.359-2.388h-8.12c-0.547-0.018-1.093-0.002-1.64 0.051-0.312 0.014-0.614 0.132-0.875 0.34-0.262 0.281-0.439 0.66-0.506 1.075-0.137 0.737-0.24 1.483-0.309 2.233l-0.112 0.941c-0.129 1.050-0.219 1.735-0.262 2.074v0.313c-0.018 0.32 0.060 0.637 0.219 0.896 0.256 0.225 0.561 0.354 0.879 0.366 0.265 0.026 0.703 0.056 1.29 0.056h5.362c-0.013 0.167-0.035 0.332-0.065 0.494-0.002 0.116-0.032 0.227-0.088 0.32z"></path>
<path d="M25.533 16.873c-0.013 0.166-0.035 0.331-0.064 0.494-0.016 0.122-0.061 0.236-0.131 0.326-0.052 0.031-0.102 0.067-0.15 0.106-0.065-0.002-0.131 0.007-0.195 0.025h-0.454v0.014h-3.878l0.54-4.756c0.029-0.182 0.065-0.362 0.11-0.537 0.019-0.106 0.055-0.207 0.108-0.295 0.084-0.090 0.194-0.139 0.305-0.133 0.157-0.027 0.317-0.036 0.476-0.025h3.878l-0.545 4.782zM21.679 8.302c-0.577-0.014-1.156 0.013-1.732 0.079-0.414-0.004-0.811 0.2-1.104 0.564-0.189 0.369-0.316 0.78-0.374 1.21-0.042 0.321-0.106 0.938-0.217 1.907l-0.108 0.992-0.955 8.544-0.387 3.793c-0.012 0.15-0.034 0.297-0.067 0.439-0.023 0.13-0.074 0.25-0.148 0.348-0.073 0.14-0.161 0.268-0.263 0.378-0.084 0.097-0.259 0.268-0.518 0.537h1.022c0.26-0.002 0.519-0.018 0.778-0.052 0.294-0.027 0.586-0.090 0.87-0.189 0.215-0.087 0.419-0.213 0.603-0.375 0.231-0.22 0.417-0.506 0.542-0.832 0.095-0.27 0.16-0.555 0.195-0.846l0.433-3.184h5.043c0.55 0.014 1.099-0.013 1.646-0.079 0.311-0.036 0.606-0.189 0.843-0.439 0.253-0.331 0.412-0.755 0.455-1.207 0.064-0.375 0.153-1.048 0.259-2.069 0.368-3.175 0.586-5.082 0.649-5.725 0.1-0.603 0.166-1.214 0.195-1.828 0.016-0.171 0.023-0.344 0.022-0.515 0.016-0.267-0.020-0.535-0.108-0.78-0.148-0.375-0.542-0.564-1.213-0.616-0.496-0.054-0.996-0.072-1.493-0.052l-4.87-0.002z"></path>
</svg>
