<!-- Generated by IcoMoon.io -->
<svg version="1.1" xmlns="http://www.w3.org/2000/svg" width="33" height="32" viewBox="0 0 33 32">
<title>spinberry</title>
<path d="M24.31 12.019c2.082 0 4.090-1.157 5.095-2.94l0.428-0.74-0.818-0.228c-2.752-0.759-5.782 0.417-6.898 2.675l-0.335 0.683 0.707 0.247c0.576 0.19 1.19 0.304 1.822 0.304zM27.694 9.211c-1.004 1.062-2.51 1.612-3.923 1.442 0.892-0.967 2.417-1.537 3.923-1.442z"></path>
<path d="M15.982 9.513l0.651 0.379 0.279-0.74c0.855-2.276-0.223-5.16-2.436-6.564l-0.725-0.455-0.242 0.835c-0.707 2.466 0.372 5.33 2.473 6.545zM14.587 4.391c0.892 0.929 1.394 2.219 1.301 3.396-0.837-0.854-1.339-2.144-1.301-3.396z"></path>
<path d="M25.055 20.439c0.818-1.499 0.986-3.092 0.465-4.572-0.576-1.65-1.989-3.054-3.886-3.908-0.112-0.607-0.223-1.176-0.316-1.745-0.26-1.48-0.502-2.732-0.837-4.003-0.149-0.531-0.725-0.778-1.264-1.024-0.186-0.095-0.372-0.171-0.521-0.266-0.167-0.076-0.465-0.266-0.614-0.171s-0.112 0.455-0.093 0.626c0.019 0.19 0.019 0.379 0.019 0.569 0 0.493 0 1.024 0.242 1.461 0.93 1.707 0.632 3.452-0.837 4.78-1.097 1.024-2.175 2.352-3.291 4.060-0.948 1.461-2.008 2.011-3.421 1.783-1.469-0.209-2.584-1.366-2.789-2.864-0.186-1.423 0.651-2.921 1.952-3.49 1.376-0.607 2.584-0.323 3.905 0.892 0.316 0.304 0.762 0.322 1.171 0.341 0.167 0.019 0.297 0.019 0.428 0.038 0.149 0.038 0.409 0.095 0.521-0.019 0.112-0.095 0.037-0.36 0.019-0.512-0.019-0.114-0.019-0.247-0.037-0.398-0.037-0.398-0.074-0.873-0.335-1.214-1.227-1.669-3.867-2.466-6.024-1.802-2.863 0.873-4.611 3.794-4.090 6.772 0.576 3.244 3.217 5.103 6.861 4.837 1.171-0.076 2.213 0.247 2.919 0.892 0.614 0.569 0.967 1.366 1.004 2.295 0.037 0.91-0.297 1.802-0.93 2.466-0.595 0.645-1.394 1.005-2.213 1.005-2.027 0.019-3.365-1.461-3.421-3.794-0.019-0.455-0.242-0.854-0.446-1.214-0.074-0.133-0.167-0.285-0.223-0.417-0.074-0.152-0.205-0.455-0.372-0.474s-0.335 0.266-0.428 0.398c-0.093 0.133-0.205 0.266-0.316 0.398-0.279 0.36-0.614 0.759-0.669 1.252-0.298 2.466 1.097 4.913 3.384 5.938 0.762 0.341 1.562 0.512 2.361 0.512 1.71 0 3.384-0.759 4.5-2.144 2.808-3.433 0.595-7.019-0.353-8.555-0.428-0.702-0.539-2.068 0.074-3.206 0.409-0.759 1.283-1.65 3.087-1.65 1.302 0 2.659 1.195 2.956 2.561 0.39 1.726-0.446 3.206-2.305 4.116-0.39 0.19-0.651 0.569-0.892 0.911-0.093 0.133-0.186 0.265-0.279 0.379-0.112 0.133-0.316 0.36-0.26 0.512 0.056 0.171 0.353 0.228 0.521 0.266 0.13 0.038 0.297 0.095 0.483 0.152 0.521 0.171 1.060 0.341 1.469 0.057 0.13-0.095 0.26-0.171 0.39-0.266 1.004-0.683 2.138-1.48 2.733-2.561z"></path>
</svg>
