<!-- Generated by IcoMoon.io -->
<svg version="1.1" xmlns="http://www.w3.org/2000/svg" width="33" height="32" viewBox="0 0 33 32">
<title>spinomenal</title>
<path d="M6.314 4.267h11.16c0.631-0.003 1.26 0.079 1.867 0.244l0.010 0.003c4.244 1.185 7.283 3.748 9.229 7.549 0.101 0.196 0.319 0.452 0.094 0.641s-0.443-0.069-0.643-0.18c-1.238-0.686-2.54-1.194-3.977-1.305-3.623-0.278-7.252-0.059-10.877-0.125-0.435-0.008-0.585 0.197-0.613 0.604-0.047 0.693 0.379 0.751 0.927 0.751 3.701-0.009 7.403-0.010 11.104-0.004 0.462-0.009 0.924 0.024 1.38 0.1 1.651 0.287 2.844 1.678 2.82 3.288 0.003 3.642 0.003 7.285 0 10.928 0 0.966-0.008 0.972-1.029 0.973-3.312 0.002-6.624 0.002-9.936 0-5.030-0.002-10.333-3.441-12.232-7.931-0.079-0.188-0.28-0.414-0.098-0.584 0.23-0.215 0.446 0.044 0.638 0.154 1.426 0.823 2.949 1.362 4.622 1.376 3.384 0.028 6.77 0.019 10.154 0.026 0.444 0.001 0.75-0.105 0.758-0.626 0.008-0.559-0.322-0.652-0.794-0.67-3.067-0.115-6.136-0.035-9.203-0.047-1.046-0.004-2.091 0.094-3.138-0.015-1.721-0.178-3.181-1.575-3.194-3.236-0.029-3.662 0-7.325 0.010-10.988 0.001-0.51 0.43-0.923 0.961-0.924z"></path>
</svg>
