<!-- Generated by IcoMoon.io -->
<svg version="1.1" xmlns="http://www.w3.org/2000/svg" width="33" height="32" viewBox="0 0 33 32">
<title>stakelogic</title>
<path d="M8.508 1.067h17.067c1.767 0 3.2 1.433 3.2 3.2v23.467c0 1.767-1.433 3.2-3.2 3.2h-17.067c-1.767 0-3.2-1.433-3.2-3.2v-23.467c0-1.767 1.433-3.2 3.2-3.2zM21.009 16.117l-3.463-2.877c-1.213-0.99-1.451-1.775-1.451-3.288-0.007-0.188 0.027-0.376 0.1-0.55s0.184-0.33 0.324-0.459c0.14-0.128 0.307-0.225 0.489-0.284s0.375-0.079 0.566-0.058c0.191-0.022 0.384-0.003 0.567 0.056s0.35 0.155 0.491 0.284c0.141 0.128 0.252 0.285 0.326 0.459s0.108 0.362 0.1 0.551v2.064c-0.016 0.161 0.004 0.323 0.059 0.475s0.145 0.29 0.261 0.404c0.117 0.114 0.258 0.201 0.413 0.255s0.321 0.073 0.484 0.056h1.946c0.164 0.017 0.329-0.002 0.484-0.056s0.296-0.141 0.412-0.255c0.116-0.114 0.205-0.252 0.26-0.405s0.074-0.314 0.057-0.475v-2.064c0-3.166-2.041-4.619-5.861-4.619s-5.861 1.452-5.861 4.619c0 2.704 0.295 4.156 2.426 5.931l3.487 2.891c1.194 0.976 1.427 1.761 1.427 3.269 0.010 0.19-0.022 0.379-0.094 0.555s-0.182 0.335-0.323 0.465c-0.141 0.13-0.309 0.229-0.492 0.289s-0.378 0.080-0.57 0.059c-0.192 0.021-0.387 0.001-0.57-0.059s-0.351-0.159-0.492-0.289c-0.141-0.13-0.251-0.289-0.323-0.465s-0.104-0.366-0.094-0.555v-2.064c0.016-0.16-0.004-0.322-0.059-0.474s-0.144-0.29-0.26-0.404c-0.116-0.114-0.256-0.201-0.411-0.255s-0.32-0.074-0.483-0.058h-1.955c-0.163-0.016-0.328 0.004-0.483 0.058s-0.295 0.141-0.411 0.255c-0.116 0.114-0.205 0.252-0.26 0.404s-0.075 0.314-0.059 0.474v2.064c0 3.171 2.041 4.623 5.861 4.623s5.861-1.452 5.861-4.623c0-2.699-0.295-4.156-2.426-5.926z"></path>
</svg>
