<!-- Generated by IcoMoon.io -->
<svg version="1.1" xmlns="http://www.w3.org/2000/svg" width="33" height="32" viewBox="0 0 33 32">
<title>stormcraft</title>
<path d="M13.628 5.442c0 1.355 0.011 2.645-0.011 3.924 0 0.271 0.044 0.358 0.351 0.358 2.039-0.011 4.078-0.022 6.117 0 0.329 0 0.373-0.108 0.362-0.39-0.011-1.29-0.011-2.591-0.011-3.902 0.395 0.217 0.756 0.434 1.129 0.629 0.175 0.087 0.274 0.184 0.274 0.39 0 2.894 0 5.778 0 8.715-0.493-0.195-0.91-0.466-1.326-0.726-0.132-0.076-0.066-0.228-0.066-0.336 0-1.138-0.011-2.265 0-3.404 0-0.238-0.033-0.347-0.318-0.347-2.072 0.011-4.133 0.011-6.204 0-0.263 0-0.307 0.087-0.307 0.314 0.011 1.171 0 2.352 0.011 3.523 0 0.195-0.055 0.293-0.241 0.39-0.351 0.163-0.68 0.379-1.074 0.607 0-0.184 0-0.293 0-0.412 0-2.753 0-5.518-0.011-8.271 0-0.238 0.055-0.369 0.296-0.477 0.34-0.13 0.647-0.347 1.030-0.585z"></path>
<path d="M15.689 4.293c0 1.192 0 2.352 0 3.512 0.647-0.195 0.658-0.217 0.658-0.867 0-0.921 0-1.843 0-2.753 0-0.282 0.384-0.618 0.724-0.629 0.296-0.011 0.68 0.336 0.68 0.629 0 0.867 0.033 1.734-0.011 2.591-0.033 0.542 0.11 0.889 0.669 1.030 0-1.16 0-2.32 0-3.501 0.439 0.152 0.8 0.423 1.195 0.618 0.175 0.087 0.219 0.217 0.208 0.412-0.011 1.106-0.011 2.211 0 3.328 0 0.26-0.066 0.336-0.34 0.336-1.59-0.011-3.179-0.011-4.768 0-0.263 0-0.34-0.065-0.34-0.325 0.011-1.117 0.011-2.244 0-3.36 0-0.217 0.077-0.336 0.263-0.434 0.362-0.184 0.691-0.379 1.063-0.585z"></path>
<path d="M30.564 11.014c-0.263 0.423-0.504 0.791-0.712 1.182-0.088 0.163-0.186 0.195-0.351 0.195-1.809 0-3.617 0-5.426 0-0.197 0-0.252-0.043-0.252-0.249 0.011-0.976 0.011-1.94 0-2.916 0-0.239 0.11-0.249 0.296-0.249 2.203 0 4.407 0 6.61 0 0.318 0 0.636 0.575 0.504 0.867-0.164 0.369-0.373 0.542-0.833 0.531-1.59-0.033-3.179-0.011-4.768-0.022-0.274 0-0.34 0.065-0.34 0.336s0.077 0.336 0.34 0.325c1.633-0.011 3.256 0 4.933 0z"></path>
<path d="M3.598 11.014c1.666 0 3.267 0 4.867 0 0.241 0 0.428 0.033 0.417-0.336 0-0.39-0.219-0.314-0.438-0.314-1.633 0-3.256-0.033-4.889 0.022-0.471 0.011-0.482-0.336-0.68-0.553-0.153-0.173 0.055-0.303 0.11-0.466 0.132-0.379 0.395-0.39 0.724-0.39 2.072 0.011 4.133 0.011 6.204 0 0.274 0 0.373 0.054 0.362 0.347-0.022 0.921-0.011 1.832 0 2.753 0 0.239-0.033 0.325-0.307 0.314-1.776-0.011-3.563-0.011-5.338 0-0.164 0-0.263-0.033-0.351-0.184-0.208-0.379-0.438-0.77-0.68-1.192z"></path>
<path d="M22.847 25.127c-0.066 0.108-0.154 0.184-0.263 0.249-1.743 0.986-3.475 1.984-5.207 2.981-0.186 0.108-0.362 0.119-0.559 0.011-1.315-0.748-2.631-1.496-3.946-2.255-0.46-0.26-0.91-0.531-1.37-0.78-0.164-0.087-0.307-0.13-0.099-0.347 0.121-0.13 0.175-0.314 0.274-0.477 0.351-0.629 0.373-0.607 0.987-0.249 1.359 0.802 2.741 1.572 4.111 2.363 0.252 0.141 0.449 0.108 0.702-0.043 0.987-0.585 1.984-1.149 2.982-1.713 0.482-0.271 0.975-0.52 1.447-0.813 0.197-0.13 0.263-0.076 0.362 0.087 0.164 0.293 0.362 0.575 0.537 0.867 0 0.054 0.022 0.087 0.044 0.119z"></path>
<path d="M19.799 20.412c-0.417-0.249-0.767-0.488-1.162-0.683-0.219-0.108-0.241-0.238-0.241-0.444 0.011-1.16 0-2.32 0.011-3.49 0-0.271-0.044-0.434-0.329-0.531-0.23-0.087-0.471-0.206-0.647-0.369-0.307-0.282-0.57-0.098-0.833 0.043-0.219 0.119-0.417 0.271-0.647 0.379-0.208 0.098-0.285 0.228-0.274 0.466 0.011 1.171 0 2.352 0.011 3.523 0 0.228-0.033 0.369-0.285 0.477-0.34 0.152-0.658 0.369-1.041 0.596 0-0.304 0-0.52 0-0.748 0-1.496 0.011-3.003-0.011-4.499 0-0.26 0.088-0.412 0.329-0.531 0.46-0.228 0.91-0.488 1.337-0.759 0.175-0.108 0.296-0.119 0.46 0.011 0.329 0.249 0.68 0.39 1.041 0.043 0.23-0.217 0.45-0.13 0.68 0.011 0.46 0.282 0.932 0.553 1.403 0.802 0.175 0.098 0.164 0.217 0.164 0.358 0.033 1.789 0.033 3.545 0.033 5.344z"></path>
<path d="M17.739 20.087c0 1.257 0 2.515 0 3.772 0 0.477-0.504 0.759-0.932 0.564-0.34-0.163-0.471-0.369-0.471-0.759 0.022-2.472 0.022-4.943 0-7.415 0-0.293 0.055-0.412 0.373-0.369 0.329 0.043 0.778-0.141 0.976 0.076 0.164 0.184 0.055 0.618 0.055 0.932 0.011 1.062 0 2.135 0 3.198z"></path>
<path d="M20.49 15.263c0.45 0.163 0.833 0.477 1.261 0.683 0.164 0.087 0.099 0.206 0.099 0.304 0.011 1.756 0 3.512 0.011 5.257 0 0.271-0.11 0.412-0.318 0.52-0.34 0.195-0.691 0.379-1.063 0.575 0.011-2.45 0.011-4.889 0.011-7.339z"></path>
<path d="M13.628 15.252c0 2.439 0 4.867 0 7.339-0.417-0.228-0.822-0.455-1.217-0.683-0.121-0.065-0.088-0.184-0.088-0.293 0-1.81 0-3.61 0-5.42 0-0.184 0.055-0.282 0.23-0.358 0.362-0.173 0.702-0.379 1.074-0.585z"></path>
<path d="M30.542 8.336c-2.159 0-4.297 0-6.435 0-0.23 0-0.307-0.065-0.296-0.293 0.022-0.347-0.12-0.802 0.055-1.019 0.186-0.228 0.669-0.065 1.019-0.076 1.491-0.011 2.982 0 4.472-0.011 0.263 0 0.428 0.054 0.548 0.293 0.197 0.369 0.417 0.715 0.636 1.106z"></path>
<path d="M3.587 8.336c0.263-0.455 0.515-0.856 0.734-1.268 0.077-0.141 0.164-0.108 0.263-0.108 1.809 0 3.617 0 5.426-0.011 0.186 0 0.263 0.043 0.252 0.238-0.022 0.358 0.121 0.835-0.055 1.062-0.186 0.238-0.691 0.076-1.052 0.076-1.831 0.011-3.661 0.011-5.569 0.011z"></path>
<path d="M29.391 13.041c-0.186 0.282-0.384 0.477-0.449 0.705-0.186 0.607-0.592 0.715-1.184 0.694-1.206-0.043-2.412-0.022-3.607-0.011-0.274 0-0.351-0.076-0.329-0.336 0.022-0.336-0.11-0.78 0.055-0.976 0.197-0.228 0.669-0.065 1.019-0.065 1.337-0.011 2.686 0 4.023 0 0.132-0.011 0.263-0.011 0.471-0.011z"></path>
<path d="M4.782 13.041c0.844 0 1.622 0 2.39 0 0.921 0 1.831 0.011 2.751-0.011 0.252 0 0.373 0.043 0.34 0.325-0.044 0.347 0.153 0.802-0.077 1.008-0.186 0.173-0.647 0.054-0.987 0.054-1.085 0-2.159 0-3.245 0-0.252 0-0.428-0.022-0.548-0.282-0.164-0.358-0.384-0.694-0.625-1.095z"></path>
<path d="M22.54 6.645c0.581 0.152 0.658 0.531 0.647 1.030-0.033 2.027-0.044 4.054 0.011 6.070 0.022 0.618-0.252 0.986-0.658 1.409 0-2.862 0-5.68 0-8.509z"></path>
<path d="M13.091 23.089c1.052 0.596 2.094 1.192 3.135 1.789 0.23 0.13 0.45 0.26 0.68 0.401 0.131 0.087 0.241 0.022 0.351-0.043 1.019-0.575 2.039-1.149 3.058-1.724 0.23-0.13 0.45-0.26 0.68-0.39 0.099 0.618 0.099 0.618-0.614 1.019-1.052 0.596-2.116 1.182-3.157 1.789-0.153 0.087-0.23 0.033-0.318-0.022-0.943-0.531-1.875-1.073-2.806-1.604-0.197-0.108-0.373-0.249-0.581-0.325-0.428-0.141-0.537-0.434-0.428-0.889z"></path>
<path d="M11.567 15.068c-0.482-0.369-0.68-0.78-0.669-1.355 0.033-2.049 0.011-4.108 0.011-6.157 0-0.629 0.011-0.65 0.647-0.867 0.011 2.764 0.011 5.55 0.011 8.379z"></path>
<path d="M18.429 20.423c0.439 0.238 0.866 0.488 1.304 0.726 0.121 0.065 0.066 0.163 0.066 0.249 0.011 0.39-0.033 0.78 0.011 1.171 0.044 0.434-0.197 0.607-0.537 0.759-0.285 0.13-0.548 0.304-0.844 0.455 0-1.106 0-2.211 0-3.36z"></path>
<path d="M15.678 20.433c0 1.116 0 2.2 0 3.382-0.417-0.423-1.14-0.39-1.283-0.997-0.11-0.499-0.164-1.106 0.022-1.561 0.175-0.434 0.822-0.531 1.261-0.824z"></path>
<path d="M17.739 12.26c0 0.119-0.022 0.249 0 0.358 0.121 0.509-0.318 0.596-0.625 0.705-0.296 0.108-0.493-0.249-0.767-0.336-0.022-0.011-0.011-0.13-0.011-0.195 0-0.26 0.044-0.52-0.011-0.77-0.11-0.553 0.241-0.77 0.647-0.965 0.186-0.087 0.756 0.303 0.767 0.542s0 0.455 0 0.661z"></path>
<path d="M19.799 11.469c0 0.531 0 0.997 0 1.463 0 0.314-0.406 0.694-0.713 0.672-0.34-0.022-0.647-0.379-0.691-0.705-0.055-0.455 0.077-0.78 0.515-0.965 0.285-0.13 0.548-0.293 0.888-0.466z"></path>
<path d="M14.373 11.523c0.428 0.141 0.778 0.412 1.162 0.607 0.263 0.13 0.121 0.412 0.153 0.618 0.055 0.369-0.044 0.607-0.428 0.77-0.351 0.141-0.888-0.108-0.888-0.488 0-0.499 0-0.997 0-1.507z"></path>
</svg>
