<!-- Generated by IcoMoon.io -->
<svg version="1.1" xmlns="http://www.w3.org/2000/svg" width="33" height="32" viewBox="0 0 33 32">
<title>switchstudios</title>
<path d="M17.084 23.676c3.926 0 7.165-2.939 7.638-6.737 0.066-0.527 0.49-0.96 1.022-0.96s0.967 0.432 0.915 0.961c-0.482 4.863-4.585 8.661-9.574 8.661-5.314 0-9.622-4.308-9.622-9.622 0-4.99 3.798-9.092 8.661-9.574 0.529-0.052 0.961 0.383 0.961 0.915s-0.433 0.956-0.96 1.021c-3.798 0.473-6.737 3.712-6.737 7.638 0 4.251 3.446 7.697 7.697 7.697z"></path>
<path d="M22.396 13.867c1.178 0 2.133-1.194 2.133-2.667s-0.955-2.667-2.133-2.667c-1.178 0-2.133 1.194-2.133 2.667s0.955 2.667 2.133 2.667z"></path>
</svg>
