<!-- Generated by IcoMoon.io -->
<svg version="1.1" xmlns="http://www.w3.org/2000/svg" width="32" height="32" viewBox="0 0 32 32">
<title>threeoaks</title>
<path d="M6.946 1.066h18.109c0.887 0 1.612 0.74 1.612 1.645v26.577c0 0.905-0.725 1.645-1.612 1.645h-18.109c-0.887 0-1.612-0.74-1.612-1.645v-26.577c0-0.905 0.725-1.645 1.612-1.645zM17.45 21.51c2.293-1.332 3.343-2.869 3.474-5.412-0.931 3.111-2.293 4.616-3.474 5.412zM9.62 17.775c0.325 4.462 5.049 4.845 6.386 7.363 1.337-2.524 6.061-2.907 6.386-7.363l0.15-3.289c-3.231-1.715-9.836-1.715-13.066 0l0.144 3.289zM15.15 10.080c-1.244 0.057-2.493 0.236-3.737 0.548-1.393 0.351-2.606 1.198-2.606 2.658 0 0.472 0.125 0.918 0.337 1.307l-0.012-0.306 0.188-0.096c0.169-0.089 0.35-0.166 0.525-0.242 0.45-0.191 0.919-0.351 1.387-0.485 2.749-0.79 6.799-0.79 9.548 0 0.469 0.134 0.937 0.3 1.387 0.485 0.175 0.070 0.356 0.153 0.525 0.242l0.188 0.096-0.013 0.306c0.213-0.389 0.338-0.835 0.338-1.307 0-1.46-1.212-2.32-2.606-2.658-1.325-0.319-2.649-0.51-3.974-0.555 0.275-0.357 0.7-0.587 1.125-0.81 0.937-0.504 1.85-0.995 1.962-2.403-1.737 0.223-0.862 0.14-2.575 1.218-0.825 0.446-1.668 0.899-1.987 2.002z"></path>
</svg>
