<!-- Generated by IcoMoon.io -->
<svg version="1.1" xmlns="http://www.w3.org/2000/svg" width="33" height="32" viewBox="0 0 33 32">
<title>tomhorn</title>
<path d="M9.474 23.517c-4.151-4.18-4.128-10.933 0.051-15.085 2.081-2.066 4.799-3.098 7.517-3.098 2.742-0 5.483 1.051 7.568 3.15 4.151 4.18 4.129 10.933-0.050 15.084s-10.934 4.129-15.086-0.051c-0.775-0.78-0.77-2.042 0.010-2.817 0.049-0.049 0.099-0.094 0.152-0.136 0.087-0.070 0.179-0.13 0.274-0.184 0.008-0.004 0.015-0.009 0.023-0.014 0.009-0.005 0.018-0.011 0.027-0.016-0.171 0.090-0.331 0.206-0.476 0.35-0.78 0.775-0.786 2.037-0.010 2.817zM12.239 20.65c0.014 0.013 0.028 0.027 0.042 0.040 0.002 0.002 0.004 0.004 0.006 0.006-0.016-0.016-0.032-0.031-0.048-0.046zM12.288 20.697c0.001 0.001 0.002 0.001 0.002 0.002 0.004 0.003 0.007 0.006 0.011 0.010l0.001 0.001c2.601 2.618 6.831 2.632 9.45 0.031 2.605-2.588 2.633-6.79 0.071-9.411-0.014-0.013-0.027-0.026-0.040-0.039-0-0 0 0 0 0s-0.001-0.001-0.001-0.001c-2.601-2.617-6.831-2.632-9.45-0.031-2.615 2.597-2.633 6.819-0.044 9.438z"></path>
</svg>
