<!-- Generated by IcoMoon.io -->
<svg version="1.1" xmlns="http://www.w3.org/2000/svg" width="33" height="32" viewBox="0 0 33 32">
<title>twobytwo</title>
<path d="M19.994 7.418c-0.045 0.009-0.121-0.018-0.048-0.081 0.197-0.176 0.408-0.34 0.626-0.483 0.203-0.131 0.451-0.209 0.687-0.292 0.696-0.239 1.418-0.361 2.129-0.531 1.086-0.257 2.178-0.474 3.278-0.647 0.439-0.069 0.901-0.066 1.343 0 0.626 0.092 1.131 0.415 1.437 0.985 0.184 0.34 0.318 0.704 0.478 1.053 0.287 0.638 0.523 1.298 0.826 1.93 0.157 0.325 0.363 0.624 0.505 0.955 0.136 0.313 0.26 0.63 0.402 0.943 0.094 0.206 0.145 0.424 0.236 0.627 0.039 0.086 0.015 0.104-0.070 0.128-0.351 0.089-0.517 0.292-0.566 0.65-0.045 0.319-0.076 0.642 0.036 0.952 0.091 0.254 0.239 0.471 0.529 0.543 0.109 0.027 0.118 0.093 0.097 0.179-0.215 0.847-0.448 1.692-0.726 2.521-0.16 0.477-0.342 0.952-0.541 1.414-0.091 0.212-0.287 0.364-0.466 0.519-0.426 0.373-0.959 0.507-1.497 0.615-0.215 0.042-0.42 0.095-0.617 0.191-1.074 0.528-2.147 1.053-3.224 1.575-0.393 0.191-0.65 0.498-0.874 0.856-0.384 0.615-0.814 1.196-1.421 1.623-0.72 0.507-1.518 0.71-2.401 0.576-0.239-0.036-0.478-0.066-0.717-0.107-0.091-0.015-0.151 0.006-0.218 0.066-0.408 0.376-0.814 0.755-1.231 1.125-0.472 0.418-0.992 0.758-1.591 0.985-0.517 0.197-1.037 0.358-1.588 0.376-0.862 0.030-1.712-0.087-2.55-0.295-0.714-0.176-1.425-0.355-2.126-0.573-1.113-0.346-2.229-0.683-3.285-1.184-0.877-0.418-1.663-0.955-2.268-1.718-0.436-0.552-0.711-1.184-0.877-1.862-0.242-0.988-0.333-1.996-0.448-3.001-0.079-0.686-0.091-1.372-0.070-2.059 0.015-0.507 0.112-1.005 0.245-1.501 0.166-0.615 0.457-1.169 0.823-1.68 0.351-0.486 0.741-0.943 1.116-1.408 0.429-0.534 0.853-1.071 1.291-1.596 0.327-0.394 0.674-0.773 1.010-1.161 0.278-0.319 0.547-0.644 0.832-0.958 0.436-0.477 0.938-0.874 1.555-1.101 0.789-0.292 1.594-0.28 2.398-0.042 0.572 0.17 1.086 0.462 1.624 0.707 0.142 0.066 0.287 0.125 0.417 0.203 0.215 0.131 0.42 0.152 0.674 0.098 0.768-0.161 1.555-0.116 2.335-0.113 0.838 0.003 1.663 0 2.489 0zM19.084 21.453c0.423-0.003 0.78-0.069 1.113-0.218 0.363-0.164 0.702-0.367 0.862-0.752 0.16-0.388 0.076-0.624-0.263-0.868-0.436-0.31-0.941-0.301-1.43-0.248-0.269 0.030-0.541 0.14-0.792 0.281-0.275 0.155-0.523 0.337-0.671 0.623-0.172 0.334-0.1 0.659 0.2 0.886 0.308 0.224 0.668 0.284 0.983 0.295zM10.397 21.301c-0.687 0.036-1.316 0.212-1.787 0.749-0.312 0.352-0.266 0.802 0.109 1.080 0.103 0.078 0.218 0.14 0.342 0.182 0.49 0.161 0.98 0.122 1.467-0.021 0.363-0.107 0.69-0.28 0.944-0.561 0.351-0.388 0.357-1.002-0.236-1.259-0.269-0.116-0.547-0.173-0.838-0.17zM4.842 18.976c0 0.179 0.036 0.346 0.118 0.507 0.061 0.116 0.169 0.167 0.284 0.164 0.175-0.003 0.336-0.081 0.466-0.194 0.681-0.585 1.040-1.325 1.080-2.214 0.009-0.221-0.021-0.457-0.251-0.57-0.242-0.122-0.457 0.006-0.632 0.158-0.662 0.567-0.98 1.304-1.065 2.148zM7.579 11.148c0.006 0.122 0.012 0.239 0.054 0.355 0.097 0.265 0.29 0.358 0.563 0.26 0.169-0.063 0.305-0.17 0.429-0.295 0.426-0.43 0.693-0.946 0.838-1.528 0.067-0.271 0.103-0.549 0.021-0.823-0.085-0.286-0.309-0.391-0.587-0.274-0.191 0.081-0.348 0.2-0.487 0.358-0.49 0.558-0.777 1.205-0.832 1.948zM19.873 9.683c0.541-0.009 1.068-0.116 1.558-0.376 0.2-0.107 0.393-0.224 0.484-0.45 0.042-0.104 0.024-0.2-0.054-0.271-0.1-0.092-0.212-0.167-0.351-0.191-0.623-0.107-1.231-0.060-1.818 0.185-0.251 0.104-0.484 0.239-0.671 0.445-0.145 0.161-0.163 0.436 0.103 0.549 0.242 0.101 0.49 0.104 0.75 0.11zM14.151 11.249c-0.257-0.003-0.363 0.128-0.303 0.346 0.039 0.134 0.103 0.257 0.185 0.373 0.411 0.576 0.947 1.008 1.573 1.337 0.203 0.107 0.417 0.2 0.659 0.191 0.163-0.006 0.254-0.113 0.236-0.274-0.012-0.125-0.067-0.239-0.136-0.343-0.433-0.65-1.013-1.134-1.718-1.474-0.163-0.081-0.336-0.146-0.496-0.155zM19.256 10.954c-0.236-0.009-0.324 0.087-0.299 0.292 0.012 0.11 0.058 0.212 0.112 0.304 0.327 0.558 0.795 0.973 1.346 1.307 0.16 0.095 0.327 0.176 0.511 0.218 0.127 0.030 0.254 0.054 0.354-0.054s0.060-0.233 0.012-0.349c-0.033-0.084-0.070-0.167-0.118-0.242-0.339-0.534-0.795-0.943-1.34-1.262-0.191-0.104-0.384-0.194-0.578-0.215zM26.191 19.164c0.366-0.006 0.559-0.057 0.835-0.215 0.36-0.209 0.454-0.591 0.209-0.859-0.23-0.254-0.532-0.361-0.862-0.415-0.136-0.021-0.191 0.036-0.221 0.164-0.097 0.388-0.169 0.782-0.342 1.149-0.045 0.092-0.012 0.155 0.097 0.161 0.094 0.006 0.191 0.009 0.284 0.015zM25.553 17.204c0-0.095 0.006-0.188-0.003-0.283-0.006-0.075-0.030-0.146-0.051-0.218-0.030-0.101-0.097-0.155-0.209-0.155-0.178-0.003-0.263 0.066-0.357 0.278-0.151 0.343-0.242 0.704-0.269 1.074-0.018 0.277-0.015 0.555 0.082 0.823 0.073 0.197 0.278 0.239 0.426 0.087 0.051-0.054 0.088-0.119 0.118-0.188 0.206-0.448 0.242-0.931 0.263-1.417zM25.928 6.365c-0.060 0-0.121 0.003-0.181-0.003-0.436-0.030-0.774 0.158-1.068 0.45-0.054 0.054-0.091 0.107-0.058 0.185 0.076 0.179 0.508 0.456 0.702 0.43 0.511-0.069 0.904-0.337 1.198-0.746 0.118-0.164 0.036-0.298-0.169-0.313-0.142-0.009-0.281-0.003-0.423-0.003zM29.212 13.215c-0.003-0.066-0.003-0.128-0.024-0.191-0.1-0.337-0.269-0.639-0.472-0.925-0.109-0.155-0.209-0.319-0.387-0.409-0.109-0.057-0.236-0.095-0.345-0.024-0.112 0.075-0.064 0.197-0.045 0.301 0.070 0.418 0.293 0.767 0.544 1.095 0.097 0.128 0.206 0.263 0.372 0.319 0.218 0.075 0.387 0.021 0.357-0.167zM22.885 14.218c-0.036-0.167-0.067-0.334-0.063-0.51 0.003-0.078-0.018-0.158-0.039-0.233-0.070-0.221-0.157-0.289-0.327-0.286-0.1 0.003-0.094 0.039-0.058 0.107 0.163 0.307 0.324 0.615 0.487 0.922zM22.934 14.28c0 0.006-0.003 0.012-0.003 0.021 0.003-0.003 0.006-0.006 0.006-0.009 0-0.006-0.003-0.009-0.003-0.012z"></path>
</svg>
