<!-- Generated by IcoMoon.io -->
<svg version="1.1" xmlns="http://www.w3.org/2000/svg" width="33" height="32" viewBox="0 0 33 32">
<title>vibra</title>
<path d="M8.297 3.272c-0.497 0.153-0.859 0.359-1.166 0.662-0.623 0.616-0.756 0.998-0.756 2.174 0 2.53 0.881 6.396 2.65 11.629 0.743 2.198 1.112 3.161 1.756 4.575 1.224 2.689 2.668 4.937 3.97 6.177 1.019 0.972 1.906 1.377 3.009 1.377 1.728 0 2.947-0.968 3.99-3.167 0.904-1.907 1.9-4.983 2.624-8.1l0.167-0.721 0.29-0.043c0.388-0.057 0.999-0.318 1.349-0.576 1.62-1.192 2.682-5.357 2.589-10.145-0.033-1.657-0.084-1.914-0.429-2.139-0.26-0.169-0.667-0.14-0.931 0.066-0.803 0.628-1.817 3.981-3.377 11.162-0.116 0.535-0.236 0.927-0.283 0.927-0.045 0-0.312-0.102-0.593-0.228-0.421-0.187-0.707-0.404-1.613-1.222-2.243-2.025-4.684-4.699-8.426-9.229-1.838-2.226-2.295-2.696-2.915-3.003-0.388-0.192-0.54-0.228-1.035-0.245-0.347-0.012-0.697 0.016-0.87 0.069zM9.692 4.618c0.225 0.116 0.886 0.819 1.768 1.881 3.153 3.793 5.087 5.914 7.194 7.888 1.812 1.697 3.467 2.917 4.419 3.257 0.289 0.103 0.537 0.195 0.552 0.205s-0.092 0.472-0.238 1.026c-1.024 3.908-2.186 6.932-3.402 8.852-0.647 1.022-1.207 1.395-2.095 1.398-0.766 0.002-1.226-0.242-1.887-1.004-1.111-1.28-2.274-3.279-3.336-5.733-1.321-3.053-3.042-8.873-3.718-12.568-0.314-1.719-0.42-2.795-0.388-3.965l0.025-0.932 0.237-0.197c0.258-0.214 0.584-0.255 0.869-0.108zM28.092 5.523c0.132 0.316 0.185 1.788 0.113 3.107-0.176 3.202-0.606 5.264-1.431 6.857-0.359 0.692-0.779 1.11-1.412 1.405-0.698 0.324-0.722 0.32-0.596-0.115 0.056-0.195 0.215-0.93 0.354-1.634 0.61-3.107 1.356-6.252 1.861-7.842 0.245-0.772 0.609-1.675 0.731-1.811 0.109-0.122 0.324-0.103 0.381 0.034z"></path>
</svg>
