<!-- Generated by IcoMoon.io -->
<svg version="1.1" xmlns="http://www.w3.org/2000/svg" width="33" height="32" viewBox="0 0 33 32">
<title>wazdan</title>
<path d="M21.413 10.667h-8.524c-0.324 0-0.588 0.265-0.588 0.59v8.557c0 0.243 0.139 0.452 0.363 0.545 0.075 0.031 0.152 0.046 0.229 0.046 0.151 0 0.298-0.060 0.412-0.174l8.524-8.557c0.171-0.172 0.22-0.419 0.128-0.643s-0.301-0.364-0.543-0.364z"></path>
<path d="M31.114 10.667h-8.524c-0.324 0-0.588 0.265-0.588 0.59v8.557c0 0.243 0.139 0.452 0.363 0.545 0.075 0.031 0.153 0.046 0.229 0.046 0.151 0 0.298-0.060 0.412-0.174l8.523-8.557c0.171-0.172 0.22-0.419 0.128-0.643s-0.301-0.364-0.543-0.364z"></path>
<path d="M10.501 10.667h-8.524c-0.242 0-0.45 0.14-0.543 0.364s-0.044 0.471 0.128 0.643l8.524 8.557c0.114 0.114 0.261 0.174 0.412 0.174 0.076 0 0.154-0.015 0.229-0.046 0.224-0.093 0.363-0.302 0.363-0.545v-8.557c0-0.326-0.264-0.59-0.588-0.59z"></path>
</svg>
