<!-- Generated by IcoMoon.io -->
<svg version="1.1" xmlns="http://www.w3.org/2000/svg" width="33" height="32" viewBox="0 0 33 32">
<title>zillion</title>
<path d="M7.071 6.512l-0.185 1.234c-0.056 0.378-0.031 0.764 0.074 1.132s0.288 0.708 0.535 0.998 0.554 0.523 0.899 0.682c0.345 0.16 0.72 0.242 1.099 0.243h15.839l-18.352 6.124c-0.463 0.155-0.874 0.435-1.188 0.811s-0.519 0.832-0.591 1.317l-0.734 4.932-0.264 1.761c-0.056 0.378-0.031 0.764 0.074 1.132s0.288 0.708 0.535 0.997c0.248 0.29 0.554 0.523 0.899 0.682s0.72 0.242 1.099 0.243h17.46c0.631-0 1.241-0.229 1.72-0.644s0.794-0.989 0.888-1.618l0.185-1.234c0.056-0.378 0.031-0.764-0.075-1.132s-0.288-0.708-0.535-0.997c-0.248-0.29-0.554-0.523-0.899-0.682s-0.72-0.242-1.099-0.243h-14.783l17.244-5.746c0.463-0.155 0.874-0.435 1.188-0.811s0.519-0.832 0.591-1.317l0.734-4.938 0.317-2.128c0.055-0.377 0.028-0.762-0.078-1.128s-0.289-0.705-0.536-0.994c-0.247-0.289-0.553-0.52-0.897-0.679s-0.718-0.242-1.096-0.242h-17.46c-0.629-0-1.237 0.226-1.715 0.638s-0.795 0.982-0.893 1.608z"></path>
</svg>
